<svg version="1.1" viewBox="0.0 0.0 600.0 371.0" fill="none" stroke="none" stroke-linecap="square" stroke-miterlimit="10" width="600" height="371" xmlns:xlink="http://www.w3.org/1999/xlink" xmlns="http://www.w3.org/2000/svg"><path fill="#ffffff" d="M0 0L600.0 0L600.0 371.0L0 371.0L0 0Z" fill-rule="nonzero"/><path stroke="#333333" stroke-width="1.0" stroke-linecap="butt" d="M59.5 252.5L581.5 252.5" fill-rule="nonzero"/><path stroke="#cccccc" stroke-width="1.0" stroke-linecap="butt" d="M59.5 195.5L581.5 195.5" fill-rule="nonzero"/><path stroke="#cccccc" stroke-width="1.0" stroke-linecap="butt" d="M59.5 138.5L581.5 138.5" fill-rule="nonzero"/><path stroke="#cccccc" stroke-width="1.0" stroke-linecap="butt" d="M59.5 80.5L581.5 80.5" fill-rule="nonzero"/><clipPath id="id_0"><path d="M59.55 80.916664L581.45 80.916664L581.45 252.81667L59.55 252.81667L59.55 80.916664Z" clip-rule="nonzero"/></clipPath><path stroke="#ff9900" stroke-width="2.0" stroke-linecap="butt" clip-path="url(#id_0)" d="M142.0 253.0L89.0 253.0L89.0 154.0C89.0 152.89543 89.89543 152.0 91.0 152.0L140.0 152.0C141.10457 152.0 142.0 152.89543 142.0 154.0Z" fill-rule="nonzero"/><path fill="#ff9900" clip-path="url(#id_0)" d="M142.0 253.0L89.0 253.0L89.0 154.0C89.0 152.89543 89.89543 152.0 91.0 152.0L140.0 152.0C141.10457 152.0 142.0 152.89543 142.0 154.0Z" fill-rule="nonzero"/><path stroke="#000000" stroke-width="2.0" stroke-linecap="butt" stroke-opacity="0.0" clip-path="url(#id_0)" d="M224.0 253.0L171.0 253.0L171.0 205.0C171.0 203.89543 171.89543 203.0 173.0 203.0L222.0 203.0C223.10457 203.0 224.0 203.89543 224.0 205.0Z" fill-rule="nonzero"/><path fill="#4285f4" clip-path="url(#id_0)" d="M224.0 253.0L171.0 253.0L171.0 205.0C171.0 203.89543 171.89543 203.0 173.0 203.0L222.0 203.0C223.10457 203.0 224.0 203.89543 224.0 205.0Z" fill-rule="nonzero"/><path stroke="#000000" stroke-width="2.0" stroke-linecap="butt" stroke-opacity="0.0" clip-path="url(#id_0)" d="M306.0 253.0L253.0 253.0L253.0 235.0C253.0 233.89543 253.89543 233.0 255.0 233.0L304.0 233.0C305.10458 233.0 306.0 233.89543 306.0 235.0Z" fill-rule="nonzero"/><path fill="#4285f4" clip-path="url(#id_0)" d="M306.0 253.0L253.0 253.0L253.0 235.0C253.0 233.89543 253.89543 233.0 255.0 233.0L304.0 233.0C305.10458 233.0 306.0 233.89543 306.0 235.0Z" fill-rule="nonzero"/><path stroke="#000000" stroke-width="2.0" stroke-linecap="butt" stroke-opacity="0.0" clip-path="url(#id_0)" d="M389.0 253.0L336.0 253.0L336.0 134.0C336.0 132.89543 336.89542 132.0 338.0 132.0L387.0 132.0C388.10458 132.0 389.0 132.89543 389.0 134.0Z" fill-rule="nonzero"/><path fill="#4285f4" clip-path="url(#id_0)" d="M389.0 253.0L336.0 253.0L336.0 134.0C336.0 132.89543 336.89542 132.0 338.0 132.0L387.0 132.0C388.10458 132.0 389.0 132.89543 389.0 134.0Z" fill-rule="nonzero"/><path stroke="#000000" stroke-width="2.0" stroke-linecap="butt" stroke-opacity="0.0" clip-path="url(#id_0)" d="M471.0 253.0L418.0 253.0L418.0 186.0C418.0 184.89543 418.89542 184.0 420.0 184.0L469.0 184.0C470.10458 184.0 471.0 184.89543 471.0 186.0Z" fill-rule="nonzero"/><path fill="#4285f4" clip-path="url(#id_0)" d="M471.0 253.0L418.0 253.0L418.0 186.0C418.0 184.89543 418.89542 184.0 420.0 184.0L469.0 184.0C470.10458 184.0 471.0 184.89543 471.0 186.0Z" fill-rule="nonzero"/><path stroke="#000000" stroke-width="2.0" stroke-linecap="butt" stroke-opacity="0.0" clip-path="url(#id_0)" d="M553.0 253.0L500.0 253.0L500.0 98.0C500.0 96.89543 500.89542 96.0 502.0 96.0L551.0 96.0C552.10455 96.0 553.0 96.89543 553.0 98.0Z" fill-rule="nonzero"/><path fill="#4285f4" clip-path="url(#id_0)" d="M553.0 253.0L500.0 253.0L500.0 98.0C500.0 96.89543 500.89542 96.0 502.0 96.0L551.0 96.0C552.10455 96.0 553.0 96.89543 553.0 98.0Z" fill-rule="nonzero"/><path fill="#000000" d="M283.375 347.59064L284.40625 347.4344Q284.5 348.0594 284.89062 348.3875Q285.29688 348.71564 286.03125 348.71564Q286.75 348.71564 287.09375 348.4344Q287.45312 348.1375 287.45312 347.73126Q287.45312 347.3719 287.14062 347.16876Q286.92188 347.02814 286.0625 346.8094Q284.90625 346.5125 284.45312 346.3094Q284.01562 346.09064 283.78125 345.71564Q283.54688 345.34064 283.54688 344.8719Q283.54688 344.46564 283.73438 344.10626Q283.92188 343.7469 284.25 343.5125Q284.5 343.34064 284.92188 343.21564Q285.34375 343.09064 285.84375 343.09064Q286.5625 343.09064 287.10938 343.3094Q287.67188 343.5125 287.9375 343.8719Q288.20312 344.23126 288.29688 344.825L287.26562 344.96564Q287.20312 344.4969 286.85938 344.23126Q286.53125 343.95 285.90625 343.95Q285.1875 343.95 284.875 344.2Q284.5625 344.4344 284.5625 344.7625Q284.5625 344.96564 284.6875 345.1219Q284.82812 345.29376 285.09375 345.40314Q285.25 345.46564 286.03125 345.66876Q287.15625 345.98126 287.59375 346.16876Q288.03125 346.35626 288.28125 346.71564Q288.53125 347.075 288.53125 347.6219Q288.53125 348.15314 288.21875 348.6219Q287.92188 349.075 287.34375 349.34064Q286.76562 349.59064 286.03125 349.59064Q284.8125 349.59064 284.17188 349.09064Q283.54688 348.575 283.375 347.59064ZM290.75 351.84064L290.625 350.85626Q290.96875 350.95 291.23438 350.95Q291.57812 350.95 291.78125 350.825Q292.0 350.71564 292.14062 350.5125Q292.23438 350.34064 292.46875 349.71564Q292.48438 349.6375 292.5625 349.46564L290.1875 343.23126L291.32812 343.23126L292.625 346.825Q292.875 347.5125 293.07812 348.27814Q293.26562 347.54376 293.51562 346.85626L294.84375 343.23126L295.89062 343.23126L293.53125 349.5594Q293.14062 350.575 292.9375 350.96564Q292.65625 351.4969 292.28125 351.73126Q291.92188 351.98126 291.42188 351.98126Q291.125 351.98126 290.75 351.84064ZM295.375 347.59064L296.40625 347.4344Q296.5 348.0594 296.89062 348.3875Q297.29688 348.71564 298.03125 348.71564Q298.75 348.71564 299.09375 348.4344Q299.45312 348.1375 299.45312 347.73126Q299.45312 347.3719 299.14062 347.16876Q298.92188 347.02814 298.0625 346.8094Q296.90625 346.5125 296.45312 346.3094Q296.01562 346.09064 295.78125 345.71564Q295.54688 345.34064 295.54688 344.8719Q295.54688 344.46564 295.73438 344.10626Q295.92188 343.7469 296.25 343.5125Q296.5 343.34064 296.92188 343.21564Q297.34375 343.09064 297.84375 343.09064Q298.5625 343.09064 299.10938 343.3094Q299.67188 343.5125 299.9375 343.8719Q300.20312 344.23126 300.29688 344.825L299.26562 344.96564Q299.20312 344.4969 298.85938 344.23126Q298.53125 343.95 297.90625 343.95Q297.1875 343.95 296.875 344.2Q296.5625 344.4344 296.5625 344.7625Q296.5625 344.96564 296.6875 345.1219Q296.82812 345.29376 297.09375 345.40314Q297.25 345.46564 298.03125 345.66876Q299.15625 345.98126 299.59375 346.16876Q300.03125 346.35626 300.28125 346.71564Q300.53125 347.075 300.53125 347.6219Q300.53125 348.15314 300.21875 348.6219Q299.92188 349.075 299.34375 349.34064Q298.76562 349.59064 298.03125 349.59064Q296.8125 349.59064 296.17188 349.09064Q295.54688 348.575 295.375 347.59064ZM305.09375 348.5125L305.25 349.4344Q304.79688 349.52814 304.45312 349.52814Q303.875 349.52814 303.5625 349.35626Q303.25 349.16876 303.10938 348.8719Q302.98438 348.575 302.98438 347.6219L302.98438 344.04376L302.21875 344.04376L302.21875 343.23126L302.98438 343.23126L302.98438 341.6844L304.03125 341.0594L304.03125 343.23126L305.09375 343.23126L305.09375 344.04376L304.03125 344.04376L304.03125 347.6844Q304.03125 348.1375 304.07812 348.2625Q304.14062 348.3875 304.26562 348.46564Q304.39062 348.54376 304.625 348.54376Q304.8125 348.54376 305.09375 348.5125ZM310.04688 347.45L311.14062 347.575Q310.89062 348.52814 310.1875 349.0594Q309.48438 349.59064 308.40625 349.59064Q307.04688 349.59064 306.23438 348.7469Q305.4375 347.90314 305.4375 346.3875Q305.4375 344.825 306.25 343.96564Q307.0625 343.09064 308.34375 343.09064Q309.59375 343.09064 310.375 343.9344Q311.17188 344.77814 311.17188 346.325Q311.17188 346.41876 311.17188 346.60626L306.53125 346.60626Q306.59375 347.6375 307.10938 348.1844Q307.625 348.71564 308.40625 348.71564Q308.98438 348.71564 309.39062 348.41876Q309.8125 348.10626 310.04688 347.45ZM306.59375 345.7469L310.0625 345.7469Q310.0 344.95 309.67188 344.5594Q309.15625 343.95 308.35938 343.95Q307.625 343.95 307.125 344.4344Q306.64062 344.91876 306.59375 345.7469ZM312.79688 349.45L312.79688 343.23126L313.73438 343.23126L313.73438 344.10626Q314.03125 343.6375 314.51562 343.3719Q315.0 343.09064 315.625 343.09064Q316.3125 343.09064 316.75 343.3719Q317.20312 343.65314 317.375 344.16876Q318.125 343.09064 319.29688 343.09064Q320.23438 343.09064 320.71875 343.60626Q321.21875 344.10626 321.21875 345.1844L321.21875 349.45L320.17188 349.45L320.17188 345.52814Q320.17188 344.90314 320.0625 344.6219Q319.96875 344.34064 319.70312 344.16876Q319.4375 343.9969 319.0625 343.9969Q318.40625 343.9969 317.96875 344.4344Q317.54688 344.8719 317.54688 345.84064L317.54688 349.45L316.48438 349.45L316.48438 345.40314Q316.48438 344.7 316.21875 344.35626Q315.96875 343.9969 315.39062 343.9969Q314.9375 343.9969 314.5625 344.23126Q314.1875 344.46564 314.01562 344.91876Q313.84375 345.3719 313.84375 346.21564L313.84375 349.45L312.79688 349.45ZM326.79688 349.45L326.79688 343.23126L327.73438 343.23126L327.73438 344.10626Q328.42188 343.09064 329.71875 343.09064Q330.28125 343.09064 330.75 343.29376Q331.23438 343.4969 331.46875 343.825Q331.70312 344.15314 331.79688 344.59064Q331.84375 344.8875 331.84375 345.6219L331.84375 349.45L330.79688 349.45L330.79688 345.66876Q330.79688 345.0125 330.67188 344.7Q330.54688 344.3875 330.23438 344.2Q329.92188 343.9969 329.5 343.9969Q328.82812 343.9969 328.32812 344.4344Q327.84375 344.85626 327.84375 346.04376L327.84375 349.45L326.79688 349.45ZM337.85938 348.6844Q337.26562 349.1844 336.71875 349.3875Q336.1875 349.59064 335.5625 349.59064Q334.53125 349.59064 333.98438 349.09064Q333.4375 348.59064 333.4375 347.8094Q333.4375 347.35626 333.64062 346.98126Q333.84375 346.59064 334.1875 346.3719Q334.53125 346.1375 334.95312 346.02814Q335.25 345.9344 335.89062 345.85626Q337.15625 345.71564 337.76562 345.4969Q337.76562 345.27814 337.76562 345.23126Q337.76562 344.575 337.46875 344.3094Q337.0625 343.96564 336.26562 343.96564Q335.53125 343.96564 335.17188 344.23126Q334.8125 344.48126 334.64062 345.1375L333.60938 344.9969Q333.75 344.34064 334.07812 343.9344Q334.40625 343.52814 335.01562 343.3094Q335.625 343.09064 336.42188 343.09064Q337.21875 343.09064 337.71875 343.27814Q338.21875 343.46564 338.45312 343.7469Q338.6875 344.02814 338.78125 344.46564Q338.82812 344.73126 338.82812 345.4344L338.82812 346.84064Q338.82812 348.3094 338.89062 348.7Q338.96875 349.09064 339.17188 349.45L338.0625 349.45Q337.90625 349.1219 337.85938 348.6844ZM337.76562 346.325Q337.1875 346.5594 336.04688 346.73126Q335.39062 346.825 335.125 346.95Q334.85938 347.0594 334.70312 347.27814Q334.5625 347.4969 334.5625 347.77814Q334.5625 348.2 334.875 348.48126Q335.20312 348.7625 335.8125 348.7625Q336.42188 348.7625 336.89062 348.4969Q337.375 348.23126 337.59375 347.7625Q337.76562 347.40314 337.76562 346.71564L337.76562 346.325ZM340.79688 349.45L340.79688 343.23126L341.73438 343.23126L341.73438 344.10626Q342.03125 343.6375 342.51562 343.3719Q343.0 343.09064 343.625 343.09064Q344.3125 343.09064 344.75 343.3719Q345.20312 343.65314 345.375 344.16876Q346.125 343.09064 347.29688 343.09064Q348.23438 343.09064 348.71875 343.60626Q349.21875 344.10626 349.21875 345.1844L349.21875 349.45L348.17188 349.45L348.17188 345.52814Q348.17188 344.90314 348.0625 344.6219Q347.96875 344.34064 347.70312 344.16876Q347.4375 343.9969 347.0625 343.9969Q346.40625 343.9969 345.96875 344.4344Q345.54688 344.8719 345.54688 345.84064L345.54688 349.45L344.48438 349.45L344.48438 345.40314Q344.48438 344.7 344.21875 344.35626Q343.96875 343.9969 343.39062 343.9969Q342.9375 343.9969 342.5625 344.23126Q342.1875 344.46564 342.01562 344.91876Q341.84375 345.3719 341.84375 346.21564L341.84375 349.45L340.79688 349.45ZM356.04688 347.45L357.14062 347.575Q356.89062 348.52814 356.1875 349.0594Q355.48438 349.59064 354.40625 349.59064Q353.04688 349.59064 352.23438 348.7469Q351.4375 347.90314 351.4375 346.3875Q351.4375 344.825 352.25 343.96564Q353.0625 343.09064 354.34375 343.09064Q355.59375 343.09064 356.375 343.9344Q357.17188 344.77814 357.17188 346.325Q357.17188 346.41876 357.17188 346.60626L352.53125 346.60626Q352.59375 347.6375 353.10938 348.1844Q353.625 348.71564 354.40625 348.71564Q354.98438 348.71564 355.39062 348.41876Q355.8125 348.10626 356.04688 347.45ZM352.59375 345.7469L356.0625 345.7469Q356.0 344.95 355.67188 344.5594Q355.15625 343.95 354.35938 343.95Q353.625 343.95 353.125 344.4344Q352.64062 344.91876 352.59375 345.7469Z" fill-rule="nonzero"/><path fill="#000000" d="M47.05 252.5823Q47.05 251.05106 47.3625 250.12918Q47.675 249.19168 48.284374 248.69168Q48.909374 248.19168 49.846874 248.19168Q50.534374 248.19168 51.05 248.47293Q51.58125 248.75418 51.925 249.28543Q52.26875 249.80106 52.45625 250.55106Q52.64375 251.30106 52.64375 252.5823Q52.64375 254.09793 52.33125 255.0198Q52.034374 255.94168 51.409374 256.4573Q50.8 256.9573 49.846874 256.9573Q48.6125 256.9573 47.89375 256.06668Q47.05 255.00418 47.05 252.5823ZM48.128124 252.5823Q48.128124 254.69168 48.628124 255.3948Q49.128124 256.09793 49.846874 256.09793Q50.58125 256.09793 51.065624 255.3948Q51.565624 254.69168 51.565624 252.5823Q51.565624 250.4573 51.065624 249.7698Q50.58125 249.06668 49.83125 249.06668Q49.1125 249.06668 48.675 249.67606Q48.128124 250.4573 48.128124 252.5823Z" fill-rule="nonzero"/><path fill="#000000" d="M26.05 197.26666L27.159374 197.17291Q27.284374 197.98541 27.721874 198.39166Q28.175 198.79791 28.815624 198.79791Q29.565624 198.79791 30.096874 198.21979Q30.628124 197.64166 30.628124 196.70416Q30.628124 195.79791 30.1125 195.28229Q29.6125 194.75104 28.784374 194.75104Q28.284374 194.75104 27.8625 194.98541Q27.45625 195.21979 27.221874 195.57916L26.2375 195.45416L27.065624 191.04791L31.346874 191.04791L31.346874 192.04791L27.909374 192.04791L27.45625 194.36041Q28.221874 193.81354 29.065624 193.81354Q30.190624 193.81354 30.95625 194.59479Q31.7375 195.37604 31.7375 196.61041Q31.7375 197.76666 31.065624 198.62604Q30.2375 199.65729 28.815624 199.65729Q27.64375 199.65729 26.89375 199.00104Q26.159374 198.34479 26.05 197.26666ZM33.05 195.28229Q33.05 193.75104 33.3625 192.82916Q33.675 191.89166 34.284374 191.39166Q34.909374 190.89166 35.846874 190.89166Q36.534374 190.89166 37.05 191.17291Q37.58125 191.45416 37.925 191.98541Q38.26875 192.50104 38.45625 193.25104Q38.64375 194.00104 38.64375 195.28229Q38.64375 196.79791 38.33125 197.71979Q38.034374 198.64166 37.409374 199.15729Q36.8 199.65729 35.846874 199.65729Q34.6125 199.65729 33.89375 198.76666Q33.05 197.70416 33.05 195.28229ZM34.128124 195.28229Q34.128124 197.39166 34.628124 198.09479Q35.128124 198.79791 35.846874 198.79791Q36.58125 198.79791 37.065624 198.09479Q37.565624 197.39166 37.565624 195.28229Q37.565624 193.15729 37.065624 192.46979Q36.58125 191.76666 35.83125 191.76666Q35.1125 191.76666 34.675 192.37604Q34.128124 193.15729 34.128124 195.28229ZM40.05 195.28229Q40.05 193.75104 40.3625 192.82916Q40.675 191.89166 41.284374 191.39166Q41.909374 190.89166 42.846874 190.89166Q43.534374 190.89166 44.05 191.17291Q44.58125 191.45416 44.925 191.98541Q45.26875 192.50104 45.45625 193.25104Q45.64375 194.00104 45.64375 195.28229Q45.64375 196.79791 45.33125 197.71979Q45.034374 198.64166 44.409374 199.15729Q43.8 199.65729 42.846874 199.65729Q41.6125 199.65729 40.89375 198.76666Q40.05 197.70416 40.05 195.28229ZM41.128124 195.28229Q41.128124 197.39166 41.628124 198.09479Q42.128124 198.79791 42.846874 198.79791Q43.58125 198.79791 44.065624 198.09479Q44.565624 197.39166 44.565624 195.28229Q44.565624 193.15729 44.065624 192.46979Q43.58125 191.76666 42.83125 191.76666Q42.1125 191.76666 41.675 192.37604Q41.128124 193.15729 41.128124 195.28229ZM47.05 195.28229Q47.05 193.75104 47.3625 192.82916Q47.675 191.89166 48.284374 191.39166Q48.909374 190.89166 49.846874 190.89166Q50.534374 190.89166 51.05 191.17291Q51.58125 191.45416 51.925 191.98541Q52.26875 192.50104 52.45625 193.25104Q52.64375 194.00104 52.64375 195.28229Q52.64375 196.79791 52.33125 197.71979Q52.034374 198.64166 51.409374 199.15729Q50.8 199.65729 49.846874 199.65729Q48.6125 199.65729 47.89375 198.76666Q47.05 197.70416 47.05 195.28229ZM48.128124 195.28229Q48.128124 197.39166 48.628124 198.09479Q49.128124 198.79791 49.846874 198.79791Q50.58125 198.79791 51.065624 198.09479Q51.565624 197.39166 51.565624 195.28229Q51.565624 193.15729 51.065624 192.46979Q50.58125 191.76666 49.83125 191.76666Q49.1125 191.76666 48.675 192.37604Q48.128124 193.15729 48.128124 195.28229Z" fill-rule="nonzero"/><path fill="#000000" d="M23.01875 142.21666L21.971874 142.21666L21.971874 135.49791Q21.58125 135.85728 20.95625 136.23228Q20.346874 136.59166 19.8625 136.76353L19.8625 135.74791Q20.7375 135.32603 21.39375 134.74791Q22.065624 134.15416 22.346874 133.59166L23.01875 133.59166L23.01875 142.21666ZM26.05 137.98228Q26.05 136.45103 26.3625 135.52916Q26.675 134.59166 27.284374 134.09166Q27.909374 133.59166 28.846874 133.59166Q29.534374 133.59166 30.05 133.87291Q30.58125 134.15416 30.925 134.68541Q31.26875 135.20103 31.45625 135.95103Q31.64375 136.70103 31.64375 137.98228Q31.64375 139.49791 31.33125 140.41978Q31.034374 141.34166 30.409374 141.85728Q29.8 142.35728 28.846874 142.35728Q27.6125 142.35728 26.89375 141.46666Q26.05 140.40416 26.05 137.98228ZM27.128124 137.98228Q27.128124 140.09166 27.628124 140.79478Q28.128124 141.49791 28.846874 141.49791Q29.58125 141.49791 30.065624 140.79478Q30.565624 140.09166 30.565624 137.98228Q30.565624 135.85728 30.065624 135.16978Q29.58125 134.46666 28.83125 134.46666Q28.1125 134.46666 27.675 135.07603Q27.128124 135.85728 27.128124 137.98228ZM33.05 137.98228Q33.05 136.45103 33.3625 135.52916Q33.675 134.59166 34.284374 134.09166Q34.909374 133.59166 35.846874 133.59166Q36.534374 133.59166 37.05 133.87291Q37.58125 134.15416 37.925 134.68541Q38.26875 135.20103 38.45625 135.95103Q38.64375 136.70103 38.64375 137.98228Q38.64375 139.49791 38.33125 140.41978Q38.034374 141.34166 37.409374 141.85728Q36.8 142.35728 35.846874 142.35728Q34.6125 142.35728 33.89375 141.46666Q33.05 140.40416 33.05 137.98228ZM34.128124 137.98228Q34.128124 140.09166 34.628124 140.79478Q35.128124 141.49791 35.846874 141.49791Q36.58125 141.49791 37.065624 140.79478Q37.565624 140.09166 37.565624 137.98228Q37.565624 135.85728 37.065624 135.16978Q36.58125 134.46666 35.83125 134.46666Q35.1125 134.46666 34.675 135.07603Q34.128124 135.85728 34.128124 137.98228ZM40.05 137.98228Q40.05 136.45103 40.3625 135.52916Q40.675 134.59166 41.284374 134.09166Q41.909374 133.59166 42.846874 133.59166Q43.534374 133.59166 44.05 133.87291Q44.58125 134.15416 44.925 134.68541Q45.26875 135.20103 45.45625 135.95103Q45.64375 136.70103 45.64375 137.98228Q45.64375 139.49791 45.33125 140.41978Q45.034374 141.34166 44.409374 141.85728Q43.8 142.35728 42.846874 142.35728Q41.6125 142.35728 40.89375 141.46666Q40.05 140.40416 40.05 137.98228ZM41.128124 137.98228Q41.128124 140.09166 41.628124 140.79478Q42.128124 141.49791 42.846874 141.49791Q43.58125 141.49791 44.065624 140.79478Q44.565624 140.09166 44.565624 137.98228Q44.565624 135.85728 44.065624 135.16978Q43.58125 134.46666 42.83125 134.46666Q42.1125 134.46666 41.675 135.07603Q41.128124 135.85728 41.128124 137.98228ZM47.05 137.98228Q47.05 136.45103 47.3625 135.52916Q47.675 134.59166 48.284374 134.09166Q48.909374 133.59166 49.846874 133.59166Q50.534374 133.59166 51.05 133.87291Q51.58125 134.15416 51.925 134.68541Q52.26875 135.20103 52.45625 135.95103Q52.64375 136.70103 52.64375 137.98228Q52.64375 139.49791 52.33125 140.41978Q52.034374 141.34166 51.409374 141.85728Q50.8 142.35728 49.846874 142.35728Q48.6125 142.35728 47.89375 141.46666Q47.05 140.40416 47.05 137.98228ZM48.128124 137.98228Q48.128124 140.09166 48.628124 140.79478Q49.128124 141.49791 49.846874 141.49791Q50.58125 141.49791 51.065624 140.79478Q51.565624 140.09166 51.565624 137.98228Q51.565624 135.85728 51.065624 135.16978Q50.58125 134.46666 49.83125 134.46666Q49.1125 134.46666 48.675 135.07603Q48.128124 135.85728 48.128124 137.98228Z" fill-rule="nonzero"/><path fill="#000000" d="M23.01875 84.916664L21.971874 84.916664L21.971874 78.197914Q21.58125 78.55729 20.95625 78.93229Q20.346874 79.291664 19.8625 79.46354L19.8625 78.447914Q20.7375 78.02604 21.39375 77.447914Q22.065624 76.854164 22.346874 76.291664L23.01875 76.291664L23.01875 84.916664ZM26.05 82.666664L27.159374 82.572914Q27.284374 83.385414 27.721874 83.791664Q28.175 84.197914 28.815624 84.197914Q29.565624 84.197914 30.096874 83.61979Q30.628124 83.041664 30.628124 82.104164Q30.628124 81.197914 30.1125 80.68229Q29.6125 80.15104 28.784374 80.15104Q28.284374 80.15104 27.8625 80.385414Q27.45625 80.61979 27.221874 80.979164L26.2375 80.854164L27.065624 76.447914L31.346874 76.447914L31.346874 77.447914L27.909374 77.447914L27.45625 79.760414Q28.221874 79.21354 29.065624 79.21354Q30.190624 79.21354 30.95625 79.99479Q31.7375 80.77604 31.7375 82.010414Q31.7375 83.166664 31.065624 84.02604Q30.2375 85.05729 28.815624 85.05729Q27.64375 85.05729 26.89375 84.40104Q26.159374 83.74479 26.05 82.666664ZM33.05 80.68229Q33.05 79.15104 33.3625 78.229164Q33.675 77.291664 34.284374 76.791664Q34.909374 76.291664 35.846874 76.291664Q36.534374 76.291664 37.05 76.572914Q37.58125 76.854164 37.925 77.385414Q38.26875 77.90104 38.45625 78.65104Q38.64375 79.40104 38.64375 80.68229Q38.64375 82.197914 38.33125 83.11979Q38.034374 84.041664 37.409374 84.55729Q36.8 85.05729 35.846874 85.05729Q34.6125 85.05729 33.89375 84.166664Q33.05 83.104164 33.05 80.68229ZM34.128124 80.68229Q34.128124 82.791664 34.628124 83.49479Q35.128124 84.197914 35.846874 84.197914Q36.58125 84.197914 37.065624 83.49479Q37.565624 82.791664 37.565624 80.68229Q37.565624 78.55729 37.065624 77.86979Q36.58125 77.166664 35.83125 77.166664Q35.1125 77.166664 34.675 77.77604Q34.128124 78.55729 34.128124 80.68229ZM40.05 80.68229Q40.05 79.15104 40.3625 78.229164Q40.675 77.291664 41.284374 76.791664Q41.909374 76.291664 42.846874 76.291664Q43.534374 76.291664 44.05 76.572914Q44.58125 76.854164 44.925 77.385414Q45.26875 77.90104 45.45625 78.65104Q45.64375 79.40104 45.64375 80.68229Q45.64375 82.197914 45.33125 83.11979Q45.034374 84.041664 44.409374 84.55729Q43.8 85.05729 42.846874 85.05729Q41.6125 85.05729 40.89375 84.166664Q40.05 83.104164 40.05 80.68229ZM41.128124 80.68229Q41.128124 82.791664 41.628124 83.49479Q42.128124 84.197914 42.846874 84.197914Q43.58125 84.197914 44.065624 83.49479Q44.565624 82.791664 44.565624 80.68229Q44.565624 78.55729 44.065624 77.86979Q43.58125 77.166664 42.83125 77.166664Q42.1125 77.166664 41.675 77.77604Q41.128124 78.55729 41.128124 80.68229ZM47.05 80.68229Q47.05 79.15104 47.3625 78.229164Q47.675 77.291664 48.284374 76.791664Q48.909374 76.291664 49.846874 76.291664Q50.534374 76.291664 51.05 76.572914Q51.58125 76.854164 51.925 77.385414Q52.26875 77.90104 52.45625 78.65104Q52.64375 79.40104 52.64375 80.68229Q52.64375 82.197914 52.33125 83.11979Q52.034374 84.041664 51.409374 84.55729Q50.8 85.05729 49.846874 85.05729Q48.6125 85.05729 47.89375 84.166664Q47.05 83.104164 47.05 80.68229ZM48.128124 80.68229Q48.128124 82.791664 48.628124 83.49479Q49.128124 84.197914 49.846874 84.197914Q50.58125 84.197914 51.065624 83.49479Q51.565624 82.791664 51.565624 80.68229Q51.565624 78.55729 51.065624 77.86979Q50.58125 77.166664 49.83125 77.166664Q49.1125 77.166664 48.675 77.77604Q48.128124 78.55729 48.128124 80.68229Z" fill-rule="nonzero"/><path fill="#000000" d="M86.5886 302.81195L82.191284 298.41464L82.86524 297.7407L83.52815 298.4036Q83.31823 297.68542 83.38452 297.33188Q83.45081 296.95624 83.71598 296.69107Q84.09163 296.31543 84.71035 296.16074L85.15229 297.1109Q84.71035 297.2214 84.44518 297.48657Q84.19107 297.7407 84.14687 298.09424Q84.10268 298.4257 84.290504 298.7682Q84.55567 299.29852 85.01971 299.76257L87.32886 302.07172L86.5886 302.81195ZM91.019066 295.55307L91.88085 294.86807Q92.37804 295.7188 92.25651 296.59164Q92.13497 297.46448 91.37262 298.2268Q90.4114 299.18805 89.24025 299.16595Q88.080154 299.13278 87.008446 298.0611Q85.903595 296.95624 85.870445 295.77405Q85.826256 294.5808 86.73223 293.6748Q87.61612 292.79092 88.76517 292.8351Q89.92526 292.8683 91.019066 293.96207Q91.08536 294.02838 91.21794 294.16095L87.93652 297.44238Q88.70992 298.12738 89.46122 298.14948Q90.20148 298.16052 90.75391 297.6081Q91.1627 297.1993 91.240036 296.70212Q91.317375 296.18283 91.019066 295.55307ZM87.37305 296.7905L89.82583 294.33774Q89.218155 293.81845 88.70992 293.77426Q87.91443 293.70795 87.35095 294.27142Q86.83167 294.7907 86.82062 295.4868Q86.82062 296.17178 87.37305 296.7905ZM95.63736 290.53702L96.465996 289.90726Q97.095764 290.7801 97.02947 291.70816Q96.96318 292.63626 96.245026 293.3544Q95.33905 294.26038 94.20105 294.22723Q93.06305 294.172 91.95819 293.06714Q91.25108 292.36005 90.952774 291.5977Q90.654465 290.81323 90.86439 290.073Q91.08536 289.3217 91.65988 288.74716Q92.36699 288.04007 93.184586 287.95166Q94.002174 287.8412 94.808716 288.38257L94.19 289.22226Q93.64862 288.87976 93.16248 288.92395Q92.6653 288.9571 92.28965 289.33273Q91.72617 289.8962 91.78142 290.65857Q91.825615 291.40985 92.69845 292.28268Q93.593376 293.17764 94.33363 293.23288Q95.07388 293.28812 95.615265 292.74673Q96.057205 292.3048 96.0793 291.75238Q96.11245 291.1889 95.63736 290.53702ZM100.27775 292.50366L99.4933 291.896Q99.80266 291.71924 99.990486 291.5314Q100.23355 291.28833 100.288795 291.0563Q100.366135 290.82428 100.32194 290.58124Q100.2667 290.3934 99.990486 289.78574Q99.94629 289.71945 99.88 289.54266L93.79225 286.81366L94.59879 286.00714L98.05699 287.63126Q98.7199 287.9406 99.404915 288.33838Q99.01821 287.6865 98.708855 287.0236L97.08472 283.5212L97.824974 282.78094L100.6313 288.92395Q101.07324 289.9183 101.205826 290.33817Q101.3826 290.9127 101.283165 291.34357Q101.205826 291.77448 100.85227 292.12802Q100.64235 292.33795 100.27775 292.50366ZM103.415535 282.75885L104.24417 282.1291Q104.87394 283.00192 104.80765 283.93Q104.741356 284.8581 104.0232 285.57623Q103.117226 286.4822 101.979225 286.44907Q100.841225 286.39383 99.73637 285.28897Q99.02926 284.58188 98.73095 283.81952Q98.43264 283.03506 98.64256 282.29483Q98.86353 281.54352 99.43806 280.969Q100.145164 280.26187 100.96275 280.1735Q101.78035 280.06302 102.58689 280.6044L101.96818 281.4441Q101.426796 281.10156 100.94066 281.14578Q100.443474 281.17892 100.067825 281.55457Q99.50435 282.11804 99.55959 282.8804Q99.60378 283.63168 100.47662 284.50452Q101.37155 285.39944 102.11181 285.4547Q102.85206 285.50995 103.39343 284.96857Q103.83538 284.5266 103.857475 283.97418Q103.89062 283.4107 103.415535 282.75885ZM106.37654 283.02402L100.29984 276.94733L101.05115 276.196L107.127846 282.2727L106.37654 283.02402ZM103.305046 275.66568L102.44326 274.8039L103.194565 274.0526L104.05635 274.9144L103.305046 275.66568ZM108.51996 280.8806L104.12264 276.48328L104.87394 275.732L109.27126 280.1293L108.51996 280.8806ZM110.64128 278.75928L106.24396 274.36197L106.906876 273.69904L107.52559 274.31778Q107.29357 273.11346 108.2106 272.19644Q108.608345 271.7987 109.083435 271.61087Q109.56957 271.412 109.96732 271.4783Q110.36507 271.5446 110.740715 271.78766Q110.98379 271.96442 111.50307 272.4837L114.20996 275.1906L113.46971 275.93085L110.79596 273.2571Q110.331924 272.79306 110.02256 272.6605Q109.7132 272.5279 109.35965 272.6163Q108.99505 272.69363 108.69674 272.99194Q108.22165 273.46704 108.17745 274.12994Q108.13326 274.77075 108.97295 275.61044L111.38153 278.01904L110.64128 278.75928ZM115.812 274.31778L116.65169 273.69904Q117.027336 273.9863 117.39194 273.93106Q117.878075 273.86478 118.353165 273.38968Q118.872444 272.87042 118.938736 272.38428Q119.016075 271.8871 118.75091 271.42303Q118.58518 271.12473 117.84493 270.4066Q117.93332 271.46725 117.20412 272.19644Q116.298134 273.10242 115.149086 272.94775Q113.98899 272.782 113.08301 271.87604Q112.45324 271.24628 112.14388 270.49496Q111.834526 269.7216 111.97816 269.00342Q112.12179 268.28528 112.70736 267.69968Q113.491806 266.91525 114.62981 267.03677L114.09947 266.50644L114.784485 265.82144L118.58518 269.62213Q119.6127 270.64966 119.83367 271.29047Q120.05464 271.93127 119.84472 272.62735Q119.64584 273.33444 118.98293 273.99734Q118.19849 274.7818 117.358795 274.9144Q116.519104 275.04697 115.812 274.31778ZM113.790115 271.05844Q114.6519 271.92023 115.39215 271.97546Q116.13241 272.03073 116.65169 271.51144Q117.17097 270.99216 117.11573 270.2519Q117.07153 269.5006 116.23184 268.66092Q115.4253 267.85437 114.6519 267.81018Q113.88955 267.75494 113.38132 268.26315Q112.88413 268.76035 112.93938 269.5227Q112.99462 270.26294 113.790115 271.05844ZM118.41946 267.33508L117.66815 266.5838L119.96625 264.2857L120.71755 265.037L118.41946 267.33508Z" fill-rule="nonzero"/><path fill="#000000" d="M157.47491 314.11462L151.39822 308.03793L152.13847 307.29767L154.31503 309.47424Q154.2377 308.35834 155.03319 307.56284Q155.53038 307.06564 156.08281 306.91098Q156.63524 306.7342 157.13242 306.92203Q157.61855 307.0988 158.27042 307.75067L161.05464 310.53488L160.31439 311.27515L157.53017 308.4909Q156.96669 307.92743 156.4695 307.91638Q155.97232 307.90533 155.53038 308.3473Q155.19891 308.67874 155.0774 309.1538Q154.95586 309.6068 155.12158 310.03772Q155.28731 310.4465 155.8066 310.9658L158.21518 313.37436L157.47491 314.11462ZM165.30833 306.2812L164.65648 305.62933Q164.88849 306.89993 164.00461 307.7838Q163.6179 308.1705 163.13177 308.3694Q162.64565 308.54614 162.25894 308.4909Q161.86119 308.42462 161.46344 308.15945Q161.20934 307.9937 160.72319 307.5076L158.00525 304.78964L158.75655 304.03836L161.19827 306.48007Q161.7728 307.0546 162.02692 307.22034Q162.38048 307.44128 162.77823 307.3971Q163.17596 307.3308 163.51848 306.9883Q163.84993 306.65686 163.97147 306.20386Q164.093 305.72876 163.91621 305.30893Q163.75049 304.87802 163.18701 304.31458L160.83368 301.9612L161.57393 301.22098L165.97125 305.6183L165.30833 306.2812ZM167.37442 304.21512L162.9771 299.8178L163.64001 299.15488L164.25873 299.77362Q164.0267 298.5693 164.94374 297.65228Q165.34148 297.25455 165.81657 297.0667Q166.3027 296.86783 166.70045 296.93414Q167.0982 297.00043 167.47385 297.2435Q167.71692 297.42026 168.2362 297.93954L170.9431 300.64645L170.20284 301.3867L167.5291 298.71295Q167.06506 298.2489 166.75569 298.11633Q166.44633 297.98373 166.09279 298.07214Q165.72818 298.14948 165.42987 298.44778Q164.95479 298.92288 164.91058 299.5858Q164.8664 300.2266 165.70609 301.06628L168.11467 303.47488L167.37442 304.21512ZM173.5837 294.77966L174.41234 294.1499Q175.0421 295.02274 174.97581 295.9508Q174.90952 296.8789 174.19136 297.59705Q173.28539 298.50302 172.14738 298.46988Q171.00938 298.41464 169.90453 297.30978Q169.19742 296.6027 168.89911 295.84033Q168.6008 295.05588 168.81073 294.31564Q169.0317 293.56433 169.60622 292.9898Q170.31332 292.28268 171.13092 292.1943Q171.94852 292.08383 172.75505 292.6252L172.13634 293.4649Q171.59496 293.12238 171.10883 293.1666Q170.61163 293.19974 170.236 293.57538Q169.67252 294.13885 169.72775 294.9012Q169.77194 295.6525 170.64479 296.52533Q171.53972 297.42026 172.27997 297.47552Q173.02022 297.53076 173.5616 296.98938Q174.00354 296.54742 174.02563 295.995Q174.05878 295.43152 173.5837 294.77966ZM176.5668 295.02274L170.49011 288.94604L171.23036 288.20578L173.40692 290.38235Q173.32957 289.26645 174.12508 288.47095Q174.62225 287.97375 175.17468 287.8191Q175.72711 287.6423 176.2243 287.83014Q176.71043 288.0069 177.3623 288.65878L180.14653 291.443L179.40628 292.18326L176.62204 289.39902Q176.05856 288.83554 175.56139 288.8245Q175.06421 288.81345 174.62225 289.2554Q174.2908 289.58685 174.16927 290.06195Q174.04773 290.51492 174.21347 290.94583Q174.3792 291.3546 174.89847 291.8739L177.30705 294.28247L176.5668 295.02274ZM183.10754 285.65356L183.96933 284.96857Q184.4665 285.8193 184.34497 286.69214Q184.22345 287.56497 183.46109 288.32733Q182.49988 289.28854 181.32872 289.26645Q180.16862 289.2333 179.09692 288.1616Q177.99207 287.05673 177.95892 285.87454Q177.91472 284.6813 178.82071 283.77533Q179.70459 282.89145 180.85364 282.93564Q182.01373 282.96878 183.10754 284.0626Q183.17383 284.12888 183.30641 284.26144L180.025 287.54288Q180.7984 288.22787 181.5497 288.24997Q182.28995 288.26102 182.84238 287.7086Q183.25117 287.2998 183.3285 286.8026Q183.40585 286.28333 183.10754 285.65356ZM179.46152 286.89102L181.91429 284.43823Q181.30663 283.91895 180.7984 283.87476Q180.0029 283.80847 179.43942 284.37195Q178.92015 284.89124 178.90909 285.58728Q178.90909 286.27228 179.46152 286.89102ZM186.4663 285.12323L182.06898 280.72592L182.73189 280.06302L183.35062 280.68173Q183.11859 279.47745 184.03561 278.5604Q184.43336 278.16266 184.90845 277.97482Q185.39459 277.77597 185.79234 277.84225Q186.19008 277.90854 186.56573 278.1516Q186.8088 278.3284 187.32808 278.84766L190.03497 281.55457L189.29472 282.2948L186.62097 279.62106Q186.15694 279.157 185.84758 279.02444Q185.53822 278.89188 185.18466 278.98026Q184.82007 279.0576 184.52176 279.3559Q184.04666 279.831 184.00247 280.4939Q183.95828 281.1347 184.79797 281.9744L187.20656 284.383L186.4663 285.12323ZM192.37727 277.88644L193.13962 278.42783Q192.8855 278.8145 192.64244 279.0576Q192.23364 279.4664 191.89113 279.56583Q191.53758 279.6542 191.22823 279.54373Q190.92992 279.42218 190.25595 278.74823L187.72583 276.2181L187.18445 276.7595L186.60992 276.18497L187.1513 275.6436L186.0575 274.54977L186.35582 273.36758L187.89156 274.90335L188.64287 274.15204L189.21739 274.72656L188.46608 275.47787L191.04039 278.0522Q191.36081 278.3726 191.48233 278.42783Q191.61491 278.47202 191.75854 278.43887Q191.90218 278.40573 192.06792 278.24Q192.20049 278.10742 192.37727 277.88644ZM191.0625 276.12973Q189.8361 274.90335 189.9245 273.6438Q190.00183 272.59418 190.81943 271.7766Q191.7254 270.8706 192.89655 270.89273Q194.0677 270.89273 195.11731 271.94232Q195.96805 272.79306 196.20006 273.53333Q196.43208 274.27356 196.21112 275.04697Q195.99014 275.79828 195.41562 276.3728Q194.4986 277.28983 193.33849 277.27878Q192.17839 277.24564 191.0625 276.12973ZM191.82484 275.36737Q192.66454 276.20706 193.44897 276.2623Q194.24448 276.3065 194.7969 275.7541Q195.36038 275.1906 195.30513 274.40616Q195.2499 273.6217 194.3881 272.75992Q193.57051 271.94232 192.77502 271.89813Q191.99057 271.8429 191.43814 272.39532Q190.88571 272.94775 190.92992 273.74326Q190.9741 274.51663 191.82484 275.36737ZM196.01224 271.18Q194.78586 269.95358 194.87424 268.69406Q194.95158 267.64444 195.76917 266.82684Q196.67516 265.92087 197.8463 265.94296Q199.01744 265.94296 200.06706 266.99258Q200.9178 267.84332 201.14981 268.58356Q201.38184 269.32382 201.16086 270.09723Q200.9399 270.8485 200.36537 271.42303Q199.44833 272.3401 198.28824 272.32904Q197.12814 272.29587 196.01224 271.18ZM196.7746 270.41763Q197.61427 271.25732 198.39873 271.31256Q199.19421 271.35675 199.74664 270.80432Q200.31012 270.24084 200.25488 269.45642Q200.19963 268.67197 199.33784 267.81018Q198.52026 266.99258 197.72476 266.9484Q196.94032 266.89316 196.3879 267.44556Q195.83546 267.998 195.87965 268.7935Q195.92386 269.5669 196.7746 270.41763ZM204.39809 265.86563L205.16043 266.407Q204.90631 266.7937 204.66325 267.03677Q204.25446 267.44556 203.91194 267.545Q203.5584 267.6334 203.24904 267.52292Q202.95073 267.40137 202.27676 266.72742L199.74664 264.1973L199.20528 264.73868L198.63075 264.16415L199.17212 263.62277L198.07832 262.52896L198.37663 261.34677L199.91237 262.88254L200.66368 262.13123L201.2382 262.70575L200.4869 263.45706L203.06122 266.03137Q203.38162 266.35178 203.50316 266.407Q203.63574 266.4512 203.77937 266.41806Q203.923 266.38492 204.08873 266.21918Q204.22131 266.0866 204.39809 265.86563Z" fill-rule="nonzero"/><path fill="#000000" d="M271.0307 286.12866L268.87625 283.9742Q268.94254 284.39404 268.78784 284.8802Q268.63318 285.3442 268.2796 285.69778Q267.49518 286.4822 266.313 286.42697Q265.11972 286.3607 264.02594 285.26688Q263.363 284.60397 263.07574 283.85266Q262.77744 283.09033 262.94318 282.39426Q263.1089 281.67612 263.62817 281.15683Q264.44577 280.33923 265.59482 280.5602L265.00925 279.97464L265.6832 279.30066L271.77097 285.38843L271.0307 286.12866ZM264.8214 284.5377Q265.67215 285.38843 266.44556 285.4547Q267.23 285.50995 267.7272 285.01276Q268.20227 284.5377 268.14703 283.79742Q268.08075 283.0461 267.26315 282.22852Q266.37927 281.34464 265.57272 281.2673Q264.77722 281.17892 264.28003 281.67612Q263.80496 282.15118 263.8823 282.91354Q263.94858 283.66486 264.8214 284.5377ZM274.36737 279.41116L273.71548 278.75928Q273.9475 280.02988 273.06363 280.91376Q272.67694 281.30045 272.1908 281.49933Q271.70465 281.67612 271.31796 281.62085Q270.92023 281.55457 270.52246 281.2894Q270.26834 281.1237 269.78223 280.63754L267.06427 277.9196L267.81558 277.1683L270.2573 279.61002Q270.83182 280.18454 271.08594 280.35028Q271.4395 280.57126 271.83725 280.52707Q272.235 280.46075 272.5775 280.11826Q272.90897 279.7868 273.0305 279.3338Q273.15204 278.85873 272.97525 278.43887Q272.8095 278.008 272.24603 277.44452L269.8927 275.0912L270.63297 274.35092L275.03027 278.74823L274.36737 279.41116ZM279.3171 274.4614L278.66525 273.80954Q278.89728 275.0801 278.0134 275.96402Q277.62668 276.3507 277.14053 276.5496Q276.65442 276.72635 276.2677 276.6711Q275.86996 276.60483 275.47223 276.33966Q275.2181 276.17392 274.73196 275.6878L272.01404 272.96985L272.76532 272.21854L275.20706 274.66028Q275.7816 275.2348 276.0357 275.40054Q276.38925 275.6215 276.787 275.5773Q277.18475 275.51102 277.52725 275.16852Q277.8587 274.83707 277.98022 274.38406Q278.10178 273.90897 277.925 273.48914Q277.75928 273.05823 277.1958 272.49475L274.84244 270.14142L275.5827 269.40118L279.98 273.7985L279.3171 274.4614ZM280.88602 272.89252L280.201 269.00342L276.61023 268.37366L277.5383 267.4456L279.23978 267.79913Q279.72592 267.9096 280.04633 267.98697Q279.94687 267.53397 279.89163 267.16937L279.59332 265.39056L280.48825 264.4956L281.02963 268.0864L284.99606 268.78244L284.0901 269.68845L281.8141 269.2244L281.20642 269.10287L281.78094 271.9976L280.88602 272.89252ZM282.7974 267.33508L282.0461 266.5838L284.3442 264.2857L285.0955 265.037L282.7974 267.33508Z" fill-rule="nonzero"/><path fill="#000000" d="M345.0327 287.7086L345.86136 287.07883Q346.49112 287.95166 346.42484 288.87973Q346.35855 289.80783 345.64038 290.52597Q344.7344 291.43195 343.5964 291.3988Q342.4584 291.34357 341.35355 290.2387Q340.64645 289.53162 340.34814 288.76926Q340.04984 287.9848 340.25977 287.24457Q340.4807 286.49326 341.05524 285.91873Q341.76236 285.2116 342.57996 285.12323Q343.39755 285.01276 344.20407 285.55414L343.58536 286.39383Q343.04398 286.0513 342.55786 286.09552Q342.06067 286.12866 341.68503 286.5043Q341.12155 287.06778 341.1768 287.83014Q341.22098 288.58142 342.0938 289.45425Q342.98874 290.34918 343.729 290.40445Q344.46924 290.4597 345.01062 289.9183Q345.45258 289.47635 345.47467 288.92392Q345.5078 288.36047 345.0327 287.7086ZM347.99374 287.97375L341.91702 281.89706L342.66833 281.14575L348.74503 287.22247L347.99374 287.97375ZM348.01584 284.30563L347.26453 283.55435L349.56262 281.25626L350.31393 282.00754L348.01584 284.30563ZM353.9268 280.71487L354.68915 281.25626Q354.43503 281.64294 354.19196 281.88602Q353.78317 282.2948 353.44067 282.39426Q353.0871 282.48264 352.77774 282.37216Q352.47943 282.2506 351.80548 281.57666L349.27536 279.04654L348.73398 279.58792L348.15945 279.0134L348.70084 278.47202L347.60703 277.3782L347.90533 276.196L349.4411 277.73175L350.19238 276.98047L350.7669 277.555L350.01562 278.30627L352.58994 280.88058Q352.91034 281.201 353.03186 281.25626Q353.16446 281.30045 353.30807 281.2673Q353.45172 281.23416 353.61743 281.06842Q353.75003 280.93585 353.9268 280.71487ZM355.7719 280.1956L355.07584 280.89163L348.99915 274.81494L349.75046 274.06363L351.91595 276.22916Q351.80548 275.1685 352.5347 274.4393Q352.94348 274.0305 353.46277 273.84268Q353.98206 273.63275 354.51236 273.69904Q355.05374 273.75427 355.60617 274.04153Q356.1586 274.3288 356.6337 274.8039Q357.76065 275.93085 357.8159 277.11304Q357.87112 278.29523 357.09772 279.06863Q356.3133 279.8531 355.21948 279.64316L355.7719 280.1956ZM353.52905 277.97482Q354.3135 278.75928 354.88803 278.89185Q355.8161 279.11282 356.41272 278.5162Q356.89886 278.03006 356.83258 277.25668Q356.7773 276.47223 355.92657 275.6215Q355.0648 274.7597 354.3135 274.69342Q353.5622 274.6271 353.07605 275.11325Q352.58994 275.5994 352.65622 276.3949Q352.7225 277.16827 353.52905 277.97482ZM360.03665 275.93085L355.6393 271.53354L356.30225 270.8706L356.92096 271.48932Q356.68893 270.28503 357.60596 269.368Q358.00372 268.97028 358.4788 268.78244Q358.96494 268.58356 359.36267 268.64987Q359.76044 268.71616 360.13608 268.95923Q360.37915 269.136 360.89844 269.65527L363.60532 272.36218L362.86508 273.10242L360.1913 270.42868Q359.7273 269.96463 359.41794 269.83206Q359.10858 269.69946 358.755 269.78787Q358.3904 269.8652 358.0921 270.1635Q357.617 270.63858 357.5728 271.3015Q357.52863 271.94232 358.36832 272.782L360.7769 275.19058L360.03665 275.93085ZM364.9643 271.0032L358.8876 264.92648L359.6389 264.1752L365.7156 270.2519L364.9643 271.0032ZM364.9864 267.33508L364.23508 266.58377L366.5332 264.28568L367.2845 265.037L364.9864 267.33508Z" fill-rule="nonzero"/><path fill="#000000" d="M425.3545 292.80197L419.60925 289.7526L420.38263 288.9792L423.61987 290.82428L424.82416 291.49826Q424.77997 291.40985 424.1502 290.36026L422.27194 287.08987L423.0343 286.32755L426.24942 288.21683L427.3101 288.83554L426.71347 287.7307L424.92358 284.43823L425.6528 283.709L428.66904 289.48743L427.89566 290.2608L424.559 288.31628L423.64197 287.7528L426.13895 292.01755L425.3545 292.80197ZM428.43704 285.3221Q427.21063 284.09573 427.29904 282.83618Q427.37637 281.7866 428.19397 280.969Q429.09995 280.06302 430.2711 280.0851Q431.44223 280.0851 432.49185 281.1347Q433.3426 281.98544 433.57462 282.7257Q433.8066 283.46597 433.58566 284.23935Q433.3647 284.99066 432.79016 285.5652Q431.87314 286.4822 430.71304 286.47116Q429.55295 286.43802 428.43704 285.3221ZM429.19937 284.55975Q430.03906 285.39944 430.82352 285.4547Q431.61902 285.4989 432.17145 284.94647Q432.73492 284.383 432.67966 283.59854Q432.62442 282.8141 431.76263 281.9523Q430.94504 281.1347 430.14957 281.0905Q429.3651 281.03528 428.81268 281.5877Q428.26025 282.14014 428.30444 282.93564Q428.34863 283.709 429.19937 284.55975ZM433.38678 280.37238Q432.1604 279.146 432.24878 277.88644Q432.3261 276.83682 433.1437 276.01926Q434.04968 275.11325 435.22083 275.13535Q436.39197 275.13535 437.4416 276.18497Q438.29233 277.0357 438.52435 277.77597Q438.75638 278.5162 438.5354 279.2896Q438.31442 280.04092 437.7399 280.61545Q436.82288 281.53247 435.66278 281.52142Q434.5027 281.48828 433.38678 280.37238ZM434.14914 279.61002Q434.98883 280.4497 435.77325 280.50494Q436.56876 280.54913 437.1212 279.99673Q437.68466 279.43326 437.62943 278.6488Q437.5742 277.86435 436.7124 277.00256Q435.8948 276.18497 435.0993 276.14078Q434.31485 276.08554 433.76242 276.63797Q433.21 277.1904 433.25418 277.98587Q433.2984 278.75928 434.14914 279.61002ZM440.8114 277.34506L434.7347 271.26837L435.486 270.51706L438.95523 273.9863L438.9221 270.43973L439.89438 269.46747L439.82806 272.782L444.45743 273.69904L443.54037 274.6161L439.82806 273.8206L439.81702 274.84808L441.5627 276.59378L440.8114 277.34506ZM439.83914 267.8875L438.97736 267.02573L439.72864 266.2744L440.59042 267.1362L439.83914 267.8875ZM445.05405 273.10242L440.6567 268.7051L441.40802 267.9538L445.80533 272.35114L445.05405 273.10242ZM448.76636 266.56168L449.62814 265.87668Q450.12534 266.72742 450.00378 267.60025Q449.88226 268.47308 449.1199 269.23544Q448.1587 270.19666 446.98755 270.17456Q445.82742 270.14142 444.75574 269.0697Q443.65088 267.96484 443.61774 266.78265Q443.57355 265.58942 444.47952 264.68344Q445.3634 263.79956 446.51245 263.84375Q447.67255 263.8769 448.76636 264.9707Q448.83264 265.037 448.9652 265.1696L445.6838 268.451Q446.4572 269.136 447.2085 269.1581Q447.94876 269.16916 448.5012 268.61673Q448.90997 268.20792 448.98734 267.71075Q449.06467 267.19147 448.76636 266.56168ZM445.12033 267.79913L447.57312 265.34634Q446.96542 264.82706 446.4572 264.78287Q445.6617 264.71658 445.09824 265.28006Q444.57895 265.79935 444.5679 266.4954Q444.5679 267.18042 445.12033 267.79913Z" fill-rule="nonzero"/><path fill="#000000" d="M518.8572 281.48828L513.11194 278.43887L513.8853 277.6655L517.12256 279.5106L518.32684 280.18454Q518.28265 280.09616 517.6529 279.04654L515.7746 275.77618L516.537 275.01382L519.7521 276.90314L520.81274 277.52185L520.2161 276.417L518.4263 273.12454L519.15546 272.39532L522.17175 278.1737L521.3983 278.9471L518.06165 277.00256L517.14465 276.4391L519.6416 280.70383L518.8572 281.48828ZM521.9397 274.00842Q520.7133 272.78204 520.8017 271.5225Q520.879 270.47287 521.69666 269.6553Q522.6026 268.7493 523.77374 268.7714Q524.9449 268.7714 525.9945 269.821Q526.8453 270.67175 527.0773 271.41202Q527.3093 272.15225 527.0883 272.92566Q526.8674 273.67697 526.29285 274.2515Q525.3758 275.16852 524.2157 275.15747Q523.0556 275.12433 521.9397 274.00842ZM522.7021 273.24606Q523.54175 274.08575 524.3262 274.141Q525.1217 274.18518 525.67413 273.63275Q526.2376 273.0693 526.1824 272.28485Q526.1271 271.5004 525.2653 270.6386Q524.44775 269.821 523.6522 269.77682Q522.8678 269.7216 522.31537 270.27402Q521.76294 270.82645 521.8071 271.62192Q521.8513 272.39532 522.7021 273.24606ZM526.88947 269.05865Q525.6631 267.83228 525.75146 266.57275Q525.8288 265.52313 526.64636 264.70554Q527.55237 263.79956 528.7235 263.82166Q529.89465 263.82166 530.9443 264.87128Q531.795 265.72202 532.02704 266.46225Q532.25903 267.2025 532.0381 267.97592Q531.8171 268.7272 531.24255 269.30173Q530.32556 270.21878 529.16547 270.20773Q528.0054 270.17456 526.88947 269.05865ZM527.6518 268.29633Q528.4915 269.13602 529.27594 269.19125Q530.0714 269.23544 530.62384 268.683Q531.1873 268.11954 531.1321 267.33508Q531.07684 266.55066 530.2151 265.68887Q529.39746 264.87128 528.602 264.8271Q527.8175 264.77182 527.2651 265.32425Q526.7127 265.87668 526.7569 266.67218Q526.8011 267.4456 527.6518 268.29633Z" fill-rule="nonzero"/><path fill="#757575" d="M24.3625 35.55L24.3625 32.471874L18.784374 32.471874L18.784374 31.01875L24.659374 22.659374L25.95625 22.659374L25.95625 31.01875L27.690624 31.01875L27.690624 32.471874L25.95625 32.471874L25.95625 35.55L24.3625 35.55ZM24.3625 31.01875L24.3625 25.20625L20.33125 31.01875L24.3625 31.01875ZM29.3 29.190624Q29.3 26.909374 29.76875 25.51875Q30.2375 24.128124 31.159374 23.378124Q32.096874 22.6125 33.503124 22.6125Q34.534374 22.6125 35.315624 23.034374Q36.096874 23.440624 36.596874 24.2375Q37.1125 25.01875 37.409374 26.159374Q37.70625 27.284374 37.70625 29.190624Q37.70625 31.45625 37.2375 32.8625Q36.76875 34.253124 35.83125 35.01875Q34.909374 35.76875 33.503124 35.76875Q31.628124 35.76875 30.565624 34.440624Q29.3 32.83125 29.3 29.190624ZM30.925 29.190624Q30.925 32.3625 31.659374 33.425Q32.409374 34.471874 33.503124 34.471874Q34.58125 34.471874 35.33125 33.425Q36.08125 32.3625 36.08125 29.190624Q36.08125 26.01875 35.33125 24.971874Q34.58125 23.925 33.4875 23.925Q32.39375 23.925 31.7375 24.846874Q30.925 26.01875 30.925 29.190624ZM39.3 29.190624Q39.3 26.909374 39.76875 25.51875Q40.2375 24.128124 41.159374 23.378124Q42.096874 22.6125 43.503124 22.6125Q44.534374 22.6125 45.315624 23.034374Q46.096874 23.440624 46.596874 24.2375Q47.1125 25.01875 47.409374 26.159374Q47.70625 27.284374 47.70625 29.190624Q47.70625 31.45625 47.2375 32.8625Q46.76875 34.253124 45.83125 35.01875Q44.909374 35.76875 43.503124 35.76875Q41.628124 35.76875 40.565624 34.440624Q39.3 32.83125 39.3 29.190624ZM40.925 29.190624Q40.925 32.3625 41.659374 33.425Q42.409374 34.471874 43.503124 34.471874Q44.58125 34.471874 45.33125 33.425Q46.08125 32.3625 46.08125 29.190624Q46.08125 26.01875 45.33125 24.971874Q44.58125 23.925 43.4875 23.925Q42.39375 23.925 41.7375 24.846874Q40.925 26.01875 40.925 29.190624ZM60.83125 32.128124L62.378124 32.33125Q62.128124 33.940624 61.08125 34.8625Q60.034374 35.76875 58.503124 35.76875Q56.58125 35.76875 55.409374 34.51875Q54.253124 33.253124 54.253124 30.925Q54.253124 29.409374 54.753124 28.284374Q55.253124 27.14375 56.26875 26.58125Q57.3 26.003124 58.503124 26.003124Q60.034374 26.003124 60.9875 26.784374Q61.95625 27.55 62.2375 28.95625L60.690624 29.190624Q60.471874 28.253124 59.909374 27.784374Q59.3625 27.3 58.565624 27.3Q57.378124 27.3 56.628124 28.159374Q55.878124 29.01875 55.878124 30.878124Q55.878124 32.753124 56.596874 33.6125Q57.315624 34.45625 58.4875 34.45625Q59.409374 34.45625 60.034374 33.89375Q60.659374 33.315624 60.83125 32.128124ZM63.14375 30.878124Q63.14375 28.284374 64.59688 27.034374Q65.8 26.003124 67.51875 26.003124Q69.45625 26.003124 70.675 27.26875Q71.89375 28.534374 71.89375 30.753124Q71.89375 32.55 71.34688 33.58125Q70.81563 34.6125 69.78438 35.190624Q68.75313 35.76875 67.51875 35.76875Q65.56563 35.76875 64.34688 34.51875Q63.14375 33.253124 63.14375 30.878124ZM64.76875 30.878124Q64.76875 32.675 65.55 33.565624Q66.33125 34.45625 67.51875 34.45625Q68.70625 34.45625 69.4875 33.565624Q70.26875 32.659374 70.26875 30.83125Q70.26875 29.096874 69.47188 28.20625Q68.69063 27.315624 67.51875 27.315624Q66.33125 27.315624 65.55 28.20625Q64.76875 29.096874 64.76875 30.878124ZM73.7375 35.55L73.7375 26.221874L75.15938 26.221874L75.15938 27.55Q76.19063 26.003124 78.12813 26.003124Q78.97188 26.003124 79.675 26.315624Q80.39375 26.6125 80.7375 27.1125Q81.09688 27.596874 81.2375 28.26875Q81.31563 28.70625 81.31563 29.815624L81.31563 35.55L79.7375 35.55L79.7375 29.878124Q79.7375 28.909374 79.55 28.425Q79.37813 27.940624 78.89375 27.659374Q78.425 27.378124 77.8 27.378124Q76.78438 27.378124 76.05 28.01875Q75.31563 28.659374 75.31563 30.45625L75.31563 35.55L73.7375 35.55ZM83.7375 35.55L83.7375 26.221874L85.15938 26.221874L85.15938 27.55Q86.19063 26.003124 88.12813 26.003124Q88.97188 26.003124 89.675 26.315624Q90.39375 26.6125 90.7375 27.1125Q91.09688 27.596874 91.2375 28.26875Q91.31563 28.70625 91.31563 29.815624L91.31563 35.55L89.7375 35.55L89.7375 29.878124Q89.7375 28.909374 89.55 28.425Q89.37813 27.940624 88.89375 27.659374Q88.425 27.378124 87.8 27.378124Q86.78438 27.378124 86.05 28.01875Q85.31563 28.659374 85.31563 30.45625L85.31563 35.55L83.7375 35.55ZM100.12813 32.55L101.76875 32.753124Q101.37813 34.175 100.33125 34.971874Q99.28438 35.76875 97.65938 35.76875Q95.6125 35.76875 94.40938 34.503124Q93.20625 33.2375 93.20625 30.95625Q93.20625 28.6125 94.40938 27.315624Q95.62813 26.003124 97.56563 26.003124Q99.44063 26.003124 100.62813 27.284374Q101.81563 28.55 101.81563 30.8625Q101.81563 31.003124 101.8 31.284374L94.84688 31.284374Q94.925 32.83125 95.70625 33.64375Q96.50313 34.45625 97.65938 34.45625Q98.53438 34.45625 99.14375 34.003124Q99.76875 33.55 100.12813 32.55ZM94.925 29.9875L100.14375 29.9875Q100.03438 28.815624 99.55 28.221874Q98.78438 27.3 97.58125 27.3Q96.50313 27.3 95.75313 28.034374Q95.01875 28.76875 94.925 29.9875ZM109.83125 32.128124L111.37813 32.33125Q111.12813 33.940624 110.08125 34.8625Q109.03438 35.76875 107.50313 35.76875Q105.58125 35.76875 104.40938 34.51875Q103.25313 33.253124 103.25313 30.925Q103.25313 29.409374 103.75313 28.284374Q104.25313 27.14375 105.26875 26.58125Q106.3 26.003124 107.50313 26.003124Q109.03438 26.003124 109.9875 26.784374Q110.95625 27.55 111.2375 28.95625L109.69063 29.190624Q109.47188 28.253124 108.90938 27.784374Q108.3625 27.3 107.56563 27.3Q106.37813 27.3 105.62813 28.159374Q104.87813 29.01875 104.87813 30.878124Q104.87813 32.753124 105.59688 33.6125Q106.31563 34.45625 107.4875 34.45625Q108.40938 34.45625 109.03438 33.89375Q109.65938 33.315624 109.83125 32.128124ZM116.19063 34.128124L116.425 35.534374Q115.75313 35.675 115.22188 35.675Q114.3625 35.675 113.87813 35.409374Q113.40938 35.128124 113.22188 34.690624Q113.03438 34.2375 113.03438 32.815624L113.03438 27.440624L111.8625 27.440624L111.8625 26.221874L113.03438 26.221874L113.03438 23.909374L114.59688 22.95625L114.59688 26.221874L116.19063 26.221874L116.19063 27.440624L114.59688 27.440624L114.59688 32.909374Q114.59688 33.58125 114.675 33.784374Q114.76875 33.971874 114.95625 34.08125Q115.14375 34.190624 115.50313 34.190624Q115.75313 34.190624 116.19063 34.128124ZM117.75313 24.4875L117.75313 22.659374L119.33125 22.659374L119.33125 24.4875L117.75313 24.4875ZM117.75313 35.55L117.75313 26.221874L119.33125 26.221874L119.33125 35.55L117.75313 35.55ZM121.14375 30.878124Q121.14375 28.284374 122.59688 27.034374Q123.8 26.003124 125.51875 26.003124Q127.45625 26.003124 128.675 27.26875Q129.89375 28.534374 129.89375 30.753124Q129.89375 32.55 129.34688 33.58125Q128.81563 34.6125 127.78438 35.190624Q126.75313 35.76875 125.51875 35.76875Q123.56563 35.76875 122.34688 34.51875Q121.14375 33.253124 121.14375 30.878124ZM122.76875 30.878124Q122.76875 32.675 123.55 33.565624Q124.33125 34.45625 125.51875 34.45625Q126.70625 34.45625 127.4875 33.565624Q128.26875 32.659374 128.26875 30.83125Q128.26875 29.096874 127.47188 28.20625Q126.69063 27.315624 125.51875 27.315624Q124.33125 27.315624 123.55 28.20625Q122.76875 29.096874 122.76875 30.878124ZM131.7375 35.55L131.7375 26.221874L133.15938 26.221874L133.15938 27.55Q134.19063 26.003124 136.12813 26.003124Q136.97188 26.003124 137.675 26.315624Q138.39375 26.6125 138.7375 27.1125Q139.09688 27.596874 139.2375 28.26875Q139.31563 28.70625 139.31563 29.815624L139.31563 35.55L137.7375 35.55L137.7375 29.878124Q137.7375 28.909374 137.55 28.425Q137.37813 27.940624 136.89375 27.659374Q136.425 27.378124 135.8 27.378124Q134.78438 27.378124 134.05 28.01875Q133.31563 28.659374 133.31563 30.45625L133.31563 35.55L131.7375 35.55ZM141.09688 32.76875L142.675 32.51875Q142.8 33.45625 143.39375 33.95625Q144.00313 34.45625 145.08125 34.45625Q146.175 34.45625 146.70625 34.01875Q147.2375 33.565624 147.2375 32.971874Q147.2375 32.440624 146.76875 32.128124Q146.44063 31.925 145.14375 31.596874Q143.40938 31.159374 142.7375 30.846874Q142.06563 30.51875 141.70625 29.95625Q141.3625 29.378124 141.3625 28.690624Q141.3625 28.065624 141.64375 27.534374Q141.94063 27.003124 142.425 26.659374Q142.8 26.378124 143.44063 26.190624Q144.08125 26.003124 144.8 26.003124Q145.90938 26.003124 146.7375 26.33125Q147.56563 26.64375 147.95625 27.190624Q148.3625 27.721874 148.50313 28.628124L146.95625 28.83125Q146.84688 28.1125 146.34688 27.70625Q145.84688 27.3 144.925 27.3Q143.83125 27.3 143.3625 27.659374Q142.89375 28.01875 142.89375 28.503124Q142.89375 28.815624 143.09688 29.065624Q143.28438 29.315624 143.69063 29.4875Q143.94063 29.565624 145.09688 29.89375Q146.76875 30.33125 147.425 30.628124Q148.09688 30.909374 148.47188 31.45625Q148.8625 32.003124 148.8625 32.8Q148.8625 33.596874 148.39375 34.3Q147.94063 35.003124 147.06563 35.39375Q146.19063 35.76875 145.09688 35.76875Q143.26875 35.76875 142.31563 35.01875Q141.3625 34.253124 141.09688 32.76875ZM155.72188 35.55L155.72188 26.221874L157.14375 26.221874L157.14375 27.628124Q157.69063 26.64375 158.14375 26.33125Q158.6125 26.003124 159.15938 26.003124Q159.97188 26.003124 160.78438 26.51875L160.25313 27.9875Q159.65938 27.64375 159.08125 27.64375Q158.56563 27.64375 158.14375 27.95625Q157.7375 28.26875 157.56563 28.815624Q157.3 29.659374 157.3 30.659374L157.3 35.55L155.72188 35.55ZM168.12813 32.55L169.76875 32.753124Q169.37813 34.175 168.33125 34.971874Q167.28438 35.76875 165.65938 35.76875Q163.6125 35.76875 162.40938 34.503124Q161.20625 33.2375 161.20625 30.95625Q161.20625 28.6125 162.40938 27.315624Q163.62813 26.003124 165.56563 26.003124Q167.44063 26.003124 168.62813 27.284374Q169.81563 28.55 169.81563 30.8625Q169.81563 31.003124 169.8 31.284374L162.84688 31.284374Q162.925 32.83125 163.70625 33.64375Q164.50313 34.45625 165.65938 34.45625Q166.53438 34.45625 167.14375 34.003124Q167.76875 33.55 168.12813 32.55ZM162.925 29.9875L168.14375 29.9875Q168.03438 28.815624 167.55 28.221874Q166.78438 27.3 165.58125 27.3Q164.50313 27.3 163.75313 28.034374Q163.01875 28.76875 162.925 29.9875ZM177.69063 39.128124L177.69063 34.55Q177.31563 35.08125 176.64375 35.425Q175.9875 35.76875 175.2375 35.76875Q173.58125 35.76875 172.37813 34.440624Q171.19063 33.1125 171.19063 30.8Q171.19063 29.39375 171.675 28.284374Q172.15938 27.159374 173.08125 26.58125Q174.01875 26.003124 175.12813 26.003124Q176.84688 26.003124 177.84688 27.45625L177.84688 26.221874L179.26875 26.221874L179.26875 39.128124L177.69063 39.128124ZM172.81563 30.8625Q172.81563 32.659374 173.56563 33.565624Q174.31563 34.45625 175.37813 34.45625Q176.39375 34.45625 177.1125 33.6125Q177.84688 32.753124 177.84688 31.003124Q177.84688 29.128124 177.06563 28.190624Q176.3 27.253124 175.26875 27.253124Q174.2375 27.253124 173.51875 28.128124Q172.81563 29.003124 172.81563 30.8625ZM187.84688 35.55L187.84688 34.175Q186.76875 35.76875 184.89375 35.76875Q184.06563 35.76875 183.34688 35.45625Q182.62813 35.128124 182.28438 34.659374Q181.94063 34.175 181.8 33.471874Q181.70625 33.003124 181.70625 32.003124L181.70625 26.221874L183.28438 26.221874L183.28438 31.39375Q183.28438 32.628124 183.37813 33.065624Q183.53438 33.690624 184.01875 34.05Q184.50313 34.39375 185.20625 34.39375Q185.925 34.39375 186.55 34.034374Q187.175 33.675 187.425 33.05Q187.69063 32.409374 187.69063 31.221874L187.69063 26.221874L189.26875 26.221874L189.26875 35.55L187.84688 35.55ZM198.12813 32.55L199.76875 32.753124Q199.37813 34.175 198.33125 34.971874Q197.28438 35.76875 195.65938 35.76875Q193.6125 35.76875 192.40938 34.503124Q191.20625 33.2375 191.20625 30.95625Q191.20625 28.6125 192.40938 27.315624Q193.62813 26.003124 195.56563 26.003124Q197.44063 26.003124 198.62813 27.284374Q199.81563 28.55 199.81563 30.8625Q199.81563 31.003124 199.8 31.284374L192.84688 31.284374Q192.925 32.83125 193.70625 33.64375Q194.50313 34.45625 195.65938 34.45625Q196.53438 34.45625 197.14375 34.003124Q197.76875 33.55 198.12813 32.55ZM192.925 29.9875L198.14375 29.9875Q198.03438 28.815624 197.55 28.221874Q196.78438 27.3 195.58125 27.3Q194.50313 27.3 193.75313 28.034374Q193.01875 28.76875 192.925 29.9875ZM201.09688 32.76875L202.675 32.51875Q202.8 33.45625 203.39375 33.95625Q204.00313 34.45625 205.08125 34.45625Q206.175 34.45625 206.70625 34.01875Q207.2375 33.565624 207.2375 32.971874Q207.2375 32.440624 206.76875 32.128124Q206.44063 31.925 205.14375 31.596874Q203.40938 31.159374 202.7375 30.846874Q202.06563 30.51875 201.70625 29.95625Q201.3625 29.378124 201.3625 28.690624Q201.3625 28.065624 201.64375 27.534374Q201.94063 27.003124 202.425 26.659374Q202.8 26.378124 203.44063 26.190624Q204.08125 26.003124 204.8 26.003124Q205.90938 26.003124 206.7375 26.33125Q207.56563 26.64375 207.95625 27.190624Q208.3625 27.721874 208.50313 28.628124L206.95625 28.83125Q206.84688 28.1125 206.34688 27.70625Q205.84688 27.3 204.925 27.3Q203.83125 27.3 203.3625 27.659374Q202.89375 28.01875 202.89375 28.503124Q202.89375 28.815624 203.09688 29.065624Q203.28438 29.315624 203.69063 29.4875Q203.94063 29.565624 205.09688 29.89375Q206.76875 30.33125 207.425 30.628124Q208.09688 30.909374 208.47188 31.45625Q208.8625 32.003124 208.8625 32.8Q208.8625 33.596874 208.39375 34.3Q207.94063 35.003124 207.06563 35.39375Q206.19063 35.76875 205.09688 35.76875Q203.26875 35.76875 202.31563 35.01875Q201.3625 34.253124 201.09688 32.76875ZM214.19063 34.128124L214.425 35.534374Q213.75313 35.675 213.22188 35.675Q212.3625 35.675 211.87813 35.409374Q211.40938 35.128124 211.22188 34.690624Q211.03438 34.2375 211.03438 32.815624L211.03438 27.440624L209.8625 27.440624L209.8625 26.221874L211.03438 26.221874L211.03438 23.909374L212.59688 22.95625L212.59688 26.221874L214.19063 26.221874L214.19063 27.440624L212.59688 27.440624L212.59688 32.909374Q212.59688 33.58125 212.675 33.784374Q212.76875 33.971874 212.95625 34.08125Q213.14375 34.190624 213.50313 34.190624Q213.75313 34.190624 214.19063 34.128124ZM215.09688 32.76875L216.675 32.51875Q216.8 33.45625 217.39375 33.95625Q218.00313 34.45625 219.08125 34.45625Q220.175 34.45625 220.70625 34.01875Q221.2375 33.565624 221.2375 32.971874Q221.2375 32.440624 220.76875 32.128124Q220.44063 31.925 219.14375 31.596874Q217.40938 31.159374 216.7375 30.846874Q216.06563 30.51875 215.70625 29.95625Q215.3625 29.378124 215.3625 28.690624Q215.3625 28.065624 215.64375 27.534374Q215.94063 27.003124 216.425 26.659374Q216.8 26.378124 217.44063 26.190624Q218.08125 26.003124 218.8 26.003124Q219.90938 26.003124 220.7375 26.33125Q221.56563 26.64375 221.95625 27.190624Q222.3625 27.721874 222.50313 28.628124L220.95625 28.83125Q220.84688 28.1125 220.34688 27.70625Q219.84688 27.3 218.925 27.3Q217.83125 27.3 217.3625 27.659374Q216.89375 28.01875 216.89375 28.503124Q216.89375 28.815624 217.09688 29.065624Q217.28438 29.315624 217.69063 29.4875Q217.94063 29.565624 219.09688 29.89375Q220.76875 30.33125 221.425 30.628124Q222.09688 30.909374 222.47188 31.45625Q222.8625 32.003124 222.8625 32.8Q222.8625 33.596874 222.39375 34.3Q221.94063 35.003124 221.06563 35.39375Q220.19063 35.76875 219.09688 35.76875Q217.26875 35.76875 216.31563 35.01875Q215.3625 34.253124 215.09688 32.76875ZM223.55 35.76875L227.28438 22.440624L228.55 22.440624L224.83125 35.76875L223.55 35.76875ZM229.09688 32.76875L230.675 32.51875Q230.8 33.45625 231.39375 33.95625Q232.00313 34.45625 233.08125 34.45625Q234.175 34.45625 234.70625 34.01875Q235.2375 33.565624 235.2375 32.971874Q235.2375 32.440624 234.76875 32.128124Q234.44063 31.925 233.14375 31.596874Q231.40938 31.159374 230.7375 30.846874Q230.06563 30.51875 229.70625 29.95625Q229.3625 29.378124 229.3625 28.690624Q229.3625 28.065624 229.64375 27.534374Q229.94063 27.003124 230.425 26.659374Q230.8 26.378124 231.44063 26.190624Q232.08125 26.003124 232.8 26.003124Q233.90938 26.003124 234.7375 26.33125Q235.56563 26.64375 235.95625 27.190624Q236.3625 27.721874 236.50313 28.628124L234.95625 28.83125Q234.84688 28.1125 234.34688 27.70625Q233.84688 27.3 232.925 27.3Q231.83125 27.3 231.3625 27.659374Q230.89375 28.01875 230.89375 28.503124Q230.89375 28.815624 231.09688 29.065624Q231.28438 29.315624 231.69063 29.4875Q231.94063 29.565624 233.09688 29.89375Q234.76875 30.33125 235.425 30.628124Q236.09688 30.909374 236.47188 31.45625Q236.8625 32.003124 236.8625 32.8Q236.8625 33.596874 236.39375 34.3Q235.94063 35.003124 235.06563 35.39375Q234.19063 35.76875 233.09688 35.76875Q231.26875 35.76875 230.31563 35.01875Q229.3625 34.253124 229.09688 32.76875ZM245.12813 32.55L246.76875 32.753124Q246.37813 34.175 245.33125 34.971874Q244.28438 35.76875 242.65938 35.76875Q240.6125 35.76875 239.40938 34.503124Q238.20625 33.2375 238.20625 30.95625Q238.20625 28.6125 239.40938 27.315624Q240.62813 26.003124 242.56563 26.003124Q244.44063 26.003124 245.62813 27.284374Q246.81563 28.55 246.81563 30.8625Q246.81563 31.003124 246.8 31.284374L239.84688 31.284374Q239.925 32.83125 240.70625 33.64375Q241.50313 34.45625 242.65938 34.45625Q243.53438 34.45625 244.14375 34.003124Q244.76875 33.55 245.12813 32.55ZM239.925 29.9875L245.14375 29.9875Q245.03438 28.815624 244.55 28.221874Q243.78438 27.3 242.58125 27.3Q241.50313 27.3 240.75313 28.034374Q240.01875 28.76875 239.925 29.9875ZM254.83125 32.128124L256.3781 32.33125Q256.1281 33.940624 255.08125 34.8625Q254.03438 35.76875 252.50313 35.76875Q250.58125 35.76875 249.40938 34.51875Q248.25313 33.253124 248.25313 30.925Q248.25313 29.409374 248.75313 28.284374Q249.25313 27.14375 250.26875 26.58125Q251.3 26.003124 252.50313 26.003124Q254.03438 26.003124 254.9875 26.784374Q255.95625 27.55 256.2375 28.95625L254.69063 29.190624Q254.47188 28.253124 253.90938 27.784374Q253.3625 27.3 252.56563 27.3Q251.37813 27.3 250.62813 28.159374Q249.87813 29.01875 249.87813 30.878124Q249.87813 32.753124 250.59688 33.6125Q251.31563 34.45625 252.4875 34.45625Q253.40938 34.45625 254.03438 33.89375Q254.65938 33.315624 254.83125 32.128124ZM258.14374 35.55L258.14374 33.753124L259.95624 33.753124L259.95624 35.55Q259.95624 36.55 259.59686 37.159374Q259.2531 37.76875 258.4875 38.096874L258.05 37.425Q258.55 37.20625 258.78436 36.76875Q259.01874 36.346874 259.05 35.55L258.14374 35.55ZM267.09686 32.76875L268.675 32.51875Q268.8 33.45625 269.39374 33.95625Q270.0031 34.45625 271.08124 34.45625Q272.175 34.45625 272.70624 34.01875Q273.2375 33.565624 273.2375 32.971874Q273.2375 32.440624 272.76874 32.128124Q272.4406 31.925 271.14374 31.596874Q269.40936 31.159374 268.7375 30.846874Q268.0656 30.51875 267.70624 29.95625Q267.3625 29.378124 267.3625 28.690624Q267.3625 28.065624 267.64374 27.534374Q267.9406 27.003124 268.425 26.659374Q268.8 26.378124 269.4406 26.190624Q270.08124 26.003124 270.8 26.003124Q271.90936 26.003124 272.7375 26.33125Q273.5656 26.64375 273.95624 27.190624Q274.3625 27.721874 274.5031 28.628124L272.95624 28.83125Q272.84686 28.1125 272.34686 27.70625Q271.84686 27.3 270.925 27.3Q269.83124 27.3 269.3625 27.659374Q268.89374 28.01875 268.89374 28.503124Q268.89374 28.815624 269.09686 29.065624Q269.28436 29.315624 269.6906 29.4875Q269.9406 29.565624 271.09686 29.89375Q272.76874 30.33125 273.425 30.628124Q274.09686 30.909374 274.47186 31.45625Q274.8625 32.003124 274.8625 32.8Q274.8625 33.596874 274.39374 34.3Q273.9406 35.003124 273.0656 35.39375Q272.1906 35.76875 271.09686 35.76875Q269.26874 35.76875 268.3156 35.01875Q267.3625 34.253124 267.09686 32.76875ZM276.70624 35.55L276.70624 22.659374L278.28436 22.659374L278.28436 35.55L276.70624 35.55ZM287.1281 32.55L288.76874 32.753124Q288.3781 34.175 287.33124 34.971874Q286.28436 35.76875 284.65936 35.76875Q282.6125 35.76875 281.40936 34.503124Q280.20624 33.2375 280.20624 30.95625Q280.20624 28.6125 281.40936 27.315624Q282.6281 26.003124 284.5656 26.003124Q286.4406 26.003124 287.6281 27.284374Q288.8156 28.55 288.8156 30.8625Q288.8156 31.003124 288.8 31.284374L281.84686 31.284374Q281.925 32.83125 282.70624 33.64375Q283.5031 34.45625 284.65936 34.45625Q285.53436 34.45625 286.14374 34.003124Q286.76874 33.55 287.1281 32.55ZM281.925 29.9875L287.14374 29.9875Q287.03436 28.815624 286.55 28.221874Q285.78436 27.3 284.58124 27.3Q283.5031 27.3 282.7531 28.034374Q282.01874 28.76875 281.925 29.9875ZM297.1281 32.55L298.76874 32.753124Q298.3781 34.175 297.33124 34.971874Q296.28436 35.76875 294.65936 35.76875Q292.6125 35.76875 291.40936 34.503124Q290.20624 33.2375 290.20624 30.95625Q290.20624 28.6125 291.40936 27.315624Q292.6281 26.003124 294.5656 26.003124Q296.4406 26.003124 297.6281 27.284374Q298.8156 28.55 298.8156 30.8625Q298.8156 31.003124 298.8 31.284374L291.84686 31.284374Q291.925 32.83125 292.70624 33.64375Q293.5031 34.45625 294.65936 34.45625Q295.53436 34.45625 296.14374 34.003124Q296.76874 33.55 297.1281 32.55ZM291.925 29.9875L297.14374 29.9875Q297.03436 28.815624 296.55 28.221874Q295.78436 27.3 294.58124 27.3Q293.5031 27.3 292.7531 28.034374Q292.01874 28.76875 291.925 29.9875ZM300.7375 39.128124L300.7375 26.221874L302.175 26.221874L302.175 27.425Q302.6906 26.721874 303.33124 26.3625Q303.97186 26.003124 304.8781 26.003124Q306.08124 26.003124 306.9875 26.628124Q307.90936 27.2375 308.3781 28.3625Q308.84686 29.471874 308.84686 30.815624Q308.84686 32.2375 308.33124 33.39375Q307.8156 34.534374 306.83124 35.159374Q305.84686 35.76875 304.76874 35.76875Q303.9875 35.76875 303.34686 35.440624Q302.72186 35.096874 302.3156 34.58125L302.3156 39.128124L300.7375 39.128124ZM302.175 30.940624Q302.175 32.7375 302.89374 33.596874Q303.6281 34.45625 304.65936 34.45625Q305.72186 34.45625 306.47186 33.565624Q307.22186 32.675 307.22186 30.8Q307.22186 29.01875 306.4875 28.128124Q305.7531 27.2375 304.7375 27.2375Q303.72186 27.2375 302.9406 28.190624Q302.175 29.128124 302.175 30.940624ZM315.3 29.190624Q315.3 26.909374 315.76874 25.51875Q316.2375 24.128124 317.15936 23.378124Q318.09686 22.6125 319.5031 22.6125Q320.53436 22.6125 321.3156 23.034374Q322.09686 23.440624 322.59686 24.2375Q323.1125 25.01875 323.40936 26.159374Q323.70624 27.284374 323.70624 29.190624Q323.70624 31.45625 323.2375 32.8625Q322.76874 34.253124 321.83124 35.01875Q320.90936 35.76875 319.5031 35.76875Q317.6281 35.76875 316.5656 34.440624Q315.3 32.83125 315.3 29.190624ZM316.925 29.190624Q316.925 32.3625 317.65936 33.425Q318.40936 34.471874 319.5031 34.471874Q320.58124 34.471874 321.33124 33.425Q322.08124 32.3625 322.08124 29.190624Q322.08124 26.01875 321.33124 24.971874Q320.58124 23.925 319.4875 23.925Q318.39374 23.925 317.7375 24.846874Q316.925 26.01875 316.925 29.190624ZM325.7375 35.55L325.7375 26.221874L327.15936 26.221874L327.15936 27.51875Q327.59686 26.846874 328.3156 26.425Q329.05 26.003124 329.9875 26.003124Q331.01874 26.003124 331.675 26.440624Q332.34686 26.8625 332.6125 27.64375Q333.72186 26.003124 335.5031 26.003124Q336.89374 26.003124 337.6281 26.784374Q338.3781 27.55 338.3781 29.14375L338.3781 35.55L336.8156 35.55L336.8156 29.675Q336.8156 28.721874 336.65936 28.3Q336.5031 27.878124 336.09686 27.628124Q335.6906 27.378124 335.14374 27.378124Q334.15936 27.378124 333.5031 28.034374Q332.8625 28.690624 332.8625 30.128124L332.8625 35.55L331.28436 35.55L331.28436 29.4875Q331.28436 28.425 330.89374 27.909374Q330.5031 27.378124 329.6281 27.378124Q328.95624 27.378124 328.39374 27.7375Q327.83124 28.08125 327.5656 28.753124Q327.3156 29.425 327.3156 30.70625L327.3156 35.55L325.7375 35.55ZM339.09686 32.76875L340.675 32.51875Q340.8 33.45625 341.39374 33.95625Q342.0031 34.45625 343.08124 34.45625Q344.175 34.45625 344.70624 34.01875Q345.2375 33.565624 345.2375 32.971874Q345.2375 32.440624 344.76874 32.128124Q344.4406 31.925 343.14374 31.596874Q341.40936 31.159374 340.7375 30.846874Q340.0656 30.51875 339.70624 29.95625Q339.3625 29.378124 339.3625 28.690624Q339.3625 28.065624 339.64374 27.534374Q339.9406 27.003124 340.425 26.659374Q340.8 26.378124 341.4406 26.190624Q342.08124 26.003124 342.8 26.003124Q343.90936 26.003124 344.7375 26.33125Q345.5656 26.64375 345.95624 27.190624Q346.3625 27.721874 346.5031 28.628124L344.95624 28.83125Q344.84686 28.1125 344.34686 27.70625Q343.84686 27.3 342.925 27.3Q341.83124 27.3 341.3625 27.659374Q340.89374 28.01875 340.89374 28.503124Q340.89374 28.815624 341.09686 29.065624Q341.28436 29.315624 341.6906 29.4875Q341.9406 29.565624 343.09686 29.89375Q344.76874 30.33125 345.425 30.628124Q346.09686 30.909374 346.47186 31.45625Q346.8625 32.003124 346.8625 32.8Q346.8625 33.596874 346.39374 34.3Q345.9406 35.003124 345.0656 35.39375Q344.1906 35.76875 343.09686 35.76875Q341.26874 35.76875 340.3156 35.01875Q339.3625 34.253124 339.09686 32.76875ZM349.14374 35.55L349.14374 33.753124L350.95624 33.753124L350.95624 35.55Q350.95624 36.55 350.59686 37.159374Q350.2531 37.76875 349.4875 38.096874L349.05 37.425Q349.55 37.20625 349.78436 36.76875Q350.01874 36.346874 350.05 35.55L349.14374 35.55ZM358.7375 35.55L358.7375 26.221874L360.15936 26.221874L360.15936 27.55Q361.1906 26.003124 363.1281 26.003124Q363.97186 26.003124 364.675 26.315624Q365.39374 26.6125 365.7375 27.1125Q366.09686 27.596874 366.2375 28.26875Q366.3156 28.70625 366.3156 29.815624L366.3156 35.55L364.7375 35.55L364.7375 29.878124Q364.7375 28.909374 364.55 28.425Q364.3781 27.940624 363.89374 27.659374Q363.425 27.378124 362.8 27.378124Q361.78436 27.378124 361.05 28.01875Q360.3156 28.659374 360.3156 30.45625L360.3156 35.55L358.7375 35.55ZM368.14374 30.878124Q368.14374 28.284374 369.59686 27.034374Q370.8 26.003124 372.51874 26.003124Q374.45624 26.003124 375.675 27.26875Q376.89374 28.534374 376.89374 30.753124Q376.89374 32.55 376.34686 33.58125Q375.8156 34.6125 374.78436 35.190624Q373.7531 35.76875 372.51874 35.76875Q370.5656 35.76875 369.34686 34.51875Q368.14374 33.253124 368.14374 30.878124ZM369.76874 30.878124Q369.76874 32.675 370.55 33.565624Q371.33124 34.45625 372.51874 34.45625Q373.70624 34.45625 374.4875 33.565624Q375.26874 32.659374 375.26874 30.83125Q375.26874 29.096874 374.47186 28.20625Q373.6906 27.315624 372.51874 27.315624Q371.33124 27.315624 370.55 28.20625Q369.76874 29.096874 369.76874 30.878124ZM383.7531 35.55L383.7531 22.659374L385.33124 22.659374L385.33124 30.01875L389.0656 26.221874L391.1125 26.221874L387.55 29.675L391.4875 35.55L389.53436 35.55L386.4406 30.784374L385.33124 31.846874L385.33124 35.55L383.7531 35.55ZM399.1281 32.55L400.76874 32.753124Q400.3781 34.175 399.33124 34.971874Q398.28436 35.76875 396.65936 35.76875Q394.6125 35.76875 393.40936 34.503124Q392.20624 33.2375 392.20624 30.95625Q392.20624 28.6125 393.40936 27.315624Q394.6281 26.003124 396.5656 26.003124Q398.4406 26.003124 399.6281 27.284374Q400.8156 28.55 400.8156 30.8625Q400.8156 31.003124 400.8 31.284374L393.84686 31.284374Q393.925 32.83125 394.70624 33.64375Q395.5031 34.45625 396.65936 34.45625Q397.53436 34.45625 398.14374 34.003124Q398.76874 33.55 399.1281 32.55ZM393.925 29.9875L399.14374 29.9875Q399.03436 28.815624 398.55 28.221874Q397.78436 27.3 396.58124 27.3Q395.5031 27.3 394.7531 28.034374Q394.01874 28.76875 393.925 29.9875ZM409.1281 32.55L410.76874 32.753124Q410.3781 34.175 409.33124 34.971874Q408.28436 35.76875 406.65936 35.76875Q404.6125 35.76875 403.40936 34.503124Q402.20624 33.2375 402.20624 30.95625Q402.20624 28.6125 403.40936 27.315624Q404.6281 26.003124 406.5656 26.003124Q408.4406 26.003124 409.6281 27.284374Q410.8156 28.55 410.8156 30.8625Q410.8156 31.003124 410.8 31.284374L403.84686 31.284374Q403.925 32.83125 404.70624 33.64375Q405.5031 34.45625 406.65936 34.45625Q407.53436 34.45625 408.14374 34.003124Q408.76874 33.55 409.1281 32.55ZM403.925 29.9875L409.14374 29.9875Q409.03436 28.815624 408.55 28.221874Q407.78436 27.3 406.58124 27.3Q405.5031 27.3 404.7531 28.034374Q404.01874 28.76875 403.925 29.9875ZM412.7375 39.128124L412.7375 26.221874L414.175 26.221874L414.175 27.425Q414.6906 26.721874 415.33124 26.3625Q415.97186 26.003124 416.8781 26.003124Q418.08124 26.003124 418.9875 26.628124Q419.90936 27.2375 420.3781 28.3625Q420.84686 29.471874 420.84686 30.815624Q420.84686 32.2375 420.33124 33.39375Q419.8156 34.534374 418.83124 35.159374Q417.84686 35.76875 416.76874 35.76875Q415.9875 35.76875 415.34686 35.440624Q414.72186 35.096874 414.3156 34.58125L414.3156 39.128124L412.7375 39.128124ZM414.175 30.940624Q414.175 32.7375 414.89374 33.596874Q415.6281 34.45625 416.65936 34.45625Q417.72186 34.45625 418.47186 33.565624Q419.22186 32.675 419.22186 30.8Q419.22186 29.01875 418.4875 28.128124Q417.7531 27.2375 416.7375 27.2375Q415.72186 27.2375 414.9406 28.190624Q414.175 29.128124 414.175 30.940624ZM422.1281 31.675L422.1281 30.096874L426.9875 30.096874L426.9875 31.675L422.1281 31.675ZM434.83124 34.39375Q433.95624 35.14375 433.1281 35.45625Q432.3156 35.76875 431.39374 35.76875Q429.84686 35.76875 429.01874 35.01875Q428.20624 34.253124 428.20624 33.08125Q428.20624 32.409374 428.51874 31.846874Q428.83124 31.26875 429.33124 30.925Q429.83124 30.58125 430.47186 30.409374Q430.9406 30.284374 431.8781 30.175Q433.78436 29.940624 434.6906 29.628124Q434.70624 29.3 434.70624 29.20625Q434.70624 28.253124 434.2531 27.846874Q433.64374 27.315624 432.45624 27.315624Q431.33124 27.315624 430.8 27.70625Q430.26874 28.096874 430.01874 29.096874L428.47186 28.878124Q428.6906 27.878124 429.15936 27.26875Q429.64374 26.659374 430.55 26.33125Q431.47186 26.003124 432.6906 26.003124Q433.8781 26.003124 434.6281 26.284374Q435.3781 26.565624 435.72186 27.003124Q436.08124 27.425 436.22186 28.065624Q436.3 28.471874 436.3 29.534374L436.3 31.64375Q436.3 33.846874 436.39374 34.440624Q436.5031 35.01875 436.8 35.55L435.14374 35.55Q434.89374 35.05 434.83124 34.39375ZM434.6906 30.8625Q433.83124 31.221874 432.1125 31.45625Q431.14374 31.596874 430.7375 31.784374Q430.33124 31.95625 430.1125 32.3Q429.89374 32.628124 429.89374 33.05Q429.89374 33.675 430.3625 34.096874Q430.84686 34.51875 431.76874 34.51875Q432.6906 34.51875 433.39374 34.128124Q434.1125 33.721874 434.4406 33.034374Q434.6906 32.4875 434.6906 31.440624L434.6906 30.8625ZM438.70624 35.55L438.70624 22.659374L440.28436 22.659374L440.28436 35.55L438.70624 35.55ZM442.7531 24.4875L442.7531 22.659374L444.33124 22.659374L444.33124 24.4875L442.7531 24.4875ZM442.7531 35.55L442.7531 26.221874L444.33124 26.221874L444.33124 35.55L442.7531 35.55ZM449.33124 35.55L445.78436 26.221874L447.45624 26.221874L449.45624 31.8Q449.78436 32.70625 450.05 33.690624Q450.26874 32.940624 450.64374 31.909374L452.70624 26.221874L454.34686 26.221874L450.8 35.55L449.33124 35.55ZM462.1281 32.55L463.76874 32.753124Q463.3781 34.175 462.33124 34.971874Q461.28436 35.76875 459.65936 35.76875Q457.6125 35.76875 456.40936 34.503124Q455.20624 33.2375 455.20624 30.95625Q455.20624 28.6125 456.40936 27.315624Q457.6281 26.003124 459.5656 26.003124Q461.4406 26.003124 462.6281 27.284374Q463.8156 28.55 463.8156 30.8625Q463.8156 31.003124 463.8 31.284374L456.84686 31.284374Q456.925 32.83125 457.70624 33.64375Q458.5031 34.45625 459.65936 34.45625Q460.53436 34.45625 461.14374 34.003124Q461.76874 33.55 462.1281 32.55ZM456.925 29.9875L462.14374 29.9875Q462.03436 28.815624 461.55 28.221874Q460.78436 27.3 459.58124 27.3Q458.5031 27.3 457.7531 28.034374Q457.01874 28.76875 456.925 29.9875ZM466.14374 35.55L466.14374 33.753124L467.95624 33.753124L467.95624 35.55Q467.95624 36.55 467.59686 37.159374Q467.2531 37.76875 466.4875 38.096874L466.05 37.425Q466.55 37.20625 466.78436 36.76875Q467.01874 36.346874 467.05 35.55L466.14374 35.55ZM475.7375 35.55L475.7375 22.659374L477.3156 22.659374L477.3156 27.284374Q478.425 26.003124 480.1125 26.003124Q481.14374 26.003124 481.90936 26.409374Q482.675 26.815624 483.0031 27.55Q483.34686 28.26875 483.34686 29.628124L483.34686 35.55L481.7531 35.55L481.7531 29.628124Q481.7531 28.440624 481.2375 27.909374Q480.72186 27.3625 479.78436 27.3625Q479.08124 27.3625 478.45624 27.7375Q477.84686 28.096874 477.58124 28.721874Q477.3156 29.346874 477.3156 30.440624L477.3156 35.55L475.7375 35.55ZM485.7531 24.4875L485.7531 22.659374L487.33124 22.659374L487.33124 24.4875L485.7531 24.4875ZM485.7531 35.55L485.7531 26.221874L487.33124 26.221874L487.33124 35.55L485.7531 35.55ZM489.4406 36.33125L490.9875 36.55Q491.08124 37.26875 491.51874 37.596874Q492.1125 38.034374 493.1281 38.034374Q494.22186 38.034374 494.8156 37.58125Q495.425 37.14375 495.6281 36.3625Q495.7531 35.878124 495.7531 34.33125Q494.70624 35.55 493.15936 35.55Q491.2375 35.55 490.175 34.159374Q489.1281 32.76875 489.1281 30.83125Q489.1281 29.4875 489.6125 28.3625Q490.09686 27.2375 491.01874 26.628124Q491.9406 26.003124 493.175 26.003124Q494.83124 26.003124 495.89374 27.346874L495.89374 26.221874L497.3625 26.221874L497.3625 34.284374Q497.3625 36.471874 496.90936 37.378124Q496.47186 38.284374 495.5031 38.8Q494.55 39.33125 493.14374 39.33125Q491.47186 39.33125 490.4406 38.58125Q489.40936 37.83125 489.4406 36.33125ZM490.7531 30.721874Q490.7531 32.55 491.4875 33.39375Q492.22186 34.2375 493.3156 34.2375Q494.40936 34.2375 495.14374 33.409374Q495.8781 32.565624 495.8781 30.76875Q495.8781 29.05 495.1125 28.190624Q494.3625 27.315624 493.28436 27.315624Q492.2375 27.315624 491.4875 28.175Q490.7531 29.034374 490.7531 30.721874ZM499.7375 35.55L499.7375 22.659374L501.3156 22.659374L501.3156 27.284374Q502.425 26.003124 504.1125 26.003124Q505.14374 26.003124 505.90936 26.409374Q506.675 26.815624 507.0031 27.55Q507.34686 28.26875 507.34686 29.628124L507.34686 35.55L505.7531 35.55L505.7531 29.628124Q505.7531 28.440624 505.2375 27.909374Q504.72186 27.3625 503.78436 27.3625Q503.08124 27.3625 502.45624 27.7375Q501.84686 28.096874 501.58124 28.721874Q501.3156 29.346874 501.3156 30.440624L501.3156 35.55L499.7375 35.55ZM516.1281 32.55L517.76874 32.753124Q517.3781 34.175 516.33124 34.971874Q515.28436 35.76875 513.65936 35.76875Q511.6125 35.76875 510.40936 34.503124Q509.20624 33.2375 509.20624 30.95625Q509.20624 28.6125 510.40936 27.315624Q511.6281 26.003124 513.5656 26.003124Q515.4406 26.003124 516.6281 27.284374Q517.8156 28.55 517.8156 30.8625Q517.8156 31.003124 517.8 31.284374L510.84686 31.284374Q510.925 32.83125 511.70624 33.64375Q512.5031 34.45625 513.65936 34.45625Q514.53436 34.45625 515.14374 34.003124Q515.76874 33.55 516.1281 32.55ZM510.925 29.9875L516.14374 29.9875Q516.03436 28.815624 515.55 28.221874Q514.78436 27.3 513.58124 27.3Q512.5031 27.3 511.7531 28.034374Q511.01874 28.76875 510.925 29.9875ZM519.72186 35.55L519.72186 26.221874L521.14374 26.221874L521.14374 27.628124Q521.6906 26.64375 522.14374 26.33125Q522.6125 26.003124 523.15936 26.003124Q523.97186 26.003124 524.78436 26.51875L524.2531 27.9875Q523.65936 27.64375 523.08124 27.64375Q522.5656 27.64375 522.14374 27.95625Q521.7375 28.26875 521.5656 28.815624Q521.3 29.659374 521.3 30.659374L521.3 35.55L519.72186 35.55ZM530.7531 24.4875L530.7531 22.659374L532.33124 22.659374L532.33124 24.4875L530.7531 24.4875ZM530.7531 35.55L530.7531 26.221874L532.33124 26.221874L532.33124 35.55L530.7531 35.55ZM534.09686 32.76875L535.675 32.51875Q535.8 33.45625 536.39374 33.95625Q537.0031 34.45625 538.08124 34.45625Q539.175 34.45625 539.70624 34.01875Q540.2375 33.565624 540.2375 32.971874Q540.2375 32.440624 539.76874 32.128124Q539.4406 31.925 538.14374 31.596874Q536.40936 31.159374 535.7375 30.846874Q535.0656 30.51875 534.70624 29.95625Q534.3625 29.378124 534.3625 28.690624Q534.3625 28.065624 534.64374 27.534374Q534.9406 27.003124 535.425 26.659374Q535.8 26.378124 536.4406 26.190624Q537.08124 26.003124 537.8 26.003124Q538.90936 26.003124 539.7375 26.33125Q540.5656 26.64375 540.95624 27.190624Q541.3625 27.721874 541.5031 28.628124L539.95624 28.83125Q539.84686 28.1125 539.34686 27.70625Q538.84686 27.3 537.925 27.3Q536.83124 27.3 536.3625 27.659374Q535.89374 28.01875 535.89374 28.503124Q535.89374 28.815624 536.09686 29.065624Q536.28436 29.315624 536.6906 29.4875Q536.9406 29.565624 538.09686 29.89375Q539.76874 30.33125 540.425 30.628124Q541.09686 30.909374 541.47186 31.45625Q541.8625 32.003124 541.8625 32.8Q541.8625 33.596874 541.39374 34.3Q540.9406 35.003124 540.0656 35.39375Q539.1906 35.76875 538.09686 35.76875Q536.26874 35.76875 535.3156 35.01875Q534.3625 34.253124 534.09686 32.76875Z" fill-rule="nonzero"/><path fill="#757575" d="M21.190624 57.55L19.721874 57.55L19.721874 44.659374L21.315624 44.659374L21.315624 49.26875Q22.315624 48.003124 23.8625 48.003124Q24.721874 48.003124 25.4875 48.3625Q26.26875 48.70625 26.753124 49.33125Q27.253124 49.95625 27.534374 50.846874Q27.815624 51.7375 27.815624 52.7375Q27.815624 55.14375 26.628124 56.45625Q25.45625 57.76875 23.784374 57.76875Q22.14375 57.76875 21.190624 56.378124L21.190624 57.55ZM21.175 52.815624Q21.175 54.4875 21.628124 55.2375Q22.378124 56.45625 23.659374 56.45625Q24.690624 56.45625 25.440624 55.565624Q26.20625 54.659374 26.20625 52.878124Q26.20625 51.05 25.471874 50.175Q24.753124 49.3 23.721874 49.3Q22.690624 49.3 21.925 50.20625Q21.175 51.1125 21.175 52.815624ZM36.128124 54.55L37.76875 54.753124Q37.378124 56.175 36.33125 56.971874Q35.284374 57.76875 33.659374 57.76875Q31.6125 57.76875 30.409374 56.503124Q29.20625 55.2375 29.20625 52.95625Q29.20625 50.6125 30.409374 49.315624Q31.628124 48.003124 33.565624 48.003124Q35.440624 48.003124 36.628124 49.284374Q37.815624 50.55 37.815624 52.8625Q37.815624 53.003124 37.8 53.284374L30.846874 53.284374Q30.925 54.83125 31.70625 55.64375Q32.503124 56.45625 33.659374 56.45625Q34.534374 56.45625 35.14375 56.003124Q35.76875 55.55 36.128124 54.55ZM30.925 51.9875L36.14375 51.9875Q36.034374 50.815624 35.55 50.221874Q34.784374 49.3 33.58125 49.3Q32.503124 49.3 31.753124 50.034374Q31.01875 50.76875 30.925 51.9875ZM43.190624 56.128124L43.425 57.534374Q42.753124 57.675 42.221874 57.675Q41.3625 57.675 40.878124 57.409374Q40.409374 57.128124 40.221874 56.690624Q40.034374 56.2375 40.034374 54.815624L40.034374 49.440624L38.8625 49.440624L38.8625 48.221874L40.034374 48.221874L40.034374 45.909374L41.596874 44.95625L41.596874 48.221874L43.190624 48.221874L43.190624 49.440624L41.596874 49.440624L41.596874 54.909374Q41.596874 55.58125 41.675 55.784374Q41.76875 55.971874 41.95625 56.08125Q42.14375 56.190624 42.503124 56.190624Q42.753124 56.190624 43.190624 56.128124ZM48.190624 56.128124L48.425 57.534374Q47.753124 57.675 47.221874 57.675Q46.3625 57.675 45.878124 57.409374Q45.409374 57.128124 45.221874 56.690624Q45.034374 56.2375 45.034374 54.815624L45.034374 49.440624L43.8625 49.440624L43.8625 48.221874L45.034374 48.221874L45.034374 45.909374L46.596874 44.95625L46.596874 48.221874L48.190624 48.221874L48.190624 49.440624L46.596874 49.440624L46.596874 54.909374Q46.596874 55.58125 46.675 55.784374Q46.76875 55.971874 46.95625 56.08125Q47.14375 56.190624 47.503124 56.190624Q47.753124 56.190624 48.190624 56.128124ZM56.128124 54.55L57.76875 54.753124Q57.378124 56.175 56.33125 56.971874Q55.284374 57.76875 53.659374 57.76875Q51.6125 57.76875 50.409374 56.503124Q49.20625 55.2375 49.20625 52.95625Q49.20625 50.6125 50.409374 49.315624Q51.628124 48.003124 53.565624 48.003124Q55.440624 48.003124 56.628124 49.284374Q57.815624 50.55 57.815624 52.8625Q57.815624 53.003124 57.8 53.284374L50.846874 53.284374Q50.925 54.83125 51.70625 55.64375Q52.503124 56.45625 53.659374 56.45625Q54.534374 56.45625 55.14375 56.003124Q55.76875 55.55 56.128124 54.55ZM50.925 51.9875L56.14375 51.9875Q56.034374 50.815624 55.55 50.221874Q54.784374 49.3 53.58125 49.3Q52.503124 49.3 51.753124 50.034374Q51.01875 50.76875 50.925 51.9875ZM59.721874 57.55L59.721874 48.221874L61.14375 48.221874L61.14375 49.628124Q61.690624 48.64375 62.14375 48.33125Q62.6125 48.003124 63.159374 48.003124Q63.971874 48.003124 64.78438 48.51875L64.25313 49.9875Q63.659374 49.64375 63.08125 49.64375Q62.565624 49.64375 62.14375 49.95625Q61.7375 50.26875 61.565624 50.815624Q61.3 51.659374 61.3 52.659374L61.3 57.55L59.721874 57.55Z" fill-rule="nonzero"/></svg>