<svg version="1.1" viewBox="0.0 0.0 600.0 371.0" fill="none" stroke="none" stroke-linecap="square" stroke-miterlimit="10" width="600" height="371" xmlns:xlink="http://www.w3.org/1999/xlink" xmlns="http://www.w3.org/2000/svg"><path fill="#ffffff" d="M0 0L600.0 0L600.0 371.0L0 371.0L0 0Z" fill-rule="nonzero"/><path stroke="#333333" stroke-width="1.0" stroke-linecap="butt" d="M52.5 252.5L581.5 252.5" fill-rule="nonzero"/><path stroke="#cccccc" stroke-width="1.0" stroke-linecap="butt" d="M52.5 209.5L581.5 209.5" fill-rule="nonzero"/><path stroke="#cccccc" stroke-width="1.0" stroke-linecap="butt" d="M52.5 166.5L581.5 166.5" fill-rule="nonzero"/><path stroke="#cccccc" stroke-width="1.0" stroke-linecap="butt" d="M52.5 123.5L581.5 123.5" fill-rule="nonzero"/><path stroke="#cccccc" stroke-width="1.0" stroke-linecap="butt" d="M52.5 80.5L581.5 80.5" fill-rule="nonzero"/><clipPath id="id_0"><path d="M52.55 80.916664L581.45 80.916664L581.45 252.81667L52.55 252.81667L52.55 80.916664Z" clip-rule="nonzero"/></clipPath><path stroke="#000000" stroke-width="2.0" stroke-linecap="butt" stroke-opacity="0.0" clip-path="url(#id_0)" d="M136.0 253.0L82.0 253.0L82.0 127.0C82.0 125.89543 82.89543 125.0 84.0 125.0L134.0 125.0C135.10457 125.0 136.0 125.89543 136.0 127.0Z" fill-rule="nonzero"/><path fill="#ff9900" clip-path="url(#id_0)" d="M136.0 253.0L82.0 253.0L82.0 127.0C82.0 125.89543 82.89543 125.0 84.0 125.0L134.0 125.0C135.10457 125.0 136.0 125.89543 136.0 127.0Z" fill-rule="nonzero"/><path stroke="#000000" stroke-width="2.0" stroke-linecap="butt" stroke-opacity="0.0" clip-path="url(#id_0)" d="M219.0 253.0L165.0 253.0L165.0 163.0C165.0 161.89543 165.89543 161.0 167.0 161.0L217.0 161.0C218.10457 161.0 219.0 161.89543 219.0 163.0Z" fill-rule="nonzero"/><path fill="#4285f4" clip-path="url(#id_0)" d="M219.0 253.0L165.0 253.0L165.0 163.0C165.0 161.89543 165.89543 161.0 167.0 161.0L217.0 161.0C218.10457 161.0 219.0 161.89543 219.0 163.0Z" fill-rule="nonzero"/><path stroke="#000000" stroke-width="2.0" stroke-linecap="butt" stroke-opacity="0.0" clip-path="url(#id_0)" d="M302.0 253.0L248.0 253.0L248.0 142.0C248.0 140.89543 248.89543 140.0 250.0 140.0L300.0 140.0C301.10458 140.0 302.0 140.89543 302.0 142.0Z" fill-rule="nonzero"/><path fill="#4285f4" clip-path="url(#id_0)" d="M302.0 253.0L248.0 253.0L248.0 142.0C248.0 140.89543 248.89543 140.0 250.0 140.0L300.0 140.0C301.10458 140.0 302.0 140.89543 302.0 142.0Z" fill-rule="nonzero"/><path stroke="#000000" stroke-width="2.0" stroke-linecap="butt" stroke-opacity="0.0" clip-path="url(#id_0)" d="M386.0 253.0L332.0 253.0L332.0 243.0C332.0 241.89543 332.89542 241.0 334.0 241.0L384.0 241.0C385.10458 241.0 386.0 241.89543 386.0 243.0Z" fill-rule="nonzero"/><path fill="#4285f4" clip-path="url(#id_0)" d="M386.0 253.0L332.0 253.0L332.0 243.0C332.0 241.89543 332.89542 241.0 334.0 241.0L384.0 241.0C385.10458 241.0 386.0 241.89543 386.0 243.0Z" fill-rule="nonzero"/><path stroke="#000000" stroke-width="2.0" stroke-linecap="butt" stroke-opacity="0.0" clip-path="url(#id_0)" d="M469.0 253.0L415.0 253.0L415.0 108.0C415.0 106.89543 415.89542 106.0 417.0 106.0L467.0 106.0C468.10458 106.0 469.0 106.89543 469.0 108.0Z" fill-rule="nonzero"/><path fill="#4285f4" clip-path="url(#id_0)" d="M469.0 253.0L415.0 253.0L415.0 108.0C415.0 106.89543 415.89542 106.0 417.0 106.0L467.0 106.0C468.10458 106.0 469.0 106.89543 469.0 108.0Z" fill-rule="nonzero"/><path stroke="#000000" stroke-width="2.0" stroke-linecap="butt" stroke-opacity="0.0" clip-path="url(#id_0)" d="M552.0 253.0L498.0 253.0L498.0 228.0C498.0 226.89543 498.89542 226.0 500.0 226.0L550.0 226.0C551.10455 226.0 552.0 226.89543 552.0 228.0Z" fill-rule="nonzero"/><path fill="#4285f4" clip-path="url(#id_0)" d="M552.0 253.0L498.0 253.0L498.0 228.0C498.0 226.89543 498.89542 226.0 500.0 226.0L550.0 226.0C551.10455 226.0 552.0 226.89543 552.0 228.0Z" fill-rule="nonzero"/><path fill="#000000" d="M279.875 347.59064L280.90625 347.4344Q281.0 348.0594 281.39062 348.3875Q281.79688 348.71564 282.53125 348.71564Q283.25 348.71564 283.59375 348.4344Q283.95312 348.1375 283.95312 347.73126Q283.95312 347.3719 283.64062 347.16876Q283.42188 347.02814 282.5625 346.8094Q281.40625 346.5125 280.95312 346.3094Q280.51562 346.09064 280.28125 345.71564Q280.04688 345.34064 280.04688 344.8719Q280.04688 344.46564 280.23438 344.10626Q280.42188 343.7469 280.75 343.5125Q281.0 343.34064 281.42188 343.21564Q281.84375 343.09064 282.34375 343.09064Q283.0625 343.09064 283.60938 343.3094Q284.17188 343.5125 284.4375 343.8719Q284.70312 344.23126 284.79688 344.825L283.76562 344.96564Q283.70312 344.4969 283.35938 344.23126Q283.03125 343.95 282.40625 343.95Q281.6875 343.95 281.375 344.2Q281.0625 344.4344 281.0625 344.7625Q281.0625 344.96564 281.1875 345.1219Q281.32812 345.29376 281.59375 345.40314Q281.75 345.46564 282.53125 345.66876Q283.65625 345.98126 284.09375 346.16876Q284.53125 346.35626 284.78125 346.71564Q285.03125 347.075 285.03125 347.6219Q285.03125 348.15314 284.71875 348.6219Q284.42188 349.075 283.84375 349.34064Q283.26562 349.59064 282.53125 349.59064Q281.3125 349.59064 280.67188 349.09064Q280.04688 348.575 279.875 347.59064ZM287.25 351.84064L287.125 350.85626Q287.46875 350.95 287.73438 350.95Q288.07812 350.95 288.28125 350.825Q288.5 350.71564 288.64062 350.5125Q288.73438 350.34064 288.96875 349.71564Q288.98438 349.6375 289.0625 349.46564L286.6875 343.23126L287.82812 343.23126L289.125 346.825Q289.375 347.5125 289.57812 348.27814Q289.76562 347.54376 290.01562 346.85626L291.34375 343.23126L292.39062 343.23126L290.03125 349.5594Q289.64062 350.575 289.4375 350.96564Q289.15625 351.4969 288.78125 351.73126Q288.42188 351.98126 287.92188 351.98126Q287.625 351.98126 287.25 351.84064ZM291.875 347.59064L292.90625 347.4344Q293.0 348.0594 293.39062 348.3875Q293.79688 348.71564 294.53125 348.71564Q295.25 348.71564 295.59375 348.4344Q295.95312 348.1375 295.95312 347.73126Q295.95312 347.3719 295.64062 347.16876Q295.42188 347.02814 294.5625 346.8094Q293.40625 346.5125 292.95312 346.3094Q292.51562 346.09064 292.28125 345.71564Q292.04688 345.34064 292.04688 344.8719Q292.04688 344.46564 292.23438 344.10626Q292.42188 343.7469 292.75 343.5125Q293.0 343.34064 293.42188 343.21564Q293.84375 343.09064 294.34375 343.09064Q295.0625 343.09064 295.60938 343.3094Q296.17188 343.5125 296.4375 343.8719Q296.70312 344.23126 296.79688 344.825L295.76562 344.96564Q295.70312 344.4969 295.35938 344.23126Q295.03125 343.95 294.40625 343.95Q293.6875 343.95 293.375 344.2Q293.0625 344.4344 293.0625 344.7625Q293.0625 344.96564 293.1875 345.1219Q293.32812 345.29376 293.59375 345.40314Q293.75 345.46564 294.53125 345.66876Q295.65625 345.98126 296.09375 346.16876Q296.53125 346.35626 296.78125 346.71564Q297.03125 347.075 297.03125 347.6219Q297.03125 348.15314 296.71875 348.6219Q296.42188 349.075 295.84375 349.34064Q295.26562 349.59064 294.53125 349.59064Q293.3125 349.59064 292.67188 349.09064Q292.04688 348.575 291.875 347.59064ZM301.59375 348.5125L301.75 349.4344Q301.29688 349.52814 300.95312 349.52814Q300.375 349.52814 300.0625 349.35626Q299.75 349.16876 299.60938 348.8719Q299.48438 348.575 299.48438 347.6219L299.48438 344.04376L298.71875 344.04376L298.71875 343.23126L299.48438 343.23126L299.48438 341.6844L300.53125 341.0594L300.53125 343.23126L301.59375 343.23126L301.59375 344.04376L300.53125 344.04376L300.53125 347.6844Q300.53125 348.1375 300.57812 348.2625Q300.64062 348.3875 300.76562 348.46564Q300.89062 348.54376 301.125 348.54376Q301.3125 348.54376 301.59375 348.5125ZM306.54688 347.45L307.64062 347.575Q307.39062 348.52814 306.6875 349.0594Q305.98438 349.59064 304.90625 349.59064Q303.54688 349.59064 302.73438 348.7469Q301.9375 347.90314 301.9375 346.3875Q301.9375 344.825 302.75 343.96564Q303.5625 343.09064 304.84375 343.09064Q306.09375 343.09064 306.875 343.9344Q307.67188 344.77814 307.67188 346.325Q307.67188 346.41876 307.67188 346.60626L303.03125 346.60626Q303.09375 347.6375 303.60938 348.1844Q304.125 348.71564 304.90625 348.71564Q305.48438 348.71564 305.89062 348.41876Q306.3125 348.10626 306.54688 347.45ZM303.09375 345.7469L306.5625 345.7469Q306.5 344.95 306.17188 344.5594Q305.65625 343.95 304.85938 343.95Q304.125 343.95 303.625 344.4344Q303.14062 344.91876 303.09375 345.7469ZM309.29688 349.45L309.29688 343.23126L310.23438 343.23126L310.23438 344.10626Q310.53125 343.6375 311.01562 343.3719Q311.5 343.09064 312.125 343.09064Q312.8125 343.09064 313.25 343.3719Q313.70312 343.65314 313.875 344.16876Q314.625 343.09064 315.79688 343.09064Q316.73438 343.09064 317.21875 343.60626Q317.71875 344.10626 317.71875 345.1844L317.71875 349.45L316.67188 349.45L316.67188 345.52814Q316.67188 344.90314 316.5625 344.6219Q316.46875 344.34064 316.20312 344.16876Q315.9375 343.9969 315.5625 343.9969Q314.90625 343.9969 314.46875 344.4344Q314.04688 344.8719 314.04688 345.84064L314.04688 349.45L312.98438 349.45L312.98438 345.40314Q312.98438 344.7 312.71875 344.35626Q312.46875 343.9969 311.89062 343.9969Q311.4375 343.9969 311.0625 344.23126Q310.6875 344.46564 310.51562 344.91876Q310.34375 345.3719 310.34375 346.21564L310.34375 349.45L309.29688 349.45ZM323.29688 349.45L323.29688 343.23126L324.23438 343.23126L324.23438 344.10626Q324.92188 343.09064 326.21875 343.09064Q326.78125 343.09064 327.25 343.29376Q327.73438 343.4969 327.96875 343.825Q328.20312 344.15314 328.29688 344.59064Q328.34375 344.8875 328.34375 345.6219L328.34375 349.45L327.29688 349.45L327.29688 345.66876Q327.29688 345.0125 327.17188 344.7Q327.04688 344.3875 326.73438 344.2Q326.42188 343.9969 326.0 343.9969Q325.32812 343.9969 324.82812 344.4344Q324.34375 344.85626 324.34375 346.04376L324.34375 349.45L323.29688 349.45ZM334.35938 348.6844Q333.76562 349.1844 333.21875 349.3875Q332.6875 349.59064 332.0625 349.59064Q331.03125 349.59064 330.48438 349.09064Q329.9375 348.59064 329.9375 347.8094Q329.9375 347.35626 330.14062 346.98126Q330.34375 346.59064 330.6875 346.3719Q331.03125 346.1375 331.45312 346.02814Q331.75 345.9344 332.39062 345.85626Q333.65625 345.71564 334.26562 345.4969Q334.26562 345.27814 334.26562 345.23126Q334.26562 344.575 333.96875 344.3094Q333.5625 343.96564 332.76562 343.96564Q332.03125 343.96564 331.67188 344.23126Q331.3125 344.48126 331.14062 345.1375L330.10938 344.9969Q330.25 344.34064 330.57812 343.9344Q330.90625 343.52814 331.51562 343.3094Q332.125 343.09064 332.92188 343.09064Q333.71875 343.09064 334.21875 343.27814Q334.71875 343.46564 334.95312 343.7469Q335.1875 344.02814 335.28125 344.46564Q335.32812 344.73126 335.32812 345.4344L335.32812 346.84064Q335.32812 348.3094 335.39062 348.7Q335.46875 349.09064 335.67188 349.45L334.5625 349.45Q334.40625 349.1219 334.35938 348.6844ZM334.26562 346.325Q333.6875 346.5594 332.54688 346.73126Q331.89062 346.825 331.625 346.95Q331.35938 347.0594 331.20312 347.27814Q331.0625 347.4969 331.0625 347.77814Q331.0625 348.2 331.375 348.48126Q331.70312 348.7625 332.3125 348.7625Q332.92188 348.7625 333.39062 348.4969Q333.875 348.23126 334.09375 347.7625Q334.26562 347.40314 334.26562 346.71564L334.26562 346.325ZM337.29688 349.45L337.29688 343.23126L338.23438 343.23126L338.23438 344.10626Q338.53125 343.6375 339.01562 343.3719Q339.5 343.09064 340.125 343.09064Q340.8125 343.09064 341.25 343.3719Q341.70312 343.65314 341.875 344.16876Q342.625 343.09064 343.79688 343.09064Q344.73438 343.09064 345.21875 343.60626Q345.71875 344.10626 345.71875 345.1844L345.71875 349.45L344.67188 349.45L344.67188 345.52814Q344.67188 344.90314 344.5625 344.6219Q344.46875 344.34064 344.20312 344.16876Q343.9375 343.9969 343.5625 343.9969Q342.90625 343.9969 342.46875 344.4344Q342.04688 344.8719 342.04688 345.84064L342.04688 349.45L340.98438 349.45L340.98438 345.40314Q340.98438 344.7 340.71875 344.35626Q340.46875 343.9969 339.89062 343.9969Q339.4375 343.9969 339.0625 344.23126Q338.6875 344.46564 338.51562 344.91876Q338.34375 345.3719 338.34375 346.21564L338.34375 349.45L337.29688 349.45ZM352.54688 347.45L353.64062 347.575Q353.39062 348.52814 352.6875 349.0594Q351.98438 349.59064 350.90625 349.59064Q349.54688 349.59064 348.73438 348.7469Q347.9375 347.90314 347.9375 346.3875Q347.9375 344.825 348.75 343.96564Q349.5625 343.09064 350.84375 343.09064Q352.09375 343.09064 352.875 343.9344Q353.67188 344.77814 353.67188 346.325Q353.67188 346.41876 353.67188 346.60626L349.03125 346.60626Q349.09375 347.6375 349.60938 348.1844Q350.125 348.71564 350.90625 348.71564Q351.48438 348.71564 351.89062 348.41876Q352.3125 348.10626 352.54688 347.45ZM349.09375 345.7469L352.5625 345.7469Q352.5 344.95 352.17188 344.5594Q351.65625 343.95 350.85938 343.95Q350.125 343.95 349.625 344.4344Q349.14062 344.91876 349.09375 345.7469Z" fill-rule="nonzero"/><path fill="#000000" d="M40.05 252.5823Q40.05 251.05106 40.3625 250.12918Q40.675 249.19168 41.284374 248.69168Q41.909374 248.19168 42.846874 248.19168Q43.534374 248.19168 44.05 248.47293Q44.58125 248.75418 44.925 249.28543Q45.26875 249.80106 45.45625 250.55106Q45.64375 251.30106 45.64375 252.5823Q45.64375 254.09793 45.33125 255.0198Q45.034374 255.94168 44.409374 256.4573Q43.8 256.9573 42.846874 256.9573Q41.6125 256.9573 40.89375 256.06668Q40.05 255.00418 40.05 252.5823ZM41.128124 252.5823Q41.128124 254.69168 41.628124 255.3948Q42.128124 256.09793 42.846874 256.09793Q43.58125 256.09793 44.065624 255.3948Q44.565624 254.69168 44.565624 252.5823Q44.565624 250.4573 44.065624 249.7698Q43.58125 249.06668 42.83125 249.06668Q42.1125 249.06668 41.675 249.67606Q41.128124 250.4573 41.128124 252.5823Z" fill-rule="nonzero"/><path fill="#000000" d="M24.596874 212.82603L24.596874 213.84166L18.909374 213.84166Q18.909374 213.46666 19.034374 213.10728Q19.253124 212.52916 19.721874 211.96666Q20.20625 211.40416 21.1125 210.66978Q22.51875 209.51353 23.003124 208.84166Q23.503124 208.16978 23.503124 207.57603Q23.503124 206.95103 23.05 206.52916Q22.596874 206.09166 21.878124 206.09166Q21.1125 206.09166 20.659374 206.54478Q20.20625 206.99791 20.190624 207.81041L19.1125 207.70103Q19.221874 206.48228 19.940624 205.85728Q20.675 205.21666 21.909374 205.21666Q23.14375 205.21666 23.8625 205.90416Q24.58125 206.59166 24.58125 207.60728Q24.58125 208.12291 24.3625 208.62291Q24.159374 209.10728 23.659374 209.66978Q23.175 210.21666 22.05 211.16978Q21.096874 211.96666 20.815624 212.26353Q20.55 212.54478 20.378124 212.82603L24.596874 212.82603ZM26.05 209.60728Q26.05 208.07603 26.3625 207.15416Q26.675 206.21666 27.284374 205.71666Q27.909374 205.21666 28.846874 205.21666Q29.534374 205.21666 30.05 205.49791Q30.58125 205.77916 30.925 206.31041Q31.26875 206.82603 31.45625 207.57603Q31.64375 208.32603 31.64375 209.60728Q31.64375 211.12291 31.33125 212.04478Q31.034374 212.96666 30.409374 213.48228Q29.8 213.98228 28.846874 213.98228Q27.6125 213.98228 26.89375 213.09166Q26.05 212.02916 26.05 209.60728ZM27.128124 209.60728Q27.128124 211.71666 27.628124 212.41978Q28.128124 213.12291 28.846874 213.12291Q29.58125 213.12291 30.065624 212.41978Q30.565624 211.71666 30.565624 209.60728Q30.565624 207.48228 30.065624 206.79478Q29.58125 206.09166 28.83125 206.09166Q28.1125 206.09166 27.675 206.70103Q27.128124 207.48228 27.128124 209.60728ZM33.05 209.60728Q33.05 208.07603 33.3625 207.15416Q33.675 206.21666 34.284374 205.71666Q34.909374 205.21666 35.846874 205.21666Q36.534374 205.21666 37.05 205.49791Q37.58125 205.77916 37.925 206.31041Q38.26875 206.82603 38.45625 207.57603Q38.64375 208.32603 38.64375 209.60728Q38.64375 211.12291 38.33125 212.04478Q38.034374 212.96666 37.409374 213.48228Q36.8 213.98228 35.846874 213.98228Q34.6125 213.98228 33.89375 213.09166Q33.05 212.02916 33.05 209.60728ZM34.128124 209.60728Q34.128124 211.71666 34.628124 212.41978Q35.128124 213.12291 35.846874 213.12291Q36.58125 213.12291 37.065624 212.41978Q37.565624 211.71666 37.565624 209.60728Q37.565624 207.48228 37.065624 206.79478Q36.58125 206.09166 35.83125 206.09166Q35.1125 206.09166 34.675 206.70103Q34.128124 207.48228 34.128124 209.60728ZM40.05 209.60728Q40.05 208.07603 40.3625 207.15416Q40.675 206.21666 41.284374 205.71666Q41.909374 205.21666 42.846874 205.21666Q43.534374 205.21666 44.05 205.49791Q44.58125 205.77916 44.925 206.31041Q45.26875 206.82603 45.45625 207.57603Q45.64375 208.32603 45.64375 209.60728Q45.64375 211.12291 45.33125 212.04478Q45.034374 212.96666 44.409374 213.48228Q43.8 213.98228 42.846874 213.98228Q41.6125 213.98228 40.89375 213.09166Q40.05 212.02916 40.05 209.60728ZM41.128124 209.60728Q41.128124 211.71666 41.628124 212.41978Q42.128124 213.12291 42.846874 213.12291Q43.58125 213.12291 44.065624 212.41978Q44.565624 211.71666 44.565624 209.60728Q44.565624 207.48228 44.065624 206.79478Q43.58125 206.09166 42.83125 206.09166Q42.1125 206.09166 41.675 206.70103Q41.128124 207.48228 41.128124 209.60728Z" fill-rule="nonzero"/><path fill="#000000" d="M22.425 170.86667L22.425 168.80417L18.70625 168.80417L18.70625 167.83542L22.628124 162.27292L23.4875 162.27292L23.4875 167.83542L24.64375 167.83542L24.64375 168.80417L23.4875 168.80417L23.4875 170.86667L22.425 170.86667ZM22.425 167.83542L22.425 163.97604L19.7375 167.83542L22.425 167.83542ZM26.05 166.6323Q26.05 165.10104 26.3625 164.17917Q26.675 163.24167 27.284374 162.74167Q27.909374 162.24167 28.846874 162.24167Q29.534374 162.24167 30.05 162.52292Q30.58125 162.80417 30.925 163.33542Q31.26875 163.85104 31.45625 164.60104Q31.64375 165.35104 31.64375 166.6323Q31.64375 168.14792 31.33125 169.0698Q31.034374 169.99167 30.409374 170.5073Q29.8 171.0073 28.846874 171.0073Q27.6125 171.0073 26.89375 170.11667Q26.05 169.05417 26.05 166.6323ZM27.128124 166.6323Q27.128124 168.74167 27.628124 169.4448Q28.128124 170.14792 28.846874 170.14792Q29.58125 170.14792 30.065624 169.4448Q30.565624 168.74167 30.565624 166.6323Q30.565624 164.5073 30.065624 163.8198Q29.58125 163.11667 28.83125 163.11667Q28.1125 163.11667 27.675 163.72604Q27.128124 164.5073 27.128124 166.6323ZM33.05 166.6323Q33.05 165.10104 33.3625 164.17917Q33.675 163.24167 34.284374 162.74167Q34.909374 162.24167 35.846874 162.24167Q36.534374 162.24167 37.05 162.52292Q37.58125 162.80417 37.925 163.33542Q38.26875 163.85104 38.45625 164.60104Q38.64375 165.35104 38.64375 166.6323Q38.64375 168.14792 38.33125 169.0698Q38.034374 169.99167 37.409374 170.5073Q36.8 171.0073 35.846874 171.0073Q34.6125 171.0073 33.89375 170.11667Q33.05 169.05417 33.05 166.6323ZM34.128124 166.6323Q34.128124 168.74167 34.628124 169.4448Q35.128124 170.14792 35.846874 170.14792Q36.58125 170.14792 37.065624 169.4448Q37.565624 168.74167 37.565624 166.6323Q37.565624 164.5073 37.065624 163.8198Q36.58125 163.11667 35.83125 163.11667Q35.1125 163.11667 34.675 163.72604Q34.128124 164.5073 34.128124 166.6323ZM40.05 166.6323Q40.05 165.10104 40.3625 164.17917Q40.675 163.24167 41.284374 162.74167Q41.909374 162.24167 42.846874 162.24167Q43.534374 162.24167 44.05 162.52292Q44.58125 162.80417 44.925 163.33542Q45.26875 163.85104 45.45625 164.60104Q45.64375 165.35104 45.64375 166.6323Q45.64375 168.14792 45.33125 169.0698Q45.034374 169.99167 44.409374 170.5073Q43.8 171.0073 42.846874 171.0073Q41.6125 171.0073 40.89375 170.11667Q40.05 169.05417 40.05 166.6323ZM41.128124 166.6323Q41.128124 168.74167 41.628124 169.4448Q42.128124 170.14792 42.846874 170.14792Q43.58125 170.14792 44.065624 169.4448Q44.565624 168.74167 44.565624 166.6323Q44.565624 164.5073 44.065624 163.8198Q43.58125 163.11667 42.83125 163.11667Q42.1125 163.11667 41.675 163.72604Q41.128124 164.5073 41.128124 166.6323Z" fill-rule="nonzero"/><path fill="#000000" d="M24.51875 121.407295L23.471874 121.48542Q23.33125 120.86042 23.08125 120.57917Q22.64375 120.126045 22.01875 120.126045Q21.51875 120.126045 21.128124 120.407295Q20.64375 120.782295 20.346874 121.48542Q20.065624 122.17292 20.05 123.45417Q20.425 122.876045 20.971874 122.594795Q21.534374 122.313545 22.14375 122.313545Q23.190624 122.313545 23.925 123.094795Q24.675 123.876045 24.675 125.094795Q24.675 125.907295 24.315624 126.61042Q23.971874 127.29792 23.3625 127.67292Q22.753124 128.03229 21.9875 128.03229Q20.659374 128.03229 19.83125 127.063545Q19.003124 126.094795 19.003124 123.876045Q19.003124 121.376045 19.925 120.251045Q20.721874 119.26667 22.08125 119.26667Q23.096874 119.26667 23.7375 119.844795Q24.39375 120.407295 24.51875 121.407295ZM20.221874 125.11042Q20.221874 125.657295 20.440624 126.157295Q20.675 126.64167 21.08125 126.907295Q21.503124 127.17292 21.971874 127.17292Q22.628124 127.17292 23.1125 126.64167Q23.596874 126.094795 23.596874 125.17292Q23.596874 124.282295 23.1125 123.76667Q22.64375 123.251045 21.925 123.251045Q21.20625 123.251045 20.70625 123.76667Q20.221874 124.282295 20.221874 125.11042ZM26.05 123.657295Q26.05 122.126045 26.3625 121.20417Q26.675 120.26667 27.284374 119.76667Q27.909374 119.26667 28.846874 119.26667Q29.534374 119.26667 30.05 119.54792Q30.58125 119.82917 30.925 120.36042Q31.26875 120.876045 31.45625 121.626045Q31.64375 122.376045 31.64375 123.657295Q31.64375 125.17292 31.33125 126.094795Q31.034374 127.01667 30.409374 127.532295Q29.8 128.03229 28.846874 128.03229Q27.6125 128.03229 26.89375 127.14167Q26.05 126.07917 26.05 123.657295ZM27.128124 123.657295Q27.128124 125.76667 27.628124 126.469795Q28.128124 127.17292 28.846874 127.17292Q29.58125 127.17292 30.065624 126.469795Q30.565624 125.76667 30.565624 123.657295Q30.565624 121.532295 30.065624 120.844795Q29.58125 120.14167 28.83125 120.14167Q28.1125 120.14167 27.675 120.751045Q27.128124 121.532295 27.128124 123.657295ZM33.05 123.657295Q33.05 122.126045 33.3625 121.20417Q33.675 120.26667 34.284374 119.76667Q34.909374 119.26667 35.846874 119.26667Q36.534374 119.26667 37.05 119.54792Q37.58125 119.82917 37.925 120.36042Q38.26875 120.876045 38.45625 121.626045Q38.64375 122.376045 38.64375 123.657295Q38.64375 125.17292 38.33125 126.094795Q38.034374 127.01667 37.409374 127.532295Q36.8 128.03229 35.846874 128.03229Q34.6125 128.03229 33.89375 127.14167Q33.05 126.07917 33.05 123.657295ZM34.128124 123.657295Q34.128124 125.76667 34.628124 126.469795Q35.128124 127.17292 35.846874 127.17292Q36.58125 127.17292 37.065624 126.469795Q37.565624 125.76667 37.565624 123.657295Q37.565624 121.532295 37.065624 120.844795Q36.58125 120.14167 35.83125 120.14167Q35.1125 120.14167 34.675 120.751045Q34.128124 121.532295 34.128124 123.657295ZM40.05 123.657295Q40.05 122.126045 40.3625 121.20417Q40.675 120.26667 41.284374 119.76667Q41.909374 119.26667 42.846874 119.26667Q43.534374 119.26667 44.05 119.54792Q44.58125 119.82917 44.925 120.36042Q45.26875 120.876045 45.45625 121.626045Q45.64375 122.376045 45.64375 123.657295Q45.64375 125.17292 45.33125 126.094795Q45.034374 127.01667 44.409374 127.532295Q43.8 128.03229 42.846874 128.03229Q41.6125 128.03229 40.89375 127.14167Q40.05 126.07917 40.05 123.657295ZM41.128124 123.657295Q41.128124 125.76667 41.628124 126.469795Q42.128124 127.17292 42.846874 127.17292Q43.58125 127.17292 44.065624 126.469795Q44.565624 125.76667 44.565624 123.657295Q44.565624 121.532295 44.065624 120.844795Q43.58125 120.14167 42.83125 120.14167Q42.1125 120.14167 41.675 120.751045Q41.128124 121.532295 41.128124 123.657295Z" fill-rule="nonzero"/><path fill="#000000" d="M20.675 80.260414Q20.01875 80.010414 19.690624 79.572914Q19.378124 79.11979 19.378124 78.510414Q19.378124 77.572914 20.05 76.93229Q20.7375 76.291664 21.846874 76.291664Q22.971874 76.291664 23.659374 76.947914Q24.346874 77.604164 24.346874 78.541664Q24.346874 79.135414 24.034374 79.572914Q23.721874 80.010414 23.08125 80.260414Q23.878124 80.510414 24.284374 81.08854Q24.690624 81.666664 24.690624 82.46354Q24.690624 83.55729 23.909374 84.30729Q23.14375 85.05729 21.8625 85.05729Q20.596874 85.05729 19.815624 84.30729Q19.034374 83.55729 19.034374 82.43229Q19.034374 81.58854 19.45625 81.02604Q19.89375 80.46354 20.675 80.260414ZM20.45625 78.46354Q20.45625 79.072914 20.846874 79.46354Q21.253124 79.854164 21.878124 79.854164Q22.4875 79.854164 22.878124 79.479164Q23.26875 79.08854 23.26875 78.52604Q23.26875 77.947914 22.8625 77.55729Q22.45625 77.15104 21.8625 77.15104Q21.253124 77.15104 20.846874 77.541664Q20.45625 77.93229 20.45625 78.46354ZM20.128124 82.43229Q20.128124 82.885414 20.33125 83.30729Q20.55 83.729164 20.971874 83.96354Q21.39375 84.197914 21.878124 84.197914Q22.628124 84.197914 23.1125 83.71354Q23.6125 83.229164 23.6125 82.479164Q23.6125 81.71354 23.1125 81.21354Q22.6125 80.71354 21.846874 80.71354Q21.096874 80.71354 20.6125 81.21354Q20.128124 81.697914 20.128124 82.43229ZM26.05 80.68229Q26.05 79.15104 26.3625 78.229164Q26.675 77.291664 27.284374 76.791664Q27.909374 76.291664 28.846874 76.291664Q29.534374 76.291664 30.05 76.572914Q30.58125 76.854164 30.925 77.385414Q31.26875 77.90104 31.45625 78.65104Q31.64375 79.40104 31.64375 80.68229Q31.64375 82.197914 31.33125 83.11979Q31.034374 84.041664 30.409374 84.55729Q29.8 85.05729 28.846874 85.05729Q27.6125 85.05729 26.89375 84.166664Q26.05 83.104164 26.05 80.68229ZM27.128124 80.68229Q27.128124 82.791664 27.628124 83.49479Q28.128124 84.197914 28.846874 84.197914Q29.58125 84.197914 30.065624 83.49479Q30.565624 82.791664 30.565624 80.68229Q30.565624 78.55729 30.065624 77.86979Q29.58125 77.166664 28.83125 77.166664Q28.1125 77.166664 27.675 77.77604Q27.128124 78.55729 27.128124 80.68229ZM33.05 80.68229Q33.05 79.15104 33.3625 78.229164Q33.675 77.291664 34.284374 76.791664Q34.909374 76.291664 35.846874 76.291664Q36.534374 76.291664 37.05 76.572914Q37.58125 76.854164 37.925 77.385414Q38.26875 77.90104 38.45625 78.65104Q38.64375 79.40104 38.64375 80.68229Q38.64375 82.197914 38.33125 83.11979Q38.034374 84.041664 37.409374 84.55729Q36.8 85.05729 35.846874 85.05729Q34.6125 85.05729 33.89375 84.166664Q33.05 83.104164 33.05 80.68229ZM34.128124 80.68229Q34.128124 82.791664 34.628124 83.49479Q35.128124 84.197914 35.846874 84.197914Q36.58125 84.197914 37.065624 83.49479Q37.565624 82.791664 37.565624 80.68229Q37.565624 78.55729 37.065624 77.86979Q36.58125 77.166664 35.83125 77.166664Q35.1125 77.166664 34.675 77.77604Q34.128124 78.55729 34.128124 80.68229ZM40.05 80.68229Q40.05 79.15104 40.3625 78.229164Q40.675 77.291664 41.284374 76.791664Q41.909374 76.291664 42.846874 76.291664Q43.534374 76.291664 44.05 76.572914Q44.58125 76.854164 44.925 77.385414Q45.26875 77.90104 45.45625 78.65104Q45.64375 79.40104 45.64375 80.68229Q45.64375 82.197914 45.33125 83.11979Q45.034374 84.041664 44.409374 84.55729Q43.8 85.05729 42.846874 85.05729Q41.6125 85.05729 40.89375 84.166664Q40.05 83.104164 40.05 80.68229ZM41.128124 80.68229Q41.128124 82.791664 41.628124 83.49479Q42.128124 84.197914 42.846874 84.197914Q43.58125 84.197914 44.065624 83.49479Q44.565624 82.791664 44.565624 80.68229Q44.565624 78.55729 44.065624 77.86979Q43.58125 77.166664 42.83125 77.166664Q42.1125 77.166664 41.675 77.77604Q41.128124 78.55729 41.128124 80.68229Z" fill-rule="nonzero"/><path fill="#000000" d="M80.332695 302.81195L75.93538 298.41464L76.60934 297.7407L77.27225 298.4036Q77.062325 297.68542 77.12862 297.33188Q77.19491 296.95624 77.460075 296.69107Q77.835724 296.31543 78.454445 296.16074L78.896385 297.1109Q78.454445 297.2214 78.18928 297.48657Q77.935165 297.7407 77.89097 298.09424Q77.84677 298.4257 78.0346 298.7682Q78.29977 299.29852 78.7638 299.76257L81.07295 302.07172L80.332695 302.81195ZM84.76316 295.55307L85.62495 294.86807Q86.12213 295.7188 86.0006 296.59164Q85.87907 297.46448 85.116714 298.2268Q84.155495 299.18805 82.984344 299.16595Q81.82425 299.13278 80.75254 298.0611Q79.64769 296.95624 79.61454 295.77405Q79.57034 294.5808 80.476326 293.6748Q81.360214 292.79092 82.50926 292.8351Q83.66936 292.8683 84.76316 293.96207Q84.82945 294.02838 84.962036 294.16095L81.68062 297.44238Q82.45402 298.12738 83.205315 298.14948Q83.94557 298.16052 84.49799 297.6081Q84.90679 297.1993 84.98413 296.70212Q85.06147 296.18283 84.76316 295.55307ZM81.11714 296.7905L83.569916 294.33774Q82.96225 293.81845 82.45402 293.77426Q81.65852 293.70795 81.09505 294.27142Q80.57577 294.7907 80.56471 295.4868Q80.56471 296.17178 81.11714 296.7905ZM89.381454 290.53702L90.21009 289.90726Q90.83986 290.7801 90.77357 291.70816Q90.707275 292.63626 89.98912 293.3544Q89.083145 294.26038 87.945145 294.22723Q86.807144 294.172 85.702286 293.06714Q84.99518 292.36005 84.69687 291.5977Q84.39856 290.81323 84.60848 290.073Q84.82945 289.3217 85.40398 288.74716Q86.111084 288.04007 86.92868 287.95166Q87.74627 287.8412 88.55281 288.38257L87.9341 289.22226Q87.392715 288.87976 86.90658 288.92395Q86.40939 288.9571 86.033745 289.33273Q85.47027 289.8962 85.52551 290.65857Q85.5697 291.40985 86.44254 292.28268Q87.33747 293.17764 88.07773 293.23288Q88.81798 293.28812 89.35936 292.74673Q89.8013 292.3048 89.823395 291.75238Q89.856544 291.1889 89.381454 290.53702ZM94.02184 292.50366L93.2374 291.896Q93.54675 291.71924 93.73458 291.5314Q93.977646 291.28833 94.03289 291.0563Q94.11023 290.82428 94.06603 290.58124Q94.010796 290.3934 93.73458 289.78574Q93.690384 289.71945 93.62409 289.54266L87.53635 286.81366L88.34289 286.00714L91.80109 287.63126Q92.464 287.9406 93.14901 288.33838Q92.76231 287.6865 92.45295 287.0236L90.82881 283.5212L91.56906 282.78094L94.3754 288.92395Q94.81734 289.9183 94.94992 290.33817Q95.12669 290.9127 95.02726 291.34357Q94.94992 291.77448 94.59637 292.12802Q94.386444 292.33795 94.02184 292.50366ZM97.15963 282.75885L97.988266 282.1291Q98.618034 283.00192 98.55174 283.93Q98.48545 284.8581 97.767296 285.57623Q96.86132 286.4822 95.72332 286.44907Q94.58532 286.39383 93.48046 285.28897Q92.77335 284.58188 92.475044 283.81952Q92.176735 283.03506 92.38666 282.29483Q92.60763 281.54352 93.18215 280.969Q93.88926 280.26187 94.70685 280.1735Q95.524445 280.06302 96.330986 280.6044L95.712265 281.4441Q95.17089 281.10156 94.68475 281.14578Q94.18757 281.17892 93.81192 281.55457Q93.24844 282.11804 93.30369 282.8804Q93.34788 283.63168 94.22072 284.50452Q95.11565 285.39944 95.8559 285.4547Q96.59615 285.50995 97.13753 284.96857Q97.579475 284.5266 97.60157 283.97418Q97.63471 283.4107 97.15963 282.75885ZM100.120636 283.02402L94.04394 276.94733L94.79524 276.196L100.87194 282.2727L100.120636 283.02402ZM97.04914 275.66568L96.187355 274.8039L96.93866 274.0526L97.800446 274.9144L97.04914 275.66568ZM102.26405 280.8806L97.86674 276.48328L98.618034 275.732L103.01536 280.1293L102.26405 280.8806ZM104.385376 278.75928L99.98805 274.36197L100.65097 273.69904L101.269684 274.31778Q101.03767 273.11346 101.9547 272.19644Q102.35244 271.7987 102.82753 271.61087Q103.31367 271.412 103.71141 271.4783Q104.10916 271.5446 104.48481 271.78766Q104.72788 271.96442 105.24716 272.4837L107.954056 275.1906L107.213806 275.93085L104.540054 273.2571Q104.07602 272.79306 103.766655 272.6605Q103.4573 272.5279 103.103745 272.6163Q102.73914 272.69363 102.440834 272.99194Q101.965744 273.46704 101.92155 274.12994Q101.87736 274.77075 102.71705 275.61044L105.125626 278.01904L104.385376 278.75928ZM109.55609 274.31778L110.39578 273.69904Q110.77143 273.9863 111.13603 273.93106Q111.62217 273.86478 112.09726 273.38968Q112.61654 272.87042 112.68283 272.38428Q112.76017 271.8871 112.495 271.42303Q112.32928 271.12473 111.58903 270.4066Q111.677414 271.46725 110.94821 272.19644Q110.04223 273.10242 108.89318 272.94775Q107.733086 272.782 106.8271 271.87604Q106.197334 271.24628 105.88798 270.49496Q105.57862 269.7216 105.72225 269.00342Q105.86588 268.28525 106.451454 267.69968Q107.2359 266.91525 108.3739 267.03677L107.84357 266.50644L108.52858 265.82144L112.32928 269.62213Q113.3568 270.64966 113.57777 271.29047Q113.79874 271.93127 113.58881 272.62735Q113.38994 273.33444 112.72703 273.99734Q111.94258 274.7818 111.10289 274.9144Q110.2632 275.04697 109.55609 274.31778ZM107.53421 271.05844Q108.395996 271.92023 109.136246 271.97546Q109.8765 272.03073 110.39578 271.51144Q110.91506 270.99216 110.859825 270.2519Q110.81563 269.5006 109.97594 268.66092Q109.169395 267.85437 108.395996 267.81018Q107.633644 267.75494 107.12541 268.26315Q106.62823 268.76035 106.68347 269.5227Q106.738716 270.26294 107.53421 271.05844ZM112.16355 267.33508L111.41225 266.5838L113.71034 264.28568L114.46165 265.037L112.16355 267.33508Z" fill-rule="nonzero"/><path fill="#000000" d="M152.32138 314.11462L146.24467 308.03793L146.98492 307.29767L149.16148 309.47424Q149.08415 308.35834 149.87964 307.56284Q150.37683 307.06564 150.92926 306.91098Q151.48169 306.7342 151.97887 306.92203Q152.46501 307.0988 153.11687 307.75067L155.90111 310.53488L155.16084 311.27515L152.37662 308.4909Q151.81314 307.92743 151.31595 307.91638Q150.81877 307.90533 150.37683 308.3473Q150.04538 308.67874 149.92384 309.15384Q149.8023 309.6068 149.96803 310.03772Q150.13376 310.4465 150.65305 310.9658L153.06163 313.37436L152.32138 314.11462ZM160.15479 306.28122L159.50293 305.62933Q159.73494 306.89993 158.85106 307.7838Q158.46437 308.1705 157.97823 308.3694Q157.4921 308.54614 157.1054 308.4909Q156.70764 308.42462 156.30989 308.15945Q156.05579 307.99374 155.56964 307.5076L152.8517 304.78964L153.603 304.03836L156.04474 306.48007Q156.61926 307.0546 156.87337 307.22034Q157.22693 307.4413 157.62468 307.3971Q158.02242 307.3308 158.36493 306.9883Q158.69638 306.65686 158.81792 306.20386Q158.93945 305.7288 158.76268 305.30893Q158.59694 304.87805 158.03346 304.31458L155.68013 301.9612L156.42038 301.22098L160.8177 305.6183L160.15479 306.28122ZM162.22087 304.21512L157.82355 299.8178L158.48647 299.1549L159.10518 299.77362Q158.87315 298.56934 159.79019 297.65228Q160.18794 297.25455 160.66302 297.0667Q161.14915 296.86786 161.5469 296.93414Q161.94466 297.00043 162.32031 297.2435Q162.56337 297.4203 163.08266 297.93954L165.78955 300.64645L165.0493 301.3867L162.37555 298.71295Q161.91151 298.2489 161.60214 298.11633Q161.29279 297.98376 160.93924 298.07214Q160.57463 298.14948 160.27632 298.44778Q159.80124 298.92288 159.75705 299.5858Q159.71284 300.2266 160.55254 301.06628L162.96112 303.47488L162.22087 304.21512ZM168.43015 294.77966L169.25879 294.1499Q169.88855 295.02274 169.82227 295.9508Q169.75598 296.8789 169.03783 297.59705Q168.13184 298.50302 166.99384 298.46988Q165.85583 298.41464 164.75099 297.30978Q164.04388 296.6027 163.74556 295.84033Q163.44725 295.05588 163.65718 294.31564Q163.87814 293.56433 164.45267 292.9898Q165.15977 292.2827 165.97737 292.1943Q166.79497 292.08383 167.6015 292.6252L166.98279 293.4649Q166.4414 293.12238 165.95528 293.1666Q165.45808 293.19974 165.08244 293.57538Q164.51897 294.13885 164.5742 294.9012Q164.61841 295.6525 165.49124 296.52533Q166.38617 297.4203 167.12642 297.47552Q167.86667 297.53076 168.40805 296.98938Q168.84999 296.54742 168.87209 295.99503Q168.90524 295.43155 168.43015 294.77966ZM171.41325 295.02274L165.33656 288.94604L166.07681 288.20578L168.25337 290.38235Q168.17603 289.26645 168.97153 288.47095Q169.46872 287.97375 170.02113 287.8191Q170.57356 287.6423 171.07076 287.83014Q171.55688 288.00693 172.20876 288.65878L174.99298 291.44302L174.25273 292.18326L171.4685 289.39902Q170.90503 288.83554 170.40784 288.8245Q169.91066 288.81345 169.46872 289.2554Q169.13725 289.58685 169.01572 290.06195Q168.8942 290.51492 169.05992 290.94583Q169.22565 291.3546 169.74492 291.8739L172.1535 294.2825L171.41325 295.02274ZM177.954 285.65356L178.81578 284.96857Q179.31296 285.8193 179.19144 286.69214Q179.0699 287.56497 178.30754 288.32733Q177.34633 289.28854 176.17517 289.26645Q175.01508 289.2333 173.94337 288.1616Q172.83852 287.05673 172.80537 285.87454Q172.76118 284.6813 173.66716 283.77533Q174.55104 282.89145 175.70009 282.93564Q176.86018 282.96878 177.954 284.0626Q178.02028 284.12888 178.15286 284.26144L174.87144 287.54288Q175.64485 288.22787 176.39615 288.24997Q177.1364 288.26102 177.68883 287.70862Q178.09763 287.2998 178.17496 286.8026Q178.2523 286.28336 177.954 285.65356ZM174.30797 286.89102L176.76076 284.43823Q176.15308 283.91895 175.64485 283.87476Q174.84935 283.80847 174.28587 284.37195Q173.7666 284.89124 173.75555 285.58728Q173.75555 286.2723 174.30797 286.89102ZM181.31274 285.12323L176.91544 280.72592L177.57834 280.06302L178.19707 280.68173Q177.96504 279.47745 178.88206 278.56042Q179.27982 278.16266 179.75491 277.97482Q180.24104 277.77597 180.6388 277.84225Q181.03654 277.90854 181.41219 278.1516Q181.65526 278.3284 182.17453 278.8477L184.88142 281.55457L184.14117 282.29483L181.46744 279.62106Q181.00339 279.15704 180.69403 279.02444Q180.38467 278.89188 180.03111 278.98026Q179.66652 279.0576 179.36821 279.3559Q178.89313 279.831 178.84892 280.4939Q178.80473 281.13474 179.64442 281.9744L182.05301 284.383L181.31274 285.12323ZM187.22372 277.88644L187.98607 278.42783Q187.73195 278.8145 187.48889 279.0576Q187.0801 279.4664 186.73758 279.56583Q186.38403 279.6542 186.07468 279.54373Q185.77637 279.4222 185.1024 278.74823L182.57228 276.2181L182.0309 276.7595L181.45638 276.18497L181.99776 275.6436L180.90396 274.54977L181.20227 273.36758L182.738 274.90335L183.48932 274.15204L184.06384 274.72656L183.31253 275.47787L185.88684 278.0522Q186.20726 278.3726 186.3288 278.42783Q186.46138 278.47202 186.60501 278.43887Q186.74864 278.40573 186.91437 278.24Q187.04695 278.10742 187.22372 277.88644ZM185.90895 276.12973Q184.68256 274.90335 184.77095 273.6438Q184.84828 272.5942 185.66588 271.7766Q186.57185 270.87064 187.743 270.89273Q188.91415 270.89273 189.96376 271.94232Q190.8145 272.79306 191.04652 273.53333Q191.27853 274.2736 191.05757 275.04697Q190.8366 275.79828 190.26207 276.3728Q189.34505 277.28983 188.18495 277.27878Q187.02484 277.24564 185.90895 276.12973ZM186.6713 275.36737Q187.51099 276.20706 188.29543 276.2623Q189.09093 276.30652 189.64336 275.7541Q190.20683 275.1906 190.15158 274.40616Q190.09634 273.6217 189.23456 272.75992Q188.41696 271.94232 187.62148 271.89813Q186.83702 271.8429 186.28459 272.39532Q185.73216 272.94775 185.77637 273.74326Q185.82056 274.51663 186.6713 275.36737ZM190.85869 271.18Q189.63231 269.95358 189.72069 268.69406Q189.79803 267.64444 190.61563 266.82684Q191.5216 265.92087 192.69275 265.94296Q193.86389 265.94296 194.91351 266.99258Q195.76425 267.84332 195.99626 268.5836Q196.22829 269.32382 196.00731 270.09723Q195.78635 270.84854 195.21182 271.42307Q194.29478 272.3401 193.13469 272.32904Q191.9746 272.2959 190.85869 271.18ZM191.62105 270.41763Q192.46074 271.25732 193.24518 271.31256Q194.04068 271.35675 194.5931 270.80432Q195.15657 270.24084 195.10133 269.45642Q195.0461 268.67197 194.18431 267.81018Q193.36671 266.99258 192.57121 266.9484Q191.78677 266.89316 191.23434 267.4456Q190.68192 267.99802 190.7261 268.7935Q190.77031 269.5669 191.62105 270.41763ZM199.24454 265.86563L200.00688 266.407Q199.75278 266.7937 199.5097 267.03677Q199.1009 267.4456 198.7584 267.545Q198.40485 267.6334 198.09549 267.52292Q197.79718 267.40137 197.12321 266.72742L194.5931 264.1973L194.05173 264.73868L193.4772 264.16415L194.01857 263.62277L192.92477 262.52896L193.22308 261.34677L194.75883 262.88254L195.51013 262.13123L196.08466 262.70575L195.33336 263.45706L197.90767 266.03137Q198.22807 266.35178 198.34961 266.407Q198.4822 266.4512 198.62582 266.41806Q198.76945 266.38492 198.93518 266.21918Q199.06776 266.0866 199.24454 265.86563Z" fill-rule="nonzero"/><path fill="#000000" d="M266.97952 286.12866L264.82507 283.9742Q264.89136 284.39404 264.73666 284.8802Q264.582 285.3442 264.22842 285.69778Q263.444 286.4822 262.2618 286.42697Q261.06854 286.3607 259.97476 285.26688Q259.31183 284.60397 259.02457 283.85266Q258.72626 283.0903 258.892 282.39426Q259.0577 281.6761 259.577 281.15683Q260.3946 280.33923 261.54364 280.5602L260.95807 279.97464L261.63202 279.30066L267.7198 285.3884L266.97952 286.12866ZM260.77023 284.53766Q261.62097 285.3884 262.39438 285.4547Q263.17883 285.50995 263.67603 285.01276Q264.1511 284.53766 264.09586 283.79742Q264.02957 283.0461 263.21198 282.22852Q262.3281 281.34464 261.52155 281.2673Q260.72604 281.17892 260.22885 281.6761Q259.75378 282.15118 259.83112 282.91354Q259.8974 283.66483 260.77023 284.53766ZM270.3162 279.41116L269.6643 278.75928Q269.89633 280.02988 269.01245 280.91376Q268.62576 281.30045 268.13962 281.49933Q267.65347 281.6761 267.26678 281.62085Q266.86905 281.55457 266.47128 281.2894Q266.21716 281.1237 265.73105 280.63754L263.0131 277.9196L263.7644 277.1683L266.20612 279.61002Q266.78064 280.18454 267.03476 280.35028Q267.38834 280.57126 267.78607 280.52704Q268.1838 280.46075 268.5263 280.11826Q268.8578 279.7868 268.9793 279.3338Q269.10083 278.85873 268.92407 278.43887Q268.75833 278.008 268.19485 277.44452L265.84152 275.09116L266.5818 274.35092L270.9791 278.74823L270.3162 279.41116ZM275.26593 274.4614L274.61407 273.80954Q274.8461 275.0801 273.96222 275.964Q273.5755 276.3507 273.08936 276.5496Q272.60324 276.72635 272.21652 276.6711Q271.8188 276.60483 271.42105 276.33966Q271.16693 276.17392 270.6808 275.6878L267.96286 272.96985L268.71414 272.21854L271.15588 274.66028Q271.7304 275.2348 271.98453 275.40054Q272.33807 275.6215 272.7358 275.5773Q273.13358 275.51102 273.47607 275.16852Q273.80753 274.83707 273.92905 274.38406Q274.0506 273.90897 273.8738 273.48914Q273.7081 273.05823 273.14462 272.49475L270.79126 270.14142L271.53152 269.40118L275.92883 273.7985L275.26593 274.4614ZM276.83484 272.89252L276.1498 269.00342L272.55905 268.37366L273.48712 267.4456L275.1886 267.79913Q275.67474 267.9096 275.99515 267.98697Q275.8957 267.53397 275.84045 267.16937L275.54214 265.39053L276.43707 264.4956L276.97845 268.0864L280.9449 268.78244L280.0389 269.68845L277.7629 269.2244L277.15524 269.10284L277.72977 271.9976L276.83484 272.89252ZM278.74622 267.33508L277.99493 266.5838L280.29303 264.2857L281.0443 265.037L278.74622 267.33508Z" fill-rule="nonzero"/><path fill="#000000" d="M342.0839 287.7086L342.91254 287.07883Q343.5423 287.95166 343.476 288.87973Q343.40973 289.80783 342.69156 290.52597Q341.78558 291.43195 340.64758 291.3988Q339.50958 291.34357 338.40472 290.2387Q337.69763 289.53162 337.39932 288.76926Q337.101 287.9848 337.31094 287.24457Q337.5319 286.49326 338.1064 285.91873Q338.81354 285.21164 339.63113 285.12323Q340.44873 285.01276 341.25525 285.55414L340.63654 286.39383Q340.09515 286.05133 339.60904 286.09552Q339.11185 286.12866 338.7362 286.5043Q338.17273 287.06778 338.22797 287.83014Q338.27216 288.58142 339.145 289.45425Q340.03992 290.3492 340.78018 290.40445Q341.52042 290.4597 342.0618 289.9183Q342.50375 289.47635 342.52585 288.92395Q342.559 288.36047 342.0839 287.7086ZM345.04492 287.97375L338.9682 281.89706L339.7195 281.14575L345.7962 287.22247L345.04492 287.97375ZM345.06702 284.30563L344.3157 283.55435L346.6138 281.25626L347.3651 282.00754L345.06702 284.30563ZM350.97797 280.71487L351.74033 281.25626Q351.4862 281.64294 351.24313 281.88602Q350.83435 282.2948 350.49185 282.39426Q350.13828 282.48264 349.82892 282.37216Q349.5306 282.2506 348.85666 281.57666L346.32654 279.04654L345.78516 279.58792L345.21063 279.0134L345.752 278.47202L344.6582 277.3782L344.9565 276.196L346.49228 277.73175L347.24356 276.98047L347.81808 277.555L347.0668 278.30627L349.6411 280.88058Q349.96152 281.20102 350.08304 281.25626Q350.21564 281.30045 350.35925 281.2673Q350.5029 281.23416 350.6686 281.06842Q350.8012 280.93585 350.97797 280.71487ZM352.8231 280.1956L352.127 280.89163L346.05032 274.81494L346.80164 274.06366L348.96713 276.22916Q348.85666 275.1685 349.58588 274.4393Q349.99466 274.0305 350.51395 273.84268Q351.03323 273.63275 351.56354 273.69904Q352.10492 273.75427 352.65735 274.04153Q353.20978 274.3288 353.68488 274.8039Q354.81183 275.93085 354.86707 277.11304Q354.9223 278.29523 354.14893 279.06863Q353.36447 279.8531 352.27066 279.64316L352.8231 280.1956ZM350.58023 277.97482Q351.3647 278.75928 351.9392 278.89185Q352.86728 279.11282 353.4639 278.5162Q353.95004 278.03006 353.88376 277.25668Q353.8285 276.47223 352.97775 275.6215Q352.11597 274.7597 351.3647 274.69342Q350.61337 274.62714 350.12723 275.11325Q349.6411 275.5994 349.7074 276.3949Q349.77368 277.16827 350.58023 277.97482ZM357.08783 275.93085L352.6905 271.53354L353.35342 270.8706L353.97214 271.48935Q353.7401 270.28503 354.65714 269.368Q355.0549 268.97028 355.52997 268.78244Q356.0161 268.58356 356.41385 268.64987Q356.8116 268.71616 357.18726 268.95923Q357.43033 269.136 357.94962 269.65527L360.6565 272.36218L359.91626 273.10242L357.2425 270.42868Q356.77847 269.96463 356.46912 269.83206Q356.15976 269.69946 355.80618 269.78787Q355.4416 269.8652 355.14328 270.1635Q354.66818 270.6386 354.624 271.3015Q354.5798 271.94232 355.4195 272.782L357.82806 275.19058L357.08783 275.93085ZM362.01547 271.0032L355.93878 264.9265L356.69006 264.1752L362.76678 270.2519L362.01547 271.0032ZM362.03757 267.33508L361.2863 266.58377L363.58438 264.28568L364.33566 265.037L362.03757 267.33508Z" fill-rule="nonzero"/><path fill="#000000" d="M423.50803 292.802L417.7628 289.7526L418.5362 288.9792L421.7734 290.8243L422.9777 291.49826Q422.9335 291.40988 422.30374 290.36026L420.42548 287.0899L421.18784 286.32755L424.40295 288.21683L425.46362 288.83557L424.867 287.7307L423.07712 284.43823L423.80634 283.70905L426.8226 289.48743L426.0492 290.26083L422.71252 288.31628L421.7955 287.7528L424.29248 292.01755L423.50803 292.802ZM426.59058 285.3221Q425.36417 284.09573 425.45258 282.8362Q425.5299 281.7866 426.3475 280.969Q427.25348 280.06302 428.42462 280.0851Q429.59576 280.0851 430.6454 281.13474Q431.49612 281.98547 431.72815 282.7257Q431.96017 283.46597 431.7392 284.23938Q431.51822 284.99066 430.9437 285.5652Q430.02667 286.4822 428.86658 286.47116Q427.70648 286.43802 426.59058 285.3221ZM427.3529 284.55978Q428.1926 285.39948 428.97705 285.4547Q429.77255 285.4989 430.32498 284.94647Q430.88846 284.383 430.83322 283.59854Q430.77795 282.81412 429.91617 281.95233Q429.09857 281.13474 428.3031 281.09055Q427.51865 281.03528 426.96622 281.5877Q426.4138 282.14014 426.45798 282.93564Q426.50217 283.70905 427.3529 284.55978ZM431.5403 280.37238Q430.31393 279.146 430.4023 277.88644Q430.47964 276.83685 431.29724 276.01926Q432.20322 275.11328 433.37436 275.13538Q434.54553 275.13538 435.59512 276.18497Q436.44586 277.0357 436.6779 277.77597Q436.9099 278.51624 436.68893 279.2896Q436.46796 280.04092 435.89343 280.61545Q434.9764 281.53247 433.8163 281.52142Q432.65622 281.48828 431.5403 280.37238ZM432.30267 279.61002Q433.14236 280.4497 433.9268 280.50497Q434.7223 280.54916 435.27472 279.99673Q435.8382 279.43326 435.78296 278.6488Q435.72772 277.86435 434.86594 277.00256Q434.04834 276.18497 433.25284 276.14078Q432.46838 276.08554 431.91595 276.63797Q431.36353 277.1904 431.40775 277.9859Q431.45193 278.75928 432.30267 279.61002ZM438.96494 277.34506L432.88824 271.26837L433.63953 270.5171L437.1088 273.98633L437.07562 270.43973L438.0479 269.46747L437.98163 272.782L442.61096 273.69907L441.69394 274.6161L437.98163 273.8206L437.97058 274.8481L439.71625 276.59378L438.96494 277.34506ZM437.99268 267.8875L437.1309 267.02573L437.88217 266.27444L438.74396 267.13623L437.99268 267.8875ZM443.20758 273.10245L438.81024 268.7051L439.56155 267.95383L443.9589 272.35114L443.20758 273.10245ZM446.9199 266.5617L447.78168 265.87668Q448.27887 266.72742 448.15732 267.60025Q448.0358 268.47308 447.27344 269.23544Q446.31223 270.19666 445.14108 270.17456Q443.981 270.14142 442.90927 269.0697Q441.8044 267.96487 441.77127 266.78265Q441.72708 265.58942 442.63306 264.68344Q443.51694 263.79956 444.666 263.84375Q445.82608 263.8769 446.9199 264.9707Q446.98618 265.037 447.11877 265.1696L443.83734 268.451Q444.61075 269.13602 445.36203 269.1581Q446.1023 269.16916 446.65472 268.61673Q447.0635 268.20792 447.14087 267.71075Q447.2182 267.19147 446.9199 266.5617ZM443.27386 267.79913L445.72665 265.34634Q445.119 264.8271 444.61075 264.78287Q443.81525 264.71658 443.25177 265.28006Q442.73248 265.79935 442.72144 266.4954Q442.72144 267.18042 443.27386 267.79913Z" fill-rule="nonzero"/><path fill="#000000" d="M518.1131 281.48828L512.36786 278.43887L513.14124 277.66547L516.3785 279.5106L517.58276 280.18454Q517.5386 280.09616 516.9088 279.04654L515.0305 275.77618L515.7929 275.01382L519.008 276.90314L520.06866 277.52185L519.47205 276.417L517.6822 273.1245L518.4114 272.39532L521.4277 278.1737L520.65424 278.9471L517.31757 277.00256L516.4006 276.4391L518.8975 280.70383L518.1131 281.48828ZM521.1956 274.0084Q519.96924 272.782 520.0576 271.5225Q520.13495 270.47287 520.9526 269.65527Q521.8585 268.7493 523.02966 268.7714Q524.2008 268.7714 525.2504 269.821Q526.1012 270.67175 526.3332 271.412Q526.5652 272.15225 526.34424 272.92566Q526.1233 273.67694 525.54877 274.25146Q524.6317 275.16852 523.4716 275.15744Q522.3115 275.1243 521.1956 274.0084ZM521.95795 273.24606Q522.79767 274.08575 523.5821 274.141Q524.3776 274.18518 524.93005 273.63275Q525.4935 273.06927 525.4383 272.28482Q525.383 271.5004 524.52124 270.6386Q523.7036 269.821 522.90814 269.77682Q522.1237 269.72156 521.5713 270.274Q521.01886 270.82642 521.06305 271.62192Q521.10724 272.39532 521.95795 273.24606ZM526.1454 269.05865Q524.919 267.83228 525.0074 266.57272Q525.0847 265.52313 525.9023 264.70554Q526.8083 263.79956 527.97943 263.82166Q529.1506 263.82166 530.2002 264.87125Q531.0509 265.722 531.28296 266.46225Q531.51495 267.2025 531.294 267.9759Q531.073 268.7272 530.4985 269.30173Q529.5815 270.21875 528.4214 270.2077Q527.2613 270.17456 526.1454 269.05865ZM526.9077 268.2963Q527.74744 269.136 528.53186 269.19125Q529.32733 269.23544 529.87976 268.683Q530.44324 268.11954 530.388 267.33508Q530.33276 266.55063 529.471 265.68884Q528.6534 264.87125 527.8579 264.82706Q527.0734 264.77182 526.521 265.32425Q525.96857 265.87668 526.0128 266.67218Q526.057 267.44556 526.9077 268.2963Z" fill-rule="nonzero"/><path fill="#757575" d="M25.253124 35.55L23.675 35.55L23.675 25.471874Q23.096874 26.01875 22.175 26.565624Q21.253124 27.096874 20.503124 27.378124L20.503124 25.846874Q21.83125 25.221874 22.83125 24.33125Q23.83125 23.440624 24.2375 22.6125L25.253124 22.6125L25.253124 35.55ZM29.3 29.190624Q29.3 26.909374 29.76875 25.51875Q30.2375 24.128124 31.159374 23.378124Q32.096874 22.6125 33.503124 22.6125Q34.534374 22.6125 35.315624 23.034374Q36.096874 23.440624 36.596874 24.2375Q37.1125 25.01875 37.409374 26.159374Q37.70625 27.284374 37.70625 29.190624Q37.70625 31.45625 37.2375 32.8625Q36.76875 34.253124 35.83125 35.01875Q34.909374 35.76875 33.503124 35.76875Q31.628124 35.76875 30.565624 34.440624Q29.3 32.83125 29.3 29.190624ZM30.925 29.190624Q30.925 32.3625 31.659374 33.425Q32.409374 34.471874 33.503124 34.471874Q34.58125 34.471874 35.33125 33.425Q36.08125 32.3625 36.08125 29.190624Q36.08125 26.01875 35.33125 24.971874Q34.58125 23.925 33.4875 23.925Q32.39375 23.925 31.7375 24.846874Q30.925 26.01875 30.925 29.190624ZM39.3 29.190624Q39.3 26.909374 39.76875 25.51875Q40.2375 24.128124 41.159374 23.378124Q42.096874 22.6125 43.503124 22.6125Q44.534374 22.6125 45.315624 23.034374Q46.096874 23.440624 46.596874 24.2375Q47.1125 25.01875 47.409374 26.159374Q47.70625 27.284374 47.70625 29.190624Q47.70625 31.45625 47.2375 32.8625Q46.76875 34.253124 45.83125 35.01875Q44.909374 35.76875 43.503124 35.76875Q41.628124 35.76875 40.565624 34.440624Q39.3 32.83125 39.3 29.190624ZM40.925 29.190624Q40.925 32.3625 41.659374 33.425Q42.409374 34.471874 43.503124 34.471874Q44.58125 34.471874 45.33125 33.425Q46.08125 32.3625 46.08125 29.190624Q46.08125 26.01875 45.33125 24.971874Q44.58125 23.925 43.4875 23.925Q42.39375 23.925 41.7375 24.846874Q40.925 26.01875 40.925 29.190624ZM60.83125 32.128124L62.378124 32.33125Q62.128124 33.940624 61.08125 34.8625Q60.034374 35.76875 58.503124 35.76875Q56.58125 35.76875 55.409374 34.51875Q54.253124 33.253124 54.253124 30.925Q54.253124 29.409374 54.753124 28.284374Q55.253124 27.14375 56.26875 26.58125Q57.3 26.003124 58.503124 26.003124Q60.034374 26.003124 60.9875 26.784374Q61.95625 27.55 62.2375 28.95625L60.690624 29.190624Q60.471874 28.253124 59.909374 27.784374Q59.3625 27.3 58.565624 27.3Q57.378124 27.3 56.628124 28.159374Q55.878124 29.01875 55.878124 30.878124Q55.878124 32.753124 56.596874 33.6125Q57.315624 34.45625 58.4875 34.45625Q59.409374 34.45625 60.034374 33.89375Q60.659374 33.315624 60.83125 32.128124ZM63.14375 30.878124Q63.14375 28.284374 64.59688 27.034374Q65.8 26.003124 67.51875 26.003124Q69.45625 26.003124 70.675 27.26875Q71.89375 28.534374 71.89375 30.753124Q71.89375 32.55 71.34688 33.58125Q70.81563 34.6125 69.78438 35.190624Q68.75313 35.76875 67.51875 35.76875Q65.56563 35.76875 64.34688 34.51875Q63.14375 33.253124 63.14375 30.878124ZM64.76875 30.878124Q64.76875 32.675 65.55 33.565624Q66.33125 34.45625 67.51875 34.45625Q68.70625 34.45625 69.4875 33.565624Q70.26875 32.659374 70.26875 30.83125Q70.26875 29.096874 69.47188 28.20625Q68.69063 27.315624 67.51875 27.315624Q66.33125 27.315624 65.55 28.20625Q64.76875 29.096874 64.76875 30.878124ZM73.7375 35.55L73.7375 26.221874L75.15938 26.221874L75.15938 27.55Q76.19063 26.003124 78.12813 26.003124Q78.97188 26.003124 79.675 26.315624Q80.39375 26.6125 80.7375 27.1125Q81.09688 27.596874 81.2375 28.26875Q81.31563 28.70625 81.31563 29.815624L81.31563 35.55L79.7375 35.55L79.7375 29.878124Q79.7375 28.909374 79.55 28.425Q79.37813 27.940624 78.89375 27.659374Q78.425 27.378124 77.8 27.378124Q76.78438 27.378124 76.05 28.01875Q75.31563 28.659374 75.31563 30.45625L75.31563 35.55L73.7375 35.55ZM83.7375 35.55L83.7375 26.221874L85.15938 26.221874L85.15938 27.55Q86.19063 26.003124 88.12813 26.003124Q88.97188 26.003124 89.675 26.315624Q90.39375 26.6125 90.7375 27.1125Q91.09688 27.596874 91.2375 28.26875Q91.31563 28.70625 91.31563 29.815624L91.31563 35.55L89.7375 35.55L89.7375 29.878124Q89.7375 28.909374 89.55 28.425Q89.37813 27.940624 88.89375 27.659374Q88.425 27.378124 87.8 27.378124Q86.78438 27.378124 86.05 28.01875Q85.31563 28.659374 85.31563 30.45625L85.31563 35.55L83.7375 35.55ZM100.12813 32.55L101.76875 32.753124Q101.37813 34.175 100.33125 34.971874Q99.28438 35.76875 97.65938 35.76875Q95.6125 35.76875 94.40938 34.503124Q93.20625 33.2375 93.20625 30.95625Q93.20625 28.6125 94.40938 27.315624Q95.62813 26.003124 97.56563 26.003124Q99.44063 26.003124 100.62813 27.284374Q101.81563 28.55 101.81563 30.8625Q101.81563 31.003124 101.8 31.284374L94.84688 31.284374Q94.925 32.83125 95.70625 33.64375Q96.50313 34.45625 97.65938 34.45625Q98.53438 34.45625 99.14375 34.003124Q99.76875 33.55 100.12813 32.55ZM94.925 29.9875L100.14375 29.9875Q100.03438 28.815624 99.55 28.221874Q98.78438 27.3 97.58125 27.3Q96.50313 27.3 95.75313 28.034374Q95.01875 28.76875 94.925 29.9875ZM109.83125 32.128124L111.37813 32.33125Q111.12813 33.940624 110.08125 34.8625Q109.03438 35.76875 107.50313 35.76875Q105.58125 35.76875 104.40938 34.51875Q103.25313 33.253124 103.25313 30.925Q103.25313 29.409374 103.75313 28.284374Q104.25313 27.14375 105.26875 26.58125Q106.3 26.003124 107.50313 26.003124Q109.03438 26.003124 109.9875 26.784374Q110.95625 27.55 111.2375 28.95625L109.69063 29.190624Q109.47188 28.253124 108.90938 27.784374Q108.3625 27.3 107.56563 27.3Q106.37813 27.3 105.62813 28.159374Q104.87813 29.01875 104.87813 30.878124Q104.87813 32.753124 105.59688 33.6125Q106.31563 34.45625 107.4875 34.45625Q108.40938 34.45625 109.03438 33.89375Q109.65938 33.315624 109.83125 32.128124ZM116.19063 34.128124L116.425 35.534374Q115.75313 35.675 115.22188 35.675Q114.3625 35.675 113.87813 35.409374Q113.40938 35.128124 113.22188 34.690624Q113.03438 34.2375 113.03438 32.815624L113.03438 27.440624L111.8625 27.440624L111.8625 26.221874L113.03438 26.221874L113.03438 23.909374L114.59688 22.95625L114.59688 26.221874L116.19063 26.221874L116.19063 27.440624L114.59688 27.440624L114.59688 32.909374Q114.59688 33.58125 114.675 33.784374Q114.76875 33.971874 114.95625 34.08125Q115.14375 34.190624 115.50313 34.190624Q115.75313 34.190624 116.19063 34.128124ZM117.75313 24.4875L117.75313 22.659374L119.33125 22.659374L119.33125 24.4875L117.75313 24.4875ZM117.75313 35.55L117.75313 26.221874L119.33125 26.221874L119.33125 35.55L117.75313 35.55ZM121.14375 30.878124Q121.14375 28.284374 122.59688 27.034374Q123.8 26.003124 125.51875 26.003124Q127.45625 26.003124 128.675 27.26875Q129.89375 28.534374 129.89375 30.753124Q129.89375 32.55 129.34688 33.58125Q128.81563 34.6125 127.78438 35.190624Q126.75313 35.76875 125.51875 35.76875Q123.56563 35.76875 122.34688 34.51875Q121.14375 33.253124 121.14375 30.878124ZM122.76875 30.878124Q122.76875 32.675 123.55 33.565624Q124.33125 34.45625 125.51875 34.45625Q126.70625 34.45625 127.4875 33.565624Q128.26875 32.659374 128.26875 30.83125Q128.26875 29.096874 127.47188 28.20625Q126.69063 27.315624 125.51875 27.315624Q124.33125 27.315624 123.55 28.20625Q122.76875 29.096874 122.76875 30.878124ZM131.7375 35.55L131.7375 26.221874L133.15938 26.221874L133.15938 27.55Q134.19063 26.003124 136.12813 26.003124Q136.97188 26.003124 137.675 26.315624Q138.39375 26.6125 138.7375 27.1125Q139.09688 27.596874 139.2375 28.26875Q139.31563 28.70625 139.31563 29.815624L139.31563 35.55L137.7375 35.55L137.7375 29.878124Q137.7375 28.909374 137.55 28.425Q137.37813 27.940624 136.89375 27.659374Q136.425 27.378124 135.8 27.378124Q134.78438 27.378124 134.05 28.01875Q133.31563 28.659374 133.31563 30.45625L133.31563 35.55L131.7375 35.55ZM141.09688 32.76875L142.675 32.51875Q142.8 33.45625 143.39375 33.95625Q144.00313 34.45625 145.08125 34.45625Q146.175 34.45625 146.70625 34.01875Q147.2375 33.565624 147.2375 32.971874Q147.2375 32.440624 146.76875 32.128124Q146.44063 31.925 145.14375 31.596874Q143.40938 31.159374 142.7375 30.846874Q142.06563 30.51875 141.70625 29.95625Q141.3625 29.378124 141.3625 28.690624Q141.3625 28.065624 141.64375 27.534374Q141.94063 27.003124 142.425 26.659374Q142.8 26.378124 143.44063 26.190624Q144.08125 26.003124 144.8 26.003124Q145.90938 26.003124 146.7375 26.33125Q147.56563 26.64375 147.95625 27.190624Q148.3625 27.721874 148.50313 28.628124L146.95625 28.83125Q146.84688 28.1125 146.34688 27.70625Q145.84688 27.3 144.925 27.3Q143.83125 27.3 143.3625 27.659374Q142.89375 28.01875 142.89375 28.503124Q142.89375 28.815624 143.09688 29.065624Q143.28438 29.315624 143.69063 29.4875Q143.94063 29.565624 145.09688 29.89375Q146.76875 30.33125 147.425 30.628124Q148.09688 30.909374 148.47188 31.45625Q148.8625 32.003124 148.8625 32.8Q148.8625 33.596874 148.39375 34.3Q147.94063 35.003124 147.06563 35.39375Q146.19063 35.76875 145.09688 35.76875Q143.26875 35.76875 142.31563 35.01875Q141.3625 34.253124 141.09688 32.76875ZM155.70625 35.55L155.70625 22.659374L157.28438 22.659374L157.28438 35.55L155.70625 35.55ZM165.83125 34.39375Q164.95625 35.14375 164.12813 35.45625Q163.31563 35.76875 162.39375 35.76875Q160.84688 35.76875 160.01875 35.01875Q159.20625 34.253124 159.20625 33.08125Q159.20625 32.409374 159.51875 31.846874Q159.83125 31.26875 160.33125 30.925Q160.83125 30.58125 161.47188 30.409374Q161.94063 30.284374 162.87813 30.175Q164.78438 29.940624 165.69063 29.628124Q165.70625 29.3 165.70625 29.20625Q165.70625 28.253124 165.25313 27.846874Q164.64375 27.315624 163.45625 27.315624Q162.33125 27.315624 161.8 27.70625Q161.26875 28.096874 161.01875 29.096874L159.47188 28.878124Q159.69063 27.878124 160.15938 27.26875Q160.64375 26.659374 161.55 26.33125Q162.47188 26.003124 163.69063 26.003124Q164.87813 26.003124 165.62813 26.284374Q166.37813 26.565624 166.72188 27.003124Q167.08125 27.425 167.22188 28.065624Q167.3 28.471874 167.3 29.534374L167.3 31.64375Q167.3 33.846874 167.39375 34.440624Q167.50313 35.01875 167.8 35.55L166.14375 35.55Q165.89375 35.05 165.83125 34.39375ZM165.69063 30.8625Q164.83125 31.221874 163.1125 31.45625Q162.14375 31.596874 161.7375 31.784374Q161.33125 31.95625 161.1125 32.3Q160.89375 32.628124 160.89375 33.05Q160.89375 33.675 161.3625 34.096874Q161.84688 34.51875 162.76875 34.51875Q163.69063 34.51875 164.39375 34.128124Q165.1125 33.721874 165.44063 33.034374Q165.69063 32.4875 165.69063 31.440624L165.69063 30.8625ZM173.19063 34.128124L173.425 35.534374Q172.75313 35.675 172.22188 35.675Q171.3625 35.675 170.87813 35.409374Q170.40938 35.128124 170.22188 34.690624Q170.03438 34.2375 170.03438 32.815624L170.03438 27.440624L168.8625 27.440624L168.8625 26.221874L170.03438 26.221874L170.03438 23.909374L171.59688 22.95625L171.59688 26.221874L173.19063 26.221874L173.19063 27.440624L171.59688 27.440624L171.59688 32.909374Q171.59688 33.58125 171.675 33.784374Q171.76875 33.971874 171.95625 34.08125Q172.14375 34.190624 172.50313 34.190624Q172.75313 34.190624 173.19063 34.128124ZM181.12813 32.55L182.76875 32.753124Q182.37813 34.175 181.33125 34.971874Q180.28438 35.76875 178.65938 35.76875Q176.6125 35.76875 175.40938 34.503124Q174.20625 33.2375 174.20625 30.95625Q174.20625 28.6125 175.40938 27.315624Q176.62813 26.003124 178.56563 26.003124Q180.44063 26.003124 181.62813 27.284374Q182.81563 28.55 182.81563 30.8625Q182.81563 31.003124 182.8 31.284374L175.84688 31.284374Q175.925 32.83125 176.70625 33.64375Q177.50313 34.45625 178.65938 34.45625Q179.53438 34.45625 180.14375 34.003124Q180.76875 33.55 181.12813 32.55ZM175.925 29.9875L181.14375 29.9875Q181.03438 28.815624 180.55 28.221874Q179.78438 27.3 178.58125 27.3Q177.50313 27.3 176.75313 28.034374Q176.01875 28.76875 175.925 29.9875ZM184.7375 35.55L184.7375 26.221874L186.15938 26.221874L186.15938 27.55Q187.19063 26.003124 189.12813 26.003124Q189.97188 26.003124 190.675 26.315624Q191.39375 26.6125 191.7375 27.1125Q192.09688 27.596874 192.2375 28.26875Q192.31563 28.70625 192.31563 29.815624L192.31563 35.55L190.7375 35.55L190.7375 29.878124Q190.7375 28.909374 190.55 28.425Q190.37813 27.940624 189.89375 27.659374Q189.425 27.378124 188.8 27.378124Q187.78438 27.378124 187.05 28.01875Q186.31563 28.659374 186.31563 30.45625L186.31563 35.55L184.7375 35.55ZM200.83125 32.128124L202.37813 32.33125Q202.12813 33.940624 201.08125 34.8625Q200.03438 35.76875 198.50313 35.76875Q196.58125 35.76875 195.40938 34.51875Q194.25313 33.253124 194.25313 30.925Q194.25313 29.409374 194.75313 28.284374Q195.25313 27.14375 196.26875 26.58125Q197.3 26.003124 198.50313 26.003124Q200.03438 26.003124 200.9875 26.784374Q201.95625 27.55 202.2375 28.95625L200.69063 29.190624Q200.47188 28.253124 199.90938 27.784374Q199.3625 27.3 198.56563 27.3Q197.37813 27.3 196.62813 28.159374Q195.87813 29.01875 195.87813 30.878124Q195.87813 32.753124 196.59688 33.6125Q197.31563 34.45625 198.4875 34.45625Q199.40938 34.45625 200.03438 33.89375Q200.65938 33.315624 200.83125 32.128124ZM203.65938 39.14375L203.4875 37.659374Q204.00313 37.8 204.39375 37.8Q204.925 37.8 205.2375 37.628124Q205.55 37.45625 205.75313 37.128124Q205.90938 36.89375 206.2375 35.95625Q206.28438 35.815624 206.37813 35.565624L202.84688 26.221874L204.55 26.221874L206.4875 31.628124Q206.8625 32.64375 207.15938 33.784374Q207.44063 32.690624 207.81563 31.659374L209.81563 26.221874L211.39375 26.221874L207.84688 35.70625Q207.26875 37.253124 206.95625 37.83125Q206.53438 38.6125 205.9875 38.971874Q205.44063 39.33125 204.69063 39.33125Q204.22188 39.33125 203.65938 39.14375ZM215.75313 39.33125Q214.45625 37.690624 213.55 35.471874Q212.64375 33.253124 212.64375 30.878124Q212.64375 28.784374 213.31563 26.878124Q214.1125 24.64375 215.75313 22.440624L216.89375 22.440624Q215.83125 24.26875 215.4875 25.05Q214.95625 26.26875 214.64375 27.58125Q214.26875 29.2375 214.26875 30.89375Q214.26875 35.1125 216.89375 39.33125L215.75313 39.33125ZM226.50313 26.221874L226.50313 35.55L225.08125 35.55L225.08125 34.440624Q224.62813 35.14375 224.175 35.409374Q223.56563 35.76875 222.7375 35.76875Q222.01875 35.76875 221.45625 35.471874Q221.03438 35.253124 220.51875 34.6125L220.51875 39.128124L218.95625 39.128124L218.95625 26.221874L220.51875 26.221874L220.51875 30.175Q220.51875 32.33125 220.7375 32.971874Q220.97188 33.596874 221.4875 33.971874Q222.00313 34.33125 222.675 34.33125Q223.37813 34.33125 223.925 33.95625Q224.4875 33.565624 224.70625 32.95625Q224.94063 32.346874 224.94063 30.190624L224.94063 26.221874L226.50313 26.221874ZM228.09688 32.76875L229.675 32.51875Q229.8 33.45625 230.39375 33.95625Q231.00313 34.45625 232.08125 34.45625Q233.175 34.45625 233.70625 34.01875Q234.2375 33.565624 234.2375 32.971874Q234.2375 32.440624 233.76875 32.128124Q233.44063 31.925 232.14375 31.596874Q230.40938 31.159374 229.7375 30.846874Q229.06563 30.51875 228.70625 29.95625Q228.3625 29.378124 228.3625 28.690624Q228.3625 28.065624 228.64375 27.534374Q228.94063 27.003124 229.425 26.659374Q229.8 26.378124 230.44063 26.190624Q231.08125 26.003124 231.8 26.003124Q232.90938 26.003124 233.7375 26.33125Q234.56563 26.64375 234.95625 27.190624Q235.3625 27.721874 235.50313 28.628124L233.95625 28.83125Q233.84688 28.1125 233.34688 27.70625Q232.84688 27.3 231.925 27.3Q230.83125 27.3 230.3625 27.659374Q229.89375 28.01875 229.89375 28.503124Q229.89375 28.815624 230.09688 29.065624Q230.28438 29.315624 230.69063 29.4875Q230.94063 29.565624 232.09688 29.89375Q233.76875 30.33125 234.425 30.628124Q235.09688 30.909374 235.47188 31.45625Q235.8625 32.003124 235.8625 32.8Q235.8625 33.596874 235.39375 34.3Q234.94063 35.003124 234.06563 35.39375Q233.19063 35.76875 232.09688 35.76875Q230.26875 35.76875 229.31563 35.01875Q228.3625 34.253124 228.09688 32.76875ZM238.76875 39.33125L237.64375 39.33125Q240.26875 35.1125 240.26875 30.89375Q240.26875 29.2375 239.89375 27.6125Q239.59688 26.3 239.05 25.08125Q238.70625 24.284374 237.64375 22.440624L238.76875 22.440624Q240.425 24.64375 241.22188 26.878124Q241.89375 28.784374 241.89375 30.878124Q241.89375 33.253124 240.9875 35.471874Q240.08125 37.690624 238.76875 39.33125ZM244.14375 35.55L244.14375 33.753124L245.95625 33.753124L245.95625 35.55Q245.95625 36.55 245.59688 37.159374Q245.25313 37.76875 244.4875 38.096874L244.05 37.425Q244.55 37.20625 244.78438 36.76875Q245.01875 36.346874 245.05 35.55L244.14375 35.55ZM253.09688 32.76875L254.675 32.51875Q254.8 33.45625 255.39375 33.95625Q256.0031 34.45625 257.08124 34.45625Q258.175 34.45625 258.70624 34.01875Q259.2375 33.565624 259.2375 32.971874Q259.2375 32.440624 258.76874 32.128124Q258.4406 31.925 257.14374 31.596874Q255.40938 31.159374 254.7375 30.846874Q254.06563 30.51875 253.70625 29.95625Q253.3625 29.378124 253.3625 28.690624Q253.3625 28.065624 253.64375 27.534374Q253.94063 27.003124 254.425 26.659374Q254.8 26.378124 255.44063 26.190624Q256.08124 26.003124 256.8 26.003124Q257.90936 26.003124 258.7375 26.33125Q259.5656 26.64375 259.95624 27.190624Q260.3625 27.721874 260.5031 28.628124L258.95624 28.83125Q258.84686 28.1125 258.34686 27.70625Q257.84686 27.3 256.925 27.3Q255.83125 27.3 255.3625 27.659374Q254.89375 28.01875 254.89375 28.503124Q254.89375 28.815624 255.09688 29.065624Q255.28438 29.315624 255.69063 29.4875Q255.94063 29.565624 257.09686 29.89375Q258.76874 30.33125 259.425 30.628124Q260.09686 30.909374 260.47186 31.45625Q260.8625 32.003124 260.8625 32.8Q260.8625 33.596874 260.39374 34.3Q259.9406 35.003124 259.0656 35.39375Q258.1906 35.76875 257.09686 35.76875Q255.26875 35.76875 254.31563 35.01875Q253.3625 34.253124 253.09688 32.76875ZM262.70624 35.55L262.70624 22.659374L264.28436 22.659374L264.28436 35.55L262.70624 35.55ZM273.1281 32.55L274.76874 32.753124Q274.3781 34.175 273.33124 34.971874Q272.28436 35.76875 270.65936 35.76875Q268.6125 35.76875 267.40936 34.503124Q266.20624 33.2375 266.20624 30.95625Q266.20624 28.6125 267.40936 27.315624Q268.6281 26.003124 270.5656 26.003124Q272.4406 26.003124 273.6281 27.284374Q274.8156 28.55 274.8156 30.8625Q274.8156 31.003124 274.8 31.284374L267.84686 31.284374Q267.925 32.83125 268.70624 33.64375Q269.5031 34.45625 270.65936 34.45625Q271.53436 34.45625 272.14374 34.003124Q272.76874 33.55 273.1281 32.55ZM267.925 29.9875L273.14374 29.9875Q273.03436 28.815624 272.55 28.221874Q271.78436 27.3 270.58124 27.3Q269.5031 27.3 268.7531 28.034374Q268.01874 28.76875 267.925 29.9875ZM283.1281 32.55L284.76874 32.753124Q284.3781 34.175 283.33124 34.971874Q282.28436 35.76875 280.65936 35.76875Q278.6125 35.76875 277.40936 34.503124Q276.20624 33.2375 276.20624 30.95625Q276.20624 28.6125 277.40936 27.315624Q278.6281 26.003124 280.5656 26.003124Q282.4406 26.003124 283.6281 27.284374Q284.8156 28.55 284.8156 30.8625Q284.8156 31.003124 284.8 31.284374L277.84686 31.284374Q277.925 32.83125 278.70624 33.64375Q279.5031 34.45625 280.65936 34.45625Q281.53436 34.45625 282.14374 34.003124Q282.76874 33.55 283.1281 32.55ZM277.925 29.9875L283.14374 29.9875Q283.03436 28.815624 282.55 28.221874Q281.78436 27.3 280.58124 27.3Q279.5031 27.3 278.7531 28.034374Q278.01874 28.76875 277.925 29.9875ZM286.7375 39.128124L286.7375 26.221874L288.175 26.221874L288.175 27.425Q288.6906 26.721874 289.33124 26.3625Q289.97186 26.003124 290.8781 26.003124Q292.08124 26.003124 292.9875 26.628124Q293.90936 27.2375 294.3781 28.3625Q294.84686 29.471874 294.84686 30.815624Q294.84686 32.2375 294.33124 33.39375Q293.8156 34.534374 292.83124 35.159374Q291.84686 35.76875 290.76874 35.76875Q289.9875 35.76875 289.34686 35.440624Q288.72186 35.096874 288.3156 34.58125L288.3156 39.128124L286.7375 39.128124ZM288.175 30.940624Q288.175 32.7375 288.89374 33.596874Q289.6281 34.45625 290.65936 34.45625Q291.72186 34.45625 292.47186 33.565624Q293.22186 32.675 293.22186 30.8Q293.22186 29.01875 292.4875 28.128124Q291.7531 27.2375 290.7375 27.2375Q289.72186 27.2375 288.9406 28.190624Q288.175 29.128124 288.175 30.940624ZM307.83124 32.128124L309.3781 32.33125Q309.1281 33.940624 308.08124 34.8625Q307.03436 35.76875 305.5031 35.76875Q303.58124 35.76875 302.40936 34.51875Q301.2531 33.253124 301.2531 30.925Q301.2531 29.409374 301.7531 28.284374Q302.2531 27.14375 303.26874 26.58125Q304.3 26.003124 305.5031 26.003124Q307.03436 26.003124 307.9875 26.784374Q308.95624 27.55 309.2375 28.95625L307.6906 29.190624Q307.47186 28.253124 306.90936 27.784374Q306.3625 27.3 305.5656 27.3Q304.3781 27.3 303.6281 28.159374Q302.8781 29.01875 302.8781 30.878124Q302.8781 32.753124 303.59686 33.6125Q304.3156 34.45625 305.4875 34.45625Q306.40936 34.45625 307.03436 33.89375Q307.65936 33.315624 307.83124 32.128124ZM310.14374 30.878124Q310.14374 28.284374 311.59686 27.034374Q312.8 26.003124 314.51874 26.003124Q316.45624 26.003124 317.675 27.26875Q318.89374 28.534374 318.89374 30.753124Q318.89374 32.55 318.34686 33.58125Q317.8156 34.6125 316.78436 35.190624Q315.7531 35.76875 314.51874 35.76875Q312.5656 35.76875 311.34686 34.51875Q310.14374 33.253124 310.14374 30.878124ZM311.76874 30.878124Q311.76874 32.675 312.55 33.565624Q313.33124 34.45625 314.51874 34.45625Q315.70624 34.45625 316.4875 33.565624Q317.26874 32.659374 317.26874 30.83125Q317.26874 29.096874 316.47186 28.20625Q315.6906 27.315624 314.51874 27.315624Q313.33124 27.315624 312.55 28.20625Q311.76874 29.096874 311.76874 30.878124ZM320.7375 35.55L320.7375 26.221874L322.15936 26.221874L322.15936 27.51875Q322.59686 26.846874 323.3156 26.425Q324.05 26.003124 324.9875 26.003124Q326.01874 26.003124 326.675 26.440624Q327.34686 26.8625 327.6125 27.64375Q328.72186 26.003124 330.5031 26.003124Q331.89374 26.003124 332.6281 26.784374Q333.3781 27.55 333.3781 29.14375L333.3781 35.55L331.8156 35.55L331.8156 29.675Q331.8156 28.721874 331.65936 28.3Q331.5031 27.878124 331.09686 27.628124Q330.6906 27.378124 330.14374 27.378124Q329.15936 27.378124 328.5031 28.034374Q327.8625 28.690624 327.8625 30.128124L327.8625 35.55L326.28436 35.55L326.28436 29.4875Q326.28436 28.425 325.89374 27.909374Q325.5031 27.378124 324.6281 27.378124Q323.95624 27.378124 323.39374 27.7375Q322.83124 28.08125 322.5656 28.753124Q322.3156 29.425 322.3156 30.70625L322.3156 35.55L320.7375 35.55ZM334.7375 35.55L334.7375 26.221874L336.15936 26.221874L336.15936 27.51875Q336.59686 26.846874 337.3156 26.425Q338.05 26.003124 338.9875 26.003124Q340.01874 26.003124 340.675 26.440624Q341.34686 26.8625 341.6125 27.64375Q342.72186 26.003124 344.5031 26.003124Q345.89374 26.003124 346.6281 26.784374Q347.3781 27.55 347.3781 29.14375L347.3781 35.55L345.8156 35.55L345.8156 29.675Q345.8156 28.721874 345.65936 28.3Q345.5031 27.878124 345.09686 27.628124Q344.6906 27.378124 344.14374 27.378124Q343.15936 27.378124 342.5031 28.034374Q341.8625 28.690624 341.8625 30.128124L341.8625 35.55L340.28436 35.55L340.28436 29.4875Q340.28436 28.425 339.89374 27.909374Q339.5031 27.378124 338.6281 27.378124Q337.95624 27.378124 337.39374 27.7375Q336.83124 28.08125 336.5656 28.753124Q336.3156 29.425 336.3156 30.70625L336.3156 35.55L334.7375 35.55ZM355.1281 32.55L356.76874 32.753124Q356.3781 34.175 355.33124 34.971874Q354.28436 35.76875 352.65936 35.76875Q350.6125 35.76875 349.40936 34.503124Q348.20624 33.2375 348.20624 30.95625Q348.20624 28.6125 349.40936 27.315624Q350.6281 26.003124 352.5656 26.003124Q354.4406 26.003124 355.6281 27.284374Q356.8156 28.55 356.8156 30.8625Q356.8156 31.003124 356.8 31.284374L349.84686 31.284374Q349.925 32.83125 350.70624 33.64375Q351.5031 34.45625 352.65936 34.45625Q353.53436 34.45625 354.14374 34.003124Q354.76874 33.55 355.1281 32.55ZM349.925 29.9875L355.14374 29.9875Q355.03436 28.815624 354.55 28.221874Q353.78436 27.3 352.58124 27.3Q351.5031 27.3 350.7531 28.034374Q350.01874 28.76875 349.925 29.9875ZM358.7375 35.55L358.7375 26.221874L360.15936 26.221874L360.15936 27.55Q361.1906 26.003124 363.1281 26.003124Q363.97186 26.003124 364.675 26.315624Q365.39374 26.6125 365.7375 27.1125Q366.09686 27.596874 366.2375 28.26875Q366.3156 28.70625 366.3156 29.815624L366.3156 35.55L364.7375 35.55L364.7375 29.878124Q364.7375 28.909374 364.55 28.425Q364.3781 27.940624 363.89374 27.659374Q363.425 27.378124 362.8 27.378124Q361.78436 27.378124 361.05 28.01875Q360.3156 28.659374 360.3156 30.45625L360.3156 35.55L358.7375 35.55ZM372.1906 34.128124L372.425 35.534374Q371.7531 35.675 371.22186 35.675Q370.3625 35.675 369.8781 35.409374Q369.40936 35.128124 369.22186 34.690624Q369.03436 34.2375 369.03436 32.815624L369.03436 27.440624L367.8625 27.440624L367.8625 26.221874L369.03436 26.221874L369.03436 23.909374L370.59686 22.95625L370.59686 26.221874L372.1906 26.221874L372.1906 27.440624L370.59686 27.440624L370.59686 32.909374Q370.59686 33.58125 370.675 33.784374Q370.76874 33.971874 370.95624 34.08125Q371.14374 34.190624 371.5031 34.190624Q371.7531 34.190624 372.1906 34.128124ZM380.1281 32.55L381.76874 32.753124Q381.3781 34.175 380.33124 34.971874Q379.28436 35.76875 377.65936 35.76875Q375.6125 35.76875 374.40936 34.503124Q373.20624 33.2375 373.20624 30.95625Q373.20624 28.6125 374.40936 27.315624Q375.6281 26.003124 377.5656 26.003124Q379.4406 26.003124 380.6281 27.284374Q381.8156 28.55 381.8156 30.8625Q381.8156 31.003124 381.8 31.284374L374.84686 31.284374Q374.925 32.83125 375.70624 33.64375Q376.5031 34.45625 377.65936 34.45625Q378.53436 34.45625 379.14374 34.003124Q379.76874 33.55 380.1281 32.55ZM374.925 29.9875L380.14374 29.9875Q380.03436 28.815624 379.55 28.221874Q378.78436 27.3 377.58124 27.3Q376.5031 27.3 375.7531 28.034374Q375.01874 28.76875 374.925 29.9875ZM389.8 35.55L389.8 34.378124Q388.90936 35.76875 387.175 35.76875Q386.0656 35.76875 385.1281 35.159374Q384.1906 34.534374 383.675 33.440624Q383.15936 32.33125 383.15936 30.89375Q383.15936 29.4875 383.6281 28.3625Q384.09686 27.221874 385.01874 26.6125Q385.95624 26.003124 387.1125 26.003124Q387.95624 26.003124 388.6125 26.3625Q389.26874 26.721874 389.6906 27.284374L389.6906 22.659374L391.2531 22.659374L391.2531 35.55L389.8 35.55ZM384.78436 30.89375Q384.78436 32.690624 385.53436 33.58125Q386.3 34.45625 387.33124 34.45625Q388.3625 34.45625 389.08124 33.6125Q389.8156 32.76875 389.8156 31.01875Q389.8156 29.1125 389.08124 28.221874Q388.34686 27.315624 387.26874 27.315624Q386.20624 27.315624 385.4875 28.175Q384.78436 29.034374 384.78436 30.89375ZM398.14374 30.878124Q398.14374 28.284374 399.59686 27.034374Q400.8 26.003124 402.51874 26.003124Q404.45624 26.003124 405.675 27.26875Q406.89374 28.534374 406.89374 30.753124Q406.89374 32.55 406.34686 33.58125Q405.8156 34.6125 404.78436 35.190624Q403.7531 35.76875 402.51874 35.76875Q400.5656 35.76875 399.34686 34.51875Q398.14374 33.253124 398.14374 30.878124ZM399.76874 30.878124Q399.76874 32.675 400.55 33.565624Q401.33124 34.45625 402.51874 34.45625Q403.70624 34.45625 404.4875 33.565624Q405.26874 32.659374 405.26874 30.83125Q405.26874 29.096874 404.47186 28.20625Q403.6906 27.315624 402.51874 27.315624Q401.33124 27.315624 400.55 28.20625Q399.76874 29.096874 399.76874 30.878124ZM414.84686 35.55L414.84686 34.175Q413.76874 35.76875 411.89374 35.76875Q411.0656 35.76875 410.34686 35.45625Q409.6281 35.128124 409.28436 34.659374Q408.9406 34.175 408.8 33.471874Q408.70624 33.003124 408.70624 32.003124L408.70624 26.221874L410.28436 26.221874L410.28436 31.39375Q410.28436 32.628124 410.3781 33.065624Q410.53436 33.690624 411.01874 34.05Q411.5031 34.39375 412.20624 34.39375Q412.925 34.39375 413.55 34.034374Q414.175 33.675 414.425 33.05Q414.6906 32.409374 414.6906 31.221874L414.6906 26.221874L416.26874 26.221874L416.26874 35.55L414.84686 35.55ZM422.1906 34.128124L422.425 35.534374Q421.7531 35.675 421.22186 35.675Q420.3625 35.675 419.8781 35.409374Q419.40936 35.128124 419.22186 34.690624Q419.03436 34.2375 419.03436 32.815624L419.03436 27.440624L417.8625 27.440624L417.8625 26.221874L419.03436 26.221874L419.03436 23.909374L420.59686 22.95625L420.59686 26.221874L422.1906 26.221874L422.1906 27.440624L420.59686 27.440624L420.59686 32.909374Q420.59686 33.58125 420.675 33.784374Q420.76874 33.971874 420.95624 34.08125Q421.14374 34.190624 421.5031 34.190624Q421.7531 34.190624 422.1906 34.128124ZM424.14374 35.55L424.14374 33.753124L425.95624 33.753124L425.95624 35.55Q425.95624 36.55 425.59686 37.159374Q425.2531 37.76875 424.4875 38.096874L424.05 37.425Q424.55 37.20625 424.78436 36.76875Q425.01874 36.346874 425.05 35.55L424.14374 35.55ZM433.7531 35.55L433.7531 22.659374L435.33124 22.659374L435.33124 30.01875L439.0656 26.221874L441.1125 26.221874L437.55 29.675L441.4875 35.55L439.53436 35.55L436.4406 30.784374L435.33124 31.846874L435.33124 35.55L433.7531 35.55ZM449.1281 32.55L450.76874 32.753124Q450.3781 34.175 449.33124 34.971874Q448.28436 35.76875 446.65936 35.76875Q444.6125 35.76875 443.40936 34.503124Q442.20624 33.2375 442.20624 30.95625Q442.20624 28.6125 443.40936 27.315624Q444.6281 26.003124 446.5656 26.003124Q448.4406 26.003124 449.6281 27.284374Q450.8156 28.55 450.8156 30.8625Q450.8156 31.003124 450.8 31.284374L443.84686 31.284374Q443.925 32.83125 444.70624 33.64375Q445.5031 34.45625 446.65936 34.45625Q447.53436 34.45625 448.14374 34.003124Q448.76874 33.55 449.1281 32.55ZM443.925 29.9875L449.14374 29.9875Q449.03436 28.815624 448.55 28.221874Q447.78436 27.3 446.58124 27.3Q445.5031 27.3 444.7531 28.034374Q444.01874 28.76875 443.925 29.9875ZM459.1281 32.55L460.76874 32.753124Q460.3781 34.175 459.33124 34.971874Q458.28436 35.76875 456.65936 35.76875Q454.6125 35.76875 453.40936 34.503124Q452.20624 33.2375 452.20624 30.95625Q452.20624 28.6125 453.40936 27.315624Q454.6281 26.003124 456.5656 26.003124Q458.4406 26.003124 459.6281 27.284374Q460.8156 28.55 460.8156 30.8625Q460.8156 31.003124 460.8 31.284374L453.84686 31.284374Q453.925 32.83125 454.70624 33.64375Q455.5031 34.45625 456.65936 34.45625Q457.53436 34.45625 458.14374 34.003124Q458.76874 33.55 459.1281 32.55ZM453.925 29.9875L459.14374 29.9875Q459.03436 28.815624 458.55 28.221874Q457.78436 27.3 456.58124 27.3Q455.5031 27.3 454.7531 28.034374Q454.01874 28.76875 453.925 29.9875ZM462.7375 39.128124L462.7375 26.221874L464.175 26.221874L464.175 27.425Q464.6906 26.721874 465.33124 26.3625Q465.97186 26.003124 466.8781 26.003124Q468.08124 26.003124 468.9875 26.628124Q469.90936 27.2375 470.3781 28.3625Q470.84686 29.471874 470.84686 30.815624Q470.84686 32.2375 470.33124 33.39375Q469.8156 34.534374 468.83124 35.159374Q467.84686 35.76875 466.76874 35.76875Q465.9875 35.76875 465.34686 35.440624Q464.72186 35.096874 464.3156 34.58125L464.3156 39.128124L462.7375 39.128124ZM464.175 30.940624Q464.175 32.7375 464.89374 33.596874Q465.6281 34.45625 466.65936 34.45625Q467.72186 34.45625 468.47186 33.565624Q469.22186 32.675 469.22186 30.8Q469.22186 29.01875 468.4875 28.128124Q467.7531 27.2375 466.7375 27.2375Q465.72186 27.2375 464.9406 28.190624Q464.175 29.128124 464.175 30.940624ZM472.1281 31.675L472.1281 30.096874L476.9875 30.096874L476.9875 31.675L472.1281 31.675ZM484.83124 34.39375Q483.95624 35.14375 483.1281 35.45625Q482.3156 35.76875 481.39374 35.76875Q479.84686 35.76875 479.01874 35.01875Q478.20624 34.253124 478.20624 33.08125Q478.20624 32.409374 478.51874 31.846874Q478.83124 31.26875 479.33124 30.925Q479.83124 30.58125 480.47186 30.409374Q480.9406 30.284374 481.8781 30.175Q483.78436 29.940624 484.6906 29.628124Q484.70624 29.3 484.70624 29.20625Q484.70624 28.253124 484.2531 27.846874Q483.64374 27.315624 482.45624 27.315624Q481.33124 27.315624 480.8 27.70625Q480.26874 28.096874 480.01874 29.096874L478.47186 28.878124Q478.6906 27.878124 479.15936 27.26875Q479.64374 26.659374 480.55 26.33125Q481.47186 26.003124 482.6906 26.003124Q483.8781 26.003124 484.6281 26.284374Q485.3781 26.565624 485.72186 27.003124Q486.08124 27.425 486.22186 28.065624Q486.3 28.471874 486.3 29.534374L486.3 31.64375Q486.3 33.846874 486.39374 34.440624Q486.5031 35.01875 486.8 35.55L485.14374 35.55Q484.89374 35.05 484.83124 34.39375ZM484.6906 30.8625Q483.83124 31.221874 482.1125 31.45625Q481.14374 31.596874 480.7375 31.784374Q480.33124 31.95625 480.1125 32.3Q479.89374 32.628124 479.89374 33.05Q479.89374 33.675 480.3625 34.096874Q480.84686 34.51875 481.76874 34.51875Q482.6906 34.51875 483.39374 34.128124Q484.1125 33.721874 484.4406 33.034374Q484.6906 32.4875 484.6906 31.440624L484.6906 30.8625ZM488.70624 35.55L488.70624 22.659374L490.28436 22.659374L490.28436 35.55L488.70624 35.55ZM492.7531 24.4875L492.7531 22.659374L494.33124 22.659374L494.33124 24.4875L492.7531 24.4875ZM492.7531 35.55L492.7531 26.221874L494.33124 26.221874L494.33124 35.55L492.7531 35.55ZM499.33124 35.55L495.78436 26.221874L497.45624 26.221874L499.45624 31.8Q499.78436 32.70625 500.05 33.690624Q500.26874 32.940624 500.64374 31.909374L502.70624 26.221874L504.34686 26.221874L500.8 35.55L499.33124 35.55ZM512.1281 32.55L513.76874 32.753124Q513.3781 34.175 512.33124 34.971874Q511.28436 35.76875 509.65936 35.76875Q507.6125 35.76875 506.40936 34.503124Q505.20624 33.2375 505.20624 30.95625Q505.20624 28.6125 506.40936 27.315624Q507.6281 26.003124 509.5656 26.003124Q511.4406 26.003124 512.6281 27.284374Q513.8156 28.55 513.8156 30.8625Q513.8156 31.003124 513.8 31.284374L506.84686 31.284374Q506.925 32.83125 507.70624 33.64375Q508.5031 34.45625 509.65936 34.45625Q510.53436 34.45625 511.14374 34.003124Q511.76874 33.55 512.1281 32.55ZM506.925 29.9875L512.14374 29.9875Q512.03436 28.815624 511.55 28.221874Q510.78436 27.3 509.58124 27.3Q508.5031 27.3 507.7531 28.034374Q507.01874 28.76875 506.925 29.9875ZM516.14374 35.55L516.14374 33.753124L517.95624 33.753124L517.95624 35.55Q517.95624 36.55 517.59686 37.159374Q517.2531 37.76875 516.4875 38.096874L516.05 37.425Q516.55 37.20625 516.78436 36.76875Q517.01874 36.346874 517.05 35.55L516.14374 35.55ZM525.70624 35.55L525.70624 22.659374L527.28436 22.659374L527.28436 35.55L525.70624 35.55ZM529.14374 30.878124Q529.14374 28.284374 530.59686 27.034374Q531.8 26.003124 533.51874 26.003124Q535.45624 26.003124 536.675 27.26875Q537.89374 28.534374 537.89374 30.753124Q537.89374 32.55 537.34686 33.58125Q536.8156 34.6125 535.78436 35.190624Q534.7531 35.76875 533.51874 35.76875Q531.5656 35.76875 530.34686 34.51875Q529.14374 33.253124 529.14374 30.878124ZM530.76874 30.878124Q530.76874 32.675 531.55 33.565624Q532.33124 34.45625 533.51874 34.45625Q534.70624 34.45625 535.4875 33.565624Q536.26874 32.659374 536.26874 30.83125Q536.26874 29.096874 535.47186 28.20625Q534.6906 27.315624 533.51874 27.315624Q532.33124 27.315624 531.55 28.20625Q530.76874 29.096874 530.76874 30.878124ZM541.45624 35.55L538.59686 26.221874L540.2375 26.221874L541.72186 31.596874L542.28436 33.6125Q542.3156 33.45625 542.7531 31.675L544.2531 26.221874L545.8781 26.221874L547.26874 31.628124L547.7375 33.409374L548.26874 31.6125L549.8781 26.221874L551.40936 26.221874L548.4875 35.55L546.84686 35.55L545.3625 29.95625L545.0031 28.3625L543.1125 35.55L541.45624 35.55ZM559.1281 32.55L560.76874 32.753124Q560.3781 34.175 559.33124 34.971874Q558.28436 35.76875 556.65936 35.76875Q554.6125 35.76875 553.40936 34.503124Q552.20624 33.2375 552.20624 30.95625Q552.20624 28.6125 553.40936 27.315624Q554.6281 26.003124 556.5656 26.003124Q558.4406 26.003124 559.6281 27.284374Q560.8156 28.55 560.8156 30.8625Q560.8156 31.003124 560.8 31.284374L553.84686 31.284374Q553.925 32.83125 554.70624 33.64375Q555.5031 34.45625 556.65936 34.45625Q557.53436 34.45625 558.14374 34.003124Q558.76874 33.55 559.1281 32.55ZM553.925 29.9875L559.14374 29.9875Q559.03436 28.815624 558.55 28.221874Q557.78436 27.3 556.58124 27.3Q555.5031 27.3 554.7531 28.034374Q554.01874 28.76875 553.925 29.9875ZM562.72186 35.55L562.72186 26.221874L564.14374 26.221874L564.14374 27.628124Q564.6906 26.64375 565.14374 26.33125Q565.6125 26.003124 566.15936 26.003124Q566.97186 26.003124 567.78436 26.51875L567.2531 27.9875Q566.65936 27.64375 566.08124 27.64375Q565.5656 27.64375 565.14374 27.95625Q564.7375 28.26875 564.5656 28.815624Q564.3 29.659374 564.3 30.659374L564.3 35.55L562.72186 35.55Z" fill-rule="nonzero"/><path fill="#757575" d="M19.753124 46.4875L19.753124 44.659374L21.33125 44.659374L21.33125 46.4875L19.753124 46.4875ZM19.753124 57.55L19.753124 48.221874L21.33125 48.221874L21.33125 57.55L19.753124 57.55ZM23.096874 54.76875L24.675 54.51875Q24.8 55.45625 25.39375 55.95625Q26.003124 56.45625 27.08125 56.45625Q28.175 56.45625 28.70625 56.01875Q29.2375 55.565624 29.2375 54.971874Q29.2375 54.440624 28.76875 54.128124Q28.440624 53.925 27.14375 53.596874Q25.409374 53.159374 24.7375 52.846874Q24.065624 52.51875 23.70625 51.95625Q23.3625 51.378124 23.3625 50.690624Q23.3625 50.065624 23.64375 49.534374Q23.940624 49.003124 24.425 48.659374Q24.8 48.378124 25.440624 48.190624Q26.08125 48.003124 26.8 48.003124Q27.909374 48.003124 28.7375 48.33125Q29.565624 48.64375 29.95625 49.190624Q30.3625 49.721874 30.503124 50.628124L28.95625 50.83125Q28.846874 50.1125 28.346874 49.70625Q27.846874 49.3 26.925 49.3Q25.83125 49.3 25.3625 49.659374Q24.89375 50.01875 24.89375 50.503124Q24.89375 50.815624 25.096874 51.065624Q25.284374 51.315624 25.690624 51.4875Q25.940624 51.565624 27.096874 51.89375Q28.76875 52.33125 29.425 52.628124Q30.096874 52.909374 30.471874 53.45625Q30.8625 54.003124 30.8625 54.8Q30.8625 55.596874 30.39375 56.3Q29.940624 57.003124 29.065624 57.39375Q28.190624 57.76875 27.096874 57.76875Q25.26875 57.76875 24.315624 57.01875Q23.3625 56.253124 23.096874 54.76875ZM39.190624 57.55L37.721874 57.55L37.721874 44.659374L39.315624 44.659374L39.315624 49.26875Q40.315624 48.003124 41.8625 48.003124Q42.721874 48.003124 43.4875 48.3625Q44.26875 48.70625 44.753124 49.33125Q45.253124 49.95625 45.534374 50.846874Q45.815624 51.7375 45.815624 52.7375Q45.815624 55.14375 44.628124 56.45625Q43.45625 57.76875 41.784374 57.76875Q40.14375 57.76875 39.190624 56.378124L39.190624 57.55ZM39.175 52.815624Q39.175 54.4875 39.628124 55.2375Q40.378124 56.45625 41.659374 56.45625Q42.690624 56.45625 43.440624 55.565624Q44.20625 54.659374 44.20625 52.878124Q44.20625 51.05 43.471874 50.175Q42.753124 49.3 41.721874 49.3Q40.690624 49.3 39.925 50.20625Q39.175 51.1125 39.175 52.815624ZM54.128124 54.55L55.76875 54.753124Q55.378124 56.175 54.33125 56.971874Q53.284374 57.76875 51.659374 57.76875Q49.6125 57.76875 48.409374 56.503124Q47.20625 55.2375 47.20625 52.95625Q47.20625 50.6125 48.409374 49.315624Q49.628124 48.003124 51.565624 48.003124Q53.440624 48.003124 54.628124 49.284374Q55.815624 50.55 55.815624 52.8625Q55.815624 53.003124 55.8 53.284374L48.846874 53.284374Q48.925 54.83125 49.70625 55.64375Q50.503124 56.45625 51.659374 56.45625Q52.534374 56.45625 53.14375 56.003124Q53.76875 55.55 54.128124 54.55ZM48.925 51.9875L54.14375 51.9875Q54.034374 50.815624 53.55 50.221874Q52.784374 49.3 51.58125 49.3Q50.503124 49.3 49.753124 50.034374Q49.01875 50.76875 48.925 51.9875ZM61.190624 56.128124L61.425 57.534374Q60.753124 57.675 60.221874 57.675Q59.3625 57.675 58.878124 57.409374Q58.409374 57.128124 58.221874 56.690624Q58.034374 56.2375 58.034374 54.815624L58.034374 49.440624L56.8625 49.440624L56.8625 48.221874L58.034374 48.221874L58.034374 45.909374L59.596874 44.95625L59.596874 48.221874L61.190624 48.221874L61.190624 49.440624L59.596874 49.440624L59.596874 54.909374Q59.596874 55.58125 59.675 55.784374Q59.76875 55.971874 59.95625 56.08125Q60.14375 56.190624 60.503124 56.190624Q60.753124 56.190624 61.190624 56.128124ZM66.19063 56.128124L66.425 57.534374Q65.75313 57.675 65.22188 57.675Q64.3625 57.675 63.878124 57.409374Q63.409374 57.128124 63.221874 56.690624Q63.034374 56.2375 63.034374 54.815624L63.034374 49.440624L61.8625 49.440624L61.8625 48.221874L63.034374 48.221874L63.034374 45.909374L64.59688 44.95625L64.59688 48.221874L66.19063 48.221874L66.19063 49.440624L64.59688 49.440624L64.59688 54.909374Q64.59688 55.58125 64.675 55.784374Q64.76875 55.971874 64.95625 56.08125Q65.14375 56.190624 65.50313 56.190624Q65.75313 56.190624 66.19063 56.128124ZM74.12813 54.55L75.76875 54.753124Q75.37813 56.175 74.33125 56.971874Q73.28438 57.76875 71.65938 57.76875Q69.6125 57.76875 68.40938 56.503124Q67.20625 55.2375 67.20625 52.95625Q67.20625 50.6125 68.40938 49.315624Q69.62813 48.003124 71.56563 48.003124Q73.44063 48.003124 74.62813 49.284374Q75.81563 50.55 75.81563 52.8625Q75.81563 53.003124 75.8 53.284374L68.84688 53.284374Q68.925 54.83125 69.70625 55.64375Q70.50313 56.45625 71.65938 56.45625Q72.53438 56.45625 73.14375 56.003124Q73.76875 55.55 74.12813 54.55ZM68.925 51.9875L74.14375 51.9875Q74.03438 50.815624 73.55 50.221874Q72.78438 49.3 71.58125 49.3Q70.50313 49.3 69.75313 50.034374Q69.01875 50.76875 68.925 51.9875ZM77.72188 57.55L77.72188 48.221874L79.14375 48.221874L79.14375 49.628124Q79.69063 48.64375 80.14375 48.33125Q80.6125 48.003124 81.15938 48.003124Q81.97188 48.003124 82.78438 48.51875L82.25313 49.9875Q81.65938 49.64375 81.08125 49.64375Q80.56563 49.64375 80.14375 49.95625Q79.7375 50.26875 79.56563 50.815624Q79.3 51.659374 79.3 52.659374L79.3 57.55L77.72188 57.55Z" fill-rule="nonzero"/></svg>