<svg version="1.1" viewBox="0.0 0.0 600.0 371.0" fill="none" stroke="none" stroke-linecap="square" stroke-miterlimit="10" width="600" height="371" xmlns:xlink="http://www.w3.org/1999/xlink" xmlns="http://www.w3.org/2000/svg"><path fill="#ffffff" d="M0 0L600.0 0L600.0 371.0L0 371.0L0 0Z" fill-rule="nonzero"/><path stroke="#333333" stroke-width="1.0" stroke-linecap="butt" d="M66.5 252.5L581.5 252.5" fill-rule="nonzero"/><path stroke="#cccccc" stroke-width="1.0" stroke-linecap="butt" d="M66.5 195.5L581.5 195.5" fill-rule="nonzero"/><path stroke="#cccccc" stroke-width="1.0" stroke-linecap="butt" d="M66.5 138.5L581.5 138.5" fill-rule="nonzero"/><path stroke="#cccccc" stroke-width="1.0" stroke-linecap="butt" d="M66.5 80.5L581.5 80.5" fill-rule="nonzero"/><clipPath id="id_0"><path d="M66.55 80.916664L581.45 80.916664L581.45 252.81667L66.55 252.81667L66.55 80.916664Z" clip-rule="nonzero"/></clipPath><path stroke="#ff9900" stroke-width="2.0" stroke-linecap="butt" clip-path="url(#id_0)" d="M148.0 253.0L95.0 253.0L95.0 208.0C95.0 206.89543 95.89543 206.0 97.0 206.0L146.0 206.0C147.10457 206.0 148.0 206.89543 148.0 208.0Z" fill-rule="nonzero"/><path fill="#ff9900" clip-path="url(#id_0)" d="M148.0 253.0L95.0 253.0L95.0 208.0C95.0 206.89543 95.89543 206.0 97.0 206.0L146.0 206.0C147.10457 206.0 148.0 206.89543 148.0 208.0Z" fill-rule="nonzero"/><path stroke="#000000" stroke-width="2.0" stroke-linecap="butt" stroke-opacity="0.0" clip-path="url(#id_0)" d="M229.0 253.0L176.0 253.0L176.0 185.0C176.0 183.89543 176.89543 183.0 178.0 183.0L227.0 183.0C228.10457 183.0 229.0 183.89543 229.0 185.0Z" fill-rule="nonzero"/><path fill="#4285f4" clip-path="url(#id_0)" d="M229.0 253.0L176.0 253.0L176.0 185.0C176.0 183.89543 176.89543 183.0 178.0 183.0L227.0 183.0C228.10457 183.0 229.0 183.89543 229.0 185.0Z" fill-rule="nonzero"/><path stroke="#000000" stroke-width="2.0" stroke-linecap="butt" stroke-opacity="0.0" clip-path="url(#id_0)" d="M310.0 253.0L257.0 253.0L257.0 210.0C257.0 208.89543 257.89542 208.0 259.0 208.0L308.0 208.0C309.10458 208.0 310.0 208.89543 310.0 210.0Z" fill-rule="nonzero"/><path fill="#4285f4" clip-path="url(#id_0)" d="M310.0 253.0L257.0 253.0L257.0 210.0C257.0 208.89543 257.89542 208.0 259.0 208.0L308.0 208.0C309.10458 208.0 310.0 208.89543 310.0 210.0Z" fill-rule="nonzero"/><path stroke="#000000" stroke-width="2.0" stroke-linecap="butt" stroke-opacity="0.0" clip-path="url(#id_0)" d="M392.0 253.0L339.0 253.0L339.0 240.0C339.0 238.89543 339.89542 238.0 341.0 238.0L390.0 238.0C391.10458 238.0 392.0 238.89543 392.0 240.0Z" fill-rule="nonzero"/><path fill="#4285f4" clip-path="url(#id_0)" d="M392.0 253.0L339.0 253.0L339.0 240.0C339.0 238.89543 339.89542 238.0 341.0 238.0L390.0 238.0C391.10458 238.0 392.0 238.89543 392.0 240.0Z" fill-rule="nonzero"/><path stroke="#000000" stroke-width="2.0" stroke-linecap="butt" stroke-opacity="0.0" clip-path="url(#id_0)" d="M473.0 253.0L420.0 253.0L420.0 238.0C420.0 236.89543 420.89542 236.0 422.0 236.0L471.0 236.0C472.10458 236.0 473.0 236.89543 473.0 238.0Z" fill-rule="nonzero"/><path fill="#4285f4" clip-path="url(#id_0)" d="M473.0 253.0L420.0 253.0L420.0 238.0C420.0 236.89543 420.89542 236.0 422.0 236.0L471.0 236.0C472.10458 236.0 473.0 236.89543 473.0 238.0Z" fill-rule="nonzero"/><path stroke="#000000" stroke-width="2.0" stroke-linecap="butt" stroke-opacity="0.0" clip-path="url(#id_0)" d="M554.0 253.0L501.0 253.0L501.0 108.0C501.0 106.89543 501.89542 106.0 503.0 106.0L552.0 106.0C553.10455 106.0 554.0 106.89543 554.0 108.0Z" fill-rule="nonzero"/><path fill="#4285f4" clip-path="url(#id_0)" d="M554.0 253.0L501.0 253.0L501.0 108.0C501.0 106.89543 501.89542 106.0 503.0 106.0L552.0 106.0C553.10455 106.0 554.0 106.89543 554.0 108.0Z" fill-rule="nonzero"/><path fill="#000000" d="M286.875 347.59064L287.90625 347.4344Q288.0 348.0594 288.39062 348.3875Q288.79688 348.71564 289.53125 348.71564Q290.25 348.71564 290.59375 348.4344Q290.95312 348.1375 290.95312 347.73126Q290.95312 347.3719 290.64062 347.16876Q290.42188 347.02814 289.5625 346.8094Q288.40625 346.5125 287.95312 346.3094Q287.51562 346.09064 287.28125 345.71564Q287.04688 345.34064 287.04688 344.8719Q287.04688 344.46564 287.23438 344.10626Q287.42188 343.7469 287.75 343.5125Q288.0 343.34064 288.42188 343.21564Q288.84375 343.09064 289.34375 343.09064Q290.0625 343.09064 290.60938 343.3094Q291.17188 343.5125 291.4375 343.8719Q291.70312 344.23126 291.79688 344.825L290.76562 344.96564Q290.70312 344.4969 290.35938 344.23126Q290.03125 343.95 289.40625 343.95Q288.6875 343.95 288.375 344.2Q288.0625 344.4344 288.0625 344.7625Q288.0625 344.96564 288.1875 345.1219Q288.32812 345.29376 288.59375 345.40314Q288.75 345.46564 289.53125 345.66876Q290.65625 345.98126 291.09375 346.16876Q291.53125 346.35626 291.78125 346.71564Q292.03125 347.075 292.03125 347.6219Q292.03125 348.15314 291.71875 348.6219Q291.42188 349.075 290.84375 349.34064Q290.26562 349.59064 289.53125 349.59064Q288.3125 349.59064 287.67188 349.09064Q287.04688 348.575 286.875 347.59064ZM294.25 351.84064L294.125 350.85626Q294.46875 350.95 294.73438 350.95Q295.07812 350.95 295.28125 350.825Q295.5 350.71564 295.64062 350.5125Q295.73438 350.34064 295.96875 349.71564Q295.98438 349.6375 296.0625 349.46564L293.6875 343.23126L294.82812 343.23126L296.125 346.825Q296.375 347.5125 296.57812 348.27814Q296.76562 347.54376 297.01562 346.85626L298.34375 343.23126L299.39062 343.23126L297.03125 349.5594Q296.64062 350.575 296.4375 350.96564Q296.15625 351.4969 295.78125 351.73126Q295.42188 351.98126 294.92188 351.98126Q294.625 351.98126 294.25 351.84064ZM298.875 347.59064L299.90625 347.4344Q300.0 348.0594 300.39062 348.3875Q300.79688 348.71564 301.53125 348.71564Q302.25 348.71564 302.59375 348.4344Q302.95312 348.1375 302.95312 347.73126Q302.95312 347.3719 302.64062 347.16876Q302.42188 347.02814 301.5625 346.8094Q300.40625 346.5125 299.95312 346.3094Q299.51562 346.09064 299.28125 345.71564Q299.04688 345.34064 299.04688 344.8719Q299.04688 344.46564 299.23438 344.10626Q299.42188 343.7469 299.75 343.5125Q300.0 343.34064 300.42188 343.21564Q300.84375 343.09064 301.34375 343.09064Q302.0625 343.09064 302.60938 343.3094Q303.17188 343.5125 303.4375 343.8719Q303.70312 344.23126 303.79688 344.825L302.76562 344.96564Q302.70312 344.4969 302.35938 344.23126Q302.03125 343.95 301.40625 343.95Q300.6875 343.95 300.375 344.2Q300.0625 344.4344 300.0625 344.7625Q300.0625 344.96564 300.1875 345.1219Q300.32812 345.29376 300.59375 345.40314Q300.75 345.46564 301.53125 345.66876Q302.65625 345.98126 303.09375 346.16876Q303.53125 346.35626 303.78125 346.71564Q304.03125 347.075 304.03125 347.6219Q304.03125 348.15314 303.71875 348.6219Q303.42188 349.075 302.84375 349.34064Q302.26562 349.59064 301.53125 349.59064Q300.3125 349.59064 299.67188 349.09064Q299.04688 348.575 298.875 347.59064ZM308.59375 348.5125L308.75 349.4344Q308.29688 349.52814 307.95312 349.52814Q307.375 349.52814 307.0625 349.35626Q306.75 349.16876 306.60938 348.8719Q306.48438 348.575 306.48438 347.6219L306.48438 344.04376L305.71875 344.04376L305.71875 343.23126L306.48438 343.23126L306.48438 341.6844L307.53125 341.0594L307.53125 343.23126L308.59375 343.23126L308.59375 344.04376L307.53125 344.04376L307.53125 347.6844Q307.53125 348.1375 307.57812 348.2625Q307.64062 348.3875 307.76562 348.46564Q307.89062 348.54376 308.125 348.54376Q308.3125 348.54376 308.59375 348.5125ZM313.54688 347.45L314.64062 347.575Q314.39062 348.52814 313.6875 349.0594Q312.98438 349.59064 311.90625 349.59064Q310.54688 349.59064 309.73438 348.7469Q308.9375 347.90314 308.9375 346.3875Q308.9375 344.825 309.75 343.96564Q310.5625 343.09064 311.84375 343.09064Q313.09375 343.09064 313.875 343.9344Q314.67188 344.77814 314.67188 346.325Q314.67188 346.41876 314.67188 346.60626L310.03125 346.60626Q310.09375 347.6375 310.60938 348.1844Q311.125 348.71564 311.90625 348.71564Q312.48438 348.71564 312.89062 348.41876Q313.3125 348.10626 313.54688 347.45ZM310.09375 345.7469L313.5625 345.7469Q313.5 344.95 313.17188 344.5594Q312.65625 343.95 311.85938 343.95Q311.125 343.95 310.625 344.4344Q310.14062 344.91876 310.09375 345.7469ZM316.29688 349.45L316.29688 343.23126L317.23438 343.23126L317.23438 344.10626Q317.53125 343.6375 318.01562 343.3719Q318.5 343.09064 319.125 343.09064Q319.8125 343.09064 320.25 343.3719Q320.70312 343.65314 320.875 344.16876Q321.625 343.09064 322.79688 343.09064Q323.73438 343.09064 324.21875 343.60626Q324.71875 344.10626 324.71875 345.1844L324.71875 349.45L323.67188 349.45L323.67188 345.52814Q323.67188 344.90314 323.5625 344.6219Q323.46875 344.34064 323.20312 344.16876Q322.9375 343.9969 322.5625 343.9969Q321.90625 343.9969 321.46875 344.4344Q321.04688 344.8719 321.04688 345.84064L321.04688 349.45L319.98438 349.45L319.98438 345.40314Q319.98438 344.7 319.71875 344.35626Q319.46875 343.9969 318.89062 343.9969Q318.4375 343.9969 318.0625 344.23126Q317.6875 344.46564 317.51562 344.91876Q317.34375 345.3719 317.34375 346.21564L317.34375 349.45L316.29688 349.45ZM330.29688 349.45L330.29688 343.23126L331.23438 343.23126L331.23438 344.10626Q331.92188 343.09064 333.21875 343.09064Q333.78125 343.09064 334.25 343.29376Q334.73438 343.4969 334.96875 343.825Q335.20312 344.15314 335.29688 344.59064Q335.34375 344.8875 335.34375 345.6219L335.34375 349.45L334.29688 349.45L334.29688 345.66876Q334.29688 345.0125 334.17188 344.7Q334.04688 344.3875 333.73438 344.2Q333.42188 343.9969 333.0 343.9969Q332.32812 343.9969 331.82812 344.4344Q331.34375 344.85626 331.34375 346.04376L331.34375 349.45L330.29688 349.45ZM341.35938 348.6844Q340.76562 349.1844 340.21875 349.3875Q339.6875 349.59064 339.0625 349.59064Q338.03125 349.59064 337.48438 349.09064Q336.9375 348.59064 336.9375 347.8094Q336.9375 347.35626 337.14062 346.98126Q337.34375 346.59064 337.6875 346.3719Q338.03125 346.1375 338.45312 346.02814Q338.75 345.9344 339.39062 345.85626Q340.65625 345.71564 341.26562 345.4969Q341.26562 345.27814 341.26562 345.23126Q341.26562 344.575 340.96875 344.3094Q340.5625 343.96564 339.76562 343.96564Q339.03125 343.96564 338.67188 344.23126Q338.3125 344.48126 338.14062 345.1375L337.10938 344.9969Q337.25 344.34064 337.57812 343.9344Q337.90625 343.52814 338.51562 343.3094Q339.125 343.09064 339.92188 343.09064Q340.71875 343.09064 341.21875 343.27814Q341.71875 343.46564 341.95312 343.7469Q342.1875 344.02814 342.28125 344.46564Q342.32812 344.73126 342.32812 345.4344L342.32812 346.84064Q342.32812 348.3094 342.39062 348.7Q342.46875 349.09064 342.67188 349.45L341.5625 349.45Q341.40625 349.1219 341.35938 348.6844ZM341.26562 346.325Q340.6875 346.5594 339.54688 346.73126Q338.89062 346.825 338.625 346.95Q338.35938 347.0594 338.20312 347.27814Q338.0625 347.4969 338.0625 347.77814Q338.0625 348.2 338.375 348.48126Q338.70312 348.7625 339.3125 348.7625Q339.92188 348.7625 340.39062 348.4969Q340.875 348.23126 341.09375 347.7625Q341.26562 347.40314 341.26562 346.71564L341.26562 346.325ZM344.29688 349.45L344.29688 343.23126L345.23438 343.23126L345.23438 344.10626Q345.53125 343.6375 346.01562 343.3719Q346.5 343.09064 347.125 343.09064Q347.8125 343.09064 348.25 343.3719Q348.70312 343.65314 348.875 344.16876Q349.625 343.09064 350.79688 343.09064Q351.73438 343.09064 352.21875 343.60626Q352.71875 344.10626 352.71875 345.1844L352.71875 349.45L351.67188 349.45L351.67188 345.52814Q351.67188 344.90314 351.5625 344.6219Q351.46875 344.34064 351.20312 344.16876Q350.9375 343.9969 350.5625 343.9969Q349.90625 343.9969 349.46875 344.4344Q349.04688 344.8719 349.04688 345.84064L349.04688 349.45L347.98438 349.45L347.98438 345.40314Q347.98438 344.7 347.71875 344.35626Q347.46875 343.9969 346.89062 343.9969Q346.4375 343.9969 346.0625 344.23126Q345.6875 344.46564 345.51562 344.91876Q345.34375 345.3719 345.34375 346.21564L345.34375 349.45L344.29688 349.45ZM359.54688 347.45L360.64062 347.575Q360.39062 348.52814 359.6875 349.0594Q358.98438 349.59064 357.90625 349.59064Q356.54688 349.59064 355.73438 348.7469Q354.9375 347.90314 354.9375 346.3875Q354.9375 344.825 355.75 343.96564Q356.5625 343.09064 357.84375 343.09064Q359.09375 343.09064 359.875 343.9344Q360.67188 344.77814 360.67188 346.325Q360.67188 346.41876 360.67188 346.60626L356.03125 346.60626Q356.09375 347.6375 356.60938 348.1844Q357.125 348.71564 357.90625 348.71564Q358.48438 348.71564 358.89062 348.41876Q359.3125 348.10626 359.54688 347.45ZM356.09375 345.7469L359.5625 345.7469Q359.5 344.95 359.17188 344.5594Q358.65625 343.95 357.85938 343.95Q357.125 343.95 356.625 344.4344Q356.14062 344.91876 356.09375 345.7469Z" fill-rule="nonzero"/><path fill="#000000" d="M54.05 252.5823Q54.05 251.05106 54.3625 250.12918Q54.675 249.19168 55.284374 248.69168Q55.909374 248.19168 56.846874 248.19168Q57.534374 248.19168 58.05 248.47293Q58.58125 248.75418 58.925 249.28543Q59.26875 249.80106 59.45625 250.55106Q59.64375 251.30106 59.64375 252.5823Q59.64375 254.09793 59.33125 255.0198Q59.034374 255.94168 58.409374 256.4573Q57.8 256.9573 56.846874 256.9573Q55.6125 256.9573 54.89375 256.06668Q54.05 255.00418 54.05 252.5823ZM55.128124 252.5823Q55.128124 254.69168 55.628124 255.3948Q56.128124 256.09793 56.846874 256.09793Q57.58125 256.09793 58.065624 255.3948Q58.565624 254.69168 58.565624 252.5823Q58.565624 250.4573 58.065624 249.7698Q57.58125 249.06668 56.83125 249.06668Q56.1125 249.06668 55.675 249.67606Q55.128124 250.4573 55.128124 252.5823Z" fill-rule="nonzero"/><path fill="#000000" d="M26.05 197.26666L27.159374 197.17291Q27.284374 197.98541 27.721874 198.39166Q28.175 198.79791 28.815624 198.79791Q29.565624 198.79791 30.096874 198.21979Q30.628124 197.64166 30.628124 196.70416Q30.628124 195.79791 30.1125 195.28229Q29.6125 194.75104 28.784374 194.75104Q28.284374 194.75104 27.8625 194.98541Q27.45625 195.21979 27.221874 195.57916L26.2375 195.45416L27.065624 191.04791L31.346874 191.04791L31.346874 192.04791L27.909374 192.04791L27.45625 194.36041Q28.221874 193.81354 29.065624 193.81354Q30.190624 193.81354 30.95625 194.59479Q31.7375 195.37604 31.7375 196.61041Q31.7375 197.76666 31.065624 198.62604Q30.2375 199.65729 28.815624 199.65729Q27.64375 199.65729 26.89375 199.00104Q26.159374 198.34479 26.05 197.26666ZM33.05 195.28229Q33.05 193.75104 33.3625 192.82916Q33.675 191.89166 34.284374 191.39166Q34.909374 190.89166 35.846874 190.89166Q36.534374 190.89166 37.05 191.17291Q37.58125 191.45416 37.925 191.98541Q38.26875 192.50104 38.45625 193.25104Q38.64375 194.00104 38.64375 195.28229Q38.64375 196.79791 38.33125 197.71979Q38.034374 198.64166 37.409374 199.15729Q36.8 199.65729 35.846874 199.65729Q34.6125 199.65729 33.89375 198.76666Q33.05 197.70416 33.05 195.28229ZM34.128124 195.28229Q34.128124 197.39166 34.628124 198.09479Q35.128124 198.79791 35.846874 198.79791Q36.58125 198.79791 37.065624 198.09479Q37.565624 197.39166 37.565624 195.28229Q37.565624 193.15729 37.065624 192.46979Q36.58125 191.76666 35.83125 191.76666Q35.1125 191.76666 34.675 192.37604Q34.128124 193.15729 34.128124 195.28229ZM40.05 195.28229Q40.05 193.75104 40.3625 192.82916Q40.675 191.89166 41.284374 191.39166Q41.909374 190.89166 42.846874 190.89166Q43.534374 190.89166 44.05 191.17291Q44.58125 191.45416 44.925 191.98541Q45.26875 192.50104 45.45625 193.25104Q45.64375 194.00104 45.64375 195.28229Q45.64375 196.79791 45.33125 197.71979Q45.034374 198.64166 44.409374 199.15729Q43.8 199.65729 42.846874 199.65729Q41.6125 199.65729 40.89375 198.76666Q40.05 197.70416 40.05 195.28229ZM41.128124 195.28229Q41.128124 197.39166 41.628124 198.09479Q42.128124 198.79791 42.846874 198.79791Q43.58125 198.79791 44.065624 198.09479Q44.565624 197.39166 44.565624 195.28229Q44.565624 193.15729 44.065624 192.46979Q43.58125 191.76666 42.83125 191.76666Q42.1125 191.76666 41.675 192.37604Q41.128124 193.15729 41.128124 195.28229ZM47.05 195.28229Q47.05 193.75104 47.3625 192.82916Q47.675 191.89166 48.284374 191.39166Q48.909374 190.89166 49.846874 190.89166Q50.534374 190.89166 51.05 191.17291Q51.58125 191.45416 51.925 191.98541Q52.26875 192.50104 52.45625 193.25104Q52.64375 194.00104 52.64375 195.28229Q52.64375 196.79791 52.33125 197.71979Q52.034374 198.64166 51.409374 199.15729Q50.8 199.65729 49.846874 199.65729Q48.6125 199.65729 47.89375 198.76666Q47.05 197.70416 47.05 195.28229ZM48.128124 195.28229Q48.128124 197.39166 48.628124 198.09479Q49.128124 198.79791 49.846874 198.79791Q50.58125 198.79791 51.065624 198.09479Q51.565624 197.39166 51.565624 195.28229Q51.565624 193.15729 51.065624 192.46979Q50.58125 191.76666 49.83125 191.76666Q49.1125 191.76666 48.675 192.37604Q48.128124 193.15729 48.128124 195.28229ZM54.05 195.28229Q54.05 193.75104 54.3625 192.82916Q54.675 191.89166 55.284374 191.39166Q55.909374 190.89166 56.846874 190.89166Q57.534374 190.89166 58.05 191.17291Q58.58125 191.45416 58.925 191.98541Q59.26875 192.50104 59.45625 193.25104Q59.64375 194.00104 59.64375 195.28229Q59.64375 196.79791 59.33125 197.71979Q59.034374 198.64166 58.409374 199.15729Q57.8 199.65729 56.846874 199.65729Q55.6125 199.65729 54.89375 198.76666Q54.05 197.70416 54.05 195.28229ZM55.128124 195.28229Q55.128124 197.39166 55.628124 198.09479Q56.128124 198.79791 56.846874 198.79791Q57.58125 198.79791 58.065624 198.09479Q58.565624 197.39166 58.565624 195.28229Q58.565624 193.15729 58.065624 192.46979Q57.58125 191.76666 56.83125 191.76666Q56.1125 191.76666 55.675 192.37604Q55.128124 193.15729 55.128124 195.28229Z" fill-rule="nonzero"/><path fill="#000000" d="M23.01875 142.21666L21.971874 142.21666L21.971874 135.49791Q21.58125 135.85728 20.95625 136.23228Q20.346874 136.59166 19.8625 136.76353L19.8625 135.74791Q20.7375 135.32603 21.39375 134.74791Q22.065624 134.15416 22.346874 133.59166L23.01875 133.59166L23.01875 142.21666ZM26.05 137.98228Q26.05 136.45103 26.3625 135.52916Q26.675 134.59166 27.284374 134.09166Q27.909374 133.59166 28.846874 133.59166Q29.534374 133.59166 30.05 133.87291Q30.58125 134.15416 30.925 134.68541Q31.26875 135.20103 31.45625 135.95103Q31.64375 136.70103 31.64375 137.98228Q31.64375 139.49791 31.33125 140.41978Q31.034374 141.34166 30.409374 141.85728Q29.8 142.35728 28.846874 142.35728Q27.6125 142.35728 26.89375 141.46666Q26.05 140.40416 26.05 137.98228ZM27.128124 137.98228Q27.128124 140.09166 27.628124 140.79478Q28.128124 141.49791 28.846874 141.49791Q29.58125 141.49791 30.065624 140.79478Q30.565624 140.09166 30.565624 137.98228Q30.565624 135.85728 30.065624 135.16978Q29.58125 134.46666 28.83125 134.46666Q28.1125 134.46666 27.675 135.07603Q27.128124 135.85728 27.128124 137.98228ZM33.05 137.98228Q33.05 136.45103 33.3625 135.52916Q33.675 134.59166 34.284374 134.09166Q34.909374 133.59166 35.846874 133.59166Q36.534374 133.59166 37.05 133.87291Q37.58125 134.15416 37.925 134.68541Q38.26875 135.20103 38.45625 135.95103Q38.64375 136.70103 38.64375 137.98228Q38.64375 139.49791 38.33125 140.41978Q38.034374 141.34166 37.409374 141.85728Q36.8 142.35728 35.846874 142.35728Q34.6125 142.35728 33.89375 141.46666Q33.05 140.40416 33.05 137.98228ZM34.128124 137.98228Q34.128124 140.09166 34.628124 140.79478Q35.128124 141.49791 35.846874 141.49791Q36.58125 141.49791 37.065624 140.79478Q37.565624 140.09166 37.565624 137.98228Q37.565624 135.85728 37.065624 135.16978Q36.58125 134.46666 35.83125 134.46666Q35.1125 134.46666 34.675 135.07603Q34.128124 135.85728 34.128124 137.98228ZM40.05 137.98228Q40.05 136.45103 40.3625 135.52916Q40.675 134.59166 41.284374 134.09166Q41.909374 133.59166 42.846874 133.59166Q43.534374 133.59166 44.05 133.87291Q44.58125 134.15416 44.925 134.68541Q45.26875 135.20103 45.45625 135.95103Q45.64375 136.70103 45.64375 137.98228Q45.64375 139.49791 45.33125 140.41978Q45.034374 141.34166 44.409374 141.85728Q43.8 142.35728 42.846874 142.35728Q41.6125 142.35728 40.89375 141.46666Q40.05 140.40416 40.05 137.98228ZM41.128124 137.98228Q41.128124 140.09166 41.628124 140.79478Q42.128124 141.49791 42.846874 141.49791Q43.58125 141.49791 44.065624 140.79478Q44.565624 140.09166 44.565624 137.98228Q44.565624 135.85728 44.065624 135.16978Q43.58125 134.46666 42.83125 134.46666Q42.1125 134.46666 41.675 135.07603Q41.128124 135.85728 41.128124 137.98228ZM47.05 137.98228Q47.05 136.45103 47.3625 135.52916Q47.675 134.59166 48.284374 134.09166Q48.909374 133.59166 49.846874 133.59166Q50.534374 133.59166 51.05 133.87291Q51.58125 134.15416 51.925 134.68541Q52.26875 135.20103 52.45625 135.95103Q52.64375 136.70103 52.64375 137.98228Q52.64375 139.49791 52.33125 140.41978Q52.034374 141.34166 51.409374 141.85728Q50.8 142.35728 49.846874 142.35728Q48.6125 142.35728 47.89375 141.46666Q47.05 140.40416 47.05 137.98228ZM48.128124 137.98228Q48.128124 140.09166 48.628124 140.79478Q49.128124 141.49791 49.846874 141.49791Q50.58125 141.49791 51.065624 140.79478Q51.565624 140.09166 51.565624 137.98228Q51.565624 135.85728 51.065624 135.16978Q50.58125 134.46666 49.83125 134.46666Q49.1125 134.46666 48.675 135.07603Q48.128124 135.85728 48.128124 137.98228ZM54.05 137.98228Q54.05 136.45103 54.3625 135.52916Q54.675 134.59166 55.284374 134.09166Q55.909374 133.59166 56.846874 133.59166Q57.534374 133.59166 58.05 133.87291Q58.58125 134.15416 58.925 134.68541Q59.26875 135.20103 59.45625 135.95103Q59.64375 136.70103 59.64375 137.98228Q59.64375 139.49791 59.33125 140.41978Q59.034374 141.34166 58.409374 141.85728Q57.8 142.35728 56.846874 142.35728Q55.6125 142.35728 54.89375 141.46666Q54.05 140.40416 54.05 137.98228ZM55.128124 137.98228Q55.128124 140.09166 55.628124 140.79478Q56.128124 141.49791 56.846874 141.49791Q57.58125 141.49791 58.065624 140.79478Q58.565624 140.09166 58.565624 137.98228Q58.565624 135.85728 58.065624 135.16978Q57.58125 134.46666 56.83125 134.46666Q56.1125 134.46666 55.675 135.07603Q55.128124 135.85728 55.128124 137.98228Z" fill-rule="nonzero"/><path fill="#000000" d="M23.01875 84.916664L21.971874 84.916664L21.971874 78.197914Q21.58125 78.55729 20.95625 78.93229Q20.346874 79.291664 19.8625 79.46354L19.8625 78.447914Q20.7375 78.02604 21.39375 77.447914Q22.065624 76.854164 22.346874 76.291664L23.01875 76.291664L23.01875 84.916664ZM26.05 82.666664L27.159374 82.572914Q27.284374 83.385414 27.721874 83.791664Q28.175 84.197914 28.815624 84.197914Q29.565624 84.197914 30.096874 83.61979Q30.628124 83.041664 30.628124 82.104164Q30.628124 81.197914 30.1125 80.68229Q29.6125 80.15104 28.784374 80.15104Q28.284374 80.15104 27.8625 80.385414Q27.45625 80.61979 27.221874 80.979164L26.2375 80.854164L27.065624 76.447914L31.346874 76.447914L31.346874 77.447914L27.909374 77.447914L27.45625 79.760414Q28.221874 79.21354 29.065624 79.21354Q30.190624 79.21354 30.95625 79.99479Q31.7375 80.77604 31.7375 82.010414Q31.7375 83.166664 31.065624 84.02604Q30.2375 85.05729 28.815624 85.05729Q27.64375 85.05729 26.89375 84.40104Q26.159374 83.74479 26.05 82.666664ZM33.05 80.68229Q33.05 79.15104 33.3625 78.229164Q33.675 77.291664 34.284374 76.791664Q34.909374 76.291664 35.846874 76.291664Q36.534374 76.291664 37.05 76.572914Q37.58125 76.854164 37.925 77.385414Q38.26875 77.90104 38.45625 78.65104Q38.64375 79.40104 38.64375 80.68229Q38.64375 82.197914 38.33125 83.11979Q38.034374 84.041664 37.409374 84.55729Q36.8 85.05729 35.846874 85.05729Q34.6125 85.05729 33.89375 84.166664Q33.05 83.104164 33.05 80.68229ZM34.128124 80.68229Q34.128124 82.791664 34.628124 83.49479Q35.128124 84.197914 35.846874 84.197914Q36.58125 84.197914 37.065624 83.49479Q37.565624 82.791664 37.565624 80.68229Q37.565624 78.55729 37.065624 77.86979Q36.58125 77.166664 35.83125 77.166664Q35.1125 77.166664 34.675 77.77604Q34.128124 78.55729 34.128124 80.68229ZM40.05 80.68229Q40.05 79.15104 40.3625 78.229164Q40.675 77.291664 41.284374 76.791664Q41.909374 76.291664 42.846874 76.291664Q43.534374 76.291664 44.05 76.572914Q44.58125 76.854164 44.925 77.385414Q45.26875 77.90104 45.45625 78.65104Q45.64375 79.40104 45.64375 80.68229Q45.64375 82.197914 45.33125 83.11979Q45.034374 84.041664 44.409374 84.55729Q43.8 85.05729 42.846874 85.05729Q41.6125 85.05729 40.89375 84.166664Q40.05 83.104164 40.05 80.68229ZM41.128124 80.68229Q41.128124 82.791664 41.628124 83.49479Q42.128124 84.197914 42.846874 84.197914Q43.58125 84.197914 44.065624 83.49479Q44.565624 82.791664 44.565624 80.68229Q44.565624 78.55729 44.065624 77.86979Q43.58125 77.166664 42.83125 77.166664Q42.1125 77.166664 41.675 77.77604Q41.128124 78.55729 41.128124 80.68229ZM47.05 80.68229Q47.05 79.15104 47.3625 78.229164Q47.675 77.291664 48.284374 76.791664Q48.909374 76.291664 49.846874 76.291664Q50.534374 76.291664 51.05 76.572914Q51.58125 76.854164 51.925 77.385414Q52.26875 77.90104 52.45625 78.65104Q52.64375 79.40104 52.64375 80.68229Q52.64375 82.197914 52.33125 83.11979Q52.034374 84.041664 51.409374 84.55729Q50.8 85.05729 49.846874 85.05729Q48.6125 85.05729 47.89375 84.166664Q47.05 83.104164 47.05 80.68229ZM48.128124 80.68229Q48.128124 82.791664 48.628124 83.49479Q49.128124 84.197914 49.846874 84.197914Q50.58125 84.197914 51.065624 83.49479Q51.565624 82.791664 51.565624 80.68229Q51.565624 78.55729 51.065624 77.86979Q50.58125 77.166664 49.83125 77.166664Q49.1125 77.166664 48.675 77.77604Q48.128124 78.55729 48.128124 80.68229ZM54.05 80.68229Q54.05 79.15104 54.3625 78.229164Q54.675 77.291664 55.284374 76.791664Q55.909374 76.291664 56.846874 76.291664Q57.534374 76.291664 58.05 76.572914Q58.58125 76.854164 58.925 77.385414Q59.26875 77.90104 59.45625 78.65104Q59.64375 79.40104 59.64375 80.68229Q59.64375 82.197914 59.33125 83.11979Q59.034374 84.041664 58.409374 84.55729Q57.8 85.05729 56.846874 85.05729Q55.6125 85.05729 54.89375 84.166664Q54.05 83.104164 54.05 80.68229ZM55.128124 80.68229Q55.128124 82.791664 55.628124 83.49479Q56.128124 84.197914 56.846874 84.197914Q57.58125 84.197914 58.065624 83.49479Q58.565624 82.791664 58.565624 80.68229Q58.565624 78.55729 58.065624 77.86979Q57.58125 77.166664 56.83125 77.166664Q56.1125 77.166664 55.675 77.77604Q55.128124 78.55729 55.128124 80.68229Z" fill-rule="nonzero"/><path fill="#000000" d="M92.844505 302.81195L88.44719 298.41464L89.12115 297.7407L89.78406 298.4036Q89.574135 297.68542 89.64043 297.33188Q89.70672 296.95624 89.971886 296.69107Q90.347534 296.31543 90.966255 296.16074L91.408195 297.1109Q90.966255 297.2214 90.70109 297.48657Q90.446976 297.7407 90.40278 298.09424Q90.35858 298.4257 90.54641 298.7682Q90.81158 299.29852 91.27561 299.76257L93.58476 302.07172L92.844505 302.81195ZM97.27497 295.55307L98.13676 294.86807Q98.63394 295.7188 98.51241 296.59164Q98.39088 297.46448 97.628525 298.2268Q96.667305 299.18805 95.496155 299.16595Q94.33606 299.13278 93.26435 298.0611Q92.1595 296.95624 92.12635 295.77405Q92.08216 294.5808 92.98814 293.6748Q93.872025 292.79092 95.02107 292.8351Q96.18117 292.8683 97.27497 293.96207Q97.34126 294.02838 97.47385 294.16095L94.19243 297.44238Q94.96583 298.12738 95.717125 298.14948Q96.45738 298.16052 97.00981 297.6081Q97.4186 297.1993 97.49594 296.70212Q97.57328 296.18283 97.27497 295.55307ZM93.62895 296.7905L96.08173 294.33774Q95.47406 293.81845 94.96583 293.77426Q94.170334 293.70795 93.60686 294.27142Q93.08758 294.7907 93.07652 295.4868Q93.07652 296.17178 93.62895 296.7905ZM101.893265 290.53702L102.7219 289.90726Q103.35167 290.7801 103.28538 291.70816Q103.219086 292.63626 102.50093 293.3544Q101.594955 294.26038 100.456955 294.22723Q99.318954 294.172 98.214096 293.06714Q97.50699 292.36005 97.20868 291.5977Q96.91037 290.81323 97.12029 290.073Q97.34126 289.3217 97.91579 288.74716Q98.622894 288.04007 99.44049 287.95166Q100.25808 287.8412 101.06462 288.38257L100.44591 289.22226Q99.904526 288.87976 99.41839 288.92395Q98.9212 288.9571 98.545555 289.33273Q97.98208 289.8962 98.03732 290.65857Q98.08152 291.40985 98.95435 292.2827Q99.84928 293.17764 100.58954 293.23288Q101.32979 293.28812 101.87117 292.74673Q102.31311 292.3048 102.335205 291.75238Q102.368355 291.1889 101.893265 290.53702ZM106.53365 292.50366L105.74921 291.896Q106.05856 291.71924 106.24639 291.5314Q106.489456 291.28833 106.5447 291.0563Q106.62204 290.82428 106.57784 290.58124Q106.522606 290.3934 106.24639 289.78574Q106.202194 289.71945 106.1359 289.54266L100.04816 286.81366L100.8547 286.00714L104.3129 287.63126Q104.97581 287.9406 105.66082 288.33838Q105.27412 287.6865 104.96476 287.0236L103.34062 283.5212L104.08088 282.78094L106.88721 288.92395Q107.32915 289.9183 107.46173 290.33817Q107.638504 290.9127 107.53907 291.34357Q107.46173 291.77448 107.10818 292.12802Q106.898254 292.33795 106.53365 292.50366ZM109.67144 282.75885L110.50008 282.1291Q111.129845 283.00192 111.06355 283.93Q110.99726 284.8581 110.279106 285.57623Q109.37313 286.4822 108.23513 286.44907Q107.09713 286.39383 105.99227 285.28897Q105.285164 284.58188 104.986855 283.81952Q104.688545 283.03506 104.89847 282.29483Q105.11944 281.54352 105.69396 280.969Q106.40107 280.26187 107.21866 280.1735Q108.036255 280.06302 108.8428 280.6044L108.22408 281.4441Q107.6827 281.10156 107.19656 281.14578Q106.69938 281.17892 106.32373 281.55457Q105.760254 282.11804 105.8155 282.8804Q105.85969 283.63168 106.73253 284.50452Q107.62746 285.39944 108.367714 285.4547Q109.10796 285.50995 109.64934 284.96857Q110.091286 284.5266 110.11338 283.97418Q110.14652 283.4107 109.67144 282.75885ZM112.63245 283.02402L106.55575 276.94733L107.30705 276.196L113.38375 282.2727L112.63245 283.02402ZM109.56095 275.66568L108.699165 274.8039L109.45047 274.0526L110.312256 274.9144L109.56095 275.66568ZM114.77586 280.8806L110.37855 276.48328L111.129845 275.732L115.52717 280.1293L114.77586 280.8806ZM116.89719 278.75928L112.49986 274.36197L113.16278 273.69904L113.781494 274.31778Q113.54948 273.11346 114.46651 272.19644Q114.86425 271.7987 115.33934 271.61087Q115.82548 271.412 116.22323 271.4783Q116.62097 271.5446 116.99662 271.78766Q117.23969 271.96442 117.75897 272.4837L120.465866 275.1906L119.72562 275.93085L117.051865 273.2571Q116.58783 272.79306 116.278465 272.6605Q115.96911 272.5279 115.615555 272.6163Q115.25095 272.69363 114.952644 272.99194Q114.477554 273.46704 114.43336 274.12994Q114.38917 274.77075 115.22886 275.61044L117.637436 278.01904L116.89719 278.75928ZM122.0679 274.31778L122.90759 273.69904Q123.28324 273.9863 123.64784 273.93106Q124.13398 273.86478 124.60907 273.38968Q125.12835 272.87042 125.19464 272.38428Q125.27198 271.8871 125.00681 271.42303Q124.84109 271.12473 124.10084 270.4066Q124.189224 271.46725 123.46002 272.19644Q122.55404 273.10242 121.40499 272.94775Q120.244896 272.782 119.33891 271.87604Q118.709145 271.24628 118.39979 270.49496Q118.09043 269.7216 118.23406 269.00342Q118.37769 268.28528 118.963264 267.69968Q119.74771 266.91525 120.88571 267.03677L120.35538 266.50644L121.04039 265.82144L124.84109 269.62213Q125.86861 270.64966 126.08958 271.29047Q126.31055 271.93127 126.100624 272.62735Q125.90175 273.33444 125.23884 273.99738Q124.45439 274.7818 123.6147 274.9144Q122.77501 275.04697 122.0679 274.31778ZM120.04602 271.05844Q120.90781 271.92023 121.648056 271.97546Q122.38831 272.03073 122.90759 271.51144Q123.42687 270.99216 123.371635 270.2519Q123.32744 269.5006 122.48775 268.66092Q121.681206 267.85437 120.90781 267.81018Q120.145454 267.75494 119.63722 268.26315Q119.14004 268.76035 119.19528 269.5227Q119.25053 270.26294 120.04602 271.05844ZM124.67536 267.33508L123.92406 266.5838L126.22216 264.2857L126.97346 265.037L124.67536 267.33508Z" fill-rule="nonzero"/><path fill="#000000" d="M162.62846 314.11462L156.55176 308.03793L157.292 307.29767L159.46857 309.47424Q159.39124 308.35834 160.18672 307.56284Q160.68391 307.06564 161.23634 306.91098Q161.78877 306.7342 162.28595 306.92203Q162.7721 307.0988 163.42395 307.75067L166.20819 310.5349L165.46793 311.27515L162.6837 308.4909Q162.12022 307.92743 161.62305 307.91638Q161.12585 307.90533 160.68391 308.3473Q160.35246 308.67874 160.23093 309.15384Q160.10939 309.6068 160.27512 310.03772Q160.44084 310.4465 160.96013 310.9658L163.36871 313.37436L162.62846 314.11462ZM170.46187 306.28122L169.81001 305.62933Q170.04202 306.89993 169.15814 307.7838Q168.77145 308.1705 168.28531 308.3694Q167.79918 308.54617 167.41248 308.4909Q167.01472 308.42462 166.61697 308.15945Q166.36287 307.99374 165.87672 307.5076L163.15878 304.78964L163.9101 304.03836L166.35182 306.48007Q166.92635 307.0546 167.18045 307.22034Q167.53401 307.4413 167.93176 307.39713Q168.3295 307.3308 168.67201 306.9883Q169.00346 306.65686 169.125 306.20386Q169.24654 305.7288 169.06976 305.30893Q168.90404 304.87805 168.34056 304.31458L165.98721 301.96124L166.72746 301.22098L171.12479 305.6183L170.46187 306.28122ZM172.52795 304.21512L168.13063 299.8178L168.79355 299.1549L169.41226 299.77362Q169.18024 298.56934 170.09727 297.65228Q170.49503 297.25455 170.97011 297.0667Q171.45624 296.86786 171.85399 296.93414Q172.25174 297.00043 172.6274 297.2435Q172.87045 297.4203 173.38974 297.93954L176.09663 300.64645L175.35638 301.3867L172.68263 298.71295Q172.2186 298.24893 171.90924 298.11633Q171.59987 297.98376 171.24632 298.07214Q170.88171 298.14948 170.5834 298.44778Q170.10832 298.92288 170.06413 299.5858Q170.01993 300.2266 170.85962 301.06628L173.2682 303.47488L172.52795 304.21512ZM178.73723 294.77966L179.56587 294.1499Q180.19565 295.02274 180.12935 295.9508Q180.06306 296.8789 179.34491 297.59705Q178.43892 298.50302 177.30092 298.46988Q176.16292 298.41464 175.05807 297.30978Q174.35097 296.6027 174.05266 295.84033Q173.75433 295.05588 173.96426 294.31564Q174.18523 293.56433 174.75977 292.9898Q175.46686 292.2827 176.28445 292.1943Q177.10205 292.08383 177.9086 292.6252L177.28987 293.4649Q176.74849 293.1224 176.26236 293.1666Q175.76518 293.19974 175.38953 293.57538Q174.82605 294.13885 174.88129 294.9012Q174.92549 295.6525 175.79832 296.52533Q176.69325 297.4203 177.4335 297.47552Q178.17375 297.53076 178.71513 296.98938Q179.15707 296.54745 179.17917 295.99503Q179.21233 295.43155 178.73723 294.77966ZM181.72034 295.02274L175.64365 288.94604L176.3839 288.20578L178.56046 290.38235Q178.48312 289.26645 179.27861 288.47095Q179.7758 287.9738 180.32822 287.8191Q180.88065 287.6423 181.37784 287.83014Q181.86397 288.00693 182.51584 288.65878L185.30006 291.44302L184.55981 292.18326L181.77559 289.39905Q181.21211 288.83557 180.71492 288.82452Q180.21774 288.81345 179.7758 289.2554Q179.44434 289.58685 179.3228 290.06195Q179.20128 290.51492 179.367 290.94583Q179.53273 291.3546 180.05202 291.8739L182.46059 294.2825L181.72034 295.02274ZM188.26108 285.65356L189.12286 284.96857Q189.62006 285.8193 189.49852 286.69214Q189.37698 287.56497 188.61462 288.32733Q187.65341 289.28854 186.48227 289.26645Q185.32216 289.2333 184.25046 288.1616Q183.1456 287.05673 183.11246 285.87454Q183.06827 284.6813 183.97424 283.77533Q184.85812 282.89145 186.00717 282.93564Q187.16727 282.96878 188.26108 284.0626Q188.32736 284.12888 188.45995 284.26147L185.17853 287.54288Q185.95193 288.22787 186.70323 288.25Q187.44348 288.26105 187.99591 287.70862Q188.40471 287.2998 188.48206 286.8026Q188.55939 286.28336 188.26108 285.65356ZM184.61505 286.89102L187.06784 284.43823Q186.46016 283.91895 185.95193 283.87476Q185.15643 283.80847 184.59296 284.37195Q184.07368 284.89124 184.06264 285.58728Q184.06264 286.2723 184.61505 286.89102ZM191.61984 285.12326L187.22252 280.72592L187.88542 280.06302L188.50415 280.68173Q188.27213 279.47745 189.18916 278.56042Q189.5869 278.16266 190.062 277.97485Q190.54813 277.77597 190.94588 277.84225Q191.34363 277.90854 191.71927 278.1516Q191.96234 278.3284 192.48163 278.8477L195.18852 281.55457L194.44826 282.29483L191.77452 279.62106Q191.31047 279.15704 191.00111 279.02444Q190.69176 278.89188 190.33821 278.98026Q189.9736 279.0576 189.6753 279.3559Q189.20021 279.831 189.156 280.4939Q189.11182 281.13474 189.9515 281.97443L192.36009 284.383L191.61984 285.12326ZM197.5308 277.88644L198.29315 278.42783Q198.03903 278.8145 197.79597 279.0576Q197.38718 279.4664 197.04468 279.56583Q196.69112 279.6542 196.38176 279.54373Q196.08345 279.4222 195.40948 278.74823L192.87936 276.2181L192.338 276.7595L191.76347 276.18497L192.30484 275.6436L191.21104 274.5498L191.50935 273.36758L193.0451 274.90335L193.7964 274.15204L194.37093 274.72656L193.61963 275.47787L196.19394 278.0522Q196.51434 278.3726 196.63588 278.42783Q196.76846 278.47202 196.9121 278.43887Q197.05573 278.40573 197.22145 278.24Q197.35403 278.10742 197.5308 277.88644ZM196.21603 276.12973Q194.98964 274.90335 195.07803 273.6438Q195.15536 272.5942 195.97296 271.7766Q196.87894 270.87064 198.0501 270.89273Q199.22124 270.89273 200.27084 271.94232Q201.12158 272.79306 201.3536 273.53333Q201.58562 274.2736 201.36465 275.04697Q201.14368 275.79828 200.56915 276.3728Q199.65213 277.28983 198.49203 277.27878Q197.33194 277.24564 196.21603 276.12973ZM196.97838 275.36737Q197.81807 276.20706 198.60251 276.26233Q199.39801 276.30652 199.95044 275.7541Q200.51392 275.1906 200.45866 274.40616Q200.40343 273.6217 199.54164 272.75992Q198.72404 271.94232 197.92856 271.89813Q197.1441 271.8429 196.59167 272.39532Q196.03925 272.94775 196.08345 273.74326Q196.12764 274.51663 196.97838 275.36737ZM201.16577 271.18Q199.93939 269.95358 200.02777 268.69406Q200.10512 267.64444 200.92271 266.82687Q201.82869 265.92087 202.99983 265.94296Q204.17097 265.94296 205.2206 266.99258Q206.07133 267.84332 206.30334 268.5836Q206.53537 269.32382 206.31439 270.09723Q206.09343 270.84854 205.5189 271.42307Q204.60187 272.3401 203.44177 272.32904Q202.28168 272.2959 201.16577 271.18ZM201.92813 270.41763Q202.76782 271.25732 203.55226 271.31256Q204.34776 271.35675 204.90018 270.80432Q205.46365 270.24084 205.40842 269.45642Q205.35318 268.67197 204.4914 267.81018Q203.6738 266.99258 202.8783 266.9484Q202.09386 266.89316 201.54143 267.4456Q200.989 267.99802 201.03319 268.7935Q201.0774 269.5669 201.92813 270.41763ZM209.55162 265.86563L210.31396 266.407Q210.05986 266.7937 209.81679 267.03677Q209.40799 267.4456 209.06549 267.545Q208.71193 267.6334 208.40257 267.52292Q208.10426 267.4014 207.4303 266.72742L204.90018 264.1973L204.35881 264.73868L203.78429 264.16415L204.32565 263.62277L203.23186 262.52896L203.53017 261.34677L205.06592 262.88254L205.81721 262.13123L206.39174 262.70575L205.64044 263.45706L208.21475 266.03137Q208.53516 266.35178 208.6567 266.407Q208.78928 266.4512 208.9329 266.41806Q209.07654 266.38492 209.24226 266.21918Q209.37485 266.0866 209.55162 265.86563Z" fill-rule="nonzero"/><path fill="#000000" d="M275.08188 286.12866L272.92743 283.9742Q272.9937 284.39404 272.83902 284.8802Q272.68436 285.3442 272.33078 285.69778Q271.54636 286.4822 270.36417 286.42697Q269.1709 286.3607 268.07712 285.26688Q267.41418 284.60397 267.12692 283.85266Q266.8286 283.09033 266.99435 282.39426Q267.16006 281.67612 267.67935 281.15683Q268.49695 280.33923 269.646 280.5602L269.06042 279.97464L269.73438 279.30066L275.82214 285.38843L275.08188 286.12866ZM268.8726 284.5377Q269.72333 285.38843 270.49673 285.4547Q271.2812 285.50995 271.77838 285.01276Q272.25345 284.5377 272.1982 283.79742Q272.13193 283.0461 271.31433 282.22855Q270.43045 281.34464 269.6239 281.2673Q268.8284 281.17892 268.33124 281.67612Q267.85614 282.15118 267.93347 282.91354Q267.99976 283.66486 268.8726 284.5377ZM278.41855 279.41116L277.7667 278.75928Q277.9987 280.02988 277.1148 280.91376Q276.72812 281.30045 276.24197 281.49933Q275.75583 281.67612 275.36914 281.62085Q274.9714 281.55457 274.57364 281.2894Q274.31952 281.1237 273.8334 280.63754L271.11545 277.9196L271.86676 277.1683L274.30847 279.61002Q274.883 280.18454 275.13712 280.35028Q275.4907 280.57126 275.88843 280.52707Q276.28616 280.46075 276.6287 280.11826Q276.96014 279.7868 277.08167 279.3338Q277.20322 278.85873 277.02643 278.43887Q276.8607 278.008 276.2972 277.44452L273.94388 275.0912L274.68414 274.35092L279.08145 278.74823L278.41855 279.41116ZM283.3683 274.4614L282.71643 273.80954Q282.94846 275.08014 282.06458 275.96402Q281.67786 276.3507 281.19174 276.5496Q280.7056 276.72635 280.31888 276.6711Q279.92114 276.60483 279.5234 276.33966Q279.2693 276.17392 278.78314 275.6878L276.06522 272.96985L276.8165 272.21857L279.25824 274.66028Q279.83276 275.2348 280.08688 275.40054Q280.44043 275.6215 280.83817 275.5773Q281.23593 275.51102 281.57843 275.16852Q281.90988 274.83707 282.0314 274.38406Q282.15295 273.90897 281.97617 273.48914Q281.81046 273.05823 281.24698 272.49475L278.89362 270.14142L279.63388 269.40118L284.0312 273.7985L283.3683 274.4614ZM284.9372 272.89252L284.25217 269.00342L280.6614 268.37366L281.58948 267.4456L283.29095 267.79913Q283.7771 267.9096 284.0975 267.98697Q283.99805 267.53397 283.9428 267.16937L283.6445 265.39056L284.53943 264.4956L285.0808 268.0864L289.04724 268.78244L288.14127 269.68845L285.86526 269.2244L285.2576 269.10287L285.83212 271.9976L284.9372 272.89252ZM286.84857 267.33508L286.0973 266.5838L288.3954 264.2857L289.14667 265.037L286.84857 267.33508Z" fill-rule="nonzero"/><path fill="#000000" d="M347.98154 287.7086L348.81018 287.07883Q349.43994 287.95166 349.37366 288.87973Q349.30737 289.80783 348.5892 290.52597Q347.68323 291.43195 346.54523 291.3988Q345.40723 291.34357 344.30237 290.2387Q343.59528 289.53162 343.29697 288.76926Q342.99866 287.9848 343.2086 287.24457Q343.42953 286.49326 344.00406 285.91873Q344.71118 285.2116 345.52878 285.12323Q346.34637 285.01276 347.1529 285.55414L346.53418 286.39383Q345.9928 286.0513 345.50668 286.09552Q345.0095 286.12866 344.63385 286.5043Q344.07037 287.06778 344.1256 287.83014Q344.1698 288.58142 345.04263 289.45425Q345.93756 290.34918 346.67783 290.40445Q347.41806 290.4597 347.95944 289.9183Q348.4014 289.47635 348.4235 288.92392Q348.45663 288.36044 347.98154 287.7086ZM350.94257 287.97375L344.86584 281.89706L345.61716 281.14575L351.69385 287.22244L350.94257 287.97375ZM350.96466 284.30563L350.21335 283.55435L352.51144 281.25626L353.26276 282.00754L350.96466 284.30563ZM356.8756 280.71487L357.63797 281.25626Q357.38385 281.64294 357.14078 281.88602Q356.732 282.2948 356.3895 282.39426Q356.03592 282.48264 355.72656 282.37213Q355.42825 282.2506 354.7543 281.57666L352.22418 279.04654L351.6828 279.58792L351.10828 279.0134L351.64966 278.47202L350.55585 277.3782L350.85416 276.196L352.38992 277.73175L353.1412 276.98047L353.71573 277.555L352.96445 278.30627L355.53876 280.88058Q355.85916 281.201 355.98068 281.25626Q356.11328 281.30045 356.2569 281.2673Q356.40054 281.23413 356.56625 281.06842Q356.69885 280.93582 356.8756 280.71487ZM358.72073 280.1956L358.02466 280.89163L351.94797 274.81494L352.69928 274.06363L354.86478 276.22916Q354.7543 275.1685 355.4835 274.4393Q355.8923 274.0305 356.4116 273.84268Q356.93088 273.63275 357.46118 273.69904Q358.00256 273.75427 358.555 274.04153Q359.10742 274.3288 359.58252 274.8039Q360.70947 275.93085 360.7647 277.11304Q360.81995 278.29523 360.04654 279.06863Q359.26212 279.8531 358.1683 279.64316L358.72073 280.1956ZM356.47787 277.97482Q357.26233 278.75928 357.83685 278.89185Q358.76492 279.11282 359.36154 278.5162Q359.8477 278.03006 359.7814 277.25668Q359.72614 276.47223 358.8754 275.6215Q358.0136 274.7597 357.26233 274.69342Q356.51102 274.6271 356.02487 275.11325Q355.53876 275.5994 355.60504 276.3949Q355.67133 277.16827 356.47787 277.97482ZM362.98547 275.93085L358.58813 271.53354L359.25107 270.8706L359.86978 271.48932Q359.63776 270.28503 360.55478 269.368Q360.95255 268.97028 361.4276 268.78244Q361.91376 268.58356 362.3115 268.64984Q362.70926 268.71616 363.0849 268.95923Q363.32797 269.136 363.84726 269.65527L366.55414 272.36215L365.8139 273.10242L363.14014 270.42868Q362.67612 269.96463 362.36676 269.83206Q362.05737 269.69946 361.70383 269.78784Q361.33923 269.8652 361.04092 270.1635Q360.56583 270.63858 360.52164 271.3015Q360.47745 271.94232 361.31714 272.782L363.7257 275.19058L362.98547 275.93085ZM367.91312 271.0032L361.83643 264.92648L362.5877 264.1752L368.66443 270.2519L367.91312 271.0032ZM367.9352 267.33508L367.1839 266.58377L369.482 264.28568L370.2333 265.037L367.9352 267.33508Z" fill-rule="nonzero"/><path fill="#000000" d="M427.20096 292.80197L421.45572 289.75256L422.2291 288.9792L425.46634 290.82428L426.67062 291.49826Q426.62643 291.40985 425.99667 290.36026L424.1184 287.08987L424.88077 286.3275L428.0959 288.21683L429.15656 288.83554L428.55994 287.73068L426.77005 284.43823L427.49927 283.709L430.5155 289.48743L429.74213 290.2608L426.40546 288.31625L425.48843 287.75278L427.98538 292.01752L427.20096 292.80197ZM430.2835 285.3221Q429.0571 284.09573 429.1455 282.83618Q429.22284 281.7866 430.04044 280.969Q430.9464 280.06302 432.11755 280.0851Q433.2887 280.0851 434.33832 281.1347Q435.18906 281.98544 435.42108 282.7257Q435.65308 283.46594 435.43213 284.23935Q435.21115 284.99066 434.63663 285.5652Q433.7196 286.4822 432.5595 286.47116Q431.39938 286.43802 430.2835 285.3221ZM431.04584 284.55975Q431.88553 285.39944 432.66998 285.45468Q433.46548 285.4989 434.0179 284.94647Q434.5814 284.383 434.52612 283.59854Q434.4709 282.8141 433.6091 281.9523Q432.7915 281.1347 431.99603 281.0905Q431.21158 281.03528 430.65915 281.5877Q430.10672 282.14014 430.1509 282.93564Q430.1951 283.709 431.04584 284.55975ZM435.23325 280.37238Q434.00687 279.14597 434.09525 277.88644Q434.17258 276.83682 434.99017 276.01923Q435.89615 275.11325 437.0673 275.13535Q438.23843 275.13535 439.28806 276.18497Q440.1388 277.0357 440.37082 277.77597Q440.60284 278.5162 440.38187 279.2896Q440.1609 280.0409 439.58636 280.61542Q438.66934 281.53247 437.50925 281.52142Q436.34915 281.48828 435.23325 280.37238ZM435.9956 279.61002Q436.83527 280.4497 437.61972 280.50494Q438.41522 280.54913 438.96765 279.9967Q439.53113 279.43323 439.4759 278.6488Q439.42065 277.86435 438.55887 277.00256Q437.74127 276.18497 436.94577 276.14078Q436.16132 276.08554 435.6089 276.63797Q435.05646 277.19037 435.10065 277.98587Q435.14487 278.75928 435.9956 279.61002ZM442.65787 277.34506L436.58118 271.26837L437.33246 270.51706L440.8017 273.9863L440.76855 270.43973L441.74084 269.46744L441.67453 272.782L446.3039 273.69904L445.38684 274.61606L441.67453 273.8206L441.66348 274.84808L443.40915 276.59375L442.65787 277.34506ZM441.68558 267.8875L440.8238 267.02573L441.5751 266.2744L442.4369 267.1362L441.68558 267.8875ZM446.9005 273.10242L442.50317 268.7051L443.2545 267.9538L447.6518 272.35114L446.9005 273.10242ZM450.61282 266.56168L451.4746 265.87668Q451.97177 266.72742 451.85025 267.60025Q451.72873 268.47308 450.96637 269.23544Q450.00516 270.19666 448.83398 270.17456Q447.6739 270.14142 446.6022 269.0697Q445.49734 267.96484 445.4642 266.78265Q445.42 265.58942 446.326 264.68344Q447.20987 263.79956 448.35892 263.84375Q449.519 263.8769 450.61282 264.9707Q450.6791 265.037 450.81168 265.16956L447.53027 268.451Q448.30368 269.136 449.05496 269.15808Q449.79523 269.16913 450.34766 268.6167Q450.75644 268.20792 450.83377 267.71072Q450.91113 267.19144 450.61282 266.56168ZM446.9668 267.79913L449.4196 265.34634Q448.8119 264.82706 448.30368 264.78287Q447.50818 264.71658 446.9447 265.28006Q446.4254 265.79935 446.41437 266.4954Q446.41437 267.1804 446.9668 267.79913Z" fill-rule="nonzero"/><path fill="#000000" d="M519.60126 281.48828L513.856 278.4389L514.6294 277.6655L517.86664 279.5106L519.0709 280.18457Q519.02673 280.09616 518.397 279.04657L516.5187 275.77618L517.28107 275.01385L520.49615 276.90314L521.5568 277.52185L520.9602 276.41702L519.17035 273.12454L519.89954 272.39536L522.91583 278.17374L522.1424 278.9471L518.8057 277.0026L517.88873 276.43912L520.3857 280.70386L519.60126 281.48828ZM522.6838 274.00842Q521.4574 272.78204 521.5458 271.5225Q521.6231 270.4729 522.44073 269.6553Q523.3467 268.74933 524.5178 268.77142Q525.68896 268.77142 526.7386 269.82104Q527.58936 270.67175 527.82135 271.41202Q528.0534 272.15228 527.8324 272.92566Q527.61145 273.67697 527.0369 274.2515Q526.1199 275.16852 524.9598 275.15747Q523.7997 275.12433 522.6838 274.00842ZM523.44617 273.24606Q524.2858 274.08575 525.07025 274.14102Q525.8658 274.1852 526.4182 273.63278Q526.9817 273.0693 526.92645 272.28485Q526.8712 271.5004 526.0094 270.6386Q525.19183 269.82104 524.3963 269.77682Q523.6119 269.7216 523.05945 270.27402Q522.507 270.82645 522.5512 271.62195Q522.5954 272.39536 523.44617 273.24606ZM527.63354 269.0587Q526.40717 267.8323 526.49554 266.57275Q526.5729 265.52313 527.39044 264.70557Q528.29645 263.79956 529.4676 263.8217Q530.63873 263.8217 531.68835 264.87128Q532.53906 265.72202 532.7711 266.46228Q533.0031 267.2025 532.78217 267.97592Q532.5612 268.72723 531.9867 269.30176Q531.06964 270.21878 529.90955 270.20773Q528.74945 270.1746 527.63354 269.0587ZM528.3959 268.29633Q529.2356 269.13602 530.02 269.19125Q530.8155 269.23544 531.3679 268.68304Q531.9314 268.11957 531.87616 267.3351Q531.8209 266.55066 530.95917 265.68887Q530.14154 264.87128 529.34607 264.8271Q528.56165 264.77185 528.0092 265.32428Q527.4568 265.8767 527.501 266.67218Q527.54517 267.4456 528.3959 268.29633Z" fill-rule="nonzero"/><path fill="#757575" d="M25.253124 35.55L23.675 35.55L23.675 25.471874Q23.096874 26.01875 22.175 26.565624Q21.253124 27.096874 20.503124 27.378124L20.503124 25.846874Q21.83125 25.221874 22.83125 24.33125Q23.83125 23.440624 24.2375 22.6125L25.253124 22.6125L25.253124 35.55ZM29.3 29.190624Q29.3 26.909374 29.76875 25.51875Q30.2375 24.128124 31.159374 23.378124Q32.096874 22.6125 33.503124 22.6125Q34.534374 22.6125 35.315624 23.034374Q36.096874 23.440624 36.596874 24.2375Q37.1125 25.01875 37.409374 26.159374Q37.70625 27.284374 37.70625 29.190624Q37.70625 31.45625 37.2375 32.8625Q36.76875 34.253124 35.83125 35.01875Q34.909374 35.76875 33.503124 35.76875Q31.628124 35.76875 30.565624 34.440624Q29.3 32.83125 29.3 29.190624ZM30.925 29.190624Q30.925 32.3625 31.659374 33.425Q32.409374 34.471874 33.503124 34.471874Q34.58125 34.471874 35.33125 33.425Q36.08125 32.3625 36.08125 29.190624Q36.08125 26.01875 35.33125 24.971874Q34.58125 23.925 33.4875 23.925Q32.39375 23.925 31.7375 24.846874Q30.925 26.01875 30.925 29.190624ZM39.3 29.190624Q39.3 26.909374 39.76875 25.51875Q40.2375 24.128124 41.159374 23.378124Q42.096874 22.6125 43.503124 22.6125Q44.534374 22.6125 45.315624 23.034374Q46.096874 23.440624 46.596874 24.2375Q47.1125 25.01875 47.409374 26.159374Q47.70625 27.284374 47.70625 29.190624Q47.70625 31.45625 47.2375 32.8625Q46.76875 34.253124 45.83125 35.01875Q44.909374 35.76875 43.503124 35.76875Q41.628124 35.76875 40.565624 34.440624Q39.3 32.83125 39.3 29.190624ZM40.925 29.190624Q40.925 32.3625 41.659374 33.425Q42.409374 34.471874 43.503124 34.471874Q44.58125 34.471874 45.33125 33.425Q46.08125 32.3625 46.08125 29.190624Q46.08125 26.01875 45.33125 24.971874Q44.58125 23.925 43.4875 23.925Q42.39375 23.925 41.7375 24.846874Q40.925 26.01875 40.925 29.190624ZM60.83125 32.128124L62.378124 32.33125Q62.128124 33.940624 61.08125 34.8625Q60.034374 35.76875 58.503124 35.76875Q56.58125 35.76875 55.409374 34.51875Q54.253124 33.253124 54.253124 30.925Q54.253124 29.409374 54.753124 28.284374Q55.253124 27.14375 56.26875 26.58125Q57.3 26.003124 58.503124 26.003124Q60.034374 26.003124 60.9875 26.784374Q61.95625 27.55 62.2375 28.95625L60.690624 29.190624Q60.471874 28.253124 59.909374 27.784374Q59.3625 27.3 58.565624 27.3Q57.378124 27.3 56.628124 28.159374Q55.878124 29.01875 55.878124 30.878124Q55.878124 32.753124 56.596874 33.6125Q57.315624 34.45625 58.4875 34.45625Q59.409374 34.45625 60.034374 33.89375Q60.659374 33.315624 60.83125 32.128124ZM63.14375 30.878124Q63.14375 28.284374 64.59688 27.034374Q65.8 26.003124 67.51875 26.003124Q69.45625 26.003124 70.675 27.26875Q71.89375 28.534374 71.89375 30.753124Q71.89375 32.55 71.34688 33.58125Q70.81563 34.6125 69.78438 35.190624Q68.75313 35.76875 67.51875 35.76875Q65.56563 35.76875 64.34688 34.51875Q63.14375 33.253124 63.14375 30.878124ZM64.76875 30.878124Q64.76875 32.675 65.55 33.565624Q66.33125 34.45625 67.51875 34.45625Q68.70625 34.45625 69.4875 33.565624Q70.26875 32.659374 70.26875 30.83125Q70.26875 29.096874 69.47188 28.20625Q68.69063 27.315624 67.51875 27.315624Q66.33125 27.315624 65.55 28.20625Q64.76875 29.096874 64.76875 30.878124ZM73.7375 35.55L73.7375 26.221874L75.15938 26.221874L75.15938 27.55Q76.19063 26.003124 78.12813 26.003124Q78.97188 26.003124 79.675 26.315624Q80.39375 26.6125 80.7375 27.1125Q81.09688 27.596874 81.2375 28.26875Q81.31563 28.70625 81.31563 29.815624L81.31563 35.55L79.7375 35.55L79.7375 29.878124Q79.7375 28.909374 79.55 28.425Q79.37813 27.940624 78.89375 27.659374Q78.425 27.378124 77.8 27.378124Q76.78438 27.378124 76.05 28.01875Q75.31563 28.659374 75.31563 30.45625L75.31563 35.55L73.7375 35.55ZM83.7375 35.55L83.7375 26.221874L85.15938 26.221874L85.15938 27.55Q86.19063 26.003124 88.12813 26.003124Q88.97188 26.003124 89.675 26.315624Q90.39375 26.6125 90.7375 27.1125Q91.09688 27.596874 91.2375 28.26875Q91.31563 28.70625 91.31563 29.815624L91.31563 35.55L89.7375 35.55L89.7375 29.878124Q89.7375 28.909374 89.55 28.425Q89.37813 27.940624 88.89375 27.659374Q88.425 27.378124 87.8 27.378124Q86.78438 27.378124 86.05 28.01875Q85.31563 28.659374 85.31563 30.45625L85.31563 35.55L83.7375 35.55ZM100.12813 32.55L101.76875 32.753124Q101.37813 34.175 100.33125 34.971874Q99.28438 35.76875 97.65938 35.76875Q95.6125 35.76875 94.40938 34.503124Q93.20625 33.2375 93.20625 30.95625Q93.20625 28.6125 94.40938 27.315624Q95.62813 26.003124 97.56563 26.003124Q99.44063 26.003124 100.62813 27.284374Q101.81563 28.55 101.81563 30.8625Q101.81563 31.003124 101.8 31.284374L94.84688 31.284374Q94.925 32.83125 95.70625 33.64375Q96.50313 34.45625 97.65938 34.45625Q98.53438 34.45625 99.14375 34.003124Q99.76875 33.55 100.12813 32.55ZM94.925 29.9875L100.14375 29.9875Q100.03438 28.815624 99.55 28.221874Q98.78438 27.3 97.58125 27.3Q96.50313 27.3 95.75313 28.034374Q95.01875 28.76875 94.925 29.9875ZM109.83125 32.128124L111.37813 32.33125Q111.12813 33.940624 110.08125 34.8625Q109.03438 35.76875 107.50313 35.76875Q105.58125 35.76875 104.40938 34.51875Q103.25313 33.253124 103.25313 30.925Q103.25313 29.409374 103.75313 28.284374Q104.25313 27.14375 105.26875 26.58125Q106.3 26.003124 107.50313 26.003124Q109.03438 26.003124 109.9875 26.784374Q110.95625 27.55 111.2375 28.95625L109.69063 29.190624Q109.47188 28.253124 108.90938 27.784374Q108.3625 27.3 107.56563 27.3Q106.37813 27.3 105.62813 28.159374Q104.87813 29.01875 104.87813 30.878124Q104.87813 32.753124 105.59688 33.6125Q106.31563 34.45625 107.4875 34.45625Q108.40938 34.45625 109.03438 33.89375Q109.65938 33.315624 109.83125 32.128124ZM116.19063 34.128124L116.425 35.534374Q115.75313 35.675 115.22188 35.675Q114.3625 35.675 113.87813 35.409374Q113.40938 35.128124 113.22188 34.690624Q113.03438 34.2375 113.03438 32.815624L113.03438 27.440624L111.8625 27.440624L111.8625 26.221874L113.03438 26.221874L113.03438 23.909374L114.59688 22.95625L114.59688 26.221874L116.19063 26.221874L116.19063 27.440624L114.59688 27.440624L114.59688 32.909374Q114.59688 33.58125 114.675 33.784374Q114.76875 33.971874 114.95625 34.08125Q115.14375 34.190624 115.50313 34.190624Q115.75313 34.190624 116.19063 34.128124ZM117.75313 24.4875L117.75313 22.659374L119.33125 22.659374L119.33125 24.4875L117.75313 24.4875ZM117.75313 35.55L117.75313 26.221874L119.33125 26.221874L119.33125 35.55L117.75313 35.55ZM121.14375 30.878124Q121.14375 28.284374 122.59688 27.034374Q123.8 26.003124 125.51875 26.003124Q127.45625 26.003124 128.675 27.26875Q129.89375 28.534374 129.89375 30.753124Q129.89375 32.55 129.34688 33.58125Q128.81563 34.6125 127.78438 35.190624Q126.75313 35.76875 125.51875 35.76875Q123.56563 35.76875 122.34688 34.51875Q121.14375 33.253124 121.14375 30.878124ZM122.76875 30.878124Q122.76875 32.675 123.55 33.565624Q124.33125 34.45625 125.51875 34.45625Q126.70625 34.45625 127.4875 33.565624Q128.26875 32.659374 128.26875 30.83125Q128.26875 29.096874 127.47188 28.20625Q126.69063 27.315624 125.51875 27.315624Q124.33125 27.315624 123.55 28.20625Q122.76875 29.096874 122.76875 30.878124ZM131.7375 35.55L131.7375 26.221874L133.15938 26.221874L133.15938 27.55Q134.19063 26.003124 136.12813 26.003124Q136.97188 26.003124 137.675 26.315624Q138.39375 26.6125 138.7375 27.1125Q139.09688 27.596874 139.2375 28.26875Q139.31563 28.70625 139.31563 29.815624L139.31563 35.55L137.7375 35.55L137.7375 29.878124Q137.7375 28.909374 137.55 28.425Q137.37813 27.940624 136.89375 27.659374Q136.425 27.378124 135.8 27.378124Q134.78438 27.378124 134.05 28.01875Q133.31563 28.659374 133.31563 30.45625L133.31563 35.55L131.7375 35.55ZM141.09688 32.76875L142.675 32.51875Q142.8 33.45625 143.39375 33.95625Q144.00313 34.45625 145.08125 34.45625Q146.175 34.45625 146.70625 34.01875Q147.2375 33.565624 147.2375 32.971874Q147.2375 32.440624 146.76875 32.128124Q146.44063 31.925 145.14375 31.596874Q143.40938 31.159374 142.7375 30.846874Q142.06563 30.51875 141.70625 29.95625Q141.3625 29.378124 141.3625 28.690624Q141.3625 28.065624 141.64375 27.534374Q141.94063 27.003124 142.425 26.659374Q142.8 26.378124 143.44063 26.190624Q144.08125 26.003124 144.8 26.003124Q145.90938 26.003124 146.7375 26.33125Q147.56563 26.64375 147.95625 27.190624Q148.3625 27.721874 148.50313 28.628124L146.95625 28.83125Q146.84688 28.1125 146.34688 27.70625Q145.84688 27.3 144.925 27.3Q143.83125 27.3 143.3625 27.659374Q142.89375 28.01875 142.89375 28.503124Q142.89375 28.815624 143.09688 29.065624Q143.28438 29.315624 143.69063 29.4875Q143.94063 29.565624 145.09688 29.89375Q146.76875 30.33125 147.425 30.628124Q148.09688 30.909374 148.47188 31.45625Q148.8625 32.003124 148.8625 32.8Q148.8625 33.596874 148.39375 34.3Q147.94063 35.003124 147.06563 35.39375Q146.19063 35.76875 145.09688 35.76875Q143.26875 35.76875 142.31563 35.01875Q141.3625 34.253124 141.09688 32.76875ZM155.72188 35.55L155.72188 26.221874L157.14375 26.221874L157.14375 27.628124Q157.69063 26.64375 158.14375 26.33125Q158.6125 26.003124 159.15938 26.003124Q159.97188 26.003124 160.78438 26.51875L160.25313 27.9875Q159.65938 27.64375 159.08125 27.64375Q158.56563 27.64375 158.14375 27.95625Q157.7375 28.26875 157.56563 28.815624Q157.3 29.659374 157.3 30.659374L157.3 35.55L155.72188 35.55ZM168.12813 32.55L169.76875 32.753124Q169.37813 34.175 168.33125 34.971874Q167.28438 35.76875 165.65938 35.76875Q163.6125 35.76875 162.40938 34.503124Q161.20625 33.2375 161.20625 30.95625Q161.20625 28.6125 162.40938 27.315624Q163.62813 26.003124 165.56563 26.003124Q167.44063 26.003124 168.62813 27.284374Q169.81563 28.55 169.81563 30.8625Q169.81563 31.003124 169.8 31.284374L162.84688 31.284374Q162.925 32.83125 163.70625 33.64375Q164.50313 34.45625 165.65938 34.45625Q166.53438 34.45625 167.14375 34.003124Q167.76875 33.55 168.12813 32.55ZM162.925 29.9875L168.14375 29.9875Q168.03438 28.815624 167.55 28.221874Q166.78438 27.3 165.58125 27.3Q164.50313 27.3 163.75313 28.034374Q163.01875 28.76875 162.925 29.9875ZM177.69063 39.128124L177.69063 34.55Q177.31563 35.08125 176.64375 35.425Q175.9875 35.76875 175.2375 35.76875Q173.58125 35.76875 172.37813 34.440624Q171.19063 33.1125 171.19063 30.8Q171.19063 29.39375 171.675 28.284374Q172.15938 27.159374 173.08125 26.58125Q174.01875 26.003124 175.12813 26.003124Q176.84688 26.003124 177.84688 27.45625L177.84688 26.221874L179.26875 26.221874L179.26875 39.128124L177.69063 39.128124ZM172.81563 30.8625Q172.81563 32.659374 173.56563 33.565624Q174.31563 34.45625 175.37813 34.45625Q176.39375 34.45625 177.1125 33.6125Q177.84688 32.753124 177.84688 31.003124Q177.84688 29.128124 177.06563 28.190624Q176.3 27.253124 175.26875 27.253124Q174.2375 27.253124 173.51875 28.128124Q172.81563 29.003124 172.81563 30.8625ZM187.84688 35.55L187.84688 34.175Q186.76875 35.76875 184.89375 35.76875Q184.06563 35.76875 183.34688 35.45625Q182.62813 35.128124 182.28438 34.659374Q181.94063 34.175 181.8 33.471874Q181.70625 33.003124 181.70625 32.003124L181.70625 26.221874L183.28438 26.221874L183.28438 31.39375Q183.28438 32.628124 183.37813 33.065624Q183.53438 33.690624 184.01875 34.05Q184.50313 34.39375 185.20625 34.39375Q185.925 34.39375 186.55 34.034374Q187.175 33.675 187.425 33.05Q187.69063 32.409374 187.69063 31.221874L187.69063 26.221874L189.26875 26.221874L189.26875 35.55L187.84688 35.55ZM198.12813 32.55L199.76875 32.753124Q199.37813 34.175 198.33125 34.971874Q197.28438 35.76875 195.65938 35.76875Q193.6125 35.76875 192.40938 34.503124Q191.20625 33.2375 191.20625 30.95625Q191.20625 28.6125 192.40938 27.315624Q193.62813 26.003124 195.56563 26.003124Q197.44063 26.003124 198.62813 27.284374Q199.81563 28.55 199.81563 30.8625Q199.81563 31.003124 199.8 31.284374L192.84688 31.284374Q192.925 32.83125 193.70625 33.64375Q194.50313 34.45625 195.65938 34.45625Q196.53438 34.45625 197.14375 34.003124Q197.76875 33.55 198.12813 32.55ZM192.925 29.9875L198.14375 29.9875Q198.03438 28.815624 197.55 28.221874Q196.78438 27.3 195.58125 27.3Q194.50313 27.3 193.75313 28.034374Q193.01875 28.76875 192.925 29.9875ZM201.09688 32.76875L202.675 32.51875Q202.8 33.45625 203.39375 33.95625Q204.00313 34.45625 205.08125 34.45625Q206.175 34.45625 206.70625 34.01875Q207.2375 33.565624 207.2375 32.971874Q207.2375 32.440624 206.76875 32.128124Q206.44063 31.925 205.14375 31.596874Q203.40938 31.159374 202.7375 30.846874Q202.06563 30.51875 201.70625 29.95625Q201.3625 29.378124 201.3625 28.690624Q201.3625 28.065624 201.64375 27.534374Q201.94063 27.003124 202.425 26.659374Q202.8 26.378124 203.44063 26.190624Q204.08125 26.003124 204.8 26.003124Q205.90938 26.003124 206.7375 26.33125Q207.56563 26.64375 207.95625 27.190624Q208.3625 27.721874 208.50313 28.628124L206.95625 28.83125Q206.84688 28.1125 206.34688 27.70625Q205.84688 27.3 204.925 27.3Q203.83125 27.3 203.3625 27.659374Q202.89375 28.01875 202.89375 28.503124Q202.89375 28.815624 203.09688 29.065624Q203.28438 29.315624 203.69063 29.4875Q203.94063 29.565624 205.09688 29.89375Q206.76875 30.33125 207.425 30.628124Q208.09688 30.909374 208.47188 31.45625Q208.8625 32.003124 208.8625 32.8Q208.8625 33.596874 208.39375 34.3Q207.94063 35.003124 207.06563 35.39375Q206.19063 35.76875 205.09688 35.76875Q203.26875 35.76875 202.31563 35.01875Q201.3625 34.253124 201.09688 32.76875ZM214.19063 34.128124L214.425 35.534374Q213.75313 35.675 213.22188 35.675Q212.3625 35.675 211.87813 35.409374Q211.40938 35.128124 211.22188 34.690624Q211.03438 34.2375 211.03438 32.815624L211.03438 27.440624L209.8625 27.440624L209.8625 26.221874L211.03438 26.221874L211.03438 23.909374L212.59688 22.95625L212.59688 26.221874L214.19063 26.221874L214.19063 27.440624L212.59688 27.440624L212.59688 32.909374Q212.59688 33.58125 212.675 33.784374Q212.76875 33.971874 212.95625 34.08125Q213.14375 34.190624 213.50313 34.190624Q213.75313 34.190624 214.19063 34.128124ZM215.09688 32.76875L216.675 32.51875Q216.8 33.45625 217.39375 33.95625Q218.00313 34.45625 219.08125 34.45625Q220.175 34.45625 220.70625 34.01875Q221.2375 33.565624 221.2375 32.971874Q221.2375 32.440624 220.76875 32.128124Q220.44063 31.925 219.14375 31.596874Q217.40938 31.159374 216.7375 30.846874Q216.06563 30.51875 215.70625 29.95625Q215.3625 29.378124 215.3625 28.690624Q215.3625 28.065624 215.64375 27.534374Q215.94063 27.003124 216.425 26.659374Q216.8 26.378124 217.44063 26.190624Q218.08125 26.003124 218.8 26.003124Q219.90938 26.003124 220.7375 26.33125Q221.56563 26.64375 221.95625 27.190624Q222.3625 27.721874 222.50313 28.628124L220.95625 28.83125Q220.84688 28.1125 220.34688 27.70625Q219.84688 27.3 218.925 27.3Q217.83125 27.3 217.3625 27.659374Q216.89375 28.01875 216.89375 28.503124Q216.89375 28.815624 217.09688 29.065624Q217.28438 29.315624 217.69063 29.4875Q217.94063 29.565624 219.09688 29.89375Q220.76875 30.33125 221.425 30.628124Q222.09688 30.909374 222.47188 31.45625Q222.8625 32.003124 222.8625 32.8Q222.8625 33.596874 222.39375 34.3Q221.94063 35.003124 221.06563 35.39375Q220.19063 35.76875 219.09688 35.76875Q217.26875 35.76875 216.31563 35.01875Q215.3625 34.253124 215.09688 32.76875ZM223.55 35.76875L227.28438 22.440624L228.55 22.440624L224.83125 35.76875L223.55 35.76875ZM229.09688 32.76875L230.675 32.51875Q230.8 33.45625 231.39375 33.95625Q232.00313 34.45625 233.08125 34.45625Q234.175 34.45625 234.70625 34.01875Q235.2375 33.565624 235.2375 32.971874Q235.2375 32.440624 234.76875 32.128124Q234.44063 31.925 233.14375 31.596874Q231.40938 31.159374 230.7375 30.846874Q230.06563 30.51875 229.70625 29.95625Q229.3625 29.378124 229.3625 28.690624Q229.3625 28.065624 229.64375 27.534374Q229.94063 27.003124 230.425 26.659374Q230.8 26.378124 231.44063 26.190624Q232.08125 26.003124 232.8 26.003124Q233.90938 26.003124 234.7375 26.33125Q235.56563 26.64375 235.95625 27.190624Q236.3625 27.721874 236.50313 28.628124L234.95625 28.83125Q234.84688 28.1125 234.34688 27.70625Q233.84688 27.3 232.925 27.3Q231.83125 27.3 231.3625 27.659374Q230.89375 28.01875 230.89375 28.503124Q230.89375 28.815624 231.09688 29.065624Q231.28438 29.315624 231.69063 29.4875Q231.94063 29.565624 233.09688 29.89375Q234.76875 30.33125 235.425 30.628124Q236.09688 30.909374 236.47188 31.45625Q236.8625 32.003124 236.8625 32.8Q236.8625 33.596874 236.39375 34.3Q235.94063 35.003124 235.06563 35.39375Q234.19063 35.76875 233.09688 35.76875Q231.26875 35.76875 230.31563 35.01875Q229.3625 34.253124 229.09688 32.76875ZM245.12813 32.55L246.76875 32.753124Q246.37813 34.175 245.33125 34.971874Q244.28438 35.76875 242.65938 35.76875Q240.6125 35.76875 239.40938 34.503124Q238.20625 33.2375 238.20625 30.95625Q238.20625 28.6125 239.40938 27.315624Q240.62813 26.003124 242.56563 26.003124Q244.44063 26.003124 245.62813 27.284374Q246.81563 28.55 246.81563 30.8625Q246.81563 31.003124 246.8 31.284374L239.84688 31.284374Q239.925 32.83125 240.70625 33.64375Q241.50313 34.45625 242.65938 34.45625Q243.53438 34.45625 244.14375 34.003124Q244.76875 33.55 245.12813 32.55ZM239.925 29.9875L245.14375 29.9875Q245.03438 28.815624 244.55 28.221874Q243.78438 27.3 242.58125 27.3Q241.50313 27.3 240.75313 28.034374Q240.01875 28.76875 239.925 29.9875ZM254.83125 32.128124L256.3781 32.33125Q256.1281 33.940624 255.08125 34.8625Q254.03438 35.76875 252.50313 35.76875Q250.58125 35.76875 249.40938 34.51875Q248.25313 33.253124 248.25313 30.925Q248.25313 29.409374 248.75313 28.284374Q249.25313 27.14375 250.26875 26.58125Q251.3 26.003124 252.50313 26.003124Q254.03438 26.003124 254.9875 26.784374Q255.95625 27.55 256.2375 28.95625L254.69063 29.190624Q254.47188 28.253124 253.90938 27.784374Q253.3625 27.3 252.56563 27.3Q251.37813 27.3 250.62813 28.159374Q249.87813 29.01875 249.87813 30.878124Q249.87813 32.753124 250.59688 33.6125Q251.31563 34.45625 252.4875 34.45625Q253.40938 34.45625 254.03438 33.89375Q254.65938 33.315624 254.83125 32.128124ZM258.14374 35.55L258.14374 33.753124L259.95624 33.753124L259.95624 35.55Q259.95624 36.55 259.59686 37.159374Q259.2531 37.76875 258.4875 38.096874L258.05 37.425Q258.55 37.20625 258.78436 36.76875Q259.01874 36.346874 259.05 35.55L258.14374 35.55ZM267.09686 32.76875L268.675 32.51875Q268.8 33.45625 269.39374 33.95625Q270.0031 34.45625 271.08124 34.45625Q272.175 34.45625 272.70624 34.01875Q273.2375 33.565624 273.2375 32.971874Q273.2375 32.440624 272.76874 32.128124Q272.4406 31.925 271.14374 31.596874Q269.40936 31.159374 268.7375 30.846874Q268.0656 30.51875 267.70624 29.95625Q267.3625 29.378124 267.3625 28.690624Q267.3625 28.065624 267.64374 27.534374Q267.9406 27.003124 268.425 26.659374Q268.8 26.378124 269.4406 26.190624Q270.08124 26.003124 270.8 26.003124Q271.90936 26.003124 272.7375 26.33125Q273.5656 26.64375 273.95624 27.190624Q274.3625 27.721874 274.5031 28.628124L272.95624 28.83125Q272.84686 28.1125 272.34686 27.70625Q271.84686 27.3 270.925 27.3Q269.83124 27.3 269.3625 27.659374Q268.89374 28.01875 268.89374 28.503124Q268.89374 28.815624 269.09686 29.065624Q269.28436 29.315624 269.6906 29.4875Q269.9406 29.565624 271.09686 29.89375Q272.76874 30.33125 273.425 30.628124Q274.09686 30.909374 274.47186 31.45625Q274.8625 32.003124 274.8625 32.8Q274.8625 33.596874 274.39374 34.3Q273.9406 35.003124 273.0656 35.39375Q272.1906 35.76875 271.09686 35.76875Q269.26874 35.76875 268.3156 35.01875Q267.3625 34.253124 267.09686 32.76875ZM276.70624 35.55L276.70624 22.659374L278.28436 22.659374L278.28436 35.55L276.70624 35.55ZM287.1281 32.55L288.76874 32.753124Q288.3781 34.175 287.33124 34.971874Q286.28436 35.76875 284.65936 35.76875Q282.6125 35.76875 281.40936 34.503124Q280.20624 33.2375 280.20624 30.95625Q280.20624 28.6125 281.40936 27.315624Q282.6281 26.003124 284.5656 26.003124Q286.4406 26.003124 287.6281 27.284374Q288.8156 28.55 288.8156 30.8625Q288.8156 31.003124 288.8 31.284374L281.84686 31.284374Q281.925 32.83125 282.70624 33.64375Q283.5031 34.45625 284.65936 34.45625Q285.53436 34.45625 286.14374 34.003124Q286.76874 33.55 287.1281 32.55ZM281.925 29.9875L287.14374 29.9875Q287.03436 28.815624 286.55 28.221874Q285.78436 27.3 284.58124 27.3Q283.5031 27.3 282.7531 28.034374Q282.01874 28.76875 281.925 29.9875ZM297.1281 32.55L298.76874 32.753124Q298.3781 34.175 297.33124 34.971874Q296.28436 35.76875 294.65936 35.76875Q292.6125 35.76875 291.40936 34.503124Q290.20624 33.2375 290.20624 30.95625Q290.20624 28.6125 291.40936 27.315624Q292.6281 26.003124 294.5656 26.003124Q296.4406 26.003124 297.6281 27.284374Q298.8156 28.55 298.8156 30.8625Q298.8156 31.003124 298.8 31.284374L291.84686 31.284374Q291.925 32.83125 292.70624 33.64375Q293.5031 34.45625 294.65936 34.45625Q295.53436 34.45625 296.14374 34.003124Q296.76874 33.55 297.1281 32.55ZM291.925 29.9875L297.14374 29.9875Q297.03436 28.815624 296.55 28.221874Q295.78436 27.3 294.58124 27.3Q293.5031 27.3 292.7531 28.034374Q292.01874 28.76875 291.925 29.9875ZM300.7375 39.128124L300.7375 26.221874L302.175 26.221874L302.175 27.425Q302.6906 26.721874 303.33124 26.3625Q303.97186 26.003124 304.8781 26.003124Q306.08124 26.003124 306.9875 26.628124Q307.90936 27.2375 308.3781 28.3625Q308.84686 29.471874 308.84686 30.815624Q308.84686 32.2375 308.33124 33.39375Q307.8156 34.534374 306.83124 35.159374Q305.84686 35.76875 304.76874 35.76875Q303.9875 35.76875 303.34686 35.440624Q302.72186 35.096874 302.3156 34.58125L302.3156 39.128124L300.7375 39.128124ZM302.175 30.940624Q302.175 32.7375 302.89374 33.596874Q303.6281 34.45625 304.65936 34.45625Q305.72186 34.45625 306.47186 33.565624Q307.22186 32.675 307.22186 30.8Q307.22186 29.01875 306.4875 28.128124Q305.7531 27.2375 304.7375 27.2375Q303.72186 27.2375 302.9406 28.190624Q302.175 29.128124 302.175 30.940624ZM321.83124 32.128124L323.3781 32.33125Q323.1281 33.940624 322.08124 34.8625Q321.03436 35.76875 319.5031 35.76875Q317.58124 35.76875 316.40936 34.51875Q315.2531 33.253124 315.2531 30.925Q315.2531 29.409374 315.7531 28.284374Q316.2531 27.14375 317.26874 26.58125Q318.3 26.003124 319.5031 26.003124Q321.03436 26.003124 321.9875 26.784374Q322.95624 27.55 323.2375 28.95625L321.6906 29.190624Q321.47186 28.253124 320.90936 27.784374Q320.3625 27.3 319.5656 27.3Q318.3781 27.3 317.6281 28.159374Q316.8781 29.01875 316.8781 30.878124Q316.8781 32.753124 317.59686 33.6125Q318.3156 34.45625 319.4875 34.45625Q320.40936 34.45625 321.03436 33.89375Q321.65936 33.315624 321.83124 32.128124ZM324.14374 30.878124Q324.14374 28.284374 325.59686 27.034374Q326.8 26.003124 328.51874 26.003124Q330.45624 26.003124 331.675 27.26875Q332.89374 28.534374 332.89374 30.753124Q332.89374 32.55 332.34686 33.58125Q331.8156 34.6125 330.78436 35.190624Q329.7531 35.76875 328.51874 35.76875Q326.5656 35.76875 325.34686 34.51875Q324.14374 33.253124 324.14374 30.878124ZM325.76874 30.878124Q325.76874 32.675 326.55 33.565624Q327.33124 34.45625 328.51874 34.45625Q329.70624 34.45625 330.4875 33.565624Q331.26874 32.659374 331.26874 30.83125Q331.26874 29.096874 330.47186 28.20625Q329.6906 27.315624 328.51874 27.315624Q327.33124 27.315624 326.55 28.20625Q325.76874 29.096874 325.76874 30.878124ZM334.7375 35.55L334.7375 26.221874L336.15936 26.221874L336.15936 27.51875Q336.59686 26.846874 337.3156 26.425Q338.05 26.003124 338.9875 26.003124Q340.01874 26.003124 340.675 26.440624Q341.34686 26.8625 341.6125 27.64375Q342.72186 26.003124 344.5031 26.003124Q345.89374 26.003124 346.6281 26.784374Q347.3781 27.55 347.3781 29.14375L347.3781 35.55L345.8156 35.55L345.8156 29.675Q345.8156 28.721874 345.65936 28.3Q345.5031 27.878124 345.09686 27.628124Q344.6906 27.378124 344.14374 27.378124Q343.15936 27.378124 342.5031 28.034374Q341.8625 28.690624 341.8625 30.128124L341.8625 35.55L340.28436 35.55L340.28436 29.4875Q340.28436 28.425 339.89374 27.909374Q339.5031 27.378124 338.6281 27.378124Q337.95624 27.378124 337.39374 27.7375Q336.83124 28.08125 336.5656 28.753124Q336.3156 29.425 336.3156 30.70625L336.3156 35.55L334.7375 35.55ZM348.7375 35.55L348.7375 26.221874L350.15936 26.221874L350.15936 27.51875Q350.59686 26.846874 351.3156 26.425Q352.05 26.003124 352.9875 26.003124Q354.01874 26.003124 354.675 26.440624Q355.34686 26.8625 355.6125 27.64375Q356.72186 26.003124 358.5031 26.003124Q359.89374 26.003124 360.6281 26.784374Q361.3781 27.55 361.3781 29.14375L361.3781 35.55L359.8156 35.55L359.8156 29.675Q359.8156 28.721874 359.65936 28.3Q359.5031 27.878124 359.09686 27.628124Q358.6906 27.378124 358.14374 27.378124Q357.15936 27.378124 356.5031 28.034374Q355.8625 28.690624 355.8625 30.128124L355.8625 35.55L354.28436 35.55L354.28436 29.4875Q354.28436 28.425 353.89374 27.909374Q353.5031 27.378124 352.6281 27.378124Q351.95624 27.378124 351.39374 27.7375Q350.83124 28.08125 350.5656 28.753124Q350.3156 29.425 350.3156 30.70625L350.3156 35.55L348.7375 35.55ZM369.1281 32.55L370.76874 32.753124Q370.3781 34.175 369.33124 34.971874Q368.28436 35.76875 366.65936 35.76875Q364.6125 35.76875 363.40936 34.503124Q362.20624 33.2375 362.20624 30.95625Q362.20624 28.6125 363.40936 27.315624Q364.6281 26.003124 366.5656 26.003124Q368.4406 26.003124 369.6281 27.284374Q370.8156 28.55 370.8156 30.8625Q370.8156 31.003124 370.8 31.284374L363.84686 31.284374Q363.925 32.83125 364.70624 33.64375Q365.5031 34.45625 366.65936 34.45625Q367.53436 34.45625 368.14374 34.003124Q368.76874 33.55 369.1281 32.55ZM363.925 29.9875L369.14374 29.9875Q369.03436 28.815624 368.55 28.221874Q367.78436 27.3 366.58124 27.3Q365.5031 27.3 364.7531 28.034374Q364.01874 28.76875 363.925 29.9875ZM372.7375 35.55L372.7375 26.221874L374.15936 26.221874L374.15936 27.55Q375.1906 26.003124 377.1281 26.003124Q377.97186 26.003124 378.675 26.315624Q379.39374 26.6125 379.7375 27.1125Q380.09686 27.596874 380.2375 28.26875Q380.3156 28.70625 380.3156 29.815624L380.3156 35.55L378.7375 35.55L378.7375 29.878124Q378.7375 28.909374 378.55 28.425Q378.3781 27.940624 377.89374 27.659374Q377.425 27.378124 376.8 27.378124Q375.78436 27.378124 375.05 28.01875Q374.3156 28.659374 374.3156 30.45625L374.3156 35.55L372.7375 35.55ZM386.1906 34.128124L386.425 35.534374Q385.7531 35.675 385.22186 35.675Q384.3625 35.675 383.8781 35.409374Q383.40936 35.128124 383.22186 34.690624Q383.03436 34.2375 383.03436 32.815624L383.03436 27.440624L381.8625 27.440624L381.8625 26.221874L383.03436 26.221874L383.03436 23.909374L384.59686 22.95625L384.59686 26.221874L386.1906 26.221874L386.1906 27.440624L384.59686 27.440624L384.59686 32.909374Q384.59686 33.58125 384.675 33.784374Q384.76874 33.971874 384.95624 34.08125Q385.14374 34.190624 385.5031 34.190624Q385.7531 34.190624 386.1906 34.128124ZM394.1281 32.55L395.76874 32.753124Q395.3781 34.175 394.33124 34.971874Q393.28436 35.76875 391.65936 35.76875Q389.6125 35.76875 388.40936 34.503124Q387.20624 33.2375 387.20624 30.95625Q387.20624 28.6125 388.40936 27.315624Q389.6281 26.003124 391.5656 26.003124Q393.4406 26.003124 394.6281 27.284374Q395.8156 28.55 395.8156 30.8625Q395.8156 31.003124 395.8 31.284374L388.84686 31.284374Q388.925 32.83125 389.70624 33.64375Q390.5031 34.45625 391.65936 34.45625Q392.53436 34.45625 393.14374 34.003124Q393.76874 33.55 394.1281 32.55ZM388.925 29.9875L394.14374 29.9875Q394.03436 28.815624 393.55 28.221874Q392.78436 27.3 391.58124 27.3Q390.5031 27.3 389.7531 28.034374Q389.01874 28.76875 388.925 29.9875ZM403.8 35.55L403.8 34.378124Q402.90936 35.76875 401.175 35.76875Q400.0656 35.76875 399.1281 35.159374Q398.1906 34.534374 397.675 33.440624Q397.15936 32.33125 397.15936 30.89375Q397.15936 29.4875 397.6281 28.3625Q398.09686 27.221874 399.01874 26.6125Q399.95624 26.003124 401.1125 26.003124Q401.95624 26.003124 402.6125 26.3625Q403.26874 26.721874 403.6906 27.284374L403.6906 22.659374L405.2531 22.659374L405.2531 35.55L403.8 35.55ZM398.78436 30.89375Q398.78436 32.690624 399.53436 33.58125Q400.3 34.45625 401.33124 34.45625Q402.3625 34.45625 403.08124 33.6125Q403.8156 32.76875 403.8156 31.01875Q403.8156 29.1125 403.08124 28.221874Q402.34686 27.315624 401.26874 27.315624Q400.20624 27.315624 399.4875 28.175Q398.78436 29.034374 398.78436 30.89375ZM412.14374 30.878124Q412.14374 28.284374 413.59686 27.034374Q414.8 26.003124 416.51874 26.003124Q418.45624 26.003124 419.675 27.26875Q420.89374 28.534374 420.89374 30.753124Q420.89374 32.55 420.34686 33.58125Q419.8156 34.6125 418.78436 35.190624Q417.7531 35.76875 416.51874 35.76875Q414.5656 35.76875 413.34686 34.51875Q412.14374 33.253124 412.14374 30.878124ZM413.76874 30.878124Q413.76874 32.675 414.55 33.565624Q415.33124 34.45625 416.51874 34.45625Q417.70624 34.45625 418.4875 33.565624Q419.26874 32.659374 419.26874 30.83125Q419.26874 29.096874 418.47186 28.20625Q417.6906 27.315624 416.51874 27.315624Q415.33124 27.315624 414.55 28.20625Q413.76874 29.096874 413.76874 30.878124ZM428.84686 35.55L428.84686 34.175Q427.76874 35.76875 425.89374 35.76875Q425.0656 35.76875 424.34686 35.45625Q423.6281 35.128124 423.28436 34.659374Q422.9406 34.175 422.8 33.471874Q422.70624 33.003124 422.70624 32.003124L422.70624 26.221874L424.28436 26.221874L424.28436 31.39375Q424.28436 32.628124 424.3781 33.065624Q424.53436 33.690624 425.01874 34.05Q425.5031 34.39375 426.20624 34.39375Q426.925 34.39375 427.55 34.034374Q428.175 33.675 428.425 33.05Q428.6906 32.409374 428.6906 31.221874L428.6906 26.221874L430.26874 26.221874L430.26874 35.55L428.84686 35.55ZM436.1906 34.128124L436.425 35.534374Q435.7531 35.675 435.22186 35.675Q434.3625 35.675 433.8781 35.409374Q433.40936 35.128124 433.22186 34.690624Q433.03436 34.2375 433.03436 32.815624L433.03436 27.440624L431.8625 27.440624L431.8625 26.221874L433.03436 26.221874L433.03436 23.909374L434.59686 22.95625L434.59686 26.221874L436.1906 26.221874L436.1906 27.440624L434.59686 27.440624L434.59686 32.909374Q434.59686 33.58125 434.675 33.784374Q434.76874 33.971874 434.95624 34.08125Q435.14374 34.190624 435.5031 34.190624Q435.7531 34.190624 436.1906 34.128124ZM438.14374 35.55L438.14374 33.753124L439.95624 33.753124L439.95624 35.55Q439.95624 36.55 439.59686 37.159374Q439.2531 37.76875 438.4875 38.096874L438.05 37.425Q438.55 37.20625 438.78436 36.76875Q439.01874 36.346874 439.05 35.55L438.14374 35.55ZM447.7531 35.55L447.7531 22.659374L449.33124 22.659374L449.33124 30.01875L453.0656 26.221874L455.1125 26.221874L451.55 29.675L455.4875 35.55L453.53436 35.55L450.4406 30.784374L449.33124 31.846874L449.33124 35.55L447.7531 35.55ZM463.1281 32.55L464.76874 32.753124Q464.3781 34.175 463.33124 34.971874Q462.28436 35.76875 460.65936 35.76875Q458.6125 35.76875 457.40936 34.503124Q456.20624 33.2375 456.20624 30.95625Q456.20624 28.6125 457.40936 27.315624Q458.6281 26.003124 460.5656 26.003124Q462.4406 26.003124 463.6281 27.284374Q464.8156 28.55 464.8156 30.8625Q464.8156 31.003124 464.8 31.284374L457.84686 31.284374Q457.925 32.83125 458.70624 33.64375Q459.5031 34.45625 460.65936 34.45625Q461.53436 34.45625 462.14374 34.003124Q462.76874 33.55 463.1281 32.55ZM457.925 29.9875L463.14374 29.9875Q463.03436 28.815624 462.55 28.221874Q461.78436 27.3 460.58124 27.3Q459.5031 27.3 458.7531 28.034374Q458.01874 28.76875 457.925 29.9875ZM473.1281 32.55L474.76874 32.753124Q474.3781 34.175 473.33124 34.971874Q472.28436 35.76875 470.65936 35.76875Q468.6125 35.76875 467.40936 34.503124Q466.20624 33.2375 466.20624 30.95625Q466.20624 28.6125 467.40936 27.315624Q468.6281 26.003124 470.5656 26.003124Q472.4406 26.003124 473.6281 27.284374Q474.8156 28.55 474.8156 30.8625Q474.8156 31.003124 474.8 31.284374L467.84686 31.284374Q467.925 32.83125 468.70624 33.64375Q469.5031 34.45625 470.65936 34.45625Q471.53436 34.45625 472.14374 34.003124Q472.76874 33.55 473.1281 32.55ZM467.925 29.9875L473.14374 29.9875Q473.03436 28.815624 472.55 28.221874Q471.78436 27.3 470.58124 27.3Q469.5031 27.3 468.7531 28.034374Q468.01874 28.76875 467.925 29.9875ZM476.7375 39.128124L476.7375 26.221874L478.175 26.221874L478.175 27.425Q478.6906 26.721874 479.33124 26.3625Q479.97186 26.003124 480.8781 26.003124Q482.08124 26.003124 482.9875 26.628124Q483.90936 27.2375 484.3781 28.3625Q484.84686 29.471874 484.84686 30.815624Q484.84686 32.2375 484.33124 33.39375Q483.8156 34.534374 482.83124 35.159374Q481.84686 35.76875 480.76874 35.76875Q479.9875 35.76875 479.34686 35.440624Q478.72186 35.096874 478.3156 34.58125L478.3156 39.128124L476.7375 39.128124ZM478.175 30.940624Q478.175 32.7375 478.89374 33.596874Q479.6281 34.45625 480.65936 34.45625Q481.72186 34.45625 482.47186 33.565624Q483.22186 32.675 483.22186 30.8Q483.22186 29.01875 482.4875 28.128124Q481.7531 27.2375 480.7375 27.2375Q479.72186 27.2375 478.9406 28.190624Q478.175 29.128124 478.175 30.940624ZM486.1281 31.675L486.1281 30.096874L490.9875 30.096874L490.9875 31.675L486.1281 31.675ZM498.83124 34.39375Q497.95624 35.14375 497.1281 35.45625Q496.3156 35.76875 495.39374 35.76875Q493.84686 35.76875 493.01874 35.01875Q492.20624 34.253124 492.20624 33.08125Q492.20624 32.409374 492.51874 31.846874Q492.83124 31.26875 493.33124 30.925Q493.83124 30.58125 494.47186 30.409374Q494.9406 30.284374 495.8781 30.175Q497.78436 29.940624 498.6906 29.628124Q498.70624 29.3 498.70624 29.20625Q498.70624 28.253124 498.2531 27.846874Q497.64374 27.315624 496.45624 27.315624Q495.33124 27.315624 494.8 27.70625Q494.26874 28.096874 494.01874 29.096874L492.47186 28.878124Q492.6906 27.878124 493.15936 27.26875Q493.64374 26.659374 494.55 26.33125Q495.47186 26.003124 496.6906 26.003124Q497.8781 26.003124 498.6281 26.284374Q499.3781 26.565624 499.72186 27.003124Q500.08124 27.425 500.22186 28.065624Q500.3 28.471874 500.3 29.534374L500.3 31.64375Q500.3 33.846874 500.39374 34.440624Q500.5031 35.01875 500.8 35.55L499.14374 35.55Q498.89374 35.05 498.83124 34.39375ZM498.6906 30.8625Q497.83124 31.221874 496.1125 31.45625Q495.14374 31.596874 494.7375 31.784374Q494.33124 31.95625 494.1125 32.3Q493.89374 32.628124 493.89374 33.05Q493.89374 33.675 494.3625 34.096874Q494.84686 34.51875 495.76874 34.51875Q496.6906 34.51875 497.39374 34.128124Q498.1125 33.721874 498.4406 33.034374Q498.6906 32.4875 498.6906 31.440624L498.6906 30.8625ZM502.70624 35.55L502.70624 22.659374L504.28436 22.659374L504.28436 35.55L502.70624 35.55ZM506.7531 24.4875L506.7531 22.659374L508.33124 22.659374L508.33124 24.4875L506.7531 24.4875ZM506.7531 35.55L506.7531 26.221874L508.33124 26.221874L508.33124 35.55L506.7531 35.55ZM513.33124 35.55L509.78436 26.221874L511.45624 26.221874L513.45624 31.8Q513.78436 32.70625 514.05 33.690624Q514.26874 32.940624 514.64374 31.909374L516.70624 26.221874L518.34686 26.221874L514.8 35.55L513.33124 35.55ZM526.1281 32.55L527.76874 32.753124Q527.3781 34.175 526.33124 34.971874Q525.28436 35.76875 523.65936 35.76875Q521.6125 35.76875 520.40936 34.503124Q519.20624 33.2375 519.20624 30.95625Q519.20624 28.6125 520.40936 27.315624Q521.6281 26.003124 523.5656 26.003124Q525.4406 26.003124 526.6281 27.284374Q527.8156 28.55 527.8156 30.8625Q527.8156 31.003124 527.8 31.284374L520.84686 31.284374Q520.925 32.83125 521.70624 33.64375Q522.5031 34.45625 523.65936 34.45625Q524.53436 34.45625 525.14374 34.003124Q525.76874 33.55 526.1281 32.55ZM520.925 29.9875L526.14374 29.9875Q526.03436 28.815624 525.55 28.221874Q524.78436 27.3 523.58124 27.3Q522.5031 27.3 521.7531 28.034374Q521.01874 28.76875 520.925 29.9875ZM530.14374 35.55L530.14374 33.753124L531.95624 33.753124L531.95624 35.55Q531.95624 36.55 531.59686 37.159374Q531.2531 37.76875 530.4875 38.096874L530.05 37.425Q530.55 37.20625 530.78436 36.76875Q531.01874 36.346874 531.05 35.55L530.14374 35.55Z" fill-rule="nonzero"/><path fill="#757575" d="M19.7375 57.55L19.7375 44.659374L21.315624 44.659374L21.315624 49.284374Q22.425 48.003124 24.1125 48.003124Q25.14375 48.003124 25.909374 48.409374Q26.675 48.815624 27.003124 49.55Q27.346874 50.26875 27.346874 51.628124L27.346874 57.55L25.753124 57.55L25.753124 51.628124Q25.753124 50.440624 25.2375 49.909374Q24.721874 49.3625 23.784374 49.3625Q23.08125 49.3625 22.45625 49.7375Q21.846874 50.096874 21.58125 50.721874Q21.315624 51.346874 21.315624 52.440624L21.315624 57.55L19.7375 57.55ZM29.753124 46.4875L29.753124 44.659374L31.33125 44.659374L31.33125 46.4875L29.753124 46.4875ZM29.753124 57.55L29.753124 48.221874L31.33125 48.221874L31.33125 57.55L29.753124 57.55ZM33.440624 58.33125L34.9875 58.55Q35.08125 59.26875 35.51875 59.596874Q36.1125 60.034374 37.128124 60.034374Q38.221874 60.034374 38.815624 59.58125Q39.425 59.14375 39.628124 58.3625Q39.753124 57.878124 39.753124 56.33125Q38.70625 57.55 37.159374 57.55Q35.2375 57.55 34.175 56.159374Q33.128124 54.76875 33.128124 52.83125Q33.128124 51.4875 33.6125 50.3625Q34.096874 49.2375 35.01875 48.628124Q35.940624 48.003124 37.175 48.003124Q38.83125 48.003124 39.89375 49.346874L39.89375 48.221874L41.3625 48.221874L41.3625 56.284374Q41.3625 58.471874 40.909374 59.378124Q40.471874 60.284374 39.503124 60.8Q38.55 61.33125 37.14375 61.33125Q35.471874 61.33125 34.440624 60.58125Q33.409374 59.83125 33.440624 58.33125ZM34.753124 52.721874Q34.753124 54.55 35.4875 55.39375Q36.221874 56.2375 37.315624 56.2375Q38.409374 56.2375 39.14375 55.409374Q39.878124 54.565624 39.878124 52.76875Q39.878124 51.05 39.1125 50.190624Q38.3625 49.315624 37.284374 49.315624Q36.2375 49.315624 35.4875 50.175Q34.753124 51.034374 34.753124 52.721874ZM43.7375 57.55L43.7375 44.659374L45.315624 44.659374L45.315624 49.284374Q46.425 48.003124 48.1125 48.003124Q49.14375 48.003124 49.909374 48.409374Q50.675 48.815624 51.003124 49.55Q51.346874 50.26875 51.346874 51.628124L51.346874 57.55L49.753124 57.55L49.753124 51.628124Q49.753124 50.440624 49.2375 49.909374Q48.721874 49.3625 47.784374 49.3625Q47.08125 49.3625 46.45625 49.7375Q45.846874 50.096874 45.58125 50.721874Q45.315624 51.346874 45.315624 52.440624L45.315624 57.55L43.7375 57.55ZM60.128124 54.55L61.76875 54.753124Q61.378124 56.175 60.33125 56.971874Q59.284374 57.76875 57.659374 57.76875Q55.6125 57.76875 54.409374 56.503124Q53.20625 55.2375 53.20625 52.95625Q53.20625 50.6125 54.409374 49.315624Q55.628124 48.003124 57.565624 48.003124Q59.440624 48.003124 60.628124 49.284374Q61.815624 50.55 61.815624 52.8625Q61.815624 53.003124 61.8 53.284374L54.846874 53.284374Q54.925 54.83125 55.70625 55.64375Q56.503124 56.45625 57.659374 56.45625Q58.534374 56.45625 59.14375 56.003124Q59.76875 55.55 60.128124 54.55ZM54.925 51.9875L60.14375 51.9875Q60.034374 50.815624 59.55 50.221874Q58.784374 49.3 57.58125 49.3Q56.503124 49.3 55.753124 50.034374Q55.01875 50.76875 54.925 51.9875ZM63.721874 57.55L63.721874 48.221874L65.14375 48.221874L65.14375 49.628124Q65.69063 48.64375 66.14375 48.33125Q66.6125 48.003124 67.15938 48.003124Q67.97188 48.003124 68.78438 48.51875L68.25313 49.9875Q67.65938 49.64375 67.08125 49.64375Q66.56563 49.64375 66.14375 49.95625Q65.7375 50.26875 65.56563 50.815624Q65.3 51.659374 65.3 52.659374L65.3 57.55L63.721874 57.55ZM74.75313 46.4875L74.75313 44.659374L76.33125 44.659374L76.33125 46.4875L74.75313 46.4875ZM74.75313 57.55L74.75313 48.221874L76.33125 48.221874L76.33125 57.55L74.75313 57.55ZM78.09688 54.76875L79.675 54.51875Q79.8 55.45625 80.39375 55.95625Q81.00313 56.45625 82.08125 56.45625Q83.175 56.45625 83.70625 56.01875Q84.2375 55.565624 84.2375 54.971874Q84.2375 54.440624 83.76875 54.128124Q83.44063 53.925 82.14375 53.596874Q80.40938 53.159374 79.7375 52.846874Q79.06563 52.51875 78.70625 51.95625Q78.3625 51.378124 78.3625 50.690624Q78.3625 50.065624 78.64375 49.534374Q78.94063 49.003124 79.425 48.659374Q79.8 48.378124 80.44063 48.190624Q81.08125 48.003124 81.8 48.003124Q82.90938 48.003124 83.7375 48.33125Q84.56563 48.64375 84.95625 49.190624Q85.3625 49.721874 85.50313 50.628124L83.95625 50.83125Q83.84688 50.1125 83.34688 49.70625Q82.84688 49.3 81.925 49.3Q80.83125 49.3 80.3625 49.659374Q79.89375 50.01875 79.89375 50.503124Q79.89375 50.815624 80.09688 51.065624Q80.28438 51.315624 80.69063 51.4875Q80.94063 51.565624 82.09688 51.89375Q83.76875 52.33125 84.425 52.628124Q85.09688 52.909374 85.47188 53.45625Q85.8625 54.003124 85.8625 54.8Q85.8625 55.596874 85.39375 56.3Q84.94063 57.003124 84.06563 57.39375Q83.19063 57.76875 82.09688 57.76875Q80.26875 57.76875 79.31563 57.01875Q78.3625 56.253124 78.09688 54.76875ZM94.19063 57.55L92.72188 57.55L92.72188 44.659374L94.31563 44.659374L94.31563 49.26875Q95.31563 48.003124 96.8625 48.003124Q97.72188 48.003124 98.4875 48.3625Q99.26875 48.70625 99.75313 49.33125Q100.25313 49.95625 100.53438 50.846874Q100.81563 51.7375 100.81563 52.7375Q100.81563 55.14375 99.62813 56.45625Q98.45625 57.76875 96.78438 57.76875Q95.14375 57.76875 94.19063 56.378124L94.19063 57.55ZM94.175 52.815624Q94.175 54.4875 94.62813 55.2375Q95.37813 56.45625 96.65938 56.45625Q97.69063 56.45625 98.44063 55.565624Q99.20625 54.659374 99.20625 52.878124Q99.20625 51.05 98.47188 50.175Q97.75313 49.3 96.72188 49.3Q95.69063 49.3 94.925 50.20625Q94.175 51.1125 94.175 52.815624ZM109.12813 54.55L110.76875 54.753124Q110.37813 56.175 109.33125 56.971874Q108.28438 57.76875 106.65938 57.76875Q104.6125 57.76875 103.40938 56.503124Q102.20625 55.2375 102.20625 52.95625Q102.20625 50.6125 103.40938 49.315624Q104.62813 48.003124 106.56563 48.003124Q108.44063 48.003124 109.62813 49.284374Q110.81563 50.55 110.81563 52.8625Q110.81563 53.003124 110.8 53.284374L103.84688 53.284374Q103.925 54.83125 104.70625 55.64375Q105.50313 56.45625 106.65938 56.45625Q107.53438 56.45625 108.14375 56.003124Q108.76875 55.55 109.12813 54.55ZM103.925 51.9875L109.14375 51.9875Q109.03438 50.815624 108.55 50.221874Q107.78438 49.3 106.58125 49.3Q105.50313 49.3 104.75313 50.034374Q104.01875 50.76875 103.925 51.9875ZM116.19063 56.128124L116.425 57.534374Q115.75313 57.675 115.22188 57.675Q114.3625 57.675 113.87813 57.409374Q113.40938 57.128124 113.22188 56.690624Q113.03438 56.2375 113.03438 54.815624L113.03438 49.440624L111.8625 49.440624L111.8625 48.221874L113.03438 48.221874L113.03438 45.909374L114.59688 44.95625L114.59688 48.221874L116.19063 48.221874L116.19063 49.440624L114.59688 49.440624L114.59688 54.909374Q114.59688 55.58125 114.675 55.784374Q114.76875 55.971874 114.95625 56.08125Q115.14375 56.190624 115.50313 56.190624Q115.75313 56.190624 116.19063 56.128124ZM121.19063 56.128124L121.425 57.534374Q120.75313 57.675 120.22188 57.675Q119.3625 57.675 118.87813 57.409374Q118.40938 57.128124 118.22188 56.690624Q118.03438 56.2375 118.03438 54.815624L118.03438 49.440624L116.8625 49.440624L116.8625 48.221874L118.03438 48.221874L118.03438 45.909374L119.59688 44.95625L119.59688 48.221874L121.19063 48.221874L121.19063 49.440624L119.59688 49.440624L119.59688 54.909374Q119.59688 55.58125 119.675 55.784374Q119.76875 55.971874 119.95625 56.08125Q120.14375 56.190624 120.50313 56.190624Q120.75313 56.190624 121.19063 56.128124ZM129.12813 54.55L130.76875 54.753124Q130.37813 56.175 129.33125 56.971874Q128.28438 57.76875 126.65938 57.76875Q124.6125 57.76875 123.40938 56.503124Q122.20625 55.2375 122.20625 52.95625Q122.20625 50.6125 123.40938 49.315624Q124.62813 48.003124 126.56563 48.003124Q128.44063 48.003124 129.62813 49.284374Q130.81563 50.55 130.81563 52.8625Q130.81563 53.003124 130.8 53.284374L123.84688 53.284374Q123.925 54.83125 124.70625 55.64375Q125.50313 56.45625 126.65938 56.45625Q127.53438 56.45625 128.14375 56.003124Q128.76875 55.55 129.12813 54.55ZM123.925 51.9875L129.14375 51.9875Q129.03438 50.815624 128.55 50.221874Q127.78438 49.3 126.58125 49.3Q125.50313 49.3 124.75313 50.034374Q124.01875 50.76875 123.925 51.9875ZM132.72188 57.55L132.72188 48.221874L134.14375 48.221874L134.14375 49.628124Q134.69063 48.64375 135.14375 48.33125Q135.6125 48.003124 136.15938 48.003124Q136.97188 48.003124 137.78438 48.51875L137.25313 49.9875Q136.65938 49.64375 136.08125 49.64375Q135.56563 49.64375 135.14375 49.95625Q134.7375 50.26875 134.56563 50.815624Q134.3 51.659374 134.3 52.659374L134.3 57.55L132.72188 57.55Z" fill-rule="nonzero"/></svg>