<svg version="1.1" viewBox="0.0 0.0 600.0 371.0" fill="none" stroke="none" stroke-linecap="square" stroke-miterlimit="10" width="600" height="371" xmlns:xlink="http://www.w3.org/1999/xlink" xmlns="http://www.w3.org/2000/svg"><path fill="#ffffff" d="M0 0L600.0 0L600.0 371.0L0 371.0L0 0Z" fill-rule="nonzero"/><path stroke="#333333" stroke-width="1.0" stroke-linecap="butt" d="M59.5 247.5L581.5 247.5" fill-rule="nonzero"/><path stroke="#cccccc" stroke-width="1.0" stroke-linecap="butt" d="M59.5 200.5L581.5 200.5" fill-rule="nonzero"/><path stroke="#cccccc" stroke-width="1.0" stroke-linecap="butt" d="M59.5 153.5L581.5 153.5" fill-rule="nonzero"/><path stroke="#cccccc" stroke-width="1.0" stroke-linecap="butt" d="M59.5 106.5L581.5 106.5" fill-rule="nonzero"/><path stroke="#cccccc" stroke-width="1.0" stroke-linecap="butt" d="M59.5 58.5L581.5 58.5" fill-rule="nonzero"/><clipPath id="id_0"><path d="M59.55 58.916668L581.45 58.916668L581.45 247.31667L59.55 247.31667L59.55 58.916668Z" clip-rule="nonzero"/></clipPath><path stroke="#000000" stroke-width="2.0" stroke-linecap="butt" stroke-opacity="0.0" clip-path="url(#id_0)" d="M142.0 247.0L89.0 247.0L89.0 229.0C89.0 227.89543 89.89543 227.0 91.0 227.0L140.0 227.0C141.10457 227.0 142.0 227.89543 142.0 229.0Z" fill-rule="nonzero"/><path fill="#ff9900" clip-path="url(#id_0)" d="M142.0 247.0L89.0 247.0L89.0 229.0C89.0 227.89543 89.89543 227.0 91.0 227.0L140.0 227.0C141.10457 227.0 142.0 227.89543 142.0 229.0Z" fill-rule="nonzero"/><path stroke="#000000" stroke-width="2.0" stroke-linecap="butt" stroke-opacity="0.0" clip-path="url(#id_0)" d="M224.0 247.0L171.0 247.0L171.0 180.0C171.0 178.89543 171.89543 178.0 173.0 178.0L222.0 178.0C223.10457 178.0 224.0 178.89543 224.0 180.0Z" fill-rule="nonzero"/><path fill="#4285f4" clip-path="url(#id_0)" d="M224.0 247.0L171.0 247.0L171.0 180.0C171.0 178.89543 171.89543 178.0 173.0 178.0L222.0 178.0C223.10457 178.0 224.0 178.89543 224.0 180.0Z" fill-rule="nonzero"/><path stroke="#000000" stroke-width="2.0" stroke-linecap="butt" stroke-opacity="0.0" clip-path="url(#id_0)" d="M306.0 247.0L253.0 247.0L253.0 106.0C253.0 104.89543 253.89543 104.0 255.0 104.0L304.0 104.0C305.10458 104.0 306.0 104.89543 306.0 106.0Z" fill-rule="nonzero"/><path fill="#4285f4" clip-path="url(#id_0)" d="M306.0 247.0L253.0 247.0L253.0 106.0C253.0 104.89543 253.89543 104.0 255.0 104.0L304.0 104.0C305.10458 104.0 306.0 104.89543 306.0 106.0Z" fill-rule="nonzero"/><path stroke="#000000" stroke-width="2.0" stroke-linecap="butt" stroke-opacity="0.0" clip-path="url(#id_0)" d="M389.0 247.0L336.0 247.0L336.0 84.0C336.0 82.89543 336.89542 82.0 338.0 82.0L387.0 82.0C388.10458 82.0 389.0 82.89543 389.0 84.0Z" fill-rule="nonzero"/><path fill="#4285f4" clip-path="url(#id_0)" d="M389.0 247.0L336.0 247.0L336.0 84.0C336.0 82.89543 336.89542 82.0 338.0 82.0L387.0 82.0C388.10458 82.0 389.0 82.89543 389.0 84.0Z" fill-rule="nonzero"/><path stroke="#000000" stroke-width="2.0" stroke-linecap="butt" stroke-opacity="0.0" clip-path="url(#id_0)" d="M471.0 247.0L418.0 247.0L418.0 247.0L471.0 247.0Z" fill-rule="nonzero"/><path fill="#4285f4" clip-path="url(#id_0)" d="M471.0 247.0L418.0 247.0L418.0 247.0L471.0 247.0Z" fill-rule="nonzero"/><path stroke="#000000" stroke-width="2.0" stroke-linecap="butt" stroke-opacity="0.0" clip-path="url(#id_0)" d="M553.0 247.0L500.0 247.0L500.0 115.0C500.0 113.89543 500.89542 113.0 502.0 113.0L551.0 113.0C552.10455 113.0 553.0 113.89543 553.0 115.0Z" fill-rule="nonzero"/><path fill="#4285f4" clip-path="url(#id_0)" d="M553.0 247.0L500.0 247.0L500.0 115.0C500.0 113.89543 500.89542 113.0 502.0 113.0L551.0 113.0C552.10455 113.0 553.0 113.89543 553.0 115.0Z" fill-rule="nonzero"/><path fill="#000000" d="M283.375 347.59064L284.40625 347.4344Q284.5 348.0594 284.89062 348.3875Q285.29688 348.71564 286.03125 348.71564Q286.75 348.71564 287.09375 348.4344Q287.45312 348.1375 287.45312 347.73126Q287.45312 347.3719 287.14062 347.16876Q286.92188 347.02814 286.0625 346.8094Q284.90625 346.5125 284.45312 346.3094Q284.01562 346.09064 283.78125 345.71564Q283.54688 345.34064 283.54688 344.8719Q283.54688 344.46564 283.73438 344.10626Q283.92188 343.7469 284.25 343.5125Q284.5 343.34064 284.92188 343.21564Q285.34375 343.09064 285.84375 343.09064Q286.5625 343.09064 287.10938 343.3094Q287.67188 343.5125 287.9375 343.8719Q288.20312 344.23126 288.29688 344.825L287.26562 344.96564Q287.20312 344.4969 286.85938 344.23126Q286.53125 343.95 285.90625 343.95Q285.1875 343.95 284.875 344.2Q284.5625 344.4344 284.5625 344.7625Q284.5625 344.96564 284.6875 345.1219Q284.82812 345.29376 285.09375 345.40314Q285.25 345.46564 286.03125 345.66876Q287.15625 345.98126 287.59375 346.16876Q288.03125 346.35626 288.28125 346.71564Q288.53125 347.075 288.53125 347.6219Q288.53125 348.15314 288.21875 348.6219Q287.92188 349.075 287.34375 349.34064Q286.76562 349.59064 286.03125 349.59064Q284.8125 349.59064 284.17188 349.09064Q283.54688 348.575 283.375 347.59064ZM290.75 351.84064L290.625 350.85626Q290.96875 350.95 291.23438 350.95Q291.57812 350.95 291.78125 350.825Q292.0 350.71564 292.14062 350.5125Q292.23438 350.34064 292.46875 349.71564Q292.48438 349.6375 292.5625 349.46564L290.1875 343.23126L291.32812 343.23126L292.625 346.825Q292.875 347.5125 293.07812 348.27814Q293.26562 347.54376 293.51562 346.85626L294.84375 343.23126L295.89062 343.23126L293.53125 349.5594Q293.14062 350.575 292.9375 350.96564Q292.65625 351.4969 292.28125 351.73126Q291.92188 351.98126 291.42188 351.98126Q291.125 351.98126 290.75 351.84064ZM295.375 347.59064L296.40625 347.4344Q296.5 348.0594 296.89062 348.3875Q297.29688 348.71564 298.03125 348.71564Q298.75 348.71564 299.09375 348.4344Q299.45312 348.1375 299.45312 347.73126Q299.45312 347.3719 299.14062 347.16876Q298.92188 347.02814 298.0625 346.8094Q296.90625 346.5125 296.45312 346.3094Q296.01562 346.09064 295.78125 345.71564Q295.54688 345.34064 295.54688 344.8719Q295.54688 344.46564 295.73438 344.10626Q295.92188 343.7469 296.25 343.5125Q296.5 343.34064 296.92188 343.21564Q297.34375 343.09064 297.84375 343.09064Q298.5625 343.09064 299.10938 343.3094Q299.67188 343.5125 299.9375 343.8719Q300.20312 344.23126 300.29688 344.825L299.26562 344.96564Q299.20312 344.4969 298.85938 344.23126Q298.53125 343.95 297.90625 343.95Q297.1875 343.95 296.875 344.2Q296.5625 344.4344 296.5625 344.7625Q296.5625 344.96564 296.6875 345.1219Q296.82812 345.29376 297.09375 345.40314Q297.25 345.46564 298.03125 345.66876Q299.15625 345.98126 299.59375 346.16876Q300.03125 346.35626 300.28125 346.71564Q300.53125 347.075 300.53125 347.6219Q300.53125 348.15314 300.21875 348.6219Q299.92188 349.075 299.34375 349.34064Q298.76562 349.59064 298.03125 349.59064Q296.8125 349.59064 296.17188 349.09064Q295.54688 348.575 295.375 347.59064ZM305.09375 348.5125L305.25 349.4344Q304.79688 349.52814 304.45312 349.52814Q303.875 349.52814 303.5625 349.35626Q303.25 349.16876 303.10938 348.8719Q302.98438 348.575 302.98438 347.6219L302.98438 344.04376L302.21875 344.04376L302.21875 343.23126L302.98438 343.23126L302.98438 341.6844L304.03125 341.0594L304.03125 343.23126L305.09375 343.23126L305.09375 344.04376L304.03125 344.04376L304.03125 347.6844Q304.03125 348.1375 304.07812 348.2625Q304.14062 348.3875 304.26562 348.46564Q304.39062 348.54376 304.625 348.54376Q304.8125 348.54376 305.09375 348.5125ZM310.04688 347.45L311.14062 347.575Q310.89062 348.52814 310.1875 349.0594Q309.48438 349.59064 308.40625 349.59064Q307.04688 349.59064 306.23438 348.7469Q305.4375 347.90314 305.4375 346.3875Q305.4375 344.825 306.25 343.96564Q307.0625 343.09064 308.34375 343.09064Q309.59375 343.09064 310.375 343.9344Q311.17188 344.77814 311.17188 346.325Q311.17188 346.41876 311.17188 346.60626L306.53125 346.60626Q306.59375 347.6375 307.10938 348.1844Q307.625 348.71564 308.40625 348.71564Q308.98438 348.71564 309.39062 348.41876Q309.8125 348.10626 310.04688 347.45ZM306.59375 345.7469L310.0625 345.7469Q310.0 344.95 309.67188 344.5594Q309.15625 343.95 308.35938 343.95Q307.625 343.95 307.125 344.4344Q306.64062 344.91876 306.59375 345.7469ZM312.79688 349.45L312.79688 343.23126L313.73438 343.23126L313.73438 344.10626Q314.03125 343.6375 314.51562 343.3719Q315.0 343.09064 315.625 343.09064Q316.3125 343.09064 316.75 343.3719Q317.20312 343.65314 317.375 344.16876Q318.125 343.09064 319.29688 343.09064Q320.23438 343.09064 320.71875 343.60626Q321.21875 344.10626 321.21875 345.1844L321.21875 349.45L320.17188 349.45L320.17188 345.52814Q320.17188 344.90314 320.0625 344.6219Q319.96875 344.34064 319.70312 344.16876Q319.4375 343.9969 319.0625 343.9969Q318.40625 343.9969 317.96875 344.4344Q317.54688 344.8719 317.54688 345.84064L317.54688 349.45L316.48438 349.45L316.48438 345.40314Q316.48438 344.7 316.21875 344.35626Q315.96875 343.9969 315.39062 343.9969Q314.9375 343.9969 314.5625 344.23126Q314.1875 344.46564 314.01562 344.91876Q313.84375 345.3719 313.84375 346.21564L313.84375 349.45L312.79688 349.45ZM326.79688 349.45L326.79688 343.23126L327.73438 343.23126L327.73438 344.10626Q328.42188 343.09064 329.71875 343.09064Q330.28125 343.09064 330.75 343.29376Q331.23438 343.4969 331.46875 343.825Q331.70312 344.15314 331.79688 344.59064Q331.84375 344.8875 331.84375 345.6219L331.84375 349.45L330.79688 349.45L330.79688 345.66876Q330.79688 345.0125 330.67188 344.7Q330.54688 344.3875 330.23438 344.2Q329.92188 343.9969 329.5 343.9969Q328.82812 343.9969 328.32812 344.4344Q327.84375 344.85626 327.84375 346.04376L327.84375 349.45L326.79688 349.45ZM337.85938 348.6844Q337.26562 349.1844 336.71875 349.3875Q336.1875 349.59064 335.5625 349.59064Q334.53125 349.59064 333.98438 349.09064Q333.4375 348.59064 333.4375 347.8094Q333.4375 347.35626 333.64062 346.98126Q333.84375 346.59064 334.1875 346.3719Q334.53125 346.1375 334.95312 346.02814Q335.25 345.9344 335.89062 345.85626Q337.15625 345.71564 337.76562 345.4969Q337.76562 345.27814 337.76562 345.23126Q337.76562 344.575 337.46875 344.3094Q337.0625 343.96564 336.26562 343.96564Q335.53125 343.96564 335.17188 344.23126Q334.8125 344.48126 334.64062 345.1375L333.60938 344.9969Q333.75 344.34064 334.07812 343.9344Q334.40625 343.52814 335.01562 343.3094Q335.625 343.09064 336.42188 343.09064Q337.21875 343.09064 337.71875 343.27814Q338.21875 343.46564 338.45312 343.7469Q338.6875 344.02814 338.78125 344.46564Q338.82812 344.73126 338.82812 345.4344L338.82812 346.84064Q338.82812 348.3094 338.89062 348.7Q338.96875 349.09064 339.17188 349.45L338.0625 349.45Q337.90625 349.1219 337.85938 348.6844ZM337.76562 346.325Q337.1875 346.5594 336.04688 346.73126Q335.39062 346.825 335.125 346.95Q334.85938 347.0594 334.70312 347.27814Q334.5625 347.4969 334.5625 347.77814Q334.5625 348.2 334.875 348.48126Q335.20312 348.7625 335.8125 348.7625Q336.42188 348.7625 336.89062 348.4969Q337.375 348.23126 337.59375 347.7625Q337.76562 347.40314 337.76562 346.71564L337.76562 346.325ZM340.79688 349.45L340.79688 343.23126L341.73438 343.23126L341.73438 344.10626Q342.03125 343.6375 342.51562 343.3719Q343.0 343.09064 343.625 343.09064Q344.3125 343.09064 344.75 343.3719Q345.20312 343.65314 345.375 344.16876Q346.125 343.09064 347.29688 343.09064Q348.23438 343.09064 348.71875 343.60626Q349.21875 344.10626 349.21875 345.1844L349.21875 349.45L348.17188 349.45L348.17188 345.52814Q348.17188 344.90314 348.0625 344.6219Q347.96875 344.34064 347.70312 344.16876Q347.4375 343.9969 347.0625 343.9969Q346.40625 343.9969 345.96875 344.4344Q345.54688 344.8719 345.54688 345.84064L345.54688 349.45L344.48438 349.45L344.48438 345.40314Q344.48438 344.7 344.21875 344.35626Q343.96875 343.9969 343.39062 343.9969Q342.9375 343.9969 342.5625 344.23126Q342.1875 344.46564 342.01562 344.91876Q341.84375 345.3719 341.84375 346.21564L341.84375 349.45L340.79688 349.45ZM356.04688 347.45L357.14062 347.575Q356.89062 348.52814 356.1875 349.0594Q355.48438 349.59064 354.40625 349.59064Q353.04688 349.59064 352.23438 348.7469Q351.4375 347.90314 351.4375 346.3875Q351.4375 344.825 352.25 343.96564Q353.0625 343.09064 354.34375 343.09064Q355.59375 343.09064 356.375 343.9344Q357.17188 344.77814 357.17188 346.325Q357.17188 346.41876 357.17188 346.60626L352.53125 346.60626Q352.59375 347.6375 353.10938 348.1844Q353.625 348.71564 354.40625 348.71564Q354.98438 348.71564 355.39062 348.41876Q355.8125 348.10626 356.04688 347.45ZM352.59375 345.7469L356.0625 345.7469Q356.0 344.95 355.67188 344.5594Q355.15625 343.95 354.35938 343.95Q353.625 343.95 353.125 344.4344Q352.64062 344.91876 352.59375 345.7469Z" fill-rule="nonzero"/><path fill="#000000" d="M47.05 247.08229Q47.05 245.55104 47.3625 244.62917Q47.675 243.69167 48.284374 243.19167Q48.909374 242.69167 49.846874 242.69167Q50.534374 242.69167 51.05 242.97292Q51.58125 243.25417 51.925 243.78542Q52.26875 244.30104 52.45625 245.05104Q52.64375 245.80104 52.64375 247.08229Q52.64375 248.59792 52.33125 249.51979Q52.034374 250.44167 51.409374 250.95729Q50.8 251.45729 49.846874 251.45729Q48.6125 251.45729 47.89375 250.56667Q47.05 249.50417 47.05 247.08229ZM48.128124 247.08229Q48.128124 249.19167 48.628124 249.89479Q49.128124 250.59792 49.846874 250.59792Q50.58125 250.59792 51.065624 249.89479Q51.565624 249.19167 51.565624 247.08229Q51.565624 244.95729 51.065624 244.26979Q50.58125 243.56667 49.83125 243.56667Q49.1125 243.56667 48.675 244.17604Q48.128124 244.95729 48.128124 247.08229Z" fill-rule="nonzero"/><path fill="#000000" d="M24.596874 203.20103L24.596874 204.21666L18.909374 204.21666Q18.909374 203.84166 19.034374 203.48228Q19.253124 202.90416 19.721874 202.34166Q20.20625 201.77916 21.1125 201.04478Q22.51875 199.88853 23.003124 199.21666Q23.503124 198.54478 23.503124 197.95103Q23.503124 197.32603 23.05 196.90416Q22.596874 196.46666 21.878124 196.46666Q21.1125 196.46666 20.659374 196.91978Q20.20625 197.37291 20.190624 198.18541L19.1125 198.07603Q19.221874 196.85728 19.940624 196.23228Q20.675 195.59166 21.909374 195.59166Q23.14375 195.59166 23.8625 196.27916Q24.58125 196.96666 24.58125 197.98228Q24.58125 198.49791 24.3625 198.99791Q24.159374 199.48228 23.659374 200.04478Q23.175 200.59166 22.05 201.54478Q21.096874 202.34166 20.815624 202.63853Q20.55 202.91978 20.378124 203.20103L24.596874 203.20103ZM26.05 199.98228Q26.05 198.45103 26.3625 197.52916Q26.675 196.59166 27.284374 196.09166Q27.909374 195.59166 28.846874 195.59166Q29.534374 195.59166 30.05 195.87291Q30.58125 196.15416 30.925 196.68541Q31.26875 197.20103 31.45625 197.95103Q31.64375 198.70103 31.64375 199.98228Q31.64375 201.49791 31.33125 202.41978Q31.034374 203.34166 30.409374 203.85728Q29.8 204.35728 28.846874 204.35728Q27.6125 204.35728 26.89375 203.46666Q26.05 202.40416 26.05 199.98228ZM27.128124 199.98228Q27.128124 202.09166 27.628124 202.79478Q28.128124 203.49791 28.846874 203.49791Q29.58125 203.49791 30.065624 202.79478Q30.565624 202.09166 30.565624 199.98228Q30.565624 197.85728 30.065624 197.16978Q29.58125 196.46666 28.83125 196.46666Q28.1125 196.46666 27.675 197.07603Q27.128124 197.85728 27.128124 199.98228ZM33.05 199.98228Q33.05 198.45103 33.3625 197.52916Q33.675 196.59166 34.284374 196.09166Q34.909374 195.59166 35.846874 195.59166Q36.534374 195.59166 37.05 195.87291Q37.58125 196.15416 37.925 196.68541Q38.26875 197.20103 38.45625 197.95103Q38.64375 198.70103 38.64375 199.98228Q38.64375 201.49791 38.33125 202.41978Q38.034374 203.34166 37.409374 203.85728Q36.8 204.35728 35.846874 204.35728Q34.6125 204.35728 33.89375 203.46666Q33.05 202.40416 33.05 199.98228ZM34.128124 199.98228Q34.128124 202.09166 34.628124 202.79478Q35.128124 203.49791 35.846874 203.49791Q36.58125 203.49791 37.065624 202.79478Q37.565624 202.09166 37.565624 199.98228Q37.565624 197.85728 37.065624 197.16978Q36.58125 196.46666 35.83125 196.46666Q35.1125 196.46666 34.675 197.07603Q34.128124 197.85728 34.128124 199.98228ZM40.05 199.98228Q40.05 198.45103 40.3625 197.52916Q40.675 196.59166 41.284374 196.09166Q41.909374 195.59166 42.846874 195.59166Q43.534374 195.59166 44.05 195.87291Q44.58125 196.15416 44.925 196.68541Q45.26875 197.20103 45.45625 197.95103Q45.64375 198.70103 45.64375 199.98228Q45.64375 201.49791 45.33125 202.41978Q45.034374 203.34166 44.409374 203.85728Q43.8 204.35728 42.846874 204.35728Q41.6125 204.35728 40.89375 203.46666Q40.05 202.40416 40.05 199.98228ZM41.128124 199.98228Q41.128124 202.09166 41.628124 202.79478Q42.128124 203.49791 42.846874 203.49791Q43.58125 203.49791 44.065624 202.79478Q44.565624 202.09166 44.565624 199.98228Q44.565624 197.85728 44.065624 197.16978Q43.58125 196.46666 42.83125 196.46666Q42.1125 196.46666 41.675 197.07603Q41.128124 197.85728 41.128124 199.98228ZM47.05 199.98228Q47.05 198.45103 47.3625 197.52916Q47.675 196.59166 48.284374 196.09166Q48.909374 195.59166 49.846874 195.59166Q50.534374 195.59166 51.05 195.87291Q51.58125 196.15416 51.925 196.68541Q52.26875 197.20103 52.45625 197.95103Q52.64375 198.70103 52.64375 199.98228Q52.64375 201.49791 52.33125 202.41978Q52.034374 203.34166 51.409374 203.85728Q50.8 204.35728 49.846874 204.35728Q48.6125 204.35728 47.89375 203.46666Q47.05 202.40416 47.05 199.98228ZM48.128124 199.98228Q48.128124 202.09166 48.628124 202.79478Q49.128124 203.49791 49.846874 203.49791Q50.58125 203.49791 51.065624 202.79478Q51.565624 202.09166 51.565624 199.98228Q51.565624 197.85728 51.065624 197.16978Q50.58125 196.46666 49.83125 196.46666Q49.1125 196.46666 48.675 197.07603Q48.128124 197.85728 48.128124 199.98228Z" fill-rule="nonzero"/><path fill="#000000" d="M22.425 157.11667L22.425 155.05417L18.70625 155.05417L18.70625 154.08542L22.628124 148.52292L23.4875 148.52292L23.4875 154.08542L24.64375 154.08542L24.64375 155.05417L23.4875 155.05417L23.4875 157.11667L22.425 157.11667ZM22.425 154.08542L22.425 150.22604L19.7375 154.08542L22.425 154.08542ZM26.05 152.8823Q26.05 151.35104 26.3625 150.42917Q26.675 149.49167 27.284374 148.99167Q27.909374 148.49167 28.846874 148.49167Q29.534374 148.49167 30.05 148.77292Q30.58125 149.05417 30.925 149.58542Q31.26875 150.10104 31.45625 150.85104Q31.64375 151.60104 31.64375 152.8823Q31.64375 154.39792 31.33125 155.3198Q31.034374 156.24167 30.409374 156.7573Q29.8 157.2573 28.846874 157.2573Q27.6125 157.2573 26.89375 156.36667Q26.05 155.30417 26.05 152.8823ZM27.128124 152.8823Q27.128124 154.99167 27.628124 155.6948Q28.128124 156.39792 28.846874 156.39792Q29.58125 156.39792 30.065624 155.6948Q30.565624 154.99167 30.565624 152.8823Q30.565624 150.7573 30.065624 150.0698Q29.58125 149.36667 28.83125 149.36667Q28.1125 149.36667 27.675 149.97604Q27.128124 150.7573 27.128124 152.8823ZM33.05 152.8823Q33.05 151.35104 33.3625 150.42917Q33.675 149.49167 34.284374 148.99167Q34.909374 148.49167 35.846874 148.49167Q36.534374 148.49167 37.05 148.77292Q37.58125 149.05417 37.925 149.58542Q38.26875 150.10104 38.45625 150.85104Q38.64375 151.60104 38.64375 152.8823Q38.64375 154.39792 38.33125 155.3198Q38.034374 156.24167 37.409374 156.7573Q36.8 157.2573 35.846874 157.2573Q34.6125 157.2573 33.89375 156.36667Q33.05 155.30417 33.05 152.8823ZM34.128124 152.8823Q34.128124 154.99167 34.628124 155.6948Q35.128124 156.39792 35.846874 156.39792Q36.58125 156.39792 37.065624 155.6948Q37.565624 154.99167 37.565624 152.8823Q37.565624 150.7573 37.065624 150.0698Q36.58125 149.36667 35.83125 149.36667Q35.1125 149.36667 34.675 149.97604Q34.128124 150.7573 34.128124 152.8823ZM40.05 152.8823Q40.05 151.35104 40.3625 150.42917Q40.675 149.49167 41.284374 148.99167Q41.909374 148.49167 42.846874 148.49167Q43.534374 148.49167 44.05 148.77292Q44.58125 149.05417 44.925 149.58542Q45.26875 150.10104 45.45625 150.85104Q45.64375 151.60104 45.64375 152.8823Q45.64375 154.39792 45.33125 155.3198Q45.034374 156.24167 44.409374 156.7573Q43.8 157.2573 42.846874 157.2573Q41.6125 157.2573 40.89375 156.36667Q40.05 155.30417 40.05 152.8823ZM41.128124 152.8823Q41.128124 154.99167 41.628124 155.6948Q42.128124 156.39792 42.846874 156.39792Q43.58125 156.39792 44.065624 155.6948Q44.565624 154.99167 44.565624 152.8823Q44.565624 150.7573 44.065624 150.0698Q43.58125 149.36667 42.83125 149.36667Q42.1125 149.36667 41.675 149.97604Q41.128124 150.7573 41.128124 152.8823ZM47.05 152.8823Q47.05 151.35104 47.3625 150.42917Q47.675 149.49167 48.284374 148.99167Q48.909374 148.49167 49.846874 148.49167Q50.534374 148.49167 51.05 148.77292Q51.58125 149.05417 51.925 149.58542Q52.26875 150.10104 52.45625 150.85104Q52.64375 151.60104 52.64375 152.8823Q52.64375 154.39792 52.33125 155.3198Q52.034374 156.24167 51.409374 156.7573Q50.8 157.2573 49.846874 157.2573Q48.6125 157.2573 47.89375 156.36667Q47.05 155.30417 47.05 152.8823ZM48.128124 152.8823Q48.128124 154.99167 48.628124 155.6948Q49.128124 156.39792 49.846874 156.39792Q50.58125 156.39792 51.065624 155.6948Q51.565624 154.99167 51.565624 152.8823Q51.565624 150.7573 51.065624 150.0698Q50.58125 149.36667 49.83125 149.36667Q49.1125 149.36667 48.675 149.97604Q48.128124 150.7573 48.128124 152.8823Z" fill-rule="nonzero"/><path fill="#000000" d="M24.51875 103.532295L23.471874 103.61042Q23.33125 102.98542 23.08125 102.70417Q22.64375 102.251045 22.01875 102.251045Q21.51875 102.251045 21.128124 102.532295Q20.64375 102.907295 20.346874 103.61042Q20.065624 104.29792 20.05 105.57917Q20.425 105.001045 20.971874 104.719795Q21.534374 104.438545 22.14375 104.438545Q23.190624 104.438545 23.925 105.219795Q24.675 106.001045 24.675 107.219795Q24.675 108.032295 24.315624 108.73542Q23.971874 109.42292 23.3625 109.79792Q22.753124 110.157295 21.9875 110.157295Q20.659374 110.157295 19.83125 109.188545Q19.003124 108.219795 19.003124 106.001045Q19.003124 103.501045 19.925 102.376045Q20.721874 101.39167 22.08125 101.39167Q23.096874 101.39167 23.7375 101.969795Q24.39375 102.532295 24.51875 103.532295ZM20.221874 107.23542Q20.221874 107.782295 20.440624 108.282295Q20.675 108.76667 21.08125 109.032295Q21.503124 109.29792 21.971874 109.29792Q22.628124 109.29792 23.1125 108.76667Q23.596874 108.219795 23.596874 107.29792Q23.596874 106.407295 23.1125 105.89167Q22.64375 105.376045 21.925 105.376045Q21.20625 105.376045 20.70625 105.89167Q20.221874 106.407295 20.221874 107.23542ZM26.05 105.782295Q26.05 104.251045 26.3625 103.32917Q26.675 102.39167 27.284374 101.89167Q27.909374 101.39167 28.846874 101.39167Q29.534374 101.39167 30.05 101.67292Q30.58125 101.95417 30.925 102.48542Q31.26875 103.001045 31.45625 103.751045Q31.64375 104.501045 31.64375 105.782295Q31.64375 107.29792 31.33125 108.219795Q31.034374 109.14167 30.409374 109.657295Q29.8 110.157295 28.846874 110.157295Q27.6125 110.157295 26.89375 109.26667Q26.05 108.20417 26.05 105.782295ZM27.128124 105.782295Q27.128124 107.89167 27.628124 108.594795Q28.128124 109.29792 28.846874 109.29792Q29.58125 109.29792 30.065624 108.594795Q30.565624 107.89167 30.565624 105.782295Q30.565624 103.657295 30.065624 102.969795Q29.58125 102.26667 28.83125 102.26667Q28.1125 102.26667 27.675 102.876045Q27.128124 103.657295 27.128124 105.782295ZM33.05 105.782295Q33.05 104.251045 33.3625 103.32917Q33.675 102.39167 34.284374 101.89167Q34.909374 101.39167 35.846874 101.39167Q36.534374 101.39167 37.05 101.67292Q37.58125 101.95417 37.925 102.48542Q38.26875 103.001045 38.45625 103.751045Q38.64375 104.501045 38.64375 105.782295Q38.64375 107.29792 38.33125 108.219795Q38.034374 109.14167 37.409374 109.657295Q36.8 110.157295 35.846874 110.157295Q34.6125 110.157295 33.89375 109.26667Q33.05 108.20417 33.05 105.782295ZM34.128124 105.782295Q34.128124 107.89167 34.628124 108.594795Q35.128124 109.29792 35.846874 109.29792Q36.58125 109.29792 37.065624 108.594795Q37.565624 107.89167 37.565624 105.782295Q37.565624 103.657295 37.065624 102.969795Q36.58125 102.26667 35.83125 102.26667Q35.1125 102.26667 34.675 102.876045Q34.128124 103.657295 34.128124 105.782295ZM40.05 105.782295Q40.05 104.251045 40.3625 103.32917Q40.675 102.39167 41.284374 101.89167Q41.909374 101.39167 42.846874 101.39167Q43.534374 101.39167 44.05 101.67292Q44.58125 101.95417 44.925 102.48542Q45.26875 103.001045 45.45625 103.751045Q45.64375 104.501045 45.64375 105.782295Q45.64375 107.29792 45.33125 108.219795Q45.034374 109.14167 44.409374 109.657295Q43.8 110.157295 42.846874 110.157295Q41.6125 110.157295 40.89375 109.26667Q40.05 108.20417 40.05 105.782295ZM41.128124 105.782295Q41.128124 107.89167 41.628124 108.594795Q42.128124 109.29792 42.846874 109.29792Q43.58125 109.29792 44.065624 108.594795Q44.565624 107.89167 44.565624 105.782295Q44.565624 103.657295 44.065624 102.969795Q43.58125 102.26667 42.83125 102.26667Q42.1125 102.26667 41.675 102.876045Q41.128124 103.657295 41.128124 105.782295ZM47.05 105.782295Q47.05 104.251045 47.3625 103.32917Q47.675 102.39167 48.284374 101.89167Q48.909374 101.39167 49.846874 101.39167Q50.534374 101.39167 51.05 101.67292Q51.58125 101.95417 51.925 102.48542Q52.26875 103.001045 52.45625 103.751045Q52.64375 104.501045 52.64375 105.782295Q52.64375 107.29792 52.33125 108.219795Q52.034374 109.14167 51.409374 109.657295Q50.8 110.157295 49.846874 110.157295Q48.6125 110.157295 47.89375 109.26667Q47.05 108.20417 47.05 105.782295ZM48.128124 105.782295Q48.128124 107.89167 48.628124 108.594795Q49.128124 109.29792 49.846874 109.29792Q50.58125 109.29792 51.065624 108.594795Q51.565624 107.89167 51.565624 105.782295Q51.565624 103.657295 51.065624 102.969795Q50.58125 102.26667 49.83125 102.26667Q49.1125 102.26667 48.675 102.876045Q48.128124 103.657295 48.128124 105.782295Z" fill-rule="nonzero"/><path fill="#000000" d="M20.675 58.260418Q20.01875 58.010418 19.690624 57.572918Q19.378124 57.119793 19.378124 56.510418Q19.378124 55.572918 20.05 54.932293Q20.7375 54.291668 21.846874 54.291668Q22.971874 54.291668 23.659374 54.947918Q24.346874 55.604168 24.346874 56.541668Q24.346874 57.135418 24.034374 57.572918Q23.721874 58.010418 23.08125 58.260418Q23.878124 58.510418 24.284374 59.088543Q24.690624 59.666668 24.690624 60.463543Q24.690624 61.557293 23.909374 62.307293Q23.14375 63.057293 21.8625 63.057293Q20.596874 63.057293 19.815624 62.307293Q19.034374 61.557293 19.034374 60.432293Q19.034374 59.588543 19.45625 59.026043Q19.89375 58.463543 20.675 58.260418ZM20.45625 56.463543Q20.45625 57.072918 20.846874 57.463543Q21.253124 57.854168 21.878124 57.854168Q22.4875 57.854168 22.878124 57.479168Q23.26875 57.088543 23.26875 56.526043Q23.26875 55.947918 22.8625 55.557293Q22.45625 55.151043 21.8625 55.151043Q21.253124 55.151043 20.846874 55.541668Q20.45625 55.932293 20.45625 56.463543ZM20.128124 60.432293Q20.128124 60.885418 20.33125 61.307293Q20.55 61.729168 20.971874 61.963543Q21.39375 62.197918 21.878124 62.197918Q22.628124 62.197918 23.1125 61.713543Q23.6125 61.229168 23.6125 60.479168Q23.6125 59.713543 23.1125 59.213543Q22.6125 58.713543 21.846874 58.713543Q21.096874 58.713543 20.6125 59.213543Q20.128124 59.697918 20.128124 60.432293ZM26.05 58.682293Q26.05 57.151043 26.3625 56.229168Q26.675 55.291668 27.284374 54.791668Q27.909374 54.291668 28.846874 54.291668Q29.534374 54.291668 30.05 54.572918Q30.58125 54.854168 30.925 55.385418Q31.26875 55.901043 31.45625 56.651043Q31.64375 57.401043 31.64375 58.682293Q31.64375 60.197918 31.33125 61.119793Q31.034374 62.041668 30.409374 62.557293Q29.8 63.057293 28.846874 63.057293Q27.6125 63.057293 26.89375 62.166668Q26.05 61.104168 26.05 58.682293ZM27.128124 58.682293Q27.128124 60.791668 27.628124 61.494793Q28.128124 62.197918 28.846874 62.197918Q29.58125 62.197918 30.065624 61.494793Q30.565624 60.791668 30.565624 58.682293Q30.565624 56.557293 30.065624 55.869793Q29.58125 55.166668 28.83125 55.166668Q28.1125 55.166668 27.675 55.776043Q27.128124 56.557293 27.128124 58.682293ZM33.05 58.682293Q33.05 57.151043 33.3625 56.229168Q33.675 55.291668 34.284374 54.791668Q34.909374 54.291668 35.846874 54.291668Q36.534374 54.291668 37.05 54.572918Q37.58125 54.854168 37.925 55.385418Q38.26875 55.901043 38.45625 56.651043Q38.64375 57.401043 38.64375 58.682293Q38.64375 60.197918 38.33125 61.119793Q38.034374 62.041668 37.409374 62.557293Q36.8 63.057293 35.846874 63.057293Q34.6125 63.057293 33.89375 62.166668Q33.05 61.104168 33.05 58.682293ZM34.128124 58.682293Q34.128124 60.791668 34.628124 61.494793Q35.128124 62.197918 35.846874 62.197918Q36.58125 62.197918 37.065624 61.494793Q37.565624 60.791668 37.565624 58.682293Q37.565624 56.557293 37.065624 55.869793Q36.58125 55.166668 35.83125 55.166668Q35.1125 55.166668 34.675 55.776043Q34.128124 56.557293 34.128124 58.682293ZM40.05 58.682293Q40.05 57.151043 40.3625 56.229168Q40.675 55.291668 41.284374 54.791668Q41.909374 54.291668 42.846874 54.291668Q43.534374 54.291668 44.05 54.572918Q44.58125 54.854168 44.925 55.385418Q45.26875 55.901043 45.45625 56.651043Q45.64375 57.401043 45.64375 58.682293Q45.64375 60.197918 45.33125 61.119793Q45.034374 62.041668 44.409374 62.557293Q43.8 63.057293 42.846874 63.057293Q41.6125 63.057293 40.89375 62.166668Q40.05 61.104168 40.05 58.682293ZM41.128124 58.682293Q41.128124 60.791668 41.628124 61.494793Q42.128124 62.197918 42.846874 62.197918Q43.58125 62.197918 44.065624 61.494793Q44.565624 60.791668 44.565624 58.682293Q44.565624 56.557293 44.065624 55.869793Q43.58125 55.166668 42.83125 55.166668Q42.1125 55.166668 41.675 55.776043Q41.128124 56.557293 41.128124 58.682293ZM47.05 58.682293Q47.05 57.151043 47.3625 56.229168Q47.675 55.291668 48.284374 54.791668Q48.909374 54.291668 49.846874 54.291668Q50.534374 54.291668 51.05 54.572918Q51.58125 54.854168 51.925 55.385418Q52.26875 55.901043 52.45625 56.651043Q52.64375 57.401043 52.64375 58.682293Q52.64375 60.197918 52.33125 61.119793Q52.034374 62.041668 51.409374 62.557293Q50.8 63.057293 49.846874 63.057293Q48.6125 63.057293 47.89375 62.166668Q47.05 61.104168 47.05 58.682293ZM48.128124 58.682293Q48.128124 60.791668 48.628124 61.494793Q49.128124 62.197918 49.846874 62.197918Q50.58125 62.197918 51.065624 61.494793Q51.565624 60.791668 51.565624 58.682293Q51.565624 56.557293 51.065624 55.869793Q50.58125 55.166668 49.83125 55.166668Q49.1125 55.166668 48.675 55.776043Q48.128124 56.557293 48.128124 58.682293Z" fill-rule="nonzero"/><path fill="#000000" d="M86.5886 297.31195L82.191284 292.91464L82.86524 292.2407L83.52815 292.9036Q83.31823 292.18542 83.38452 291.83188Q83.45081 291.45624 83.71598 291.19107Q84.09163 290.81543 84.71035 290.66074L85.15229 291.6109Q84.71035 291.7214 84.44518 291.98657Q84.19107 292.2407 84.14687 292.59424Q84.10268 292.9257 84.290504 293.2682Q84.55567 293.79852 85.01971 294.26257L87.32886 296.57172L86.5886 297.31195ZM91.019066 290.05307L91.88085 289.36807Q92.37804 290.2188 92.25651 291.09164Q92.13497 291.96448 91.37262 292.7268Q90.4114 293.68805 89.24025 293.66595Q88.080154 293.63278 87.008446 292.5611Q85.903595 291.45624 85.870445 290.27405Q85.826256 289.0808 86.73223 288.1748Q87.61612 287.29092 88.76517 287.3351Q89.92526 287.3683 91.019066 288.46207Q91.08536 288.52838 91.21794 288.66095L87.93652 291.94238Q88.70992 292.62738 89.46122 292.64948Q90.20148 292.66052 90.75391 292.1081Q91.1627 291.6993 91.240036 291.20212Q91.317375 290.68283 91.019066 290.05307ZM87.37305 291.2905L89.82583 288.83774Q89.218155 288.31845 88.70992 288.27426Q87.91443 288.20795 87.35095 288.77142Q86.83167 289.2907 86.820625 289.9868Q86.820625 290.67178 87.37305 291.2905ZM95.63736 285.03702L96.466 284.40726Q97.095764 285.2801 97.02947 286.20816Q96.96319 287.13626 96.245026 287.8544Q95.33905 288.76038 94.20105 288.72723Q93.06305 288.672 91.95819 287.56714Q91.25109 286.86005 90.952774 286.0977Q90.654465 285.31323 90.86439 284.573Q91.08536 283.8217 91.65988 283.24716Q92.36699 282.54007 93.184586 282.45166Q94.002174 282.3412 94.808716 282.88257L94.19 283.72226Q93.64862 283.37976 93.16248 283.42395Q92.6653 283.4571 92.28965 283.83273Q91.72617 284.3962 91.78142 285.15857Q91.825615 285.90985 92.69845 286.78268Q93.593376 287.67764 94.33363 287.73288Q95.07388 287.78812 95.615265 287.24673Q96.057205 286.8048 96.0793 286.25238Q96.11245 285.6889 95.63736 285.03702ZM100.27775 287.00366L99.4933 286.396Q99.80266 286.21924 99.990486 286.0314Q100.23355 285.78833 100.288795 285.5563Q100.366135 285.32428 100.321945 285.08124Q100.2667 284.8934 99.990486 284.28574Q99.94629 284.21945 99.88 284.04266L93.79225 281.31366L94.59879 280.50714L98.05699 282.13126Q98.7199 282.4406 99.404915 282.83838Q99.01821 282.1865 98.708855 281.5236L97.08472 278.0212L97.824974 277.28094L100.6313 283.42395Q101.07324 284.4183 101.205826 284.83817Q101.3826 285.4127 101.283165 285.84357Q101.205826 286.27448 100.85227 286.62802Q100.64235 286.83795 100.27775 287.00366ZM103.415535 277.25885L104.24417 276.6291Q104.87394 277.50192 104.80765 278.43Q104.741356 279.35806 104.0232 280.07623Q103.117226 280.9822 101.979225 280.94907Q100.841225 280.89383 99.73637 279.78897Q99.02926 279.08188 98.73095 278.31952Q98.43264 277.53506 98.64256 276.79483Q98.86353 276.04352 99.43806 275.469Q100.145164 274.76187 100.96276 274.6735Q101.78035 274.56302 102.58689 275.1044L101.96818 275.9441Q101.426796 275.60156 100.94066 275.64578Q100.443474 275.67892 100.067825 276.05457Q99.50435 276.61804 99.55959 277.3804Q99.60378 278.13168 100.47662 279.00452Q101.37155 279.89944 102.11181 279.9547Q102.85206 280.00995 103.39344 279.46857Q103.83538 279.0266 103.857475 278.47418Q103.89062 277.9107 103.415535 277.25885ZM106.37654 277.52402L100.29984 271.44733L101.05115 270.696L107.127846 276.7727L106.37654 277.52402ZM103.305046 270.16568L102.44326 269.3039L103.194565 268.5526L104.05635 269.4144L103.305046 270.16568ZM108.51996 275.3806L104.12264 270.98328L104.87394 270.232L109.27126 274.6293L108.51996 275.3806ZM110.64128 273.25928L106.24396 268.86197L106.906876 268.19904L107.52559 268.81778Q107.29357 267.61346 108.2106 266.69644Q108.60835 266.2987 109.083435 266.11087Q109.56958 265.912 109.96732 265.97827Q110.365074 266.0446 110.74072 266.28766Q110.983795 266.46442 111.503075 266.9837L114.20997 269.69058L113.46971 270.43085L110.79596 267.7571Q110.331924 267.29306 110.02256 267.1605Q109.7132 267.0279 109.35965 267.1163Q108.99505 267.19363 108.69674 267.49194Q108.22165 267.96704 108.17746 268.62994Q108.13326 269.27075 108.97295 270.11044L111.38153 272.51904L110.64128 273.25928ZM115.812004 268.81775L116.651695 268.19904Q117.02734 268.4863 117.391945 268.43106Q117.87808 268.36478 118.35317 267.88968Q118.87245 267.3704 118.93874 266.88428Q119.01608 266.3871 118.750916 265.92303Q118.58519 265.62473 117.84494 264.9066Q117.93333 265.96722 117.204124 266.69644Q116.29814 267.60242 115.14909 267.44775Q113.989 267.282 113.083015 266.37604Q112.45325 265.74628 112.14389 264.99496Q111.834526 264.22156 111.97816 263.50342Q112.12179 262.78525 112.70737 262.19968Q113.49181 261.41525 114.629814 261.53677L114.09948 261.00644L114.78449 260.32144L118.58519 264.12213Q119.6127 265.14966 119.83367 265.79047Q120.05465 266.43127 119.84473 267.12735Q119.64585 267.83444 118.98294 268.49734Q118.198494 269.2818 117.3588 269.4144Q116.51911 269.54697 115.812004 268.81775ZM113.79012 265.55844Q114.65191 266.42023 115.39216 266.47546Q116.132416 266.5307 116.651695 266.01144Q117.170975 265.49216 117.11573 264.7519Q117.07154 264.0006 116.23185 263.16092Q115.42531 262.35437 114.65191 262.31018Q113.88956 262.2549 113.381325 262.76315Q112.88414 263.26035 112.939384 264.0227Q112.99463 264.76294 113.79012 265.55844ZM118.419464 261.83508L117.66816 261.08377L119.966255 258.78568L120.71756 259.537L118.419464 261.83508Z" fill-rule="nonzero"/><path fill="#000000" d="M157.47491 308.61462L151.39822 302.53793L152.13847 301.79767L154.31503 303.97424Q154.23769 302.85834 155.03319 302.06284Q155.53036 301.56564 156.0828 301.41098Q156.63522 301.2342 157.13242 301.42203Q157.61855 301.5988 158.27042 302.25067L161.05464 305.03488L160.31439 305.77515L157.53015 302.9909Q156.96669 302.42743 156.4695 302.41638Q155.97232 302.40533 155.53036 302.8473Q155.19891 303.17874 155.07738 303.65384Q154.95584 304.1068 155.12158 304.53772Q155.28731 304.9465 155.80658 305.4658L158.21516 307.87436L157.47491 308.61462ZM165.30833 300.78122L164.65646 300.12933Q164.88849 301.39993 164.00461 302.2838Q163.6179 302.6705 163.13177 302.8694Q162.64563 303.04614 162.25894 302.9909Q161.86119 302.92462 161.46344 302.65945Q161.20932 302.49374 160.72319 302.0076L158.00525 299.28964L158.75655 298.53836L161.19827 300.98007Q161.7728 301.5546 162.02692 301.72034Q162.38046 301.9413 162.77821 301.8971Q163.17596 301.8308 163.51846 301.4883Q163.84993 301.15686 163.97147 300.70386Q164.09299 300.2288 163.91621 299.80893Q163.75049 299.37805 163.18701 298.81458L160.83368 296.4612L161.57393 295.72098L165.97125 300.1183L165.30833 300.78122ZM167.3744 298.71512L162.9771 294.3178L163.64 293.6549L164.25873 294.27362Q164.0267 293.06934 164.94373 292.15228Q165.34148 291.75455 165.81656 291.5667Q166.3027 291.36786 166.70045 291.43414Q167.09819 291.50043 167.47385 291.7435Q167.71692 291.9203 168.23619 292.43954L170.94308 295.14645L170.20284 295.8867L167.52908 293.21295Q167.06505 292.7489 166.75569 292.61633Q166.44633 292.48376 166.09277 292.57214Q165.72818 292.64948 165.42987 292.94778Q164.95477 293.42288 164.91058 294.0858Q164.8664 294.7266 165.70609 295.56628L168.11467 297.97488L167.3744 298.71512ZM173.5837 289.27966L174.41234 288.6499Q175.0421 289.52274 174.97581 290.4508Q174.90952 291.3789 174.19136 292.09705Q173.28539 293.00302 172.14738 292.96988Q171.00938 292.91464 169.90453 291.80978Q169.19742 291.1027 168.89911 290.34033Q168.6008 289.55588 168.81071 288.81564Q169.0317 288.06433 169.60622 287.4898Q170.31332 286.7827 171.13092 286.6943Q171.9485 286.58383 172.75505 287.1252L172.13634 287.9649Q171.59496 287.6224 171.10883 287.6666Q170.61163 287.69974 170.23598 288.07538Q169.6725 288.63885 169.72775 289.4012Q169.77194 290.1525 170.64478 291.02533Q171.53972 291.9203 172.27997 291.97552Q173.02022 292.03076 173.5616 291.48938Q174.00354 291.04742 174.02563 290.49503Q174.05878 289.93155 173.5837 289.27966ZM176.5668 289.52274L170.4901 283.44604L171.23035 282.70578L173.40692 284.88235Q173.32957 283.76645 174.12508 282.97095Q174.62225 282.47375 175.17468 282.3191Q175.72711 282.1423 176.22429 282.33014Q176.71043 282.50693 177.36229 283.15878L180.14653 285.94302L179.40628 286.68326L176.62204 283.89902Q176.05856 283.33557 175.56139 283.3245Q175.0642 283.31345 174.62225 283.7554Q174.2908 284.08685 174.16927 284.56195Q174.04773 285.01492 174.21346 285.44583Q174.37918 285.8546 174.89847 286.3739L177.30705 288.7825L176.5668 289.52274ZM183.10754 280.15356L183.96933 279.46857Q184.4665 280.3193 184.34497 281.19214Q184.22343 282.06497 183.46109 282.82733Q182.49986 283.78854 181.32872 283.76645Q180.16862 283.7333 179.09691 282.6616Q177.99207 281.55673 177.95891 280.37454Q177.91472 279.1813 178.82071 278.27533Q179.70459 277.39145 180.85364 277.43564Q182.01373 277.46878 183.10754 278.5626Q183.17383 278.62888 183.30641 278.76144L180.025 282.04288Q180.79839 282.72787 181.5497 282.74997Q182.28995 282.76102 182.84238 282.20862Q183.25117 281.7998 183.3285 281.3026Q183.40585 280.78336 183.10754 280.15356ZM179.46152 281.39102L181.91429 278.93823Q181.30663 278.41895 180.79839 278.37476Q180.0029 278.30847 179.43942 278.87195Q178.92014 279.39124 178.90909 280.08728Q178.90909 280.7723 179.46152 281.39102ZM186.4663 279.62326L182.06897 275.22592L182.73189 274.56302L183.3506 275.18173Q183.11859 273.97745 184.03561 273.06042Q184.43336 272.66266 184.90845 272.47482Q185.39459 272.27597 185.79233 272.34225Q186.19008 272.40854 186.56573 272.6516Q186.80879 272.8284 187.32808 273.3477L190.03497 276.05457L189.29472 276.79483L186.62097 274.12106Q186.15694 273.65704 185.84758 273.52444Q185.53822 273.39188 185.18466 273.48026Q184.82007 273.5576 184.52174 273.8559Q184.04666 274.331 184.00247 274.9939Q183.95827 275.63474 184.79796 276.4744L187.20654 278.883L186.4663 279.62326ZM192.37726 272.38644L193.13962 272.92783Q192.8855 273.3145 192.64243 273.5576Q192.23363 273.9664 191.89113 274.06583Q191.53758 274.1542 191.22821 274.04373Q190.9299 273.9222 190.25595 273.24823L187.72583 270.7181L187.18445 271.2595L186.60992 270.68497L187.1513 270.1436L186.0575 269.0498L186.3558 267.86758L187.89156 269.40335L188.64285 268.65204L189.21738 269.22656L188.46608 269.97787L191.04039 272.5522Q191.3608 272.8726 191.48233 272.92783Q191.61491 272.97202 191.75854 272.93887Q191.90218 272.90573 192.0679 272.74Q192.20049 272.60742 192.37726 272.38644ZM191.06248 270.62973Q189.8361 269.40335 189.92448 268.1438Q190.00183 267.0942 190.81943 266.2766Q191.7254 265.37064 192.89655 265.39273Q194.06769 265.39273 195.11731 266.44232Q195.96805 267.29306 196.20006 268.03333Q196.43208 268.7736 196.2111 269.54697Q195.99014 270.29828 195.41562 270.8728Q194.49858 271.78983 193.33849 271.77878Q192.17839 271.74564 191.06248 270.62973ZM191.82484 269.86737Q192.66452 270.70706 193.44897 270.7623Q194.24446 270.80652 194.79689 270.2541Q195.36037 269.6906 195.30513 268.90616Q195.2499 268.1217 194.38809 267.25992Q193.57051 266.44232 192.77501 266.39813Q191.99057 266.3429 191.43814 266.89532Q190.88571 267.44775 190.9299 268.24326Q190.9741 269.01663 191.82484 269.86737ZM196.01224 265.68Q194.78584 264.45358 194.87424 263.19406Q194.95157 262.14444 195.76917 261.32684Q196.67514 260.42087 197.8463 260.44296Q199.01744 260.44296 200.06705 261.49258Q200.91779 262.34332 201.14981 263.0836Q201.38182 263.82382 201.16086 264.59723Q200.93988 265.34854 200.36536 265.92307Q199.44833 266.8401 198.28824 266.82904Q197.12814 266.7959 196.01224 265.68ZM196.77458 264.91763Q197.61427 265.75732 198.39873 265.81256Q199.19421 265.85675 199.74664 265.30432Q200.31012 264.74084 200.25488 263.95642Q200.19963 263.17197 199.33784 262.31018Q198.52025 261.49258 197.72476 261.4484Q196.9403 261.39316 196.38788 261.9456Q195.83546 262.49802 195.87965 263.2935Q195.92384 264.0669 196.77458 264.91763ZM204.39809 260.36563L205.16043 260.907Q204.90631 261.2937 204.66324 261.53677Q204.25446 261.9456 203.91194 262.045Q203.5584 262.1334 203.24904 262.02292Q202.95071 261.90137 202.27676 261.22742L199.74664 258.6973L199.20526 259.23868L198.63074 258.66415L199.17212 258.12277L198.07831 257.02896L198.37662 255.84679L199.91237 257.38254L200.66367 256.63123L201.23819 257.20575L200.4869 257.95706L203.0612 260.53137Q203.3816 260.85178 203.50314 260.907Q203.63573 260.9512 203.77936 260.91806Q203.92299 260.88492 204.08871 260.71918Q204.2213 260.5866 204.39809 260.36563Z" fill-rule="nonzero"/><path fill="#000000" d="M271.03073 280.62866L268.87625 278.47418Q268.94254 278.89404 268.78787 279.38016Q268.63318 279.8442 268.27963 280.19775Q267.49518 280.9822 266.313 280.92697Q265.11975 280.86066 264.02594 279.76688Q263.36304 279.10394 263.07578 278.35266Q262.77747 277.5903 262.94318 276.89426Q263.10892 276.1761 263.6282 275.6568Q264.4458 274.8392 265.59485 275.06018L265.00928 274.4746L265.68323 273.80066L271.77097 279.8884L271.03073 280.62866ZM264.82144 279.03766Q265.67218 279.8884 266.4456 279.95468Q267.23 280.00992 267.7272 279.51276Q268.2023 279.03766 268.14706 278.2974Q268.08075 277.5461 267.26315 276.72852Q266.37927 275.84464 265.57275 275.7673Q264.77725 275.6789 264.28006 276.1761Q263.80496 276.65118 263.88232 277.4135Q263.9486 278.16483 264.82144 279.03766ZM274.36737 273.91113L273.7155 273.25928Q273.94754 274.52985 273.06366 275.41373Q272.67694 275.80045 272.19083 275.9993Q271.70468 276.1761 271.318 276.12085Q270.92023 276.05457 270.5225 275.7894Q270.26837 275.62366 269.78223 275.1375L267.0643 272.4196L267.81558 271.66827L270.25732 274.11002Q270.83185 274.68454 271.08597 274.85025Q271.4395 275.07123 271.83725 275.02704Q272.23502 274.96075 272.5775 274.61826Q272.90897 274.28677 273.03052 273.8338Q273.15204 273.3587 272.97525 272.93887Q272.80954 272.50797 272.24606 271.9445L269.89273 269.59116L270.63297 268.8509L275.0303 273.24823L274.36737 273.91113ZM279.31714 268.9614L278.66525 268.3095Q278.89728 269.5801 278.0134 270.464Q277.6267 270.85068 277.14056 271.04956Q276.65442 271.22635 276.26773 271.17108Q275.87 271.1048 275.47223 270.83963Q275.2181 270.67392 274.732 270.18777L272.01404 267.46985L272.76535 266.71854L275.20706 269.16025Q275.7816 269.73477 276.0357 269.9005Q276.38925 270.1215 276.78702 270.0773Q277.18475 270.011 277.52725 269.6685Q277.85873 269.33704 277.98026 268.88403Q278.10178 268.40897 277.92502 267.9891Q277.75928 267.55823 277.1958 266.99475L274.84247 264.64142L275.58273 263.90115L279.98004 268.29846L279.31714 268.9614ZM280.88602 267.3925L280.20102 263.50342L276.61023 262.87363L277.5383 261.94556L279.23978 262.2991Q279.72592 262.4096 280.04633 262.48694Q279.9469 262.03397 279.89166 261.66934L279.59335 259.89053L280.48828 258.9956L281.02966 262.58636L284.9961 263.28244L284.0901 264.18842L281.8141 263.72437L281.20642 263.60284L281.78094 266.49756L280.88602 267.3925ZM282.79742 261.83508L282.0461 261.08377L284.3442 258.78568L285.09552 259.537L282.79742 261.83508Z" fill-rule="nonzero"/><path fill="#000000" d="M313.21292 314.0284L314.04156 313.39865Q314.67133 314.27148 314.60504 315.19955Q314.53873 316.12762 313.8206 316.8458Q312.9146 317.75177 311.7766 317.71863Q310.6386 317.66336 309.53375 316.55853Q308.82663 315.8514 308.52832 315.08905Q308.23 314.30463 308.43994 313.56436Q308.66092 312.81308 309.23544 312.23853Q309.94254 311.53143 310.76013 311.44305Q311.57773 311.33255 312.38428 311.87393L311.76556 312.71362Q311.22418 312.37112 310.73804 312.4153Q310.24084 312.44846 309.8652 312.82413Q309.30173 313.3876 309.35696 314.14993Q309.40115 314.90125 310.274 315.77408Q311.16895 316.669 311.90918 316.72424Q312.64944 316.77948 313.19083 316.2381Q313.63275 315.79617 313.65485 315.24374Q313.688 314.68027 313.21292 314.0284ZM316.17392 314.29358L310.09723 308.21686L310.8485 307.46558L316.92523 313.54227L316.17392 314.29358ZM316.196 310.62546L315.44473 309.87415L317.74283 307.57605L318.4941 308.32736L316.196 310.62546ZM322.107 307.03467L322.86935 307.57605Q322.61523 307.96277 322.37216 308.2058Q321.96335 308.61462 321.62085 308.71405Q321.2673 308.80243 320.95795 308.69196Q320.65964 308.57043 319.98566 307.89645L317.45557 305.36633L316.91418 305.9077L316.33966 305.3332L316.88104 304.7918L315.78723 303.69803L316.08554 302.5158L317.62128 304.05157L318.3726 303.30026L318.9471 303.8748L318.1958 304.6261L320.7701 307.2004Q321.0905 307.5208 321.21207 307.57605Q321.34464 307.62024 321.48828 307.5871Q321.6319 307.55396 321.79764 307.38824Q321.9302 307.25565 322.107 307.03467ZM323.9521 306.51538L323.25604 307.21146L317.17935 301.13477L317.93063 300.38345L320.09616 302.54898Q319.98566 301.4883 320.71487 300.7591Q321.12366 300.3503 321.64294 300.16248Q322.16223 299.95255 322.69257 300.01886Q323.23395 300.0741 323.78638 300.36136Q324.3388 300.64862 324.81387 301.12372Q325.94083 302.25067 325.99606 303.43286Q326.05133 304.61505 325.27792 305.38846Q324.49347 306.17288 323.39966 305.96298L323.9521 306.51538ZM321.70923 304.29465Q322.49368 305.07907 323.0682 305.21167Q323.99628 305.43265 324.59293 304.83603Q325.07904 304.34988 325.01276 303.57648Q324.95752 302.79202 324.10678 301.94128Q323.245 301.0795 322.49368 301.0132Q321.7424 300.94693 321.25626 301.43307Q320.7701 301.9192 320.8364 302.7147Q320.9027 303.4881 321.70923 304.29465ZM328.21683 302.25067L323.81952 297.85333L324.48242 297.19043L325.10114 297.80914Q324.86914 296.60486 325.78616 295.68784Q326.1839 295.29007 326.659 295.10226Q327.1451 294.90338 327.54288 294.96967Q327.9406 295.03595 328.31628 295.27902Q328.55933 295.4558 329.0786 295.9751L331.78552 298.68198L331.04526 299.42224L328.37152 296.74847Q327.90747 296.28445 327.5981 296.15186Q327.28876 296.0193 326.9352 296.10767Q326.5706 296.185 326.27228 296.4833Q325.7972 296.9584 325.75302 297.6213Q325.7088 298.26215 326.5485 299.10184L328.9571 301.5104L328.21683 302.25067ZM333.14447 297.323L327.06778 291.2463L327.8191 290.495L333.89578 296.57172L333.14447 297.323ZM333.1666 293.65488L332.41528 292.9036L334.71338 290.6055L335.4647 291.35678L333.1666 293.65488ZM338.3373 292.8594L339.177 292.2407Q339.55264 292.52795 339.91724 292.4727Q340.40338 292.4064 340.87848 291.9313Q341.39774 291.41205 341.46405 290.9259Q341.54138 290.4287 341.2762 289.9647Q341.11047 289.66635 340.37024 288.9482Q340.45862 290.00888 339.72943 290.73807Q338.82343 291.64404 337.67438 291.48938Q336.51428 291.32364 335.6083 290.41766Q334.97855 289.7879 334.6692 289.0366Q334.35983 288.2632 334.50345 287.54504Q334.6471 286.8269 335.23267 286.24133Q336.01712 285.45688 337.15512 285.5784L336.6248 285.04807L337.30978 284.36307L341.11047 288.16376Q342.138 289.19128 342.35898 289.8321Q342.57996 290.4729 342.37003 291.16898Q342.17114 291.87607 341.50824 292.539Q340.7238 293.32343 339.8841 293.45602Q339.0444 293.5886 338.3373 292.8594ZM336.31543 289.60007Q337.17722 290.46185 337.91745 290.5171Q338.6577 290.57236 339.177 290.05307Q339.69626 289.53378 339.64102 288.79352Q339.59683 288.04224 338.75714 287.20255Q337.9506 286.396 337.17722 286.3518Q336.41486 286.29657 335.90662 286.80478Q335.40942 287.30197 335.4647 288.06433Q335.51993 288.80457 336.31543 289.60007ZM341.453 286.38495L342.07172 285.54526Q342.57996 285.9209 343.08817 285.8767Q343.60745 285.82147 344.12674 285.3022Q344.63498 284.79395 344.67917 284.35202Q344.72336 283.88797 344.4361 283.6007Q344.18198 283.3466 343.81738 283.42395Q343.56326 283.4792 342.8009 283.93216Q341.7734 284.53986 341.30936 284.7166Q340.8453 284.8713 340.41443 284.77185Q339.98352 284.67242 339.65207 284.34097Q339.3648 284.0537 339.2433 283.667Q339.12173 283.2803 339.18805 282.88257Q339.2433 282.58426 339.45322 282.19754Q339.66312 281.81085 340.0167 281.4573Q340.5249 280.94907 341.06628 280.71704Q341.60767 280.46292 342.04962 280.52924Q342.49155 280.59552 342.9777 280.94907L342.34793 281.7777Q341.97226 281.49045 341.54138 281.5457Q341.11047 281.57883 340.66855 282.02078Q340.1603 282.52902 340.11612 282.92676Q340.06088 283.31345 340.2929 283.54547Q340.43652 283.68912 340.6354 283.7112Q340.85635 283.7333 341.12152 283.6228Q341.2762 283.55652 341.97226 283.14774Q342.98874 282.5732 343.43066 282.39642Q343.87262 282.21964 344.30353 282.297Q344.7344 282.37433 345.1211 282.76102Q345.49677 283.1367 345.60724 283.68912Q345.7177 284.21942 345.49677 284.81607Q345.26474 285.40164 344.74545 285.9209Q343.88367 286.78268 343.07712 286.88214Q342.27057 286.95947 341.453 286.38495ZM349.6068 278.03226L350.4686 277.34723Q350.9658 278.19797 350.84424 279.0708Q350.72272 279.94363 349.96036 280.706Q348.99915 281.6672 347.828 281.6451Q346.6679 281.61197 345.5962 280.54028Q344.49133 279.43542 344.4582 278.25323Q344.414 277.05997 345.31998 276.154Q346.20386 275.2701 347.3529 275.3143Q348.513 275.34744 349.6068 276.44125Q349.6731 276.50754 349.8057 276.64014L346.52426 279.92154Q347.29767 280.60657 348.04898 280.62866Q348.7892 280.6397 349.34164 280.08728Q349.75046 279.6785 349.8278 279.1813Q349.90512 278.66202 349.6068 278.03226ZM345.9608 279.26968L348.41357 276.81693Q347.8059 276.29764 347.29767 276.25345Q346.50217 276.18713 345.9387 276.7506Q345.4194 277.2699 345.40836 277.96597Q345.40836 278.65097 345.9608 279.26968ZM352.95453 277.51297L348.5572 273.11566L349.23117 272.44168L349.89407 273.1046Q349.68414 272.38644 349.75046 272.0329Q349.81674 271.65723 350.0819 271.3921Q350.45755 271.01642 351.07626 270.86176L351.51822 271.81192Q351.07626 271.9224 350.8111 272.18756Q350.55698 272.44168 350.5128 272.79523Q350.4686 273.1267 350.65643 273.4692Q350.9216 273.99954 351.38562 274.46356L353.69476 276.7727L352.95453 277.51297ZM357.00934 273.45816L350.9437 270.72916L351.72815 269.9447L355.30786 271.62408Q355.8824 271.91135 356.46796 272.23175Q356.22488 271.78983 355.91553 271.12692L354.21405 267.4588L354.9764 266.69644L357.70538 272.7621L357.00934 273.45816ZM360.92053 266.71854L361.78232 266.03354Q362.27948 266.88428 362.15796 267.7571Q362.03644 268.62994 361.27408 269.3923Q360.31287 270.35352 359.1417 270.33142Q357.9816 270.29828 356.9099 269.22656Q355.80505 268.1217 355.7719 266.9395Q355.72772 265.74628 356.6337 264.8403Q357.51758 263.95642 358.66663 264.0006Q359.82672 264.03375 360.92053 265.12756Q360.98682 265.19385 361.1194 265.32642L357.83798 268.60785Q358.6114 269.29285 359.36267 269.31494Q360.10294 269.326 360.65536 268.77356Q361.06415 268.36478 361.14148 267.86758Q361.21884 267.3483 360.92053 266.71854ZM357.2745 267.956L359.7273 265.5032Q359.1196 264.98392 358.6114 264.93973Q357.8159 264.87344 357.2524 265.43692Q356.73312 265.9562 356.72208 266.65225Q356.72208 267.33725 357.2745 267.956ZM364.26822 266.19925L359.8709 261.80194L360.54486 261.128L361.2078 261.7909Q360.99786 261.07272 361.06415 260.71918Q361.13043 260.34354 361.3956 260.07837Q361.77127 259.70273 362.38998 259.54803L362.8319 260.4982Q362.38998 260.6087 362.12482 260.87387Q361.8707 261.128 361.8265 261.48154Q361.78232 261.813 361.97012 262.1555Q362.2353 262.68582 362.69934 263.14987L365.00848 265.459L364.26822 266.19925ZM364.9864 261.83508L364.23508 261.08377L366.53317 258.78568L367.2845 259.537L364.9864 261.83508Z" fill-rule="nonzero"/><path fill="#000000" d="M425.3545 287.30197L419.60925 284.2526L420.38263 283.4792L423.61987 285.3243L424.82416 285.99826Q424.77997 285.90988 424.15018 284.86026L422.27194 281.58987L423.0343 280.82755L426.24942 282.71683L427.3101 283.33557L426.71344 282.2307L424.92358 278.93823L425.6528 278.20905L428.66904 283.98743L427.89566 284.76083L424.559 282.81628L423.64197 282.2528L426.13892 286.51755L425.3545 287.30197ZM428.437 279.8221Q427.21063 278.59573 427.299 277.3362Q427.37637 276.2866 428.19397 275.469Q429.09995 274.56302 430.2711 274.5851Q431.44223 274.5851 432.49185 275.63474Q433.3426 276.48547 433.5746 277.2257Q433.8066 277.96597 433.58563 278.73938Q433.3647 279.49066 432.79016 280.0652Q431.8731 280.9822 430.713 280.97116Q429.55292 280.93802 428.437 279.8221ZM429.19937 279.05978Q430.03906 279.89948 430.82352 279.9547Q431.61902 279.9989 432.17145 279.44647Q432.73492 278.883 432.67966 278.09854Q432.62442 277.31412 431.76263 276.45233Q430.94504 275.63474 430.14954 275.5905Q429.3651 275.53528 428.81268 276.0877Q428.26025 276.64014 428.30444 277.43564Q428.34863 278.20905 429.19937 279.05978ZM433.38678 274.87238Q432.16037 273.646 432.24878 272.38644Q432.3261 271.33685 433.1437 270.51926Q434.04968 269.61328 435.22083 269.63538Q436.39197 269.63538 437.4416 270.68497Q438.29233 271.5357 438.52435 272.27597Q438.75638 273.0162 438.5354 273.7896Q438.31442 274.54092 437.7399 275.11545Q436.82288 276.03247 435.66278 276.02142Q434.5027 275.98828 433.38678 274.87238ZM434.1491 274.11002Q434.9888 274.9497 435.77325 275.00494Q436.56876 275.04916 437.1212 274.49673Q437.68466 273.93326 437.62943 273.1488Q437.57416 272.36435 436.71237 271.50256Q435.8948 270.68497 435.0993 270.64078Q434.31485 270.58554 433.76242 271.13797Q433.21 271.6904 433.25418 272.4859Q433.29837 273.25928 434.1491 274.11002ZM440.8114 271.84506L434.7347 265.76837L435.486 265.01706L438.95523 268.48633L438.9221 264.93973L439.89438 263.96747L439.82806 267.282L444.45743 268.19907L443.54037 269.1161L439.82806 268.3206L439.81702 269.3481L441.56268 271.09378L440.8114 271.84506ZM439.8391 262.3875L438.97733 261.52573L439.72864 260.77444L440.59042 261.63623L439.8391 262.3875ZM445.05405 267.60245L440.6567 263.2051L441.40802 262.45383L445.80533 266.85114L445.05405 267.60245ZM448.76636 261.0617L449.62814 260.37668Q450.1253 261.22742 450.00378 262.10025Q449.88226 262.97308 449.1199 263.73544Q448.15866 264.69666 446.98752 264.67456Q445.82742 264.64142 444.75574 263.5697Q443.65088 262.46487 443.61774 261.28265Q443.57352 260.08942 444.47952 259.18344Q445.3634 258.29956 446.51245 258.34375Q447.67255 258.3769 448.76636 259.4707Q448.83264 259.537 448.9652 259.6696L445.6838 262.951Q446.4572 263.63602 447.2085 263.6581Q447.94876 263.66916 448.5012 263.11673Q448.90997 262.70792 448.9873 262.21075Q449.06467 261.69147 448.76636 261.0617ZM445.12033 262.29913L447.5731 259.84634Q446.96542 259.3271 446.4572 259.28287Q445.6617 259.21658 445.09824 259.78006Q444.57895 260.29935 444.5679 260.9954Q444.5679 261.68042 445.12033 262.29913Z" fill-rule="nonzero"/><path fill="#000000" d="M518.8572 275.98825L513.11194 272.93887L513.8853 272.16547L517.12256 274.0106L518.32684 274.68454Q518.28265 274.59616 517.6529 273.54654L515.77466 270.27615L516.537 269.51382L519.75214 271.4031L520.81274 272.02185L520.2161 270.917L518.4263 267.6245L519.1555 266.89532L522.17175 272.6737L521.3983 273.4471L518.0617 271.50256L517.14465 270.9391L519.6416 275.20383L518.8572 275.98825ZM521.9397 268.5084Q520.7133 267.282 520.8017 266.0225Q520.8791 264.97287 521.69666 264.15527Q522.60266 263.2493 523.7738 263.2714Q524.94495 263.2714 525.99457 264.321Q526.8453 265.17175 527.0773 265.912Q527.3093 266.65225 527.0883 267.42563Q526.8674 268.17694 526.29285 268.75146Q525.3758 269.6685 524.2157 269.65744Q523.0556 269.6243 521.9397 268.5084ZM522.7021 267.74606Q523.54175 268.58575 524.32623 268.641Q525.1217 268.68518 525.67413 268.13275Q526.2376 267.56927 526.1824 266.78482Q526.12714 266.00037 525.2653 265.13858Q524.44775 264.321 523.6522 264.2768Q522.8678 264.22156 522.31537 264.774Q521.76294 265.32642 521.8071 266.12192Q521.8513 266.89532 522.7021 267.74606ZM526.88947 263.55865Q525.6631 262.33228 525.75146 261.07272Q525.8288 260.02313 526.6464 259.20554Q527.55237 258.29956 528.7235 258.32166Q529.89465 258.32166 530.9443 259.37125Q531.79504 260.222 532.02704 260.96225Q532.2591 261.70248 532.0381 262.4759Q531.81714 263.2272 531.2426 263.80173Q530.32556 264.71875 529.16547 264.7077Q528.0054 264.67456 526.88947 263.55865ZM527.6518 262.7963Q528.4915 263.636 529.27594 263.69122Q530.0715 263.73544 530.6239 263.183Q531.1874 262.61954 531.13214 261.83508Q531.07684 261.05063 530.2151 260.18884Q529.39746 259.37125 528.602 259.32706Q527.81757 259.27182 527.26514 259.82425Q526.7127 260.37668 526.7569 261.17218Q526.8011 261.94556 527.6518 262.7963Z" fill-rule="nonzero"/><path fill="#757575" d="M24.3625 35.55L24.3625 32.471874L18.784374 32.471874L18.784374 31.01875L24.659374 22.659374L25.95625 22.659374L25.95625 31.01875L27.690624 31.01875L27.690624 32.471874L25.95625 32.471874L25.95625 35.55L24.3625 35.55ZM24.3625 31.01875L24.3625 25.20625L20.33125 31.01875L24.3625 31.01875ZM29.3 29.190624Q29.3 26.909374 29.76875 25.51875Q30.2375 24.128124 31.159374 23.378124Q32.096874 22.6125 33.503124 22.6125Q34.534374 22.6125 35.315624 23.034374Q36.096874 23.440624 36.596874 24.2375Q37.1125 25.01875 37.409374 26.159374Q37.70625 27.284374 37.70625 29.190624Q37.70625 31.45625 37.2375 32.8625Q36.76875 34.253124 35.83125 35.01875Q34.909374 35.76875 33.503124 35.76875Q31.628124 35.76875 30.565624 34.440624Q29.3 32.83125 29.3 29.190624ZM30.925 29.190624Q30.925 32.3625 31.659374 33.425Q32.409374 34.471874 33.503124 34.471874Q34.58125 34.471874 35.33125 33.425Q36.08125 32.3625 36.08125 29.190624Q36.08125 26.01875 35.33125 24.971874Q34.58125 23.925 33.4875 23.925Q32.39375 23.925 31.7375 24.846874Q30.925 26.01875 30.925 29.190624ZM39.3 29.190624Q39.3 26.909374 39.76875 25.51875Q40.2375 24.128124 41.159374 23.378124Q42.096874 22.6125 43.503124 22.6125Q44.534374 22.6125 45.315624 23.034374Q46.096874 23.440624 46.596874 24.2375Q47.1125 25.01875 47.409374 26.159374Q47.70625 27.284374 47.70625 29.190624Q47.70625 31.45625 47.2375 32.8625Q46.76875 34.253124 45.83125 35.01875Q44.909374 35.76875 43.503124 35.76875Q41.628124 35.76875 40.565624 34.440624Q39.3 32.83125 39.3 29.190624ZM40.925 29.190624Q40.925 32.3625 41.659374 33.425Q42.409374 34.471874 43.503124 34.471874Q44.58125 34.471874 45.33125 33.425Q46.08125 32.3625 46.08125 29.190624Q46.08125 26.01875 45.33125 24.971874Q44.58125 23.925 43.4875 23.925Q42.39375 23.925 41.7375 24.846874Q40.925 26.01875 40.925 29.190624ZM60.83125 32.128124L62.378124 32.33125Q62.128124 33.940624 61.08125 34.8625Q60.034374 35.76875 58.503124 35.76875Q56.58125 35.76875 55.409374 34.51875Q54.253124 33.253124 54.253124 30.925Q54.253124 29.409374 54.753124 28.284374Q55.253124 27.14375 56.26875 26.58125Q57.3 26.003124 58.503124 26.003124Q60.034374 26.003124 60.9875 26.784374Q61.95625 27.55 62.2375 28.95625L60.690624 29.190624Q60.471874 28.253124 59.909374 27.784374Q59.3625 27.3 58.565624 27.3Q57.378124 27.3 56.628124 28.159374Q55.878124 29.01875 55.878124 30.878124Q55.878124 32.753124 56.596874 33.6125Q57.315624 34.45625 58.4875 34.45625Q59.409374 34.45625 60.034374 33.89375Q60.659374 33.315624 60.83125 32.128124ZM63.14375 30.878124Q63.14375 28.284374 64.59688 27.034374Q65.8 26.003124 67.51875 26.003124Q69.45625 26.003124 70.675 27.26875Q71.89375 28.534374 71.89375 30.753124Q71.89375 32.55 71.34688 33.58125Q70.81563 34.6125 69.78438 35.190624Q68.75313 35.76875 67.51875 35.76875Q65.56563 35.76875 64.34688 34.51875Q63.14375 33.253124 63.14375 30.878124ZM64.76875 30.878124Q64.76875 32.675 65.55 33.565624Q66.33125 34.45625 67.51875 34.45625Q68.70625 34.45625 69.4875 33.565624Q70.26875 32.659374 70.26875 30.83125Q70.26875 29.096874 69.47188 28.20625Q68.69063 27.315624 67.51875 27.315624Q66.33125 27.315624 65.55 28.20625Q64.76875 29.096874 64.76875 30.878124ZM73.7375 35.55L73.7375 26.221874L75.15938 26.221874L75.15938 27.55Q76.19063 26.003124 78.12813 26.003124Q78.97188 26.003124 79.675 26.315624Q80.39375 26.6125 80.7375 27.1125Q81.09688 27.596874 81.2375 28.26875Q81.31563 28.70625 81.31563 29.815624L81.31563 35.55L79.7375 35.55L79.7375 29.878124Q79.7375 28.909374 79.55 28.425Q79.37813 27.940624 78.89375 27.659374Q78.425 27.378124 77.8 27.378124Q76.78438 27.378124 76.05 28.01875Q75.31563 28.659374 75.31563 30.45625L75.31563 35.55L73.7375 35.55ZM83.7375 35.55L83.7375 26.221874L85.15938 26.221874L85.15938 27.55Q86.19063 26.003124 88.12813 26.003124Q88.97188 26.003124 89.675 26.315624Q90.39375 26.6125 90.7375 27.1125Q91.09688 27.596874 91.2375 28.26875Q91.31563 28.70625 91.31563 29.815624L91.31563 35.55L89.7375 35.55L89.7375 29.878124Q89.7375 28.909374 89.55 28.425Q89.37813 27.940624 88.89375 27.659374Q88.425 27.378124 87.8 27.378124Q86.78438 27.378124 86.05 28.01875Q85.31563 28.659374 85.31563 30.45625L85.31563 35.55L83.7375 35.55ZM100.12813 32.55L101.76875 32.753124Q101.37813 34.175 100.33125 34.971874Q99.28438 35.76875 97.65938 35.76875Q95.6125 35.76875 94.40938 34.503124Q93.20625 33.2375 93.20625 30.95625Q93.20625 28.6125 94.40938 27.315624Q95.62813 26.003124 97.56563 26.003124Q99.44063 26.003124 100.62813 27.284374Q101.81563 28.55 101.81563 30.8625Q101.81563 31.003124 101.8 31.284374L94.84688 31.284374Q94.925 32.83125 95.70625 33.64375Q96.50313 34.45625 97.65938 34.45625Q98.53438 34.45625 99.14375 34.003124Q99.76875 33.55 100.12813 32.55ZM94.925 29.9875L100.14375 29.9875Q100.03438 28.815624 99.55 28.221874Q98.78438 27.3 97.58125 27.3Q96.50313 27.3 95.75313 28.034374Q95.01875 28.76875 94.925 29.9875ZM109.83125 32.128124L111.37813 32.33125Q111.12813 33.940624 110.08125 34.8625Q109.03438 35.76875 107.50313 35.76875Q105.58125 35.76875 104.40938 34.51875Q103.25313 33.253124 103.25313 30.925Q103.25313 29.409374 103.75313 28.284374Q104.25313 27.14375 105.26875 26.58125Q106.3 26.003124 107.50313 26.003124Q109.03438 26.003124 109.9875 26.784374Q110.95625 27.55 111.2375 28.95625L109.69063 29.190624Q109.47188 28.253124 108.90938 27.784374Q108.3625 27.3 107.56563 27.3Q106.37813 27.3 105.62813 28.159374Q104.87813 29.01875 104.87813 30.878124Q104.87813 32.753124 105.59688 33.6125Q106.31563 34.45625 107.4875 34.45625Q108.40938 34.45625 109.03438 33.89375Q109.65938 33.315624 109.83125 32.128124ZM116.19063 34.128124L116.425 35.534374Q115.75313 35.675 115.22188 35.675Q114.3625 35.675 113.87813 35.409374Q113.40938 35.128124 113.22188 34.690624Q113.03438 34.2375 113.03438 32.815624L113.03438 27.440624L111.8625 27.440624L111.8625 26.221874L113.03438 26.221874L113.03438 23.909374L114.59688 22.95625L114.59688 26.221874L116.19063 26.221874L116.19063 27.440624L114.59688 27.440624L114.59688 32.909374Q114.59688 33.58125 114.675 33.784374Q114.76875 33.971874 114.95625 34.08125Q115.14375 34.190624 115.50313 34.190624Q115.75313 34.190624 116.19063 34.128124ZM117.75313 24.4875L117.75313 22.659374L119.33125 22.659374L119.33125 24.4875L117.75313 24.4875ZM117.75313 35.55L117.75313 26.221874L119.33125 26.221874L119.33125 35.55L117.75313 35.55ZM121.14375 30.878124Q121.14375 28.284374 122.59688 27.034374Q123.8 26.003124 125.51875 26.003124Q127.45625 26.003124 128.675 27.26875Q129.89375 28.534374 129.89375 30.753124Q129.89375 32.55 129.34688 33.58125Q128.81563 34.6125 127.78438 35.190624Q126.75313 35.76875 125.51875 35.76875Q123.56563 35.76875 122.34688 34.51875Q121.14375 33.253124 121.14375 30.878124ZM122.76875 30.878124Q122.76875 32.675 123.55 33.565624Q124.33125 34.45625 125.51875 34.45625Q126.70625 34.45625 127.4875 33.565624Q128.26875 32.659374 128.26875 30.83125Q128.26875 29.096874 127.47188 28.20625Q126.69063 27.315624 125.51875 27.315624Q124.33125 27.315624 123.55 28.20625Q122.76875 29.096874 122.76875 30.878124ZM131.7375 35.55L131.7375 26.221874L133.15938 26.221874L133.15938 27.55Q134.19063 26.003124 136.12813 26.003124Q136.97188 26.003124 137.675 26.315624Q138.39375 26.6125 138.7375 27.1125Q139.09688 27.596874 139.2375 28.26875Q139.31563 28.70625 139.31563 29.815624L139.31563 35.55L137.7375 35.55L137.7375 29.878124Q137.7375 28.909374 137.55 28.425Q137.37813 27.940624 136.89375 27.659374Q136.425 27.378124 135.8 27.378124Q134.78438 27.378124 134.05 28.01875Q133.31563 28.659374 133.31563 30.45625L133.31563 35.55L131.7375 35.55ZM141.09688 32.76875L142.675 32.51875Q142.8 33.45625 143.39375 33.95625Q144.00313 34.45625 145.08125 34.45625Q146.175 34.45625 146.70625 34.01875Q147.2375 33.565624 147.2375 32.971874Q147.2375 32.440624 146.76875 32.128124Q146.44063 31.925 145.14375 31.596874Q143.40938 31.159374 142.7375 30.846874Q142.06563 30.51875 141.70625 29.95625Q141.3625 29.378124 141.3625 28.690624Q141.3625 28.065624 141.64375 27.534374Q141.94063 27.003124 142.425 26.659374Q142.8 26.378124 143.44063 26.190624Q144.08125 26.003124 144.8 26.003124Q145.90938 26.003124 146.7375 26.33125Q147.56563 26.64375 147.95625 27.190624Q148.3625 27.721874 148.50313 28.628124L146.95625 28.83125Q146.84688 28.1125 146.34688 27.70625Q145.84688 27.3 144.925 27.3Q143.83125 27.3 143.3625 27.659374Q142.89375 28.01875 142.89375 28.503124Q142.89375 28.815624 143.09688 29.065624Q143.28438 29.315624 143.69063 29.4875Q143.94063 29.565624 145.09688 29.89375Q146.76875 30.33125 147.425 30.628124Q148.09688 30.909374 148.47188 31.45625Q148.8625 32.003124 148.8625 32.8Q148.8625 33.596874 148.39375 34.3Q147.94063 35.003124 147.06563 35.39375Q146.19063 35.76875 145.09688 35.76875Q143.26875 35.76875 142.31563 35.01875Q141.3625 34.253124 141.09688 32.76875ZM155.70625 35.55L155.70625 22.659374L157.28438 22.659374L157.28438 35.55L155.70625 35.55ZM165.83125 34.39375Q164.95625 35.14375 164.12813 35.45625Q163.31563 35.76875 162.39375 35.76875Q160.84688 35.76875 160.01875 35.01875Q159.20625 34.253124 159.20625 33.08125Q159.20625 32.409374 159.51875 31.846874Q159.83125 31.26875 160.33125 30.925Q160.83125 30.58125 161.47188 30.409374Q161.94063 30.284374 162.87813 30.175Q164.78438 29.940624 165.69063 29.628124Q165.70625 29.3 165.70625 29.20625Q165.70625 28.253124 165.25313 27.846874Q164.64375 27.315624 163.45625 27.315624Q162.33125 27.315624 161.8 27.70625Q161.26875 28.096874 161.01875 29.096874L159.47188 28.878124Q159.69063 27.878124 160.15938 27.26875Q160.64375 26.659374 161.55 26.33125Q162.47188 26.003124 163.69063 26.003124Q164.87813 26.003124 165.62813 26.284374Q166.37813 26.565624 166.72188 27.003124Q167.08125 27.425 167.22188 28.065624Q167.3 28.471874 167.3 29.534374L167.3 31.64375Q167.3 33.846874 167.39375 34.440624Q167.50313 35.01875 167.8 35.55L166.14375 35.55Q165.89375 35.05 165.83125 34.39375ZM165.69063 30.8625Q164.83125 31.221874 163.1125 31.45625Q162.14375 31.596874 161.7375 31.784374Q161.33125 31.95625 161.1125 32.3Q160.89375 32.628124 160.89375 33.05Q160.89375 33.675 161.3625 34.096874Q161.84688 34.51875 162.76875 34.51875Q163.69063 34.51875 164.39375 34.128124Q165.1125 33.721874 165.44063 33.034374Q165.69063 32.4875 165.69063 31.440624L165.69063 30.8625ZM173.19063 34.128124L173.425 35.534374Q172.75313 35.675 172.22188 35.675Q171.3625 35.675 170.87813 35.409374Q170.40938 35.128124 170.22188 34.690624Q170.03438 34.2375 170.03438 32.815624L170.03438 27.440624L168.8625 27.440624L168.8625 26.221874L170.03438 26.221874L170.03438 23.909374L171.59688 22.95625L171.59688 26.221874L173.19063 26.221874L173.19063 27.440624L171.59688 27.440624L171.59688 32.909374Q171.59688 33.58125 171.675 33.784374Q171.76875 33.971874 171.95625 34.08125Q172.14375 34.190624 172.50313 34.190624Q172.75313 34.190624 173.19063 34.128124ZM181.12813 32.55L182.76875 32.753124Q182.37813 34.175 181.33125 34.971874Q180.28438 35.76875 178.65938 35.76875Q176.6125 35.76875 175.40938 34.503124Q174.20625 33.2375 174.20625 30.95625Q174.20625 28.6125 175.40938 27.315624Q176.62813 26.003124 178.56563 26.003124Q180.44063 26.003124 181.62813 27.284374Q182.81563 28.55 182.81563 30.8625Q182.81563 31.003124 182.8 31.284374L175.84688 31.284374Q175.925 32.83125 176.70625 33.64375Q177.50313 34.45625 178.65938 34.45625Q179.53438 34.45625 180.14375 34.003124Q180.76875 33.55 181.12813 32.55ZM175.925 29.9875L181.14375 29.9875Q181.03438 28.815624 180.55 28.221874Q179.78438 27.3 178.58125 27.3Q177.50313 27.3 176.75313 28.034374Q176.01875 28.76875 175.925 29.9875ZM184.7375 35.55L184.7375 26.221874L186.15938 26.221874L186.15938 27.55Q187.19063 26.003124 189.12813 26.003124Q189.97188 26.003124 190.675 26.315624Q191.39375 26.6125 191.7375 27.1125Q192.09688 27.596874 192.2375 28.26875Q192.31563 28.70625 192.31563 29.815624L192.31563 35.55L190.7375 35.55L190.7375 29.878124Q190.7375 28.909374 190.55 28.425Q190.37813 27.940624 189.89375 27.659374Q189.425 27.378124 188.8 27.378124Q187.78438 27.378124 187.05 28.01875Q186.31563 28.659374 186.31563 30.45625L186.31563 35.55L184.7375 35.55ZM200.83125 32.128124L202.37813 32.33125Q202.12813 33.940624 201.08125 34.8625Q200.03438 35.76875 198.50313 35.76875Q196.58125 35.76875 195.40938 34.51875Q194.25313 33.253124 194.25313 30.925Q194.25313 29.409374 194.75313 28.284374Q195.25313 27.14375 196.26875 26.58125Q197.3 26.003124 198.50313 26.003124Q200.03438 26.003124 200.9875 26.784374Q201.95625 27.55 202.2375 28.95625L200.69063 29.190624Q200.47188 28.253124 199.90938 27.784374Q199.3625 27.3 198.56563 27.3Q197.37813 27.3 196.62813 28.159374Q195.87813 29.01875 195.87813 30.878124Q195.87813 32.753124 196.59688 33.6125Q197.31563 34.45625 198.4875 34.45625Q199.40938 34.45625 200.03438 33.89375Q200.65938 33.315624 200.83125 32.128124ZM203.65938 39.14375L203.4875 37.659374Q204.00313 37.8 204.39375 37.8Q204.925 37.8 205.2375 37.628124Q205.55 37.45625 205.75313 37.128124Q205.90938 36.89375 206.2375 35.95625Q206.28438 35.815624 206.37813 35.565624L202.84688 26.221874L204.55 26.221874L206.4875 31.628124Q206.8625 32.64375 207.15938 33.784374Q207.44063 32.690624 207.81563 31.659374L209.81563 26.221874L211.39375 26.221874L207.84688 35.70625Q207.26875 37.253124 206.95625 37.83125Q206.53438 38.6125 205.9875 38.971874Q205.44063 39.33125 204.69063 39.33125Q204.22188 39.33125 203.65938 39.14375ZM215.75313 39.33125Q214.45625 37.690624 213.55 35.471874Q212.64375 33.253124 212.64375 30.878124Q212.64375 28.784374 213.31563 26.878124Q214.1125 24.64375 215.75313 22.440624L216.89375 22.440624Q215.83125 24.26875 215.4875 25.05Q214.95625 26.26875 214.64375 27.58125Q214.26875 29.2375 214.26875 30.89375Q214.26875 35.1125 216.89375 39.33125L215.75313 39.33125ZM226.50313 26.221874L226.50313 35.55L225.08125 35.55L225.08125 34.440624Q224.62813 35.14375 224.175 35.409374Q223.56563 35.76875 222.7375 35.76875Q222.01875 35.76875 221.45625 35.471874Q221.03438 35.253124 220.51875 34.6125L220.51875 39.128124L218.95625 39.128124L218.95625 26.221874L220.51875 26.221874L220.51875 30.175Q220.51875 32.33125 220.7375 32.971874Q220.97188 33.596874 221.4875 33.971874Q222.00313 34.33125 222.675 34.33125Q223.37813 34.33125 223.925 33.95625Q224.4875 33.565624 224.70625 32.95625Q224.94063 32.346874 224.94063 30.190624L224.94063 26.221874L226.50313 26.221874ZM228.09688 32.76875L229.675 32.51875Q229.8 33.45625 230.39375 33.95625Q231.00313 34.45625 232.08125 34.45625Q233.175 34.45625 233.70625 34.01875Q234.2375 33.565624 234.2375 32.971874Q234.2375 32.440624 233.76875 32.128124Q233.44063 31.925 232.14375 31.596874Q230.40938 31.159374 229.7375 30.846874Q229.06563 30.51875 228.70625 29.95625Q228.3625 29.378124 228.3625 28.690624Q228.3625 28.065624 228.64375 27.534374Q228.94063 27.003124 229.425 26.659374Q229.8 26.378124 230.44063 26.190624Q231.08125 26.003124 231.8 26.003124Q232.90938 26.003124 233.7375 26.33125Q234.56563 26.64375 234.95625 27.190624Q235.3625 27.721874 235.50313 28.628124L233.95625 28.83125Q233.84688 28.1125 233.34688 27.70625Q232.84688 27.3 231.925 27.3Q230.83125 27.3 230.3625 27.659374Q229.89375 28.01875 229.89375 28.503124Q229.89375 28.815624 230.09688 29.065624Q230.28438 29.315624 230.69063 29.4875Q230.94063 29.565624 232.09688 29.89375Q233.76875 30.33125 234.425 30.628124Q235.09688 30.909374 235.47188 31.45625Q235.8625 32.003124 235.8625 32.8Q235.8625 33.596874 235.39375 34.3Q234.94063 35.003124 234.06563 35.39375Q233.19063 35.76875 232.09688 35.76875Q230.26875 35.76875 229.31563 35.01875Q228.3625 34.253124 228.09688 32.76875ZM238.76875 39.33125L237.64375 39.33125Q240.26875 35.1125 240.26875 30.89375Q240.26875 29.2375 239.89375 27.6125Q239.59688 26.3 239.05 25.08125Q238.70625 24.284374 237.64375 22.440624L238.76875 22.440624Q240.425 24.64375 241.22188 26.878124Q241.89375 28.784374 241.89375 30.878124Q241.89375 33.253124 240.9875 35.471874Q240.08125 37.690624 238.76875 39.33125ZM244.14375 35.55L244.14375 33.753124L245.95625 33.753124L245.95625 35.55Q245.95625 36.55 245.59688 37.159374Q245.25313 37.76875 244.4875 38.096874L244.05 37.425Q244.55 37.20625 244.78438 36.76875Q245.01875 36.346874 245.05 35.55L244.14375 35.55ZM253.09688 32.76875L254.675 32.51875Q254.8 33.45625 255.39375 33.95625Q256.0031 34.45625 257.08124 34.45625Q258.175 34.45625 258.70624 34.01875Q259.2375 33.565624 259.2375 32.971874Q259.2375 32.440624 258.76874 32.128124Q258.4406 31.925 257.14374 31.596874Q255.40938 31.159374 254.7375 30.846874Q254.06563 30.51875 253.70625 29.95625Q253.3625 29.378124 253.3625 28.690624Q253.3625 28.065624 253.64375 27.534374Q253.94063 27.003124 254.425 26.659374Q254.8 26.378124 255.44063 26.190624Q256.08124 26.003124 256.8 26.003124Q257.90936 26.003124 258.7375 26.33125Q259.5656 26.64375 259.95624 27.190624Q260.3625 27.721874 260.5031 28.628124L258.95624 28.83125Q258.84686 28.1125 258.34686 27.70625Q257.84686 27.3 256.925 27.3Q255.83125 27.3 255.3625 27.659374Q254.89375 28.01875 254.89375 28.503124Q254.89375 28.815624 255.09688 29.065624Q255.28438 29.315624 255.69063 29.4875Q255.94063 29.565624 257.09686 29.89375Q258.76874 30.33125 259.425 30.628124Q260.09686 30.909374 260.47186 31.45625Q260.8625 32.003124 260.8625 32.8Q260.8625 33.596874 260.39374 34.3Q259.9406 35.003124 259.0656 35.39375Q258.1906 35.76875 257.09686 35.76875Q255.26875 35.76875 254.31563 35.01875Q253.3625 34.253124 253.09688 32.76875ZM262.70624 35.55L262.70624 22.659374L264.28436 22.659374L264.28436 35.55L262.70624 35.55ZM273.1281 32.55L274.76874 32.753124Q274.3781 34.175 273.33124 34.971874Q272.28436 35.76875 270.65936 35.76875Q268.6125 35.76875 267.40936 34.503124Q266.20624 33.2375 266.20624 30.95625Q266.20624 28.6125 267.40936 27.315624Q268.6281 26.003124 270.5656 26.003124Q272.4406 26.003124 273.6281 27.284374Q274.8156 28.55 274.8156 30.8625Q274.8156 31.003124 274.8 31.284374L267.84686 31.284374Q267.925 32.83125 268.70624 33.64375Q269.5031 34.45625 270.65936 34.45625Q271.53436 34.45625 272.14374 34.003124Q272.76874 33.55 273.1281 32.55ZM267.925 29.9875L273.14374 29.9875Q273.03436 28.815624 272.55 28.221874Q271.78436 27.3 270.58124 27.3Q269.5031 27.3 268.7531 28.034374Q268.01874 28.76875 267.925 29.9875ZM283.1281 32.55L284.76874 32.753124Q284.3781 34.175 283.33124 34.971874Q282.28436 35.76875 280.65936 35.76875Q278.6125 35.76875 277.40936 34.503124Q276.20624 33.2375 276.20624 30.95625Q276.20624 28.6125 277.40936 27.315624Q278.6281 26.003124 280.5656 26.003124Q282.4406 26.003124 283.6281 27.284374Q284.8156 28.55 284.8156 30.8625Q284.8156 31.003124 284.8 31.284374L277.84686 31.284374Q277.925 32.83125 278.70624 33.64375Q279.5031 34.45625 280.65936 34.45625Q281.53436 34.45625 282.14374 34.003124Q282.76874 33.55 283.1281 32.55ZM277.925 29.9875L283.14374 29.9875Q283.03436 28.815624 282.55 28.221874Q281.78436 27.3 280.58124 27.3Q279.5031 27.3 278.7531 28.034374Q278.01874 28.76875 277.925 29.9875ZM286.7375 39.128124L286.7375 26.221874L288.175 26.221874L288.175 27.425Q288.6906 26.721874 289.33124 26.3625Q289.97186 26.003124 290.8781 26.003124Q292.08124 26.003124 292.9875 26.628124Q293.90936 27.2375 294.3781 28.3625Q294.84686 29.471874 294.84686 30.815624Q294.84686 32.2375 294.33124 33.39375Q293.8156 34.534374 292.83124 35.159374Q291.84686 35.76875 290.76874 35.76875Q289.9875 35.76875 289.34686 35.440624Q288.72186 35.096874 288.3156 34.58125L288.3156 39.128124L286.7375 39.128124ZM288.175 30.940624Q288.175 32.7375 288.89374 33.596874Q289.6281 34.45625 290.65936 34.45625Q291.72186 34.45625 292.47186 33.565624Q293.22186 32.675 293.22186 30.8Q293.22186 29.01875 292.4875 28.128124Q291.7531 27.2375 290.7375 27.2375Q289.72186 27.2375 288.9406 28.190624Q288.175 29.128124 288.175 30.940624ZM307.2531 35.55L305.675 35.55L305.675 25.471874Q305.09686 26.01875 304.175 26.565624Q303.2531 27.096874 302.5031 27.378124L302.5031 25.846874Q303.83124 25.221874 304.83124 24.33125Q305.83124 23.440624 306.2375 22.6125L307.2531 22.6125L307.2531 35.55ZM311.7375 35.55L311.7375 26.221874L313.15936 26.221874L313.15936 27.51875Q313.59686 26.846874 314.3156 26.425Q315.05 26.003124 315.9875 26.003124Q317.01874 26.003124 317.675 26.440624Q318.34686 26.8625 318.6125 27.64375Q319.72186 26.003124 321.5031 26.003124Q322.89374 26.003124 323.6281 26.784374Q324.3781 27.55 324.3781 29.14375L324.3781 35.55L322.8156 35.55L322.8156 29.675Q322.8156 28.721874 322.65936 28.3Q322.5031 27.878124 322.09686 27.628124Q321.6906 27.378124 321.14374 27.378124Q320.15936 27.378124 319.5031 28.034374Q318.8625 28.690624 318.8625 30.128124L318.8625 35.55L317.28436 35.55L317.28436 29.4875Q317.28436 28.425 316.89374 27.909374Q316.5031 27.378124 315.6281 27.378124Q314.95624 27.378124 314.39374 27.7375Q313.83124 28.08125 313.5656 28.753124Q313.3156 29.425 313.3156 30.70625L313.3156 35.55L311.7375 35.55ZM325.09686 32.76875L326.675 32.51875Q326.8 33.45625 327.39374 33.95625Q328.0031 34.45625 329.08124 34.45625Q330.175 34.45625 330.70624 34.01875Q331.2375 33.565624 331.2375 32.971874Q331.2375 32.440624 330.76874 32.128124Q330.4406 31.925 329.14374 31.596874Q327.40936 31.159374 326.7375 30.846874Q326.0656 30.51875 325.70624 29.95625Q325.3625 29.378124 325.3625 28.690624Q325.3625 28.065624 325.64374 27.534374Q325.9406 27.003124 326.425 26.659374Q326.8 26.378124 327.4406 26.190624Q328.08124 26.003124 328.8 26.003124Q329.90936 26.003124 330.7375 26.33125Q331.5656 26.64375 331.95624 27.190624Q332.3625 27.721874 332.5031 28.628124L330.95624 28.83125Q330.84686 28.1125 330.34686 27.70625Q329.84686 27.3 328.925 27.3Q327.83124 27.3 327.3625 27.659374Q326.89374 28.01875 326.89374 28.503124Q326.89374 28.815624 327.09686 29.065624Q327.28436 29.315624 327.6906 29.4875Q327.9406 29.565624 329.09686 29.89375Q330.76874 30.33125 331.425 30.628124Q332.09686 30.909374 332.47186 31.45625Q332.8625 32.003124 332.8625 32.8Q332.8625 33.596874 332.39374 34.3Q331.9406 35.003124 331.0656 35.39375Q330.1906 35.76875 329.09686 35.76875Q327.26874 35.76875 326.3156 35.01875Q325.3625 34.253124 325.09686 32.76875ZM335.14374 35.55L335.14374 33.753124L336.95624 33.753124L336.95624 35.55Q336.95624 36.55 336.59686 37.159374Q336.2531 37.76875 335.4875 38.096874L335.05 37.425Q335.55 37.20625 335.78436 36.76875Q336.01874 36.346874 336.05 35.55L335.14374 35.55ZM344.7375 35.55L344.7375 26.221874L346.15936 26.221874L346.15936 27.55Q347.1906 26.003124 349.1281 26.003124Q349.97186 26.003124 350.675 26.315624Q351.39374 26.6125 351.7375 27.1125Q352.09686 27.596874 352.2375 28.26875Q352.3156 28.70625 352.3156 29.815624L352.3156 35.55L350.7375 35.55L350.7375 29.878124Q350.7375 28.909374 350.55 28.425Q350.3781 27.940624 349.89374 27.659374Q349.425 27.378124 348.8 27.378124Q347.78436 27.378124 347.05 28.01875Q346.3156 28.659374 346.3156 30.45625L346.3156 35.55L344.7375 35.55ZM354.14374 30.878124Q354.14374 28.284374 355.59686 27.034374Q356.8 26.003124 358.51874 26.003124Q360.45624 26.003124 361.675 27.26875Q362.89374 28.534374 362.89374 30.753124Q362.89374 32.55 362.34686 33.58125Q361.8156 34.6125 360.78436 35.190624Q359.7531 35.76875 358.51874 35.76875Q356.5656 35.76875 355.34686 34.51875Q354.14374 33.253124 354.14374 30.878124ZM355.76874 30.878124Q355.76874 32.675 356.55 33.565624Q357.33124 34.45625 358.51874 34.45625Q359.70624 34.45625 360.4875 33.565624Q361.26874 32.659374 361.26874 30.83125Q361.26874 29.096874 360.47186 28.20625Q359.6906 27.315624 358.51874 27.315624Q357.33124 27.315624 356.55 28.20625Q355.76874 29.096874 355.76874 30.878124ZM369.7531 35.55L369.7531 22.659374L371.33124 22.659374L371.33124 30.01875L375.0656 26.221874L377.1125 26.221874L373.55 29.675L377.4875 35.55L375.53436 35.55L372.4406 30.784374L371.33124 31.846874L371.33124 35.55L369.7531 35.55ZM385.1281 32.55L386.76874 32.753124Q386.3781 34.175 385.33124 34.971874Q384.28436 35.76875 382.65936 35.76875Q380.6125 35.76875 379.40936 34.503124Q378.20624 33.2375 378.20624 30.95625Q378.20624 28.6125 379.40936 27.315624Q380.6281 26.003124 382.5656 26.003124Q384.4406 26.003124 385.6281 27.284374Q386.8156 28.55 386.8156 30.8625Q386.8156 31.003124 386.8 31.284374L379.84686 31.284374Q379.925 32.83125 380.70624 33.64375Q381.5031 34.45625 382.65936 34.45625Q383.53436 34.45625 384.14374 34.003124Q384.76874 33.55 385.1281 32.55ZM379.925 29.9875L385.14374 29.9875Q385.03436 28.815624 384.55 28.221874Q383.78436 27.3 382.58124 27.3Q381.5031 27.3 380.7531 28.034374Q380.01874 28.76875 379.925 29.9875ZM395.1281 32.55L396.76874 32.753124Q396.3781 34.175 395.33124 34.971874Q394.28436 35.76875 392.65936 35.76875Q390.6125 35.76875 389.40936 34.503124Q388.20624 33.2375 388.20624 30.95625Q388.20624 28.6125 389.40936 27.315624Q390.6281 26.003124 392.5656 26.003124Q394.4406 26.003124 395.6281 27.284374Q396.8156 28.55 396.8156 30.8625Q396.8156 31.003124 396.8 31.284374L389.84686 31.284374Q389.925 32.83125 390.70624 33.64375Q391.5031 34.45625 392.65936 34.45625Q393.53436 34.45625 394.14374 34.003124Q394.76874 33.55 395.1281 32.55ZM389.925 29.9875L395.14374 29.9875Q395.03436 28.815624 394.55 28.221874Q393.78436 27.3 392.58124 27.3Q391.5031 27.3 390.7531 28.034374Q390.01874 28.76875 389.925 29.9875ZM398.7375 39.128124L398.7375 26.221874L400.175 26.221874L400.175 27.425Q400.6906 26.721874 401.33124 26.3625Q401.97186 26.003124 402.8781 26.003124Q404.08124 26.003124 404.9875 26.628124Q405.90936 27.2375 406.3781 28.3625Q406.84686 29.471874 406.84686 30.815624Q406.84686 32.2375 406.33124 33.39375Q405.8156 34.534374 404.83124 35.159374Q403.84686 35.76875 402.76874 35.76875Q401.9875 35.76875 401.34686 35.440624Q400.72186 35.096874 400.3156 34.58125L400.3156 39.128124L398.7375 39.128124ZM400.175 30.940624Q400.175 32.7375 400.89374 33.596874Q401.6281 34.45625 402.65936 34.45625Q403.72186 34.45625 404.47186 33.565624Q405.22186 32.675 405.22186 30.8Q405.22186 29.01875 404.4875 28.128124Q403.7531 27.2375 402.7375 27.2375Q401.72186 27.2375 400.9406 28.190624Q400.175 29.128124 400.175 30.940624ZM408.1281 31.675L408.1281 30.096874L412.9875 30.096874L412.9875 31.675L408.1281 31.675ZM420.83124 34.39375Q419.95624 35.14375 419.1281 35.45625Q418.3156 35.76875 417.39374 35.76875Q415.84686 35.76875 415.01874 35.01875Q414.20624 34.253124 414.20624 33.08125Q414.20624 32.409374 414.51874 31.846874Q414.83124 31.26875 415.33124 30.925Q415.83124 30.58125 416.47186 30.409374Q416.9406 30.284374 417.8781 30.175Q419.78436 29.940624 420.6906 29.628124Q420.70624 29.3 420.70624 29.20625Q420.70624 28.253124 420.2531 27.846874Q419.64374 27.315624 418.45624 27.315624Q417.33124 27.315624 416.8 27.70625Q416.26874 28.096874 416.01874 29.096874L414.47186 28.878124Q414.6906 27.878124 415.15936 27.26875Q415.64374 26.659374 416.55 26.33125Q417.47186 26.003124 418.6906 26.003124Q419.8781 26.003124 420.6281 26.284374Q421.3781 26.565624 421.72186 27.003124Q422.08124 27.425 422.22186 28.065624Q422.3 28.471874 422.3 29.534374L422.3 31.64375Q422.3 33.846874 422.39374 34.440624Q422.5031 35.01875 422.8 35.55L421.14374 35.55Q420.89374 35.05 420.83124 34.39375ZM420.6906 30.8625Q419.83124 31.221874 418.1125 31.45625Q417.14374 31.596874 416.7375 31.784374Q416.33124 31.95625 416.1125 32.3Q415.89374 32.628124 415.89374 33.05Q415.89374 33.675 416.3625 34.096874Q416.84686 34.51875 417.76874 34.51875Q418.6906 34.51875 419.39374 34.128124Q420.1125 33.721874 420.4406 33.034374Q420.6906 32.4875 420.6906 31.440624L420.6906 30.8625ZM424.70624 35.55L424.70624 22.659374L426.28436 22.659374L426.28436 35.55L424.70624 35.55ZM428.7531 24.4875L428.7531 22.659374L430.33124 22.659374L430.33124 24.4875L428.7531 24.4875ZM428.7531 35.55L428.7531 26.221874L430.33124 26.221874L430.33124 35.55L428.7531 35.55ZM435.33124 35.55L431.78436 26.221874L433.45624 26.221874L435.45624 31.8Q435.78436 32.70625 436.05 33.690624Q436.26874 32.940624 436.64374 31.909374L438.70624 26.221874L440.34686 26.221874L436.8 35.55L435.33124 35.55ZM448.1281 32.55L449.76874 32.753124Q449.3781 34.175 448.33124 34.971874Q447.28436 35.76875 445.65936 35.76875Q443.6125 35.76875 442.40936 34.503124Q441.20624 33.2375 441.20624 30.95625Q441.20624 28.6125 442.40936 27.315624Q443.6281 26.003124 445.5656 26.003124Q447.4406 26.003124 448.6281 27.284374Q449.8156 28.55 449.8156 30.8625Q449.8156 31.003124 449.8 31.284374L442.84686 31.284374Q442.925 32.83125 443.70624 33.64375Q444.5031 34.45625 445.65936 34.45625Q446.53436 34.45625 447.14374 34.003124Q447.76874 33.55 448.1281 32.55ZM442.925 29.9875L448.14374 29.9875Q448.03436 28.815624 447.55 28.221874Q446.78436 27.3 445.58124 27.3Q444.5031 27.3 443.7531 28.034374Q443.01874 28.76875 442.925 29.9875ZM452.14374 35.55L452.14374 33.753124L453.95624 33.753124L453.95624 35.55Q453.95624 36.55 453.59686 37.159374Q453.2531 37.76875 452.4875 38.096874L452.05 37.425Q452.55 37.20625 452.78436 36.76875Q453.01874 36.346874 453.05 35.55L452.14374 35.55ZM461.70624 35.55L461.70624 22.659374L463.28436 22.659374L463.28436 35.55L461.70624 35.55ZM465.14374 30.878124Q465.14374 28.284374 466.59686 27.034374Q467.8 26.003124 469.51874 26.003124Q471.45624 26.003124 472.675 27.26875Q473.89374 28.534374 473.89374 30.753124Q473.89374 32.55 473.34686 33.58125Q472.8156 34.6125 471.78436 35.190624Q470.7531 35.76875 469.51874 35.76875Q467.5656 35.76875 466.34686 34.51875Q465.14374 33.253124 465.14374 30.878124ZM466.76874 30.878124Q466.76874 32.675 467.55 33.565624Q468.33124 34.45625 469.51874 34.45625Q470.70624 34.45625 471.4875 33.565624Q472.26874 32.659374 472.26874 30.83125Q472.26874 29.096874 471.47186 28.20625Q470.6906 27.315624 469.51874 27.315624Q468.33124 27.315624 467.55 28.20625Q466.76874 29.096874 466.76874 30.878124ZM477.45624 35.55L474.59686 26.221874L476.2375 26.221874L477.72186 31.596874L478.28436 33.6125Q478.3156 33.45625 478.7531 31.675L480.2531 26.221874L481.8781 26.221874L483.26874 31.628124L483.7375 33.409374L484.26874 31.6125L485.8781 26.221874L487.40936 26.221874L484.4875 35.55L482.84686 35.55L481.3625 29.95625L481.0031 28.3625L479.1125 35.55L477.45624 35.55ZM495.1281 32.55L496.76874 32.753124Q496.3781 34.175 495.33124 34.971874Q494.28436 35.76875 492.65936 35.76875Q490.6125 35.76875 489.40936 34.503124Q488.20624 33.2375 488.20624 30.95625Q488.20624 28.6125 489.40936 27.315624Q490.6281 26.003124 492.5656 26.003124Q494.4406 26.003124 495.6281 27.284374Q496.8156 28.55 496.8156 30.8625Q496.8156 31.003124 496.8 31.284374L489.84686 31.284374Q489.925 32.83125 490.70624 33.64375Q491.5031 34.45625 492.65936 34.45625Q493.53436 34.45625 494.14374 34.003124Q494.76874 33.55 495.1281 32.55ZM489.925 29.9875L495.14374 29.9875Q495.03436 28.815624 494.55 28.221874Q493.78436 27.3 492.58124 27.3Q491.5031 27.3 490.7531 28.034374Q490.01874 28.76875 489.925 29.9875ZM498.72186 35.55L498.72186 26.221874L500.14374 26.221874L500.14374 27.628124Q500.6906 26.64375 501.14374 26.33125Q501.6125 26.003124 502.15936 26.003124Q502.97186 26.003124 503.78436 26.51875L503.2531 27.9875Q502.65936 27.64375 502.08124 27.64375Q501.5656 27.64375 501.14374 27.95625Q500.7375 28.26875 500.5656 28.815624Q500.3 29.659374 500.3 30.659374L500.3 35.55L498.72186 35.55ZM509.7531 24.4875L509.7531 22.659374L511.33124 22.659374L511.33124 24.4875L509.7531 24.4875ZM509.7531 35.55L509.7531 26.221874L511.33124 26.221874L511.33124 35.55L509.7531 35.55ZM513.09686 32.76875L514.675 32.51875Q514.8 33.45625 515.39374 33.95625Q516.0031 34.45625 517.08124 34.45625Q518.175 34.45625 518.70624 34.01875Q519.2375 33.565624 519.2375 32.971874Q519.2375 32.440624 518.76874 32.128124Q518.4406 31.925 517.14374 31.596874Q515.40936 31.159374 514.7375 30.846874Q514.0656 30.51875 513.70624 29.95625Q513.3625 29.378124 513.3625 28.690624Q513.3625 28.065624 513.64374 27.534374Q513.9406 27.003124 514.425 26.659374Q514.8 26.378124 515.4406 26.190624Q516.08124 26.003124 516.8 26.003124Q517.90936 26.003124 518.7375 26.33125Q519.5656 26.64375 519.95624 27.190624Q520.3625 27.721874 520.5031 28.628124L518.95624 28.83125Q518.84686 28.1125 518.34686 27.70625Q517.84686 27.3 516.925 27.3Q515.83124 27.3 515.3625 27.659374Q514.89374 28.01875 514.89374 28.503124Q514.89374 28.815624 515.09686 29.065624Q515.28436 29.315624 515.6906 29.4875Q515.9406 29.565624 517.09686 29.89375Q518.76874 30.33125 519.425 30.628124Q520.09686 30.909374 520.47186 31.45625Q520.8625 32.003124 520.8625 32.8Q520.8625 33.596874 520.39374 34.3Q519.9406 35.003124 519.0656 35.39375Q518.1906 35.76875 517.09686 35.76875Q515.26874 35.76875 514.3156 35.01875Q513.3625 34.253124 513.09686 32.76875ZM529.1906 35.55L527.72186 35.55L527.72186 22.659374L529.3156 22.659374L529.3156 27.26875Q530.3156 26.003124 531.8625 26.003124Q532.72186 26.003124 533.4875 26.3625Q534.26874 26.70625 534.7531 27.33125Q535.2531 27.95625 535.53436 28.846874Q535.8156 29.7375 535.8156 30.7375Q535.8156 33.14375 534.6281 34.45625Q533.45624 35.76875 531.78436 35.76875Q530.14374 35.76875 529.1906 34.378124L529.1906 35.55ZM529.175 30.815624Q529.175 32.4875 529.6281 33.2375Q530.3781 34.45625 531.65936 34.45625Q532.6906 34.45625 533.4406 33.565624Q534.20624 32.659374 534.20624 30.878124Q534.20624 29.05 533.47186 28.175Q532.7531 27.3 531.72186 27.3Q530.6906 27.3 529.925 28.20625Q529.175 29.1125 529.175 30.815624ZM544.1281 32.55L545.76874 32.753124Q545.3781 34.175 544.33124 34.971874Q543.28436 35.76875 541.65936 35.76875Q539.6125 35.76875 538.40936 34.503124Q537.20624 33.2375 537.20624 30.95625Q537.20624 28.6125 538.40936 27.315624Q539.6281 26.003124 541.5656 26.003124Q543.4406 26.003124 544.6281 27.284374Q545.8156 28.55 545.8156 30.8625Q545.8156 31.003124 545.8 31.284374L538.84686 31.284374Q538.925 32.83125 539.70624 33.64375Q540.5031 34.45625 541.65936 34.45625Q542.53436 34.45625 543.14374 34.003124Q543.76874 33.55 544.1281 32.55ZM538.925 29.9875L544.14374 29.9875Q544.03436 28.815624 543.55 28.221874Q542.78436 27.3 541.58124 27.3Q540.5031 27.3 539.7531 28.034374Q539.01874 28.76875 538.925 29.9875ZM551.1906 34.128124L551.425 35.534374Q550.7531 35.675 550.22186 35.675Q549.3625 35.675 548.8781 35.409374Q548.40936 35.128124 548.22186 34.690624Q548.03436 34.2375 548.03436 32.815624L548.03436 27.440624L546.8625 27.440624L546.8625 26.221874L548.03436 26.221874L548.03436 23.909374L549.59686 22.95625L549.59686 26.221874L551.1906 26.221874L551.1906 27.440624L549.59686 27.440624L549.59686 32.909374Q549.59686 33.58125 549.675 33.784374Q549.76874 33.971874 549.95624 34.08125Q550.14374 34.190624 550.5031 34.190624Q550.7531 34.190624 551.1906 34.128124ZM556.1906 34.128124L556.425 35.534374Q555.7531 35.675 555.22186 35.675Q554.3625 35.675 553.8781 35.409374Q553.40936 35.128124 553.22186 34.690624Q553.03436 34.2375 553.03436 32.815624L553.03436 27.440624L551.8625 27.440624L551.8625 26.221874L553.03436 26.221874L553.03436 23.909374L554.59686 22.95625L554.59686 26.221874L556.1906 26.221874L556.1906 27.440624L554.59686 27.440624L554.59686 32.909374Q554.59686 33.58125 554.675 33.784374Q554.76874 33.971874 554.95624 34.08125Q555.14374 34.190624 555.5031 34.190624Q555.7531 34.190624 556.1906 34.128124ZM564.1281 32.55L565.76874 32.753124Q565.3781 34.175 564.33124 34.971874Q563.28436 35.76875 561.65936 35.76875Q559.6125 35.76875 558.40936 34.503124Q557.20624 33.2375 557.20624 30.95625Q557.20624 28.6125 558.40936 27.315624Q559.6281 26.003124 561.5656 26.003124Q563.4406 26.003124 564.6281 27.284374Q565.8156 28.55 565.8156 30.8625Q565.8156 31.003124 565.8 31.284374L558.84686 31.284374Q558.925 32.83125 559.70624 33.64375Q560.5031 34.45625 561.65936 34.45625Q562.53436 34.45625 563.14374 34.003124Q563.76874 33.55 564.1281 32.55ZM558.925 29.9875L564.14374 29.9875Q564.03436 28.815624 563.55 28.221874Q562.78436 27.3 561.58124 27.3Q560.5031 27.3 559.7531 28.034374Q559.01874 28.76875 558.925 29.9875ZM567.72186 35.55L567.72186 26.221874L569.14374 26.221874L569.14374 27.628124Q569.6906 26.64375 570.14374 26.33125Q570.6125 26.003124 571.15936 26.003124Q571.97186 26.003124 572.78436 26.51875L572.2531 27.9875Q571.65936 27.64375 571.08124 27.64375Q570.5656 27.64375 570.14374 27.95625Q569.7375 28.26875 569.5656 28.815624Q569.3 29.659374 569.3 30.659374L569.3 35.55L567.72186 35.55Z" fill-rule="nonzero"/></svg>