<svg version="1.1" viewBox="0.0 0.0 600.0 371.0" fill="none" stroke="none" stroke-linecap="square" stroke-miterlimit="10" width="600" height="371" xmlns:xlink="http://www.w3.org/1999/xlink" xmlns="http://www.w3.org/2000/svg"><path fill="#ffffff" d="M0 0L600.0 0L600.0 371.0L0 371.0L0 0Z" fill-rule="nonzero"/><path stroke="#333333" stroke-width="1.0" stroke-linecap="butt" d="M59.5 254.5L581.5 254.5" fill-rule="nonzero"/><path stroke="#cccccc" stroke-width="1.0" stroke-linecap="butt" d="M59.5 198.5L581.5 198.5" fill-rule="nonzero"/><path stroke="#cccccc" stroke-width="1.0" stroke-linecap="butt" d="M59.5 141.5L581.5 141.5" fill-rule="nonzero"/><path stroke="#cccccc" stroke-width="1.0" stroke-linecap="butt" d="M59.5 85.5L581.5 85.5" fill-rule="nonzero"/><clipPath id="id_0"><path d="M59.55 85.916664L581.45 85.916664L581.45 254.06667L59.55 254.06667L59.55 85.916664Z" clip-rule="nonzero"/></clipPath><path stroke="#ff9900" stroke-width="2.0" stroke-linecap="butt" clip-path="url(#id_0)" d="M142.0 254.0L89.0 254.0L89.0 96.0C89.0 94.89543 89.89543 94.0 91.0 94.0L140.0 94.0C141.10457 94.0 142.0 94.89543 142.0 96.0Z" fill-rule="nonzero"/><path fill="#ff9900" clip-path="url(#id_0)" d="M142.0 254.0L89.0 254.0L89.0 96.0C89.0 94.89543 89.89543 94.0 91.0 94.0L140.0 94.0C141.10457 94.0 142.0 94.89543 142.0 96.0Z" fill-rule="nonzero"/><path stroke="#000000" stroke-width="2.0" stroke-linecap="butt" stroke-opacity="0.0" clip-path="url(#id_0)" d="M224.0 254.0L171.0 254.0L171.0 206.0C171.0 204.89543 171.89543 204.0 173.0 204.0L222.0 204.0C223.10457 204.0 224.0 204.89543 224.0 206.0Z" fill-rule="nonzero"/><path fill="#4285f4" clip-path="url(#id_0)" d="M224.0 254.0L171.0 254.0L171.0 206.0C171.0 204.89543 171.89543 204.0 173.0 204.0L222.0 204.0C223.10457 204.0 224.0 204.89543 224.0 206.0Z" fill-rule="nonzero"/><path stroke="#000000" stroke-width="2.0" stroke-linecap="butt" stroke-opacity="0.0" clip-path="url(#id_0)" d="M306.0 254.0L253.0 254.0L253.0 238.0C253.0 236.89543 253.89543 236.0 255.0 236.0L304.0 236.0C305.10458 236.0 306.0 236.89543 306.0 238.0Z" fill-rule="nonzero"/><path fill="#4285f4" clip-path="url(#id_0)" d="M306.0 254.0L253.0 254.0L253.0 238.0C253.0 236.89543 253.89543 236.0 255.0 236.0L304.0 236.0C305.10458 236.0 306.0 236.89543 306.0 238.0Z" fill-rule="nonzero"/><path stroke="#000000" stroke-width="2.0" stroke-linecap="butt" stroke-opacity="0.0" clip-path="url(#id_0)" d="M389.0 254.0L336.0 254.0L336.0 189.0C336.0 187.89543 336.89542 187.0 338.0 187.0L387.0 187.0C388.10458 187.0 389.0 187.89543 389.0 189.0Z" fill-rule="nonzero"/><path fill="#4285f4" clip-path="url(#id_0)" d="M389.0 254.0L336.0 254.0L336.0 189.0C336.0 187.89543 336.89542 187.0 338.0 187.0L387.0 187.0C388.10458 187.0 389.0 187.89543 389.0 189.0Z" fill-rule="nonzero"/><path stroke="#000000" stroke-width="2.0" stroke-linecap="butt" stroke-opacity="0.0" clip-path="url(#id_0)" d="M471.0 254.0L418.0 254.0L418.0 254.0L471.0 254.0Z" fill-rule="nonzero"/><path fill="#4285f4" clip-path="url(#id_0)" d="M471.0 254.0L418.0 254.0L418.0 254.0L471.0 254.0Z" fill-rule="nonzero"/><path stroke="#000000" stroke-width="2.0" stroke-linecap="butt" stroke-opacity="0.0" clip-path="url(#id_0)" d="M553.0 254.0L500.0 254.0L500.0 178.0C500.0 176.89543 500.89542 176.0 502.0 176.0L551.0 176.0C552.10455 176.0 553.0 176.89543 553.0 178.0Z" fill-rule="nonzero"/><path fill="#4285f4" clip-path="url(#id_0)" d="M553.0 254.0L500.0 254.0L500.0 178.0C500.0 176.89543 500.89542 176.0 502.0 176.0L551.0 176.0C552.10455 176.0 553.0 176.89543 553.0 178.0Z" fill-rule="nonzero"/><path fill="#000000" d="M283.375 347.59064L284.40625 347.4344Q284.5 348.0594 284.89062 348.3875Q285.29688 348.71564 286.03125 348.71564Q286.75 348.71564 287.09375 348.4344Q287.45312 348.1375 287.45312 347.73126Q287.45312 347.3719 287.14062 347.16876Q286.92188 347.02814 286.0625 346.8094Q284.90625 346.5125 284.45312 346.3094Q284.01562 346.09064 283.78125 345.71564Q283.54688 345.34064 283.54688 344.8719Q283.54688 344.46564 283.73438 344.10626Q283.92188 343.7469 284.25 343.5125Q284.5 343.34064 284.92188 343.21564Q285.34375 343.09064 285.84375 343.09064Q286.5625 343.09064 287.10938 343.3094Q287.67188 343.5125 287.9375 343.8719Q288.20312 344.23126 288.29688 344.825L287.26562 344.96564Q287.20312 344.4969 286.85938 344.23126Q286.53125 343.95 285.90625 343.95Q285.1875 343.95 284.875 344.2Q284.5625 344.4344 284.5625 344.7625Q284.5625 344.96564 284.6875 345.1219Q284.82812 345.29376 285.09375 345.40314Q285.25 345.46564 286.03125 345.66876Q287.15625 345.98126 287.59375 346.16876Q288.03125 346.35626 288.28125 346.71564Q288.53125 347.075 288.53125 347.6219Q288.53125 348.15314 288.21875 348.6219Q287.92188 349.075 287.34375 349.34064Q286.76562 349.59064 286.03125 349.59064Q284.8125 349.59064 284.17188 349.09064Q283.54688 348.575 283.375 347.59064ZM290.75 351.84064L290.625 350.85626Q290.96875 350.95 291.23438 350.95Q291.57812 350.95 291.78125 350.825Q292.0 350.71564 292.14062 350.5125Q292.23438 350.34064 292.46875 349.71564Q292.48438 349.6375 292.5625 349.46564L290.1875 343.23126L291.32812 343.23126L292.625 346.825Q292.875 347.5125 293.07812 348.27814Q293.26562 347.54376 293.51562 346.85626L294.84375 343.23126L295.89062 343.23126L293.53125 349.5594Q293.14062 350.575 292.9375 350.96564Q292.65625 351.4969 292.28125 351.73126Q291.92188 351.98126 291.42188 351.98126Q291.125 351.98126 290.75 351.84064ZM295.375 347.59064L296.40625 347.4344Q296.5 348.0594 296.89062 348.3875Q297.29688 348.71564 298.03125 348.71564Q298.75 348.71564 299.09375 348.4344Q299.45312 348.1375 299.45312 347.73126Q299.45312 347.3719 299.14062 347.16876Q298.92188 347.02814 298.0625 346.8094Q296.90625 346.5125 296.45312 346.3094Q296.01562 346.09064 295.78125 345.71564Q295.54688 345.34064 295.54688 344.8719Q295.54688 344.46564 295.73438 344.10626Q295.92188 343.7469 296.25 343.5125Q296.5 343.34064 296.92188 343.21564Q297.34375 343.09064 297.84375 343.09064Q298.5625 343.09064 299.10938 343.3094Q299.67188 343.5125 299.9375 343.8719Q300.20312 344.23126 300.29688 344.825L299.26562 344.96564Q299.20312 344.4969 298.85938 344.23126Q298.53125 343.95 297.90625 343.95Q297.1875 343.95 296.875 344.2Q296.5625 344.4344 296.5625 344.7625Q296.5625 344.96564 296.6875 345.1219Q296.82812 345.29376 297.09375 345.40314Q297.25 345.46564 298.03125 345.66876Q299.15625 345.98126 299.59375 346.16876Q300.03125 346.35626 300.28125 346.71564Q300.53125 347.075 300.53125 347.6219Q300.53125 348.15314 300.21875 348.6219Q299.92188 349.075 299.34375 349.34064Q298.76562 349.59064 298.03125 349.59064Q296.8125 349.59064 296.17188 349.09064Q295.54688 348.575 295.375 347.59064ZM305.09375 348.5125L305.25 349.4344Q304.79688 349.52814 304.45312 349.52814Q303.875 349.52814 303.5625 349.35626Q303.25 349.16876 303.10938 348.8719Q302.98438 348.575 302.98438 347.6219L302.98438 344.04376L302.21875 344.04376L302.21875 343.23126L302.98438 343.23126L302.98438 341.6844L304.03125 341.0594L304.03125 343.23126L305.09375 343.23126L305.09375 344.04376L304.03125 344.04376L304.03125 347.6844Q304.03125 348.1375 304.07812 348.2625Q304.14062 348.3875 304.26562 348.46564Q304.39062 348.54376 304.625 348.54376Q304.8125 348.54376 305.09375 348.5125ZM310.04688 347.45L311.14062 347.575Q310.89062 348.52814 310.1875 349.0594Q309.48438 349.59064 308.40625 349.59064Q307.04688 349.59064 306.23438 348.7469Q305.4375 347.90314 305.4375 346.3875Q305.4375 344.825 306.25 343.96564Q307.0625 343.09064 308.34375 343.09064Q309.59375 343.09064 310.375 343.9344Q311.17188 344.77814 311.17188 346.325Q311.17188 346.41876 311.17188 346.60626L306.53125 346.60626Q306.59375 347.6375 307.10938 348.1844Q307.625 348.71564 308.40625 348.71564Q308.98438 348.71564 309.39062 348.41876Q309.8125 348.10626 310.04688 347.45ZM306.59375 345.7469L310.0625 345.7469Q310.0 344.95 309.67188 344.5594Q309.15625 343.95 308.35938 343.95Q307.625 343.95 307.125 344.4344Q306.64062 344.91876 306.59375 345.7469ZM312.79688 349.45L312.79688 343.23126L313.73438 343.23126L313.73438 344.10626Q314.03125 343.6375 314.51562 343.3719Q315.0 343.09064 315.625 343.09064Q316.3125 343.09064 316.75 343.3719Q317.20312 343.65314 317.375 344.16876Q318.125 343.09064 319.29688 343.09064Q320.23438 343.09064 320.71875 343.60626Q321.21875 344.10626 321.21875 345.1844L321.21875 349.45L320.17188 349.45L320.17188 345.52814Q320.17188 344.90314 320.0625 344.6219Q319.96875 344.34064 319.70312 344.16876Q319.4375 343.9969 319.0625 343.9969Q318.40625 343.9969 317.96875 344.4344Q317.54688 344.8719 317.54688 345.84064L317.54688 349.45L316.48438 349.45L316.48438 345.40314Q316.48438 344.7 316.21875 344.35626Q315.96875 343.9969 315.39062 343.9969Q314.9375 343.9969 314.5625 344.23126Q314.1875 344.46564 314.01562 344.91876Q313.84375 345.3719 313.84375 346.21564L313.84375 349.45L312.79688 349.45ZM326.79688 349.45L326.79688 343.23126L327.73438 343.23126L327.73438 344.10626Q328.42188 343.09064 329.71875 343.09064Q330.28125 343.09064 330.75 343.29376Q331.23438 343.4969 331.46875 343.825Q331.70312 344.15314 331.79688 344.59064Q331.84375 344.8875 331.84375 345.6219L331.84375 349.45L330.79688 349.45L330.79688 345.66876Q330.79688 345.0125 330.67188 344.7Q330.54688 344.3875 330.23438 344.2Q329.92188 343.9969 329.5 343.9969Q328.82812 343.9969 328.32812 344.4344Q327.84375 344.85626 327.84375 346.04376L327.84375 349.45L326.79688 349.45ZM337.85938 348.6844Q337.26562 349.1844 336.71875 349.3875Q336.1875 349.59064 335.5625 349.59064Q334.53125 349.59064 333.98438 349.09064Q333.4375 348.59064 333.4375 347.8094Q333.4375 347.35626 333.64062 346.98126Q333.84375 346.59064 334.1875 346.3719Q334.53125 346.1375 334.95312 346.02814Q335.25 345.9344 335.89062 345.85626Q337.15625 345.71564 337.76562 345.4969Q337.76562 345.27814 337.76562 345.23126Q337.76562 344.575 337.46875 344.3094Q337.0625 343.96564 336.26562 343.96564Q335.53125 343.96564 335.17188 344.23126Q334.8125 344.48126 334.64062 345.1375L333.60938 344.9969Q333.75 344.34064 334.07812 343.9344Q334.40625 343.52814 335.01562 343.3094Q335.625 343.09064 336.42188 343.09064Q337.21875 343.09064 337.71875 343.27814Q338.21875 343.46564 338.45312 343.7469Q338.6875 344.02814 338.78125 344.46564Q338.82812 344.73126 338.82812 345.4344L338.82812 346.84064Q338.82812 348.3094 338.89062 348.7Q338.96875 349.09064 339.17188 349.45L338.0625 349.45Q337.90625 349.1219 337.85938 348.6844ZM337.76562 346.325Q337.1875 346.5594 336.04688 346.73126Q335.39062 346.825 335.125 346.95Q334.85938 347.0594 334.70312 347.27814Q334.5625 347.4969 334.5625 347.77814Q334.5625 348.2 334.875 348.48126Q335.20312 348.7625 335.8125 348.7625Q336.42188 348.7625 336.89062 348.4969Q337.375 348.23126 337.59375 347.7625Q337.76562 347.40314 337.76562 346.71564L337.76562 346.325ZM340.79688 349.45L340.79688 343.23126L341.73438 343.23126L341.73438 344.10626Q342.03125 343.6375 342.51562 343.3719Q343.0 343.09064 343.625 343.09064Q344.3125 343.09064 344.75 343.3719Q345.20312 343.65314 345.375 344.16876Q346.125 343.09064 347.29688 343.09064Q348.23438 343.09064 348.71875 343.60626Q349.21875 344.10626 349.21875 345.1844L349.21875 349.45L348.17188 349.45L348.17188 345.52814Q348.17188 344.90314 348.0625 344.6219Q347.96875 344.34064 347.70312 344.16876Q347.4375 343.9969 347.0625 343.9969Q346.40625 343.9969 345.96875 344.4344Q345.54688 344.8719 345.54688 345.84064L345.54688 349.45L344.48438 349.45L344.48438 345.40314Q344.48438 344.7 344.21875 344.35626Q343.96875 343.9969 343.39062 343.9969Q342.9375 343.9969 342.5625 344.23126Q342.1875 344.46564 342.01562 344.91876Q341.84375 345.3719 341.84375 346.21564L341.84375 349.45L340.79688 349.45ZM356.04688 347.45L357.14062 347.575Q356.89062 348.52814 356.1875 349.0594Q355.48438 349.59064 354.40625 349.59064Q353.04688 349.59064 352.23438 348.7469Q351.4375 347.90314 351.4375 346.3875Q351.4375 344.825 352.25 343.96564Q353.0625 343.09064 354.34375 343.09064Q355.59375 343.09064 356.375 343.9344Q357.17188 344.77814 357.17188 346.325Q357.17188 346.41876 357.17188 346.60626L352.53125 346.60626Q352.59375 347.6375 353.10938 348.1844Q353.625 348.71564 354.40625 348.71564Q354.98438 348.71564 355.39062 348.41876Q355.8125 348.10626 356.04688 347.45ZM352.59375 345.7469L356.0625 345.7469Q356.0 344.95 355.67188 344.5594Q355.15625 343.95 354.35938 343.95Q353.625 343.95 353.125 344.4344Q352.64062 344.91876 352.59375 345.7469Z" fill-rule="nonzero"/><path fill="#000000" d="M47.05 253.8323Q47.05 252.30106 47.3625 251.37918Q47.675 250.44168 48.284374 249.94168Q48.909374 249.44168 49.846874 249.44168Q50.534374 249.44168 51.05 249.72293Q51.58125 250.00418 51.925 250.53543Q52.26875 251.05106 52.45625 251.80106Q52.64375 252.55106 52.64375 253.8323Q52.64375 255.34793 52.33125 256.2698Q52.034374 257.19168 51.409374 257.7073Q50.8 258.2073 49.846874 258.2073Q48.6125 258.2073 47.89375 257.31668Q47.05 256.25418 47.05 253.8323ZM48.128124 253.8323Q48.128124 255.94168 48.628124 256.6448Q49.128124 257.34793 49.846874 257.34793Q50.58125 257.34793 51.065624 256.6448Q51.565624 255.94168 51.565624 253.8323Q51.565624 251.7073 51.065624 251.0198Q50.58125 250.31668 49.83125 250.31668Q49.1125 250.31668 48.675 250.92606Q48.128124 251.7073 48.128124 253.8323Z" fill-rule="nonzero"/><path fill="#000000" d="M26.05 199.76666L27.159374 199.67291Q27.284374 200.48541 27.721874 200.89166Q28.175 201.29791 28.815624 201.29791Q29.565624 201.29791 30.096874 200.71979Q30.628124 200.14166 30.628124 199.20416Q30.628124 198.29791 30.1125 197.78229Q29.6125 197.25104 28.784374 197.25104Q28.284374 197.25104 27.8625 197.48541Q27.45625 197.71979 27.221874 198.07916L26.2375 197.95416L27.065624 193.54791L31.346874 193.54791L31.346874 194.54791L27.909374 194.54791L27.45625 196.86041Q28.221874 196.31354 29.065624 196.31354Q30.190624 196.31354 30.95625 197.09479Q31.7375 197.87604 31.7375 199.11041Q31.7375 200.26666 31.065624 201.12604Q30.2375 202.15729 28.815624 202.15729Q27.64375 202.15729 26.89375 201.50104Q26.159374 200.84479 26.05 199.76666ZM33.05 197.78229Q33.05 196.25104 33.3625 195.32916Q33.675 194.39166 34.284374 193.89166Q34.909374 193.39166 35.846874 193.39166Q36.534374 193.39166 37.05 193.67291Q37.58125 193.95416 37.925 194.48541Q38.26875 195.00104 38.45625 195.75104Q38.64375 196.50104 38.64375 197.78229Q38.64375 199.29791 38.33125 200.21979Q38.034374 201.14166 37.409374 201.65729Q36.8 202.15729 35.846874 202.15729Q34.6125 202.15729 33.89375 201.26666Q33.05 200.20416 33.05 197.78229ZM34.128124 197.78229Q34.128124 199.89166 34.628124 200.59479Q35.128124 201.29791 35.846874 201.29791Q36.58125 201.29791 37.065624 200.59479Q37.565624 199.89166 37.565624 197.78229Q37.565624 195.65729 37.065624 194.96979Q36.58125 194.26666 35.83125 194.26666Q35.1125 194.26666 34.675 194.87604Q34.128124 195.65729 34.128124 197.78229ZM40.05 197.78229Q40.05 196.25104 40.3625 195.32916Q40.675 194.39166 41.284374 193.89166Q41.909374 193.39166 42.846874 193.39166Q43.534374 193.39166 44.05 193.67291Q44.58125 193.95416 44.925 194.48541Q45.26875 195.00104 45.45625 195.75104Q45.64375 196.50104 45.64375 197.78229Q45.64375 199.29791 45.33125 200.21979Q45.034374 201.14166 44.409374 201.65729Q43.8 202.15729 42.846874 202.15729Q41.6125 202.15729 40.89375 201.26666Q40.05 200.20416 40.05 197.78229ZM41.128124 197.78229Q41.128124 199.89166 41.628124 200.59479Q42.128124 201.29791 42.846874 201.29791Q43.58125 201.29791 44.065624 200.59479Q44.565624 199.89166 44.565624 197.78229Q44.565624 195.65729 44.065624 194.96979Q43.58125 194.26666 42.83125 194.26666Q42.1125 194.26666 41.675 194.87604Q41.128124 195.65729 41.128124 197.78229ZM47.05 197.78229Q47.05 196.25104 47.3625 195.32916Q47.675 194.39166 48.284374 193.89166Q48.909374 193.39166 49.846874 193.39166Q50.534374 193.39166 51.05 193.67291Q51.58125 193.95416 51.925 194.48541Q52.26875 195.00104 52.45625 195.75104Q52.64375 196.50104 52.64375 197.78229Q52.64375 199.29791 52.33125 200.21979Q52.034374 201.14166 51.409374 201.65729Q50.8 202.15729 49.846874 202.15729Q48.6125 202.15729 47.89375 201.26666Q47.05 200.20416 47.05 197.78229ZM48.128124 197.78229Q48.128124 199.89166 48.628124 200.59479Q49.128124 201.29791 49.846874 201.29791Q50.58125 201.29791 51.065624 200.59479Q51.565624 199.89166 51.565624 197.78229Q51.565624 195.65729 51.065624 194.96979Q50.58125 194.26666 49.83125 194.26666Q49.1125 194.26666 48.675 194.87604Q48.128124 195.65729 48.128124 197.78229Z" fill-rule="nonzero"/><path fill="#000000" d="M23.01875 145.96666L21.971874 145.96666L21.971874 139.24791Q21.58125 139.60728 20.95625 139.98228Q20.346874 140.34166 19.8625 140.51353L19.8625 139.49791Q20.7375 139.07603 21.39375 138.49791Q22.065624 137.90416 22.346874 137.34166L23.01875 137.34166L23.01875 145.96666ZM26.05 141.73228Q26.05 140.20103 26.3625 139.27916Q26.675 138.34166 27.284374 137.84166Q27.909374 137.34166 28.846874 137.34166Q29.534374 137.34166 30.05 137.62291Q30.58125 137.90416 30.925 138.43541Q31.26875 138.95103 31.45625 139.70103Q31.64375 140.45103 31.64375 141.73228Q31.64375 143.24791 31.33125 144.16978Q31.034374 145.09166 30.409374 145.60728Q29.8 146.10728 28.846874 146.10728Q27.6125 146.10728 26.89375 145.21666Q26.05 144.15416 26.05 141.73228ZM27.128124 141.73228Q27.128124 143.84166 27.628124 144.54478Q28.128124 145.24791 28.846874 145.24791Q29.58125 145.24791 30.065624 144.54478Q30.565624 143.84166 30.565624 141.73228Q30.565624 139.60728 30.065624 138.91978Q29.58125 138.21666 28.83125 138.21666Q28.1125 138.21666 27.675 138.82603Q27.128124 139.60728 27.128124 141.73228ZM33.05 141.73228Q33.05 140.20103 33.3625 139.27916Q33.675 138.34166 34.284374 137.84166Q34.909374 137.34166 35.846874 137.34166Q36.534374 137.34166 37.05 137.62291Q37.58125 137.90416 37.925 138.43541Q38.26875 138.95103 38.45625 139.70103Q38.64375 140.45103 38.64375 141.73228Q38.64375 143.24791 38.33125 144.16978Q38.034374 145.09166 37.409374 145.60728Q36.8 146.10728 35.846874 146.10728Q34.6125 146.10728 33.89375 145.21666Q33.05 144.15416 33.05 141.73228ZM34.128124 141.73228Q34.128124 143.84166 34.628124 144.54478Q35.128124 145.24791 35.846874 145.24791Q36.58125 145.24791 37.065624 144.54478Q37.565624 143.84166 37.565624 141.73228Q37.565624 139.60728 37.065624 138.91978Q36.58125 138.21666 35.83125 138.21666Q35.1125 138.21666 34.675 138.82603Q34.128124 139.60728 34.128124 141.73228ZM40.05 141.73228Q40.05 140.20103 40.3625 139.27916Q40.675 138.34166 41.284374 137.84166Q41.909374 137.34166 42.846874 137.34166Q43.534374 137.34166 44.05 137.62291Q44.58125 137.90416 44.925 138.43541Q45.26875 138.95103 45.45625 139.70103Q45.64375 140.45103 45.64375 141.73228Q45.64375 143.24791 45.33125 144.16978Q45.034374 145.09166 44.409374 145.60728Q43.8 146.10728 42.846874 146.10728Q41.6125 146.10728 40.89375 145.21666Q40.05 144.15416 40.05 141.73228ZM41.128124 141.73228Q41.128124 143.84166 41.628124 144.54478Q42.128124 145.24791 42.846874 145.24791Q43.58125 145.24791 44.065624 144.54478Q44.565624 143.84166 44.565624 141.73228Q44.565624 139.60728 44.065624 138.91978Q43.58125 138.21666 42.83125 138.21666Q42.1125 138.21666 41.675 138.82603Q41.128124 139.60728 41.128124 141.73228ZM47.05 141.73228Q47.05 140.20103 47.3625 139.27916Q47.675 138.34166 48.284374 137.84166Q48.909374 137.34166 49.846874 137.34166Q50.534374 137.34166 51.05 137.62291Q51.58125 137.90416 51.925 138.43541Q52.26875 138.95103 52.45625 139.70103Q52.64375 140.45103 52.64375 141.73228Q52.64375 143.24791 52.33125 144.16978Q52.034374 145.09166 51.409374 145.60728Q50.8 146.10728 49.846874 146.10728Q48.6125 146.10728 47.89375 145.21666Q47.05 144.15416 47.05 141.73228ZM48.128124 141.73228Q48.128124 143.84166 48.628124 144.54478Q49.128124 145.24791 49.846874 145.24791Q50.58125 145.24791 51.065624 144.54478Q51.565624 143.84166 51.565624 141.73228Q51.565624 139.60728 51.065624 138.91978Q50.58125 138.21666 49.83125 138.21666Q49.1125 138.21666 48.675 138.82603Q48.128124 139.60728 48.128124 141.73228Z" fill-rule="nonzero"/><path fill="#000000" d="M23.01875 89.916664L21.971874 89.916664L21.971874 83.197914Q21.58125 83.55729 20.95625 83.93229Q20.346874 84.291664 19.8625 84.46354L19.8625 83.447914Q20.7375 83.02604 21.39375 82.447914Q22.065624 81.854164 22.346874 81.291664L23.01875 81.291664L23.01875 89.916664ZM26.05 87.666664L27.159374 87.572914Q27.284374 88.385414 27.721874 88.791664Q28.175 89.197914 28.815624 89.197914Q29.565624 89.197914 30.096874 88.61979Q30.628124 88.041664 30.628124 87.104164Q30.628124 86.197914 30.1125 85.68229Q29.6125 85.15104 28.784374 85.15104Q28.284374 85.15104 27.8625 85.385414Q27.45625 85.61979 27.221874 85.979164L26.2375 85.854164L27.065624 81.447914L31.346874 81.447914L31.346874 82.447914L27.909374 82.447914L27.45625 84.760414Q28.221874 84.21354 29.065624 84.21354Q30.190624 84.21354 30.95625 84.99479Q31.7375 85.77604 31.7375 87.010414Q31.7375 88.166664 31.065624 89.02604Q30.2375 90.05729 28.815624 90.05729Q27.64375 90.05729 26.89375 89.40104Q26.159374 88.74479 26.05 87.666664ZM33.05 85.68229Q33.05 84.15104 33.3625 83.229164Q33.675 82.291664 34.284374 81.791664Q34.909374 81.291664 35.846874 81.291664Q36.534374 81.291664 37.05 81.572914Q37.58125 81.854164 37.925 82.385414Q38.26875 82.90104 38.45625 83.65104Q38.64375 84.40104 38.64375 85.68229Q38.64375 87.197914 38.33125 88.11979Q38.034374 89.041664 37.409374 89.55729Q36.8 90.05729 35.846874 90.05729Q34.6125 90.05729 33.89375 89.166664Q33.05 88.104164 33.05 85.68229ZM34.128124 85.68229Q34.128124 87.791664 34.628124 88.49479Q35.128124 89.197914 35.846874 89.197914Q36.58125 89.197914 37.065624 88.49479Q37.565624 87.791664 37.565624 85.68229Q37.565624 83.55729 37.065624 82.86979Q36.58125 82.166664 35.83125 82.166664Q35.1125 82.166664 34.675 82.77604Q34.128124 83.55729 34.128124 85.68229ZM40.05 85.68229Q40.05 84.15104 40.3625 83.229164Q40.675 82.291664 41.284374 81.791664Q41.909374 81.291664 42.846874 81.291664Q43.534374 81.291664 44.05 81.572914Q44.58125 81.854164 44.925 82.385414Q45.26875 82.90104 45.45625 83.65104Q45.64375 84.40104 45.64375 85.68229Q45.64375 87.197914 45.33125 88.11979Q45.034374 89.041664 44.409374 89.55729Q43.8 90.05729 42.846874 90.05729Q41.6125 90.05729 40.89375 89.166664Q40.05 88.104164 40.05 85.68229ZM41.128124 85.68229Q41.128124 87.791664 41.628124 88.49479Q42.128124 89.197914 42.846874 89.197914Q43.58125 89.197914 44.065624 88.49479Q44.565624 87.791664 44.565624 85.68229Q44.565624 83.55729 44.065624 82.86979Q43.58125 82.166664 42.83125 82.166664Q42.1125 82.166664 41.675 82.77604Q41.128124 83.55729 41.128124 85.68229ZM47.05 85.68229Q47.05 84.15104 47.3625 83.229164Q47.675 82.291664 48.284374 81.791664Q48.909374 81.291664 49.846874 81.291664Q50.534374 81.291664 51.05 81.572914Q51.58125 81.854164 51.925 82.385414Q52.26875 82.90104 52.45625 83.65104Q52.64375 84.40104 52.64375 85.68229Q52.64375 87.197914 52.33125 88.11979Q52.034374 89.041664 51.409374 89.55729Q50.8 90.05729 49.846874 90.05729Q48.6125 90.05729 47.89375 89.166664Q47.05 88.104164 47.05 85.68229ZM48.128124 85.68229Q48.128124 87.791664 48.628124 88.49479Q49.128124 89.197914 49.846874 89.197914Q50.58125 89.197914 51.065624 88.49479Q51.565624 87.791664 51.565624 85.68229Q51.565624 83.55729 51.065624 82.86979Q50.58125 82.166664 49.83125 82.166664Q49.1125 82.166664 48.675 82.77604Q48.128124 83.55729 48.128124 85.68229Z" fill-rule="nonzero"/><path fill="#000000" d="M86.5886 304.06195L82.19128 299.66464L82.86524 298.9907L83.52815 299.6536Q83.31823 298.93542 83.38452 298.58188Q83.45081 298.20624 83.71598 297.94107Q84.09163 297.56543 84.71035 297.41074L85.15229 298.3609Q84.71035 298.4714 84.44518 298.73657Q84.19106 298.9907 84.14687 299.34424Q84.10268 299.6757 84.290504 300.0182Q84.55567 300.54852 85.01971 301.01257L87.32885 303.32172L86.5886 304.06195ZM91.019066 296.80307L91.88085 296.11807Q92.37804 296.9688 92.2565 297.84164Q92.13497 298.71448 91.37262 299.4768Q90.4114 300.43805 89.24025 300.41595Q88.080154 300.3828 87.008446 299.3111Q85.90359 298.20624 85.870445 297.02405Q85.82625 295.8308 86.73223 294.9248Q87.61611 294.04092 88.76516 294.0851Q89.92526 294.1183 91.019066 295.21207Q91.08536 295.27838 91.21794 295.41095L87.93652 298.69238Q88.70992 299.37738 89.46122 299.39948Q90.20148 299.41052 90.7539 298.8581Q91.1627 298.4493 91.240036 297.95212Q91.317375 297.43283 91.019066 296.80307ZM87.37305 298.0405L89.82582 295.58774Q89.218155 295.06845 88.70992 295.02426Q87.91443 294.95798 87.35095 295.52145Q86.831665 296.0407 86.82062 296.7368Q86.82062 297.42178 87.37305 298.0405ZM95.63736 291.78702L96.465996 291.15726Q97.095764 292.0301 97.02947 292.9582Q96.96318 293.88626 96.245026 294.6044Q95.33905 295.51038 94.20105 295.47723Q93.06305 295.422 91.95819 294.31714Q91.25108 293.61005 90.952774 292.8477Q90.654465 292.06323 90.86439 291.323Q91.08536 290.5717 91.65988 289.99716Q92.36699 289.29007 93.18458 289.20166Q94.002174 289.0912 94.808716 289.63257L94.189995 290.47226Q93.64862 290.12976 93.16248 290.17395Q92.6653 290.2071 92.28965 290.58273Q91.72617 291.1462 91.78142 291.90857Q91.82561 292.65985 92.69845 293.5327Q93.593376 294.42764 94.333626 294.48288Q95.07388 294.53812 95.61526 293.99673Q96.057205 293.5548 96.0793 293.00238Q96.11244 292.4389 95.63736 291.78702ZM100.27775 293.75366L99.4933 293.146Q99.80266 292.96924 99.990486 292.7814Q100.23355 292.53833 100.288795 292.3063Q100.366135 292.07428 100.32194 291.83124Q100.2667 291.6434 99.990486 291.03574Q99.94629 290.96945 99.88 290.79266L93.79225 288.06366L94.59879 287.25714L98.05699 288.88126Q98.7199 289.1906 99.40491 289.58838Q99.01821 288.9365 98.708855 288.2736L97.08472 284.7712L97.82497 284.03094L100.6313 290.17395Q101.07324 291.1683 101.205826 291.58817Q101.3826 292.1627 101.283165 292.59357Q101.205826 293.02448 100.85227 293.37802Q100.64235 293.58795 100.27775 293.75366ZM103.415535 284.00885L104.24417 283.3791Q104.87394 284.25192 104.80765 285.18Q104.741356 286.1081 104.0232 286.82623Q103.11722 287.7322 101.97922 287.69907Q100.841225 287.64383 99.73637 286.53897Q99.02926 285.83188 98.73095 285.06952Q98.43264 284.28506 98.64256 283.54483Q98.86353 282.79352 99.43806 282.219Q100.145164 281.51187 100.96275 281.4235Q101.78035 281.31302 102.58689 281.8544L101.96817 282.6941Q101.426796 282.35156 100.94066 282.39578Q100.443474 282.42892 100.067825 282.80457Q99.50435 283.36804 99.55959 284.1304Q99.60378 284.88168 100.476616 285.75452Q101.37155 286.64944 102.1118 286.7047Q102.85206 286.75995 103.39343 286.21857Q103.83537 285.7766 103.857475 285.22418Q103.89062 284.6607 103.415535 284.00885ZM106.37654 284.27402L100.29984 278.19733L101.05114 277.446L107.127846 283.52274L106.37654 284.27402ZM103.305046 276.91568L102.44326 276.0539L103.194565 275.3026L104.05635 276.1644L103.305046 276.91568ZM108.51996 282.1306L104.122635 277.73328L104.87394 276.982L109.27126 281.3793L108.51996 282.1306ZM110.64128 280.00928L106.24396 275.61197L106.90687 274.94904L107.52559 275.56778Q107.29357 274.36346 108.2106 273.44644Q108.608345 273.0487 109.083435 272.86087Q109.56957 272.662 109.967316 272.7283Q110.36507 272.7946 110.740715 273.03766Q110.98379 273.21442 111.50307 273.7337L114.20996 276.4406L113.4697 277.18085L110.79596 274.5071Q110.33192 274.04306 110.02256 273.9105Q109.7132 273.7779 109.35965 273.8663Q108.99505 273.94363 108.69674 274.24194Q108.22165 274.71704 108.17745 275.37994Q108.13326 276.02075 108.972946 276.86044L111.38153 279.26904L110.64128 280.00928ZM115.812 275.56778L116.65168 274.94907Q117.02733 275.23633 117.39194 275.18106Q117.87807 275.11478 118.35316 274.6397Q118.87244 274.12042 118.93873 273.63428Q119.01607 273.1371 118.75091 272.67307Q118.585175 272.37476 117.844925 271.6566Q117.93331 272.71725 117.20411 273.44644Q116.29813 274.35245 115.14908 274.19775Q113.98899 274.032 113.08301 273.12604Q112.45324 272.49628 112.14388 271.74496Q111.83452 270.9716 111.97815 270.25342Q112.12178 269.53528 112.70735 268.9497Q113.4918 268.16525 114.6298 268.28677L114.099464 267.75644L114.78448 267.07144L118.585175 270.87213Q119.61269 271.89966 119.833664 272.54047Q120.054634 273.18127 119.84471 273.87735Q119.645836 274.58444 118.982925 275.24738Q118.19848 276.0318 117.35879 276.1644Q116.519104 276.29697 115.812 275.56778ZM113.79011 272.30844Q114.65189 273.17023 115.39215 273.2255Q116.1324 273.28073 116.65168 272.76144Q117.17096 272.24216 117.11572 271.50192Q117.071526 270.7506 116.231834 269.91092Q115.42529 269.10437 114.65189 269.06018Q113.88955 269.00494 113.38131 269.51318Q112.884125 270.01035 112.93937 270.7727Q112.99461 271.51297 113.79011 272.30844ZM118.41945 268.58508L117.668144 267.8338L119.96625 265.5357L120.717545 266.287L118.41945 268.58508Z" fill-rule="nonzero"/><path fill="#000000" d="M157.47491 315.36462L151.39821 309.28793L152.13847 308.54767L154.31503 310.72424Q154.23769 309.60834 155.03319 308.81284Q155.53036 308.31564 156.0828 308.16098Q156.63522 307.9842 157.13242 308.17203Q157.61855 308.3488 158.27042 309.00067L161.05464 311.7849L160.31439 312.52515L157.53015 309.7409Q156.96667 309.17743 156.4695 309.16638Q155.9723 309.15533 155.53036 309.5973Q155.19891 309.92874 155.07738 310.40384Q154.95584 310.8568 155.12157 311.28772Q155.28731 311.6965 155.80658 312.2158L158.21516 314.62436L157.47491 315.36462ZM165.30833 307.53122L164.65646 306.87933Q164.88849 308.14993 164.00461 309.0338Q163.6179 309.4205 163.13177 309.6194Q162.64563 309.79617 162.25893 309.7409Q161.86119 309.67462 161.46344 309.40945Q161.20932 309.24374 160.72319 308.7576L158.00525 306.03964L158.75655 305.28836L161.19827 307.73007Q161.7728 308.3046 162.02692 308.47034Q162.38046 308.6913 162.77821 308.64713Q163.17596 308.5808 163.51846 308.2383Q163.84993 307.90686 163.97145 307.45386Q164.09299 306.9788 163.91621 306.55893Q163.75049 306.12805 163.18701 305.56458L160.83366 303.21124L161.57393 302.47098L165.97124 306.8683L165.30833 307.53122ZM167.3744 305.46512L162.97708 301.0678L163.64 300.4049L164.25871 301.02362Q164.0267 299.81934 164.94373 298.90228Q165.34148 298.50455 165.81656 298.3167Q166.3027 298.11786 166.70045 298.18414Q167.09819 298.25043 167.47385 298.4935Q167.71692 298.6703 168.23619 299.18954L170.94308 301.89645L170.20284 302.6367L167.52908 299.96295Q167.06505 299.49893 166.75569 299.36633Q166.44633 299.23376 166.09277 299.32214Q165.72818 299.39948 165.42987 299.69778Q164.95477 300.17288 164.91058 300.8358Q164.8664 301.4766 165.70609 302.31628L168.11465 304.72488L167.3744 305.46512ZM173.5837 296.02966L174.41234 295.3999Q175.0421 296.27274 174.9758 297.2008Q174.90952 298.1289 174.19136 298.84705Q173.28539 299.75302 172.14738 299.71988Q171.00938 299.66464 169.90453 298.55978Q169.19742 297.8527 168.89911 297.09033Q168.6008 296.30588 168.81071 295.56564Q169.0317 294.81433 169.60622 294.2398Q170.31332 293.5327 171.13092 293.4443Q171.9485 293.33383 172.75505 293.8752L172.13634 294.7149Q171.59496 294.3724 171.10881 294.4166Q170.61163 294.44974 170.23598 294.82538Q169.6725 295.38885 169.72775 296.1512Q169.77194 296.9025 170.64478 297.77533Q171.5397 298.6703 172.27997 298.72552Q173.02022 298.78076 173.5616 298.23938Q174.00354 297.79745 174.02563 297.24503Q174.05878 296.68155 173.5837 296.02966ZM176.5668 296.27274L170.4901 290.19604L171.23035 289.45578L173.4069 291.63235Q173.32957 290.51645 174.12508 289.72095Q174.62225 289.2238 175.17468 289.0691Q175.72711 288.8923 176.22429 289.08014Q176.71043 289.25693 177.36229 289.90878L180.14653 292.69302L179.40627 293.43326L176.62204 290.64905Q176.05856 290.08557 175.56139 290.07452Q175.0642 290.06345 174.62225 290.5054Q174.2908 290.83685 174.16927 291.31195Q174.04773 291.76492 174.21346 292.19583Q174.37918 292.6046 174.89847 293.1239L177.30705 295.5325L176.5668 296.27274ZM183.10753 286.90356L183.96931 286.21857Q184.4665 287.0693 184.34497 287.94214Q184.22343 288.81497 183.46109 289.57733Q182.49986 290.53854 181.32872 290.51645Q180.16862 290.4833 179.09691 289.4116Q177.99207 288.30673 177.95891 287.12454Q177.91472 285.9313 178.8207 285.02533Q179.70459 284.14145 180.85364 284.18564Q182.01373 284.21878 183.10753 285.3126Q183.17383 285.37888 183.30641 285.51147L180.025 288.79288Q180.79839 289.47787 181.54968 289.5Q182.28995 289.51105 182.84238 288.95862Q183.25116 288.5498 183.3285 288.0526Q183.40584 287.53336 183.10753 286.90356ZM179.46152 288.14102L181.91429 285.68823Q181.30663 285.16895 180.79839 285.12476Q180.0029 285.05847 179.43942 285.62195Q178.92014 286.14124 178.90909 286.83728Q178.90909 287.5223 179.46152 288.14102ZM186.4663 286.37326L182.06897 281.97592L182.73189 281.31302L183.3506 281.93173Q183.11858 280.72745 184.03561 279.81042Q184.43336 279.41266 184.90845 279.22485Q185.39458 279.02597 185.79233 279.09225Q186.19008 279.15854 186.56573 279.4016Q186.80879 279.5784 187.32808 280.0977L190.03497 282.80457L189.29472 283.54483L186.62097 280.87106Q186.15694 280.40704 185.84758 280.27444Q185.53821 280.14188 185.18466 280.23026Q184.82005 280.3076 184.52174 280.6059Q184.04666 281.081 184.00247 281.7439Q183.95827 282.38474 184.79796 283.22443L187.20654 285.633L186.4663 286.37326ZM192.37726 279.13644L193.13962 279.67783Q192.8855 280.0645 192.64243 280.3076Q192.23363 280.7164 191.89113 280.81583Q191.53757 280.9042 191.22821 280.79373Q190.9299 280.6722 190.25594 279.99823L187.72583 277.4681L187.18445 278.0095L186.60992 277.43497L187.1513 276.8936L186.0575 275.7998L186.3558 274.61758L187.89156 276.15335L188.64285 275.40204L189.21738 275.97656L188.46608 276.72787L191.04039 279.3022Q191.3608 279.6226 191.48233 279.67783Q191.61491 279.72202 191.75854 279.68887Q191.90218 279.65573 192.0679 279.49Q192.20049 279.35742 192.37726 279.13644ZM191.06248 277.37973Q189.83609 276.15335 189.92448 274.8938Q190.00183 273.8442 190.81941 273.0266Q191.7254 272.12064 192.89655 272.14273Q194.06769 272.14273 195.1173 273.19232Q195.96803 274.04306 196.20006 274.78333Q196.43208 275.5236 196.2111 276.29697Q195.99014 277.04828 195.41562 277.6228Q194.49858 278.53983 193.33849 278.52878Q192.17839 278.49564 191.06248 277.37973ZM191.82483 276.61737Q192.66452 277.45706 193.44897 277.51233Q194.24446 277.55652 194.79689 277.0041Q195.36037 276.4406 195.30513 275.65616Q195.24988 274.8717 194.38809 274.00992Q193.57051 273.19232 192.77501 273.14813Q191.99057 273.0929 191.43814 273.64532Q190.88571 274.19775 190.9299 274.99326Q190.97409 275.76663 191.82483 276.61737ZM196.01224 272.43Q194.78584 271.20358 194.87424 269.94406Q194.95157 268.89444 195.76917 268.07687Q196.67514 267.17087 197.8463 267.19296Q199.01744 267.19296 200.06705 268.24258Q200.91779 269.09332 201.14981 269.8336Q201.38182 270.57382 201.16086 271.34723Q200.93988 272.09854 200.36536 272.67307Q199.44833 273.5901 198.28824 273.57904Q197.12814 273.5459 196.01224 272.43ZM196.77458 271.66763Q197.61427 272.50732 198.39871 272.56256Q199.19421 272.60675 199.74664 272.05432Q200.31012 271.49084 200.25487 270.70642Q200.19963 269.92197 199.33784 269.06018Q198.52025 268.24258 197.72476 268.1984Q196.9403 268.14316 196.38788 268.6956Q195.83545 269.24802 195.87965 270.0435Q195.92384 270.8169 196.77458 271.66763ZM204.39807 267.11563L205.16043 267.657Q204.90631 268.0437 204.66324 268.28677Q204.25444 268.6956 203.91194 268.795Q203.5584 268.8834 203.24902 268.77292Q202.95071 268.6514 202.27676 267.97742L199.74664 265.4473L199.20526 265.98868L198.63074 265.41415L199.17212 264.87277L198.07831 263.77896L198.37662 262.59677L199.91237 264.13254L200.66367 263.38123L201.23819 263.95575L200.4869 264.70706L203.0612 267.28137Q203.3816 267.60178 203.50314 267.657Q203.63573 267.7012 203.77936 267.66806Q203.92299 267.63492 204.08871 267.46918Q204.2213 267.3366 204.39807 267.11563Z" fill-rule="nonzero"/><path fill="#000000" d="M271.0307 287.37866L268.87625 285.22418Q268.94254 285.64404 268.78784 286.1302Q268.63318 286.5942 268.27963 286.94775Q267.49518 287.7322 266.313 287.67697Q265.11975 287.6107 264.02594 286.51688Q263.363 285.85397 263.07574 285.10266Q262.77744 284.3403 262.94318 283.64426Q263.10892 282.9261 263.62817 282.40683Q264.44577 281.58923 265.59482 281.8102L265.00925 281.2246L265.68323 280.55066L271.77097 286.6384L271.0307 287.37866ZM264.8214 285.78766Q265.67215 286.6384 266.44556 286.7047Q267.23 286.75995 267.7272 286.26276Q268.20227 285.78766 268.14703 285.04742Q268.08075 284.2961 267.26315 283.47852Q266.37927 282.59464 265.57272 282.5173Q264.77722 282.42892 264.28006 282.9261Q263.80496 283.40118 263.8823 284.16354Q263.94858 284.91483 264.8214 285.78766ZM274.36737 280.66113L273.7155 280.00928Q273.9475 281.27988 273.06363 282.16376Q272.67694 282.55045 272.1908 282.74933Q271.70468 282.9261 271.31796 282.87085Q270.92023 282.80457 270.52246 282.5394Q270.26837 282.37366 269.78223 281.88754L267.06427 279.1696L267.81558 278.4183L270.25732 280.86002Q270.83185 281.43454 271.08594 281.60028Q271.4395 281.82126 271.83725 281.77704Q272.235 281.71075 272.5775 281.36826Q272.90897 281.0368 273.0305 280.5838Q273.15204 280.10873 272.97525 279.68887Q272.8095 279.258 272.24603 278.69452L269.8927 276.34116L270.63297 275.60092L275.03027 279.99823L274.36737 280.66113ZM279.3171 275.7114L278.66525 275.05954Q278.89728 276.3301 278.0134 277.214Q277.62668 277.6007 277.14056 277.79956Q276.65442 277.97635 276.26773 277.9211Q275.86996 277.85483 275.47223 277.58966Q275.2181 277.42392 274.73196 276.93777L272.01404 274.21985L272.76532 273.46854L275.20706 275.91028Q275.7816 276.4848 276.0357 276.6505Q276.38925 276.8715 276.787 276.8273Q277.18475 276.76102 277.52725 276.41852Q277.8587 276.08704 277.98026 275.63406Q278.10178 275.15897 277.925 274.73914Q277.75928 274.30823 277.1958 273.74475L274.84247 271.39142L275.5827 270.65115L279.98004 275.0485L279.3171 275.7114ZM280.88602 274.14252L280.201 270.25342L276.61023 269.62366L277.5383 268.6956L279.23978 269.04913Q279.72592 269.1596 280.04633 269.23697Q279.94687 268.78397 279.89163 268.41937L279.59332 266.64053L280.48825 265.7456L281.02963 269.3364L284.99606 270.03244L284.0901 270.93842L281.8141 270.4744L281.20642 270.35284L281.78094 273.2476L280.88602 274.14252ZM282.7974 268.58508L282.0461 267.8338L284.3442 265.5357L285.0955 266.287L282.7974 268.58508Z" fill-rule="nonzero"/><path fill="#000000" d="M345.0327 288.95862L345.86136 288.32886Q346.49112 289.2017 346.42484 290.12976Q346.35852 291.05783 345.64038 291.776Q344.7344 292.68198 343.5964 292.64883Q342.4584 292.5936 341.35355 291.48874Q340.64642 290.78162 340.3481 290.0193Q340.0498 289.23483 340.25974 288.49457Q340.4807 287.7433 341.05524 287.16876Q341.76233 286.46164 342.57993 286.37326Q343.39752 286.26276 344.20407 286.80414L343.58536 287.64383Q343.04398 287.30133 342.55783 287.34552Q342.06064 287.37866 341.685 287.75433Q341.12152 288.3178 341.17676 289.08014Q341.22095 289.83145 342.09378 290.70428Q342.98874 291.5992 343.72897 291.65445Q344.46924 291.7097 345.01062 291.16833Q345.45255 290.72638 345.47464 290.17395Q345.50778 289.61047 345.0327 288.95862ZM347.9937 289.2238L341.91702 283.14706L342.6683 282.39578L348.74503 288.47247L347.9937 289.2238ZM348.0158 285.55566L347.2645 284.80435L349.56262 282.50626L350.3139 283.25757L348.0158 285.55566ZM353.9268 281.96487L354.68912 282.50626Q354.43503 282.89297 354.19196 283.13602Q353.78314 283.54483 353.44064 283.64426Q353.0871 283.73267 352.77774 283.62216Q352.47943 283.50064 351.80545 282.82666L349.27536 280.29654L348.73398 280.83792L348.15945 280.2634L348.70084 279.72202L347.60703 278.62823L347.90533 277.44604L349.44107 278.98178L350.19238 278.23047L350.7669 278.805L350.0156 279.5563L352.5899 282.1306Q352.9103 282.45102 353.03186 282.50626Q353.16443 282.55045 353.30807 282.5173Q353.4517 282.48416 353.61743 282.31845Q353.75 282.18585 353.9268 281.96487ZM355.77188 281.44562L355.07584 282.14166L348.99915 276.06497L349.75043 275.31366L351.91595 277.4792Q351.80545 276.41852 352.53467 275.6893Q352.94345 275.28052 353.46274 275.09268Q353.98203 274.88278 354.51236 274.94907Q355.05374 275.0043 355.60617 275.29156Q356.1586 275.57883 356.63367 276.05392Q357.76062 277.18088 357.81586 278.36307Q357.87112 279.54526 357.09772 280.31866Q356.31326 281.1031 355.21945 280.8932L355.77188 281.44562ZM353.52902 279.22485Q354.31348 280.00928 354.888 280.14188Q355.81607 280.36285 356.41272 279.76624Q356.89883 279.2801 356.83255 278.50668Q356.7773 277.72223 355.92657 276.8715Q355.0648 276.0097 354.31348 275.94342Q353.5622 275.87714 353.07605 276.36328Q352.5899 276.8494 352.6562 277.6449Q352.7225 278.4183 353.52902 279.22485ZM360.03662 277.18088L355.6393 272.78354L356.30222 272.12064L356.92093 272.73935Q356.6889 271.53506 357.60596 270.61804Q358.0037 270.22028 358.4788 270.03247Q358.9649 269.8336 359.36267 269.89987Q359.7604 269.96616 360.13608 270.20923Q360.37912 270.38602 360.8984 270.9053L363.60532 273.61218L362.86505 274.35245L360.1913 271.67868Q359.72726 271.21466 359.4179 271.08206Q359.10855 270.9495 358.755 271.03787Q358.39038 271.1152 358.09207 271.4135Q357.617 271.8886 357.5728 272.5515Q357.5286 273.19235 358.3683 274.03204L360.7769 276.4406L360.03662 277.18088ZM364.96426 272.2532L358.88757 266.1765L359.6389 265.4252L365.71558 271.50192L364.96426 272.2532ZM364.9864 268.58508L364.23508 267.8338L366.53317 265.5357L367.2845 266.287L364.9864 268.58508Z" fill-rule="nonzero"/><path fill="#000000" d="M425.3545 294.05197L419.60925 291.0026L420.38266 290.2292L423.61987 292.07428L424.82416 292.74826Q424.77997 292.65985 424.1502 291.61026L422.27194 288.33987L423.0343 287.57755L426.24942 289.46683L427.3101 290.08554L426.71347 288.98068L424.92358 285.68823L425.6528 284.959L428.66907 290.73743L427.89566 291.5108L424.559 289.56625L423.64197 289.0028L426.13895 293.26752L425.3545 294.05197ZM428.43704 286.5721Q427.21063 285.34573 427.29904 284.08618Q427.37637 283.0366 428.19397 282.219Q429.09995 281.31302 430.2711 281.3351Q431.44223 281.3351 432.49185 282.3847Q433.3426 283.23544 433.57462 283.9757Q433.80664 284.71597 433.58566 285.48935Q433.3647 286.24066 432.79016 286.8152Q431.87314 287.7322 430.71304 287.72116Q429.55295 287.68802 428.43704 286.5721ZM429.19937 285.80975Q430.03906 286.64944 430.82352 286.70468Q431.61902 286.7489 432.17145 286.19647Q432.73492 285.633 432.6797 284.84854Q432.62442 284.0641 431.76263 283.2023Q430.94507 282.3847 430.14957 282.3405Q429.3651 282.28528 428.81268 282.8377Q428.26025 283.39014 428.30444 284.18564Q428.34863 284.959 429.19937 285.80975ZM433.38678 281.62238Q432.1604 280.39597 432.24878 279.13644Q432.3261 278.08682 433.1437 277.26923Q434.04968 276.36325 435.22086 276.38535Q436.392 276.38535 437.4416 277.43497Q438.29233 278.2857 438.52435 279.02597Q438.75638 279.7662 438.5354 280.5396Q438.31442 281.29092 437.7399 281.86545Q436.82288 282.78247 435.66278 282.77142Q434.5027 282.73828 433.38678 281.62238ZM434.14914 280.86002Q434.98883 281.6997 435.77325 281.75494Q436.56876 281.79913 437.1212 281.2467Q437.68466 280.68323 437.62943 279.8988Q437.5742 279.11435 436.7124 278.25256Q435.8948 277.43497 435.0993 277.39078Q434.31485 277.33554 433.76242 277.88797Q433.21 278.4404 433.2542 279.23587Q433.2984 280.00928 434.14914 280.86002ZM440.8114 278.59506L434.7347 272.51837L435.486 271.76706L438.95526 275.2363L438.9221 271.68973L439.89438 270.71747L439.8281 274.032L444.45743 274.94904L443.5404 275.8661L439.8281 275.0706L439.81705 276.09808L441.5627 277.84375L440.8114 278.59506ZM439.83914 269.1375L438.97736 268.27573L439.72864 267.5244L440.59042 268.3862L439.83914 269.1375ZM445.05405 274.35242L440.65674 269.9551L441.40802 269.2038L445.80536 273.60114L445.05405 274.35242ZM448.76636 267.81168L449.62814 267.12668Q450.12534 267.97742 450.00378 268.85025Q449.88226 269.72308 449.1199 270.48544Q448.1587 271.44666 446.98755 271.42456Q445.82745 271.39142 444.75574 270.3197Q443.65088 269.21484 443.61774 268.03265Q443.57355 266.83942 444.47952 265.93344Q445.3634 265.04956 446.51245 265.09375Q447.67255 265.1269 448.76636 266.2207Q448.83264 266.287 448.96524 266.41956L445.6838 269.701Q446.4572 270.386 447.2085 270.40808Q447.94876 270.41913 448.5012 269.86673Q448.90997 269.45792 448.98734 268.96072Q449.06467 268.44147 448.76636 267.81168ZM445.12033 269.04913L447.57312 266.59634Q446.96545 266.07706 446.4572 266.03287Q445.6617 265.96658 445.09824 266.53006Q444.57895 267.04935 444.5679 267.7454Q444.5679 268.43042 445.12033 269.04913Z" fill-rule="nonzero"/><path fill="#000000" d="M518.8572 282.73828L513.11194 279.68887L513.8853 278.91547L517.12256 280.7606L518.32684 281.43454Q518.28265 281.34616 517.6529 280.29654L515.7746 277.02618L516.537 276.26382L519.7521 278.15314L520.81274 278.77185L520.2161 277.667L518.4263 274.37454L519.15546 273.64532L522.17175 279.4237L521.3983 280.1971L518.06165 278.25256L517.14465 277.6891L519.6416 281.95383L518.8572 282.73828ZM521.9397 275.25842Q520.7133 274.032 520.8017 272.7725Q520.879 271.72287 521.69666 270.90527Q522.6026 269.9993 523.77374 270.0214Q524.9449 270.0214 525.9945 271.071Q526.8453 271.92175 527.0773 272.66202Q527.3093 273.40225 527.0883 274.17566Q526.8674 274.92697 526.29285 275.5015Q525.3758 276.41852 524.2157 276.40747Q523.0556 276.37433 521.9397 275.25842ZM522.7021 274.49606Q523.54175 275.33575 524.3262 275.391Q525.1217 275.43518 525.67413 274.88275Q526.2376 274.31927 526.1824 273.53485Q526.12714 272.7504 525.2653 271.8886Q524.44775 271.071 523.6522 271.02682Q522.8678 270.9716 522.31537 271.52402Q521.76294 272.07645 521.8071 272.87192Q521.8513 273.64532 522.7021 274.49606ZM526.88947 270.30865Q525.6631 269.08228 525.75146 267.82275Q525.8288 266.77313 526.64636 265.95554Q527.55237 265.04956 528.7235 265.07166Q529.89465 265.07166 530.9443 266.12128Q531.795 266.97202 532.02704 267.71225Q532.25903 268.4525 532.0381 269.22592Q531.81714 269.9772 531.2426 270.55173Q530.32556 271.46875 529.16547 271.4577Q528.0054 271.42456 526.88947 270.30865ZM527.6518 269.54633Q528.4915 270.38602 529.27594 270.44125Q530.0714 270.48544 530.62384 269.933Q531.1873 269.36954 531.1321 268.58508Q531.07684 267.80066 530.2151 266.93887Q529.39746 266.12128 528.602 266.0771Q527.81757 266.02182 527.26514 266.57425Q526.7127 267.12668 526.7569 267.92218Q526.8011 268.6956 527.6518 269.54633Z" fill-rule="nonzero"/><path fill="#757575" d="M25.01875 37.55L25.01875 34.128124L18.8 34.128124L18.8 32.503124L25.33125 23.2375L26.76875 23.2375L26.76875 32.503124L28.70625 32.503124L28.70625 34.128124L26.76875 34.128124L26.76875 37.55L25.01875 37.55ZM25.01875 32.503124L25.01875 26.05L20.534374 32.503124L25.01875 32.503124ZM30.378124 30.4875Q30.378124 27.95625 30.89375 26.409374Q31.425 24.846874 32.45625 24.01875Q33.4875 23.175 35.05 23.175Q36.20625 23.175 37.065624 23.64375Q37.940624 24.096874 38.503124 24.971874Q39.065624 25.846874 39.39375 27.1125Q39.721874 28.3625 39.721874 30.4875Q39.721874 33.003124 39.190624 34.55Q38.675 36.096874 37.64375 36.95625Q36.628124 37.8 35.05 37.8Q32.971874 37.8 31.8 36.315624Q30.378124 34.51875 30.378124 30.4875ZM32.190624 30.4875Q32.190624 34.01875 33.003124 35.190624Q33.83125 36.346874 35.05 36.346874Q36.253124 36.346874 37.08125 35.175Q37.909374 34.003124 37.909374 30.4875Q37.909374 26.95625 37.08125 25.8Q36.253124 24.628124 35.034374 24.628124Q33.815624 24.628124 33.096874 25.659374Q32.190624 26.95625 32.190624 30.4875ZM41.378124 30.4875Q41.378124 27.95625 41.89375 26.409374Q42.425 24.846874 43.45625 24.01875Q44.4875 23.175 46.05 23.175Q47.20625 23.175 48.065624 23.64375Q48.940624 24.096874 49.503124 24.971874Q50.065624 25.846874 50.39375 27.1125Q50.721874 28.3625 50.721874 30.4875Q50.721874 33.003124 50.190624 34.55Q49.675 36.096874 48.64375 36.95625Q47.628124 37.8 46.05 37.8Q43.971874 37.8 42.8 36.315624Q41.378124 34.51875 41.378124 30.4875ZM43.190624 30.4875Q43.190624 34.01875 44.003124 35.190624Q44.83125 36.346874 46.05 36.346874Q47.253124 36.346874 48.08125 35.175Q48.909374 34.003124 48.909374 30.4875Q48.909374 26.95625 48.08125 25.8Q47.253124 24.628124 46.034374 24.628124Q44.815624 24.628124 44.096874 25.659374Q43.190624 26.95625 43.190624 30.4875ZM65.64375 33.753124L67.3625 33.971874Q67.08125 35.76875 65.90938 36.784374Q64.75313 37.784374 63.05 37.784374Q60.925 37.784374 59.628124 36.39375Q58.33125 35.003124 58.33125 32.409374Q58.33125 30.721874 58.878124 29.471874Q59.440624 28.20625 60.58125 27.58125Q61.721874 26.940624 63.065624 26.940624Q64.75313 26.940624 65.81563 27.8Q66.89375 28.659374 67.20625 30.221874L65.4875 30.4875Q65.25313 29.440624 64.62813 28.925Q64.00313 28.39375 63.128124 28.39375Q61.8 28.39375 60.971874 29.346874Q60.14375 30.3 60.14375 32.346874Q60.14375 34.440624 60.940624 35.39375Q61.7375 36.33125 63.034374 36.33125Q64.06563 36.33125 64.75313 35.70625Q65.45625 35.065624 65.64375 33.753124ZM68.22188 32.3625Q68.22188 29.4875 69.81563 28.096874Q71.15938 26.940624 73.08125 26.940624Q75.22188 26.940624 76.56563 28.346874Q77.925 29.753124 77.925 32.221874Q77.925 34.221874 77.33125 35.378124Q76.7375 36.51875 75.58125 37.159374Q74.44063 37.784374 73.08125 37.784374Q70.89375 37.784374 69.55 36.39375Q68.22188 34.9875 68.22188 32.3625ZM70.01875 32.3625Q70.01875 34.3625 70.87813 35.346874Q71.75313 36.33125 73.08125 36.33125Q74.39375 36.33125 75.25313 35.346874Q76.12813 34.346874 76.12813 32.3Q76.12813 30.378124 75.25313 29.39375Q74.37813 28.39375 73.08125 28.39375Q71.75313 28.39375 70.87813 29.39375Q70.01875 30.378124 70.01875 32.3625ZM79.8625 37.55L79.8625 27.175L81.45625 27.175L81.45625 28.659374Q82.59688 26.940624 84.75313 26.940624Q85.69063 26.940624 86.47188 27.284374Q87.26875 27.6125 87.65938 28.159374Q88.05 28.70625 88.20625 29.45625Q88.3 29.95625 88.3 31.175L88.3 37.55L86.53438 37.55L86.53438 31.2375Q86.53438 30.159374 86.33125 29.628124Q86.12813 29.096874 85.59688 28.784374Q85.08125 28.471874 84.37813 28.471874Q83.25313 28.471874 82.44063 29.190624Q81.62813 29.89375 81.62813 31.878124L81.62813 37.55L79.8625 37.55ZM89.8625 37.55L89.8625 27.175L91.45625 27.175L91.45625 28.659374Q92.59688 26.940624 94.75313 26.940624Q95.69063 26.940624 96.47188 27.284374Q97.26875 27.6125 97.65938 28.159374Q98.05 28.70625 98.20625 29.45625Q98.3 29.95625 98.3 31.175L98.3 37.55L96.53438 37.55L96.53438 31.2375Q96.53438 30.159374 96.33125 29.628124Q96.12813 29.096874 95.59688 28.784374Q95.08125 28.471874 94.37813 28.471874Q93.25313 28.471874 92.44063 29.190624Q91.62813 29.89375 91.62813 31.878124L91.62813 37.55L89.8625 37.55ZM106.97188 34.20625L108.78438 34.440624Q108.3625 36.01875 107.19063 36.909374Q106.03438 37.784374 104.22188 37.784374Q101.95625 37.784374 100.6125 36.39375Q99.28438 34.9875 99.28438 32.45625Q99.28438 29.83125 100.62813 28.39375Q101.97188 26.940624 104.12813 26.940624Q106.20625 26.940624 107.51875 28.3625Q108.84688 29.76875 108.84688 32.346874Q108.84688 32.503124 108.83125 32.815624L101.09688 32.815624Q101.19063 34.51875 102.06563 35.425Q102.94063 36.33125 104.2375 36.33125Q105.20625 36.33125 105.87813 35.83125Q106.56563 35.315624 106.97188 34.20625ZM101.19063 31.3625L106.9875 31.3625Q106.87813 30.065624 106.33125 29.409374Q105.4875 28.39375 104.14375 28.39375Q102.94063 28.39375 102.1125 29.20625Q101.28438 30.003124 101.19063 31.3625ZM117.64375 33.753124L119.3625 33.971874Q119.08125 35.76875 117.90938 36.784374Q116.75313 37.784374 115.05 37.784374Q112.925 37.784374 111.62813 36.39375Q110.33125 35.003124 110.33125 32.409374Q110.33125 30.721874 110.87813 29.471874Q111.44063 28.20625 112.58125 27.58125Q113.72188 26.940624 115.06563 26.940624Q116.75313 26.940624 117.81563 27.8Q118.89375 28.659374 119.20625 30.221874L117.4875 30.4875Q117.25313 29.440624 116.62813 28.925Q116.00313 28.39375 115.12813 28.39375Q113.8 28.39375 112.97188 29.346874Q112.14375 30.3 112.14375 32.346874Q112.14375 34.440624 112.94063 35.39375Q113.7375 36.33125 115.03438 36.33125Q116.06563 36.33125 116.75313 35.70625Q117.45625 35.065624 117.64375 33.753124ZM124.70625 35.971874L124.95625 37.534374Q124.22188 37.690624 123.62813 37.690624Q122.675 37.690624 122.14375 37.39375Q121.62813 37.08125 121.40938 36.596874Q121.19063 36.096874 121.19063 34.51875L121.19063 28.55L119.90938 28.55L119.90938 27.175L121.19063 27.175L121.19063 24.6125L122.94063 23.55L122.94063 27.175L124.70625 27.175L124.70625 28.55L122.94063 28.55L122.94063 34.6125Q122.94063 35.3625 123.03438 35.58125Q123.12813 35.784374 123.33125 35.925Q123.55 36.05 123.94063 36.05Q124.22188 36.05 124.70625 35.971874ZM126.87813 25.253124L126.87813 23.2375L128.64375 23.2375L128.64375 25.253124L126.87813 25.253124ZM126.87813 37.55L126.87813 27.175L128.64375 27.175L128.64375 37.55L126.87813 37.55ZM130.22188 32.3625Q130.22188 29.4875 131.81563 28.096874Q133.15938 26.940624 135.08125 26.940624Q137.22188 26.940624 138.56563 28.346874Q139.925 29.753124 139.925 32.221874Q139.925 34.221874 139.33125 35.378124Q138.7375 36.51875 137.58125 37.159374Q136.44063 37.784374 135.08125 37.784374Q132.89375 37.784374 131.55 36.39375Q130.22188 34.9875 130.22188 32.3625ZM132.01875 32.3625Q132.01875 34.3625 132.87813 35.346874Q133.75313 36.33125 135.08125 36.33125Q136.39375 36.33125 137.25313 35.346874Q138.12813 34.346874 138.12813 32.3Q138.12813 30.378124 137.25313 29.39375Q136.37813 28.39375 135.08125 28.39375Q133.75313 28.39375 132.87813 29.39375Q132.01875 30.378124 132.01875 32.3625ZM141.8625 37.55L141.8625 27.175L143.45625 27.175L143.45625 28.659374Q144.59688 26.940624 146.75313 26.940624Q147.69063 26.940624 148.47188 27.284374Q149.26875 27.6125 149.65938 28.159374Q150.05 28.70625 150.20625 29.45625Q150.3 29.95625 150.3 31.175L150.3 37.55L148.53438 37.55L148.53438 31.2375Q148.53438 30.159374 148.33125 29.628124Q148.12813 29.096874 147.59688 28.784374Q147.08125 28.471874 146.37813 28.471874Q145.25313 28.471874 144.44063 29.190624Q143.62813 29.89375 143.62813 31.878124L143.62813 37.55L141.8625 37.55ZM151.15938 34.45625L152.90938 34.175Q153.05 35.221874 153.72188 35.784374Q154.39375 36.33125 155.59688 36.33125Q156.8 36.33125 157.37813 35.846874Q157.97188 35.346874 157.97188 34.690624Q157.97188 34.096874 157.45625 33.753124Q157.09688 33.51875 155.65938 33.159374Q153.72188 32.659374 152.97188 32.315624Q152.2375 31.95625 151.84688 31.33125Q151.45625 30.690624 151.45625 29.925Q151.45625 29.2375 151.76875 28.64375Q152.09688 28.05 152.64375 27.659374Q153.05 27.3625 153.75313 27.159374Q154.47188 26.940624 155.28438 26.940624Q156.50313 26.940624 157.425 27.3Q158.34688 27.64375 158.78438 28.253124Q159.22188 28.846874 159.39375 29.846874L157.675 30.08125Q157.55 29.284374 156.9875 28.846874Q156.425 28.39375 155.40938 28.39375Q154.19063 28.39375 153.675 28.8Q153.15938 29.190624 153.15938 29.721874Q153.15938 30.065624 153.37813 30.346874Q153.58125 30.628124 154.05 30.815624Q154.31563 30.909374 155.59688 31.253124Q157.47188 31.753124 158.20625 32.08125Q158.94063 32.39375 159.3625 33.003124Q159.78438 33.596874 159.78438 34.503124Q159.78438 35.378124 159.26875 36.159374Q158.75313 36.940624 157.78438 37.3625Q156.81563 37.784374 155.59688 37.784374Q153.58125 37.784374 152.51875 36.940624Q151.45625 36.096874 151.15938 34.45625ZM167.84688 37.55L167.84688 27.175L169.425 27.175L169.425 28.753124Q170.03438 27.64375 170.55 27.3Q171.06563 26.940624 171.675 26.940624Q172.56563 26.940624 173.4875 27.503124L172.87813 29.14375Q172.2375 28.753124 171.59688 28.753124Q171.01875 28.753124 170.55 29.1125Q170.09688 29.45625 169.89375 30.065624Q169.6125 31.003124 169.6125 32.1125L169.6125 37.55L167.84688 37.55ZM181.97188 34.20625L183.78438 34.440624Q183.3625 36.01875 182.19063 36.909374Q181.03438 37.784374 179.22188 37.784374Q176.95625 37.784374 175.6125 36.39375Q174.28438 34.9875 174.28438 32.45625Q174.28438 29.83125 175.62813 28.39375Q176.97188 26.940624 179.12813 26.940624Q181.20625 26.940624 182.51875 28.3625Q183.84688 29.76875 183.84688 32.346874Q183.84688 32.503124 183.83125 32.815624L176.09688 32.815624Q176.19063 34.51875 177.06563 35.425Q177.94063 36.33125 179.2375 36.33125Q180.20625 36.33125 180.87813 35.83125Q181.56563 35.315624 181.97188 34.20625ZM176.19063 31.3625L181.9875 31.3625Q181.87813 30.065624 181.33125 29.409374Q180.4875 28.39375 179.14375 28.39375Q177.94063 28.39375 177.1125 29.20625Q176.28438 30.003124 176.19063 31.3625ZM192.4875 41.51875L192.4875 36.440624Q192.06563 37.01875 191.33125 37.409374Q190.59688 37.784374 189.76875 37.784374Q187.925 37.784374 186.58125 36.315624Q185.25313 34.83125 185.25313 32.26875Q185.25313 30.70625 185.78438 29.471874Q186.33125 28.221874 187.3625 27.58125Q188.39375 26.940624 189.62813 26.940624Q191.55 26.940624 192.65938 28.565624L192.65938 27.175L194.2375 27.175L194.2375 41.51875L192.4875 41.51875ZM187.06563 32.33125Q187.06563 34.33125 187.89375 35.33125Q188.7375 36.33125 189.90938 36.33125Q191.03438 36.33125 191.84688 35.39375Q192.65938 34.440624 192.65938 32.4875Q192.65938 30.425 191.8 29.378124Q190.94063 28.33125 189.8 28.33125Q188.65938 28.33125 187.8625 29.3Q187.06563 30.26875 187.06563 32.33125ZM203.65938 37.55L203.65938 36.01875Q202.45625 37.784374 200.37813 37.784374Q199.45625 37.784374 198.65938 37.440624Q197.8625 37.08125 197.47188 36.55Q197.09688 36.01875 196.94063 35.2375Q196.83125 34.721874 196.83125 33.596874L196.83125 27.175L198.58125 27.175L198.58125 32.925Q198.58125 34.3 198.69063 34.784374Q198.8625 35.471874 199.39375 35.878124Q199.94063 36.26875 200.72188 36.26875Q201.51875 36.26875 202.20625 35.8625Q202.90938 35.45625 203.19063 34.76875Q203.4875 34.065624 203.4875 32.7375L203.4875 27.175L205.2375 27.175L205.2375 37.55L203.65938 37.55ZM213.97188 34.20625L215.78438 34.440624Q215.3625 36.01875 214.19063 36.909374Q213.03438 37.784374 211.22188 37.784374Q208.95625 37.784374 207.6125 36.39375Q206.28438 34.9875 206.28438 32.45625Q206.28438 29.83125 207.62813 28.39375Q208.97188 26.940624 211.12813 26.940624Q213.20625 26.940624 214.51875 28.3625Q215.84688 29.76875 215.84688 32.346874Q215.84688 32.503124 215.83125 32.815624L208.09688 32.815624Q208.19063 34.51875 209.06563 35.425Q209.94063 36.33125 211.2375 36.33125Q212.20625 36.33125 212.87813 35.83125Q213.56563 35.315624 213.97188 34.20625ZM208.19063 31.3625L213.9875 31.3625Q213.87813 30.065624 213.33125 29.409374Q212.4875 28.39375 211.14375 28.39375Q209.94063 28.39375 209.1125 29.20625Q208.28438 30.003124 208.19063 31.3625ZM217.15938 34.45625L218.90938 34.175Q219.05 35.221874 219.72188 35.784374Q220.39375 36.33125 221.59688 36.33125Q222.8 36.33125 223.37813 35.846874Q223.97188 35.346874 223.97188 34.690624Q223.97188 34.096874 223.45625 33.753124Q223.09688 33.51875 221.65938 33.159374Q219.72188 32.659374 218.97188 32.315624Q218.2375 31.95625 217.84688 31.33125Q217.45625 30.690624 217.45625 29.925Q217.45625 29.2375 217.76875 28.64375Q218.09688 28.05 218.64375 27.659374Q219.05 27.3625 219.75313 27.159374Q220.47188 26.940624 221.28438 26.940624Q222.50313 26.940624 223.425 27.3Q224.34688 27.64375 224.78438 28.253124Q225.22188 28.846874 225.39375 29.846874L223.675 30.08125Q223.55 29.284374 222.9875 28.846874Q222.425 28.39375 221.40938 28.39375Q220.19063 28.39375 219.675 28.8Q219.15938 29.190624 219.15938 29.721874Q219.15938 30.065624 219.37813 30.346874Q219.58125 30.628124 220.05 30.815624Q220.31563 30.909374 221.59688 31.253124Q223.47188 31.753124 224.20625 32.08125Q224.94063 32.39375 225.3625 33.003124Q225.78438 33.596874 225.78438 34.503124Q225.78438 35.378124 225.26875 36.159374Q224.75313 36.940624 223.78438 37.3625Q222.81563 37.784374 221.59688 37.784374Q219.58125 37.784374 218.51875 36.940624Q217.45625 36.096874 217.15938 34.45625ZM231.70625 35.971874L231.95625 37.534374Q231.22188 37.690624 230.62813 37.690624Q229.675 37.690624 229.14375 37.39375Q228.62813 37.08125 228.40938 36.596874Q228.19063 36.096874 228.19063 34.51875L228.19063 28.55L226.90938 28.55L226.90938 27.175L228.19063 27.175L228.19063 24.6125L229.94063 23.55L229.94063 27.175L231.70625 27.175L231.70625 28.55L229.94063 28.55L229.94063 34.6125Q229.94063 35.3625 230.03438 35.58125Q230.12813 35.784374 230.33125 35.925Q230.55 36.05 230.94063 36.05Q231.22188 36.05 231.70625 35.971874ZM233.15938 34.45625L234.90938 34.175Q235.05 35.221874 235.72188 35.784374Q236.39375 36.33125 237.59688 36.33125Q238.8 36.33125 239.37813 35.846874Q239.97188 35.346874 239.97188 34.690624Q239.97188 34.096874 239.45625 33.753124Q239.09688 33.51875 237.65938 33.159374Q235.72188 32.659374 234.97188 32.315624Q234.2375 31.95625 233.84688 31.33125Q233.45625 30.690624 233.45625 29.925Q233.45625 29.2375 233.76875 28.64375Q234.09688 28.05 234.64375 27.659374Q235.05 27.3625 235.75313 27.159374Q236.47188 26.940624 237.28438 26.940624Q238.50313 26.940624 239.425 27.3Q240.34688 27.64375 240.78438 28.253124Q241.22188 28.846874 241.39375 29.846874L239.675 30.08125Q239.55 29.284374 238.9875 28.846874Q238.425 28.39375 237.40938 28.39375Q236.19063 28.39375 235.675 28.8Q235.15938 29.190624 235.15938 29.721874Q235.15938 30.065624 235.37813 30.346874Q235.58125 30.628124 236.05 30.815624Q236.31563 30.909374 237.59688 31.253124Q239.47188 31.753124 240.20625 32.08125Q240.94063 32.39375 241.3625 33.003124Q241.78438 33.596874 241.78438 34.503124Q241.78438 35.378124 241.26875 36.159374Q240.75313 36.940624 239.78438 37.3625Q238.81563 37.784374 237.59688 37.784374Q235.58125 37.784374 234.51875 36.940624Q233.45625 36.096874 233.15938 34.45625ZM242.55 37.8L246.70625 22.9875L248.1125 22.9875L243.97188 37.8L242.55 37.8ZM249.15938 34.45625L250.90938 34.175Q251.05 35.221874 251.72188 35.784374Q252.39375 36.33125 253.59688 36.33125Q254.8 36.33125 255.37813 35.846874Q255.97188 35.346874 255.97188 34.690624Q255.97188 34.096874 255.45625 33.753124Q255.09688 33.51875 253.65938 33.159374Q251.72188 32.659374 250.97188 32.315624Q250.2375 31.95625 249.84688 31.33125Q249.45625 30.690624 249.45625 29.925Q249.45625 29.2375 249.76875 28.64375Q250.09688 28.05 250.64375 27.659374Q251.05 27.3625 251.75313 27.159374Q252.47188 26.940624 253.28438 26.940624Q254.50313 26.940624 255.425 27.3Q256.34686 27.64375 256.78436 28.253124Q257.22186 28.846874 257.39374 29.846874L255.675 30.08125Q255.55 29.284374 254.9875 28.846874Q254.425 28.39375 253.40938 28.39375Q252.19063 28.39375 251.675 28.8Q251.15938 29.190624 251.15938 29.721874Q251.15938 30.065624 251.37813 30.346874Q251.58125 30.628124 252.05 30.815624Q252.31563 30.909374 253.59688 31.253124Q255.47188 31.753124 256.20624 32.08125Q256.9406 32.39375 257.3625 33.003124Q257.78436 33.596874 257.78436 34.503124Q257.78436 35.378124 257.26874 36.159374Q256.7531 36.940624 255.78438 37.3625Q254.81563 37.784374 253.59688 37.784374Q251.58125 37.784374 250.51875 36.940624Q249.45625 36.096874 249.15938 34.45625ZM266.97186 34.20625L268.78436 34.440624Q268.3625 36.01875 267.1906 36.909374Q266.03436 37.784374 264.22186 37.784374Q261.95624 37.784374 260.6125 36.39375Q259.28436 34.9875 259.28436 32.45625Q259.28436 29.83125 260.6281 28.39375Q261.97186 26.940624 264.1281 26.940624Q266.20624 26.940624 267.51874 28.3625Q268.84686 29.76875 268.84686 32.346874Q268.84686 32.503124 268.83124 32.815624L261.09686 32.815624Q261.1906 34.51875 262.0656 35.425Q262.9406 36.33125 264.2375 36.33125Q265.20624 36.33125 265.8781 35.83125Q266.5656 35.315624 266.97186 34.20625ZM261.1906 31.3625L266.9875 31.3625Q266.8781 30.065624 266.33124 29.409374Q265.4875 28.39375 264.14374 28.39375Q262.9406 28.39375 262.1125 29.20625Q261.28436 30.003124 261.1906 31.3625ZM277.64374 33.753124L279.3625 33.971874Q279.08124 35.76875 277.90936 36.784374Q276.7531 37.784374 275.05 37.784374Q272.925 37.784374 271.6281 36.39375Q270.33124 35.003124 270.33124 32.409374Q270.33124 30.721874 270.8781 29.471874Q271.4406 28.20625 272.58124 27.58125Q273.72186 26.940624 275.0656 26.940624Q276.7531 26.940624 277.8156 27.8Q278.89374 28.659374 279.20624 30.221874L277.4875 30.4875Q277.2531 29.440624 276.6281 28.925Q276.0031 28.39375 275.1281 28.39375Q273.8 28.39375 272.97186 29.346874Q272.14374 30.3 272.14374 32.346874Q272.14374 34.440624 272.9406 35.39375Q273.7375 36.33125 275.03436 36.33125Q276.0656 36.33125 276.7531 35.70625Q277.45624 35.065624 277.64374 33.753124ZM281.33124 37.55L281.33124 35.55L283.33124 35.55L283.33124 37.55Q283.33124 38.659374 282.9406 39.33125Q282.55 40.01875 281.70624 40.378124L281.20624 39.628124Q281.76874 39.39375 282.03436 38.909374Q282.3 38.440624 282.33124 37.55L281.33124 37.55ZM292.15936 34.45625L293.90936 34.175Q294.05 35.221874 294.72186 35.784374Q295.39374 36.33125 296.59686 36.33125Q297.8 36.33125 298.3781 35.846874Q298.97186 35.346874 298.97186 34.690624Q298.97186 34.096874 298.45624 33.753124Q298.09686 33.51875 296.65936 33.159374Q294.72186 32.659374 293.97186 32.315624Q293.2375 31.95625 292.84686 31.33125Q292.45624 30.690624 292.45624 29.925Q292.45624 29.2375 292.76874 28.64375Q293.09686 28.05 293.64374 27.659374Q294.05 27.3625 294.7531 27.159374Q295.47186 26.940624 296.28436 26.940624Q297.5031 26.940624 298.425 27.3Q299.34686 27.64375 299.78436 28.253124Q300.22186 28.846874 300.39374 29.846874L298.675 30.08125Q298.55 29.284374 297.9875 28.846874Q297.425 28.39375 296.40936 28.39375Q295.1906 28.39375 294.675 28.8Q294.15936 29.190624 294.15936 29.721874Q294.15936 30.065624 294.3781 30.346874Q294.58124 30.628124 295.05 30.815624Q295.3156 30.909374 296.59686 31.253124Q298.47186 31.753124 299.20624 32.08125Q299.9406 32.39375 300.3625 33.003124Q300.78436 33.596874 300.78436 34.503124Q300.78436 35.378124 300.26874 36.159374Q299.7531 36.940624 298.78436 37.3625Q297.8156 37.784374 296.59686 37.784374Q294.58124 37.784374 293.51874 36.940624Q292.45624 36.096874 292.15936 34.45625ZM302.83124 37.55L302.83124 23.2375L304.58124 23.2375L304.58124 37.55L302.83124 37.55ZM313.97186 34.20625L315.78436 34.440624Q315.3625 36.01875 314.1906 36.909374Q313.03436 37.784374 311.22186 37.784374Q308.95624 37.784374 307.6125 36.39375Q306.28436 34.9875 306.28436 32.45625Q306.28436 29.83125 307.6281 28.39375Q308.97186 26.940624 311.1281 26.940624Q313.20624 26.940624 314.51874 28.3625Q315.84686 29.76875 315.84686 32.346874Q315.84686 32.503124 315.83124 32.815624L308.09686 32.815624Q308.1906 34.51875 309.0656 35.425Q309.9406 36.33125 311.2375 36.33125Q312.20624 36.33125 312.8781 35.83125Q313.5656 35.315624 313.97186 34.20625ZM308.1906 31.3625L313.9875 31.3625Q313.8781 30.065624 313.33124 29.409374Q312.4875 28.39375 311.14374 28.39375Q309.9406 28.39375 309.1125 29.20625Q308.28436 30.003124 308.1906 31.3625ZM324.97186 34.20625L326.78436 34.440624Q326.3625 36.01875 325.1906 36.909374Q324.03436 37.784374 322.22186 37.784374Q319.95624 37.784374 318.6125 36.39375Q317.28436 34.9875 317.28436 32.45625Q317.28436 29.83125 318.6281 28.39375Q319.97186 26.940624 322.1281 26.940624Q324.20624 26.940624 325.51874 28.3625Q326.84686 29.76875 326.84686 32.346874Q326.84686 32.503124 326.83124 32.815624L319.09686 32.815624Q319.1906 34.51875 320.0656 35.425Q320.9406 36.33125 322.2375 36.33125Q323.20624 36.33125 323.8781 35.83125Q324.5656 35.315624 324.97186 34.20625ZM319.1906 31.3625L324.9875 31.3625Q324.8781 30.065624 324.33124 29.409374Q323.4875 28.39375 322.14374 28.39375Q320.9406 28.39375 320.1125 29.20625Q319.28436 30.003124 319.1906 31.3625ZM328.8625 41.51875L328.8625 27.175L330.47186 27.175L330.47186 28.51875Q331.03436 27.7375 331.7375 27.346874Q332.45624 26.940624 333.47186 26.940624Q334.8 26.940624 335.8156 27.628124Q336.83124 28.315624 337.34686 29.565624Q337.8781 30.8 337.8781 32.284374Q337.8781 33.878124 337.3 35.159374Q336.7375 36.425 335.64374 37.1125Q334.55 37.784374 333.34686 37.784374Q332.47186 37.784374 331.76874 37.409374Q331.08124 37.034374 330.6281 36.471874L330.6281 41.51875L328.8625 41.51875ZM330.45624 32.425Q330.45624 34.425 331.26874 35.378124Q332.08124 36.33125 333.2375 36.33125Q334.40936 36.33125 335.2375 35.346874Q336.08124 34.3625 336.08124 32.26875Q336.08124 30.3 335.2531 29.315624Q334.4406 28.315624 333.3156 28.315624Q332.1906 28.315624 331.3156 29.378124Q330.45624 30.425 330.45624 32.425ZM352.0031 37.55L350.2375 37.55L350.2375 26.346874Q349.6125 26.95625 348.58124 27.565624Q347.55 28.159374 346.72186 28.471874L346.72186 26.76875Q348.20624 26.08125 349.3 25.096874Q350.40936 24.096874 350.8625 23.175L352.0031 23.175L352.0031 37.55ZM356.8625 37.55L356.8625 27.175L358.4406 27.175L358.4406 28.628124Q358.925 27.878124 359.7375 27.409374Q360.55 26.940624 361.58124 26.940624Q362.7375 26.940624 363.47186 27.425Q364.20624 27.89375 364.51874 28.753124Q365.7531 26.940624 367.72186 26.940624Q369.26874 26.940624 370.09686 27.8Q370.925 28.659374 370.925 30.425L370.925 37.55L369.175 37.55L369.175 31.01875Q369.175 29.95625 369.0031 29.503124Q368.83124 29.034374 368.3781 28.753124Q367.9406 28.471874 367.33124 28.471874Q366.2375 28.471874 365.5031 29.20625Q364.78436 29.925 364.78436 31.51875L364.78436 37.55L363.03436 37.55L363.03436 30.815624Q363.03436 29.64375 362.59686 29.065624Q362.175 28.471874 361.1906 28.471874Q360.45624 28.471874 359.8156 28.8625Q359.1906 29.253124 358.90936 30.003124Q358.6281 30.753124 358.6281 32.175L358.6281 37.55L356.8625 37.55ZM372.15936 34.45625L373.90936 34.175Q374.05 35.221874 374.72186 35.784374Q375.39374 36.33125 376.59686 36.33125Q377.8 36.33125 378.3781 35.846874Q378.97186 35.346874 378.97186 34.690624Q378.97186 34.096874 378.45624 33.753124Q378.09686 33.51875 376.65936 33.159374Q374.72186 32.659374 373.97186 32.315624Q373.2375 31.95625 372.84686 31.33125Q372.45624 30.690624 372.45624 29.925Q372.45624 29.2375 372.76874 28.64375Q373.09686 28.05 373.64374 27.659374Q374.05 27.3625 374.7531 27.159374Q375.47186 26.940624 376.28436 26.940624Q377.5031 26.940624 378.425 27.3Q379.34686 27.64375 379.78436 28.253124Q380.22186 28.846874 380.39374 29.846874L378.675 30.08125Q378.55 29.284374 377.9875 28.846874Q377.425 28.39375 376.40936 28.39375Q375.1906 28.39375 374.675 28.8Q374.15936 29.190624 374.15936 29.721874Q374.15936 30.065624 374.3781 30.346874Q374.58124 30.628124 375.05 30.815624Q375.3156 30.909374 376.59686 31.253124Q378.47186 31.753124 379.20624 32.08125Q379.9406 32.39375 380.3625 33.003124Q380.78436 33.596874 380.78436 34.503124Q380.78436 35.378124 380.26874 36.159374Q379.7531 36.940624 378.78436 37.3625Q377.8156 37.784374 376.59686 37.784374Q374.58124 37.784374 373.51874 36.940624Q372.45624 36.096874 372.15936 34.45625ZM383.33124 37.55L383.33124 35.55L385.33124 35.55L385.33124 37.55Q385.33124 38.659374 384.9406 39.33125Q384.55 40.01875 383.70624 40.378124L383.20624 39.628124Q383.76874 39.39375 384.03436 38.909374Q384.3 38.440624 384.33124 37.55L383.33124 37.55ZM394.8625 37.55L394.8625 27.175L396.45624 27.175L396.45624 28.659374Q397.59686 26.940624 399.7531 26.940624Q400.6906 26.940624 401.47186 27.284374Q402.26874 27.6125 402.65936 28.159374Q403.05 28.70625 403.20624 29.45625Q403.3 29.95625 403.3 31.175L403.3 37.55L401.53436 37.55L401.53436 31.2375Q401.53436 30.159374 401.33124 29.628124Q401.1281 29.096874 400.59686 28.784374Q400.08124 28.471874 399.3781 28.471874Q398.2531 28.471874 397.4406 29.190624Q396.6281 29.89375 396.6281 31.878124L396.6281 37.55L394.8625 37.55ZM404.22186 32.3625Q404.22186 29.4875 405.8156 28.096874Q407.15936 26.940624 409.08124 26.940624Q411.22186 26.940624 412.5656 28.346874Q413.925 29.753124 413.925 32.221874Q413.925 34.221874 413.33124 35.378124Q412.7375 36.51875 411.58124 37.159374Q410.4406 37.784374 409.08124 37.784374Q406.89374 37.784374 405.55 36.39375Q404.22186 34.9875 404.22186 32.3625ZM406.01874 32.3625Q406.01874 34.3625 406.8781 35.346874Q407.7531 36.33125 409.08124 36.33125Q410.39374 36.33125 411.2531 35.346874Q412.1281 34.346874 412.1281 32.3Q412.1281 30.378124 411.2531 29.39375Q410.3781 28.39375 409.08124 28.39375Q407.7531 28.39375 406.8781 29.39375Q406.01874 30.378124 406.01874 32.3625ZM421.8781 37.55L421.8781 23.2375L423.64374 23.2375L423.64374 31.39375L427.8 27.175L430.0656 27.175L426.1125 31.01875L430.47186 37.55L428.3 37.55L424.8781 32.253124L423.64374 33.440624L423.64374 37.55L421.8781 37.55ZM438.97186 34.20625L440.78436 34.440624Q440.3625 36.01875 439.1906 36.909374Q438.03436 37.784374 436.22186 37.784374Q433.95624 37.784374 432.6125 36.39375Q431.28436 34.9875 431.28436 32.45625Q431.28436 29.83125 432.6281 28.39375Q433.97186 26.940624 436.1281 26.940624Q438.20624 26.940624 439.51874 28.3625Q440.84686 29.76875 440.84686 32.346874Q440.84686 32.503124 440.83124 32.815624L433.09686 32.815624Q433.1906 34.51875 434.0656 35.425Q434.9406 36.33125 436.2375 36.33125Q437.20624 36.33125 437.8781 35.83125Q438.5656 35.315624 438.97186 34.20625ZM433.1906 31.3625L438.9875 31.3625Q438.8781 30.065624 438.33124 29.409374Q437.4875 28.39375 436.14374 28.39375Q434.9406 28.39375 434.1125 29.20625Q433.28436 30.003124 433.1906 31.3625ZM449.97186 34.20625L451.78436 34.440624Q451.3625 36.01875 450.1906 36.909374Q449.03436 37.784374 447.22186 37.784374Q444.95624 37.784374 443.6125 36.39375Q442.28436 34.9875 442.28436 32.45625Q442.28436 29.83125 443.6281 28.39375Q444.97186 26.940624 447.1281 26.940624Q449.20624 26.940624 450.51874 28.3625Q451.84686 29.76875 451.84686 32.346874Q451.84686 32.503124 451.83124 32.815624L444.09686 32.815624Q444.1906 34.51875 445.0656 35.425Q445.9406 36.33125 447.2375 36.33125Q448.20624 36.33125 448.8781 35.83125Q449.5656 35.315624 449.97186 34.20625ZM444.1906 31.3625L449.9875 31.3625Q449.8781 30.065624 449.33124 29.409374Q448.4875 28.39375 447.14374 28.39375Q445.9406 28.39375 445.1125 29.20625Q444.28436 30.003124 444.1906 31.3625ZM453.8625 41.51875L453.8625 27.175L455.47186 27.175L455.47186 28.51875Q456.03436 27.7375 456.7375 27.346874Q457.45624 26.940624 458.47186 26.940624Q459.8 26.940624 460.8156 27.628124Q461.83124 28.315624 462.34686 29.565624Q462.8781 30.8 462.8781 32.284374Q462.8781 33.878124 462.3 35.159374Q461.7375 36.425 460.64374 37.1125Q459.55 37.784374 458.34686 37.784374Q457.47186 37.784374 456.76874 37.409374Q456.08124 37.034374 455.6281 36.471874L455.6281 41.51875L453.8625 41.51875ZM455.45624 32.425Q455.45624 34.425 456.26874 35.378124Q457.08124 36.33125 458.2375 36.33125Q459.40936 36.33125 460.2375 35.346874Q461.08124 34.3625 461.08124 32.26875Q461.08124 30.3 460.2531 29.315624Q459.4406 28.315624 458.3156 28.315624Q457.1906 28.315624 456.3156 29.378124Q455.45624 30.425 455.45624 32.425ZM464.1906 33.253124L464.1906 31.4875L469.58124 31.4875L469.58124 33.253124L464.1906 33.253124ZM478.64374 36.26875Q477.65936 37.096874 476.7531 37.440624Q475.84686 37.784374 474.8156 37.784374Q473.1125 37.784374 472.1906 36.95625Q471.26874 36.1125 471.26874 34.815624Q471.26874 34.05 471.6125 33.425Q471.97186 32.8 472.53436 32.425Q473.09686 32.034374 473.8 31.83125Q474.3156 31.70625 475.3625 31.565624Q477.4875 31.315624 478.4875 30.971874Q478.5031 30.6125 478.5031 30.503124Q478.5031 29.440624 478.0031 28.9875Q477.33124 28.39375 476.0031 28.39375Q474.7531 28.39375 474.15936 28.83125Q473.58124 29.26875 473.3 30.378124L471.58124 30.14375Q471.8156 29.034374 472.34686 28.3625Q472.8781 27.675 473.89374 27.315624Q474.90936 26.940624 476.2531 26.940624Q477.58124 26.940624 478.40936 27.253124Q479.2375 27.565624 479.6281 28.05Q480.01874 28.51875 480.175 29.2375Q480.26874 29.690624 480.26874 30.8625L480.26874 33.20625Q480.26874 35.659374 480.3781 36.315624Q480.4875 36.95625 480.83124 37.55L478.9875 37.55Q478.72186 37.003124 478.64374 36.26875ZM478.4875 32.346874Q477.53436 32.7375 475.6125 33.003124Q474.53436 33.159374 474.08124 33.3625Q473.64374 33.55 473.39374 33.925Q473.14374 34.3 473.14374 34.76875Q473.14374 35.471874 473.675 35.940624Q474.20624 36.409374 475.2375 36.409374Q476.2531 36.409374 477.03436 35.971874Q477.83124 35.51875 478.20624 34.753124Q478.4875 34.14375 478.4875 32.9875L478.4875 32.346874ZM482.83124 37.55L482.83124 23.2375L484.58124 23.2375L484.58124 37.55L482.83124 37.55ZM486.8781 25.253124L486.8781 23.2375L488.64374 23.2375L488.64374 25.253124L486.8781 25.253124ZM486.8781 37.55L486.8781 27.175L488.64374 27.175L488.64374 37.55L486.8781 37.55ZM493.7531 37.55L489.8 27.175L491.65936 27.175L493.89374 33.39375Q494.2531 34.39375 494.55 35.471874Q494.78436 34.659374 495.20624 33.503124L497.5031 27.175L499.3156 27.175L495.39374 37.55L493.7531 37.55ZM506.97186 34.20625L508.78436 34.440624Q508.3625 36.01875 507.1906 36.909374Q506.03436 37.784374 504.22186 37.784374Q501.95624 37.784374 500.6125 36.39375Q499.28436 34.9875 499.28436 32.45625Q499.28436 29.83125 500.6281 28.39375Q501.97186 26.940624 504.1281 26.940624Q506.20624 26.940624 507.51874 28.3625Q508.84686 29.76875 508.84686 32.346874Q508.84686 32.503124 508.83124 32.815624L501.09686 32.815624Q501.1906 34.51875 502.0656 35.425Q502.9406 36.33125 504.2375 36.33125Q505.20624 36.33125 505.8781 35.83125Q506.5656 35.315624 506.97186 34.20625ZM501.1906 31.3625L506.9875 31.3625Q506.8781 30.065624 506.33124 29.409374Q505.4875 28.39375 504.14374 28.39375Q502.9406 28.39375 502.1125 29.20625Q501.28436 30.003124 501.1906 31.3625ZM511.33124 37.55L511.33124 35.55L513.33124 35.55L513.33124 37.55Q513.33124 38.659374 512.9406 39.33125Q512.55 40.01875 511.70624 40.378124L511.20624 39.628124Q511.76874 39.39375 512.03436 38.909374Q512.3 38.440624 512.33124 37.55L511.33124 37.55ZM522.8625 37.55L522.8625 23.2375L524.6281 23.2375L524.6281 28.3625Q525.8625 26.940624 527.7375 26.940624Q528.8781 26.940624 529.72186 27.39375Q530.58124 27.846874 530.9406 28.659374Q531.3156 29.45625 531.3156 30.971874L531.3156 37.55L529.5656 37.55L529.5656 30.971874Q529.5656 29.659374 528.9875 29.065624Q528.40936 28.45625 527.3781 28.45625Q526.59686 28.45625 525.89374 28.8625Q525.20624 29.26875 524.90936 29.971874Q524.6281 30.659374 524.6281 31.878124L524.6281 37.55L522.8625 37.55ZM532.8781 25.253124L532.8781 23.2375L534.64374 23.2375L534.64374 25.253124L532.8781 25.253124ZM532.8781 37.55L532.8781 27.175L534.64374 27.175L534.64374 37.55L532.8781 37.55ZM536.55 38.409374L538.2531 38.659374Q538.3625 39.45625 538.84686 39.815624Q539.5031 40.3 540.64374 40.3Q541.8625 40.3 542.51874 39.815624Q543.1906 39.33125 543.425 38.45625Q543.5656 37.909374 543.55 36.190624Q542.39374 37.55 540.675 37.55Q538.53436 37.55 537.3625 36.003124Q536.1906 34.45625 536.1906 32.3Q536.1906 30.815624 536.72186 29.565624Q537.26874 28.315624 538.28436 27.628124Q539.3156 26.940624 540.6906 26.940624Q542.51874 26.940624 543.72186 28.425L543.72186 27.175L545.33124 27.175L545.33124 36.14375Q545.33124 38.565624 544.83124 39.565624Q544.34686 40.58125 543.26874 41.159374Q542.20624 41.753124 540.64374 41.753124Q538.8 41.753124 537.64374 40.925Q536.5031 40.096874 536.55 38.409374ZM538.0031 32.175Q538.0031 34.221874 538.8156 35.159374Q539.6281 36.096874 540.84686 36.096874Q542.05 36.096874 542.8625 35.159374Q543.6906 34.221874 543.6906 32.2375Q543.6906 30.33125 542.84686 29.3625Q542.0031 28.39375 540.8156 28.39375Q539.64374 28.39375 538.8156 29.346874Q538.0031 30.3 538.0031 32.175ZM547.8625 37.55L547.8625 23.2375L549.6281 23.2375L549.6281 28.3625Q550.8625 26.940624 552.7375 26.940624Q553.8781 26.940624 554.72186 27.39375Q555.58124 27.846874 555.9406 28.659374Q556.3156 29.45625 556.3156 30.971874L556.3156 37.55L554.5656 37.55L554.5656 30.971874Q554.5656 29.659374 553.9875 29.065624Q553.40936 28.45625 552.3781 28.45625Q551.59686 28.45625 550.89374 28.8625Q550.20624 29.26875 549.90936 29.971874Q549.6281 30.659374 549.6281 31.878124L549.6281 37.55L547.8625 37.55ZM564.97186 34.20625L566.78436 34.440624Q566.3625 36.01875 565.1906 36.909374Q564.03436 37.784374 562.22186 37.784374Q559.95624 37.784374 558.6125 36.39375Q557.28436 34.9875 557.28436 32.45625Q557.28436 29.83125 558.6281 28.39375Q559.97186 26.940624 562.1281 26.940624Q564.20624 26.940624 565.51874 28.3625Q566.84686 29.76875 566.84686 32.346874Q566.84686 32.503124 566.83124 32.815624L559.09686 32.815624Q559.1906 34.51875 560.0656 35.425Q560.9406 36.33125 562.2375 36.33125Q563.20624 36.33125 563.8781 35.83125Q564.5656 35.315624 564.97186 34.20625ZM559.1906 31.3625L564.9875 31.3625Q564.8781 30.065624 564.33124 29.409374Q563.4875 28.39375 562.14374 28.39375Q560.9406 28.39375 560.1125 29.20625Q559.28436 30.003124 559.1906 31.3625ZM568.84686 37.55L568.84686 27.175L570.425 27.175L570.425 28.753124Q571.03436 27.64375 571.55 27.3Q572.0656 26.940624 572.675 26.940624Q573.5656 26.940624 574.4875 27.503124L573.8781 29.14375Q573.2375 28.753124 572.59686 28.753124Q572.01874 28.753124 571.55 29.1125Q571.09686 29.45625 570.89374 30.065624Q570.6125 31.003124 570.6125 32.1125L570.6125 37.55L568.84686 37.55Z" fill-rule="nonzero"/><path fill="#757575" d="M19.878124 49.253124L19.878124 47.2375L21.64375 47.2375L21.64375 49.253124L19.878124 49.253124ZM19.878124 61.55L19.878124 51.175L21.64375 51.175L21.64375 61.55L19.878124 61.55ZM23.159374 58.45625L24.909374 58.175Q25.05 59.221874 25.721874 59.784374Q26.39375 60.33125 27.596874 60.33125Q28.8 60.33125 29.378124 59.846874Q29.971874 59.346874 29.971874 58.690624Q29.971874 58.096874 29.45625 57.753124Q29.096874 57.51875 27.659374 57.159374Q25.721874 56.659374 24.971874 56.315624Q24.2375 55.95625 23.846874 55.33125Q23.45625 54.690624 23.45625 53.925Q23.45625 53.2375 23.76875 52.64375Q24.096874 52.05 24.64375 51.659374Q25.05 51.3625 25.753124 51.159374Q26.471874 50.940624 27.284374 50.940624Q28.503124 50.940624 29.425 51.3Q30.346874 51.64375 30.784374 52.253124Q31.221874 52.846874 31.39375 53.846874L29.675 54.08125Q29.55 53.284374 28.9875 52.846874Q28.425 52.39375 27.409374 52.39375Q26.190624 52.39375 25.675 52.8Q25.159374 53.190624 25.159374 53.721874Q25.159374 54.065624 25.378124 54.346874Q25.58125 54.628124 26.05 54.815624Q26.315624 54.909374 27.596874 55.253124Q29.471874 55.753124 30.20625 56.08125Q30.940624 56.39375 31.3625 57.003124Q31.784374 57.596874 31.784374 58.503124Q31.784374 59.378124 31.26875 60.159374Q30.753124 60.940624 29.784374 61.3625Q28.815624 61.784374 27.596874 61.784374Q25.58125 61.784374 24.51875 60.940624Q23.45625 60.096874 23.159374 58.45625ZM41.4875 61.55L39.8625 61.55L39.8625 47.2375L41.6125 47.2375L41.6125 52.346874Q42.7375 50.940624 44.45625 50.940624Q45.409374 50.940624 46.26875 51.33125Q47.128124 51.721874 47.675 52.425Q48.221874 53.1125 48.534374 54.096874Q48.846874 55.08125 48.846874 56.20625Q48.846874 58.878124 47.534374 60.33125Q46.221874 61.784374 44.378124 61.784374Q42.534374 61.784374 41.4875 60.253124L41.4875 61.55ZM41.471874 56.284374Q41.471874 58.14375 41.971874 58.9875Q42.815624 60.33125 44.221874 60.33125Q45.378124 60.33125 46.20625 59.33125Q47.05 58.33125 47.05 56.346874Q47.05 54.315624 46.2375 53.3625Q45.440624 52.39375 44.3 52.39375Q43.14375 52.39375 42.3 53.39375Q41.471874 54.39375 41.471874 56.284374ZM57.971874 58.20625L59.784374 58.440624Q59.3625 60.01875 58.190624 60.909374Q57.034374 61.784374 55.221874 61.784374Q52.95625 61.784374 51.6125 60.39375Q50.284374 58.9875 50.284374 56.45625Q50.284374 53.83125 51.628124 52.39375Q52.971874 50.940624 55.128124 50.940624Q57.20625 50.940624 58.51875 52.3625Q59.846874 53.76875 59.846874 56.346874Q59.846874 56.503124 59.83125 56.815624L52.096874 56.815624Q52.190624 58.51875 53.065624 59.425Q53.940624 60.33125 55.2375 60.33125Q56.20625 60.33125 56.878124 59.83125Q57.565624 59.315624 57.971874 58.20625ZM52.190624 55.3625L57.9875 55.3625Q57.878124 54.065624 57.33125 53.409374Q56.4875 52.39375 55.14375 52.39375Q53.940624 52.39375 53.1125 53.20625Q52.284374 54.003124 52.190624 55.3625ZM65.70625 59.971874L65.95625 61.534374Q65.22188 61.690624 64.62813 61.690624Q63.675 61.690624 63.14375 61.39375Q62.628124 61.08125 62.409374 60.596874Q62.190624 60.096874 62.190624 58.51875L62.190624 52.55L60.909374 52.55L60.909374 51.175L62.190624 51.175L62.190624 48.6125L63.940624 47.55L63.940624 51.175L65.70625 51.175L65.70625 52.55L63.940624 52.55L63.940624 58.6125Q63.940624 59.3625 64.03438 59.58125Q64.12813 59.784374 64.33125 59.925Q64.55 60.05 64.94063 60.05Q65.22188 60.05 65.70625 59.971874ZM71.70625 59.971874L71.95625 61.534374Q71.22188 61.690624 70.62813 61.690624Q69.675 61.690624 69.14375 61.39375Q68.62813 61.08125 68.40938 60.596874Q68.19063 60.096874 68.19063 58.51875L68.19063 52.55L66.90938 52.55L66.90938 51.175L68.19063 51.175L68.19063 48.6125L69.94063 47.55L69.94063 51.175L71.70625 51.175L71.70625 52.55L69.94063 52.55L69.94063 58.6125Q69.94063 59.3625 70.03438 59.58125Q70.12813 59.784374 70.33125 59.925Q70.55 60.05 70.94063 60.05Q71.22188 60.05 71.70625 59.971874ZM80.97188 58.20625L82.78438 58.440624Q82.3625 60.01875 81.19063 60.909374Q80.03438 61.784374 78.22188 61.784374Q75.95625 61.784374 74.6125 60.39375Q73.28438 58.9875 73.28438 56.45625Q73.28438 53.83125 74.62813 52.39375Q75.97188 50.940624 78.12813 50.940624Q80.20625 50.940624 81.51875 52.3625Q82.84688 53.76875 82.84688 56.346874Q82.84688 56.503124 82.83125 56.815624L75.09688 56.815624Q75.19063 58.51875 76.06563 59.425Q76.94063 60.33125 78.2375 60.33125Q79.20625 60.33125 79.87813 59.83125Q80.56563 59.315624 80.97188 58.20625ZM75.19063 55.3625L80.9875 55.3625Q80.87813 54.065624 80.33125 53.409374Q79.4875 52.39375 78.14375 52.39375Q76.94063 52.39375 76.1125 53.20625Q75.28438 54.003124 75.19063 55.3625ZM84.84688 61.55L84.84688 51.175L86.425 51.175L86.425 52.753124Q87.03438 51.64375 87.55 51.3Q88.06563 50.940624 88.675 50.940624Q89.56563 50.940624 90.4875 51.503124L89.87813 53.14375Q89.2375 52.753124 88.59688 52.753124Q88.01875 52.753124 87.55 53.1125Q87.09688 53.45625 86.89375 54.065624Q86.6125 55.003124 86.6125 56.1125L86.6125 61.55L84.84688 61.55Z" fill-rule="nonzero"/></svg>