<svg version="1.1" viewBox="0.0 0.0 600.0 371.0" fill="none" stroke="none" stroke-linecap="square" stroke-miterlimit="10" width="600" height="371" xmlns:xlink="http://www.w3.org/1999/xlink" xmlns="http://www.w3.org/2000/svg"><path fill="#ffffff" d="M0 0L600.0 0L600.0 371.0L0 371.0L0 0Z" fill-rule="nonzero"/><path stroke="#333333" stroke-width="1.0" stroke-linecap="butt" d="M59.5 252.5L581.5 252.5" fill-rule="nonzero"/><path stroke="#cccccc" stroke-width="1.0" stroke-linecap="butt" d="M59.5 209.5L581.5 209.5" fill-rule="nonzero"/><path stroke="#cccccc" stroke-width="1.0" stroke-linecap="butt" d="M59.5 166.5L581.5 166.5" fill-rule="nonzero"/><path stroke="#cccccc" stroke-width="1.0" stroke-linecap="butt" d="M59.5 123.5L581.5 123.5" fill-rule="nonzero"/><path stroke="#cccccc" stroke-width="1.0" stroke-linecap="butt" d="M59.5 80.5L581.5 80.5" fill-rule="nonzero"/><clipPath id="id_0"><path d="M59.55 80.916664L581.45 80.916664L581.45 252.81667L59.55 252.81667L59.55 80.916664Z" clip-rule="nonzero"/></clipPath><path stroke="#ff9900" stroke-width="2.0" stroke-linecap="butt" clip-path="url(#id_0)" d="M142.0 253.0L89.0 253.0L89.0 195.0C89.0 193.89543 89.89543 193.0 91.0 193.0L140.0 193.0C141.10457 193.0 142.0 193.89543 142.0 195.0Z" fill-rule="nonzero"/><path fill="#ff9900" clip-path="url(#id_0)" d="M142.0 253.0L89.0 253.0L89.0 195.0C89.0 193.89543 89.89543 193.0 91.0 193.0L140.0 193.0C141.10457 193.0 142.0 193.89543 142.0 195.0Z" fill-rule="nonzero"/><path stroke="#000000" stroke-width="2.0" stroke-linecap="butt" stroke-opacity="0.0" clip-path="url(#id_0)" d="M224.0 253.0L171.0 253.0L171.0 233.0C171.0 231.89543 171.89543 231.0 173.0 231.0L222.0 231.0C223.10457 231.0 224.0 231.89543 224.0 233.0Z" fill-rule="nonzero"/><path fill="#4285f4" clip-path="url(#id_0)" d="M224.0 253.0L171.0 253.0L171.0 233.0C171.0 231.89543 171.89543 231.0 173.0 231.0L222.0 231.0C223.10457 231.0 224.0 231.89543 224.0 233.0Z" fill-rule="nonzero"/><path stroke="#000000" stroke-width="2.0" stroke-linecap="butt" stroke-opacity="0.0" clip-path="url(#id_0)" d="M306.0 253.0L253.0 253.0L253.0 248.0C253.0 246.89543 253.89543 246.0 255.0 246.0L304.0 246.0C305.10458 246.0 306.0 246.89543 306.0 248.0Z" fill-rule="nonzero"/><path fill="#4285f4" clip-path="url(#id_0)" d="M306.0 253.0L253.0 253.0L253.0 248.0C253.0 246.89543 253.89543 246.0 255.0 246.0L304.0 246.0C305.10458 246.0 306.0 246.89543 306.0 248.0Z" fill-rule="nonzero"/><path stroke="#000000" stroke-width="2.0" stroke-linecap="butt" stroke-opacity="0.0" clip-path="url(#id_0)" d="M389.0 253.0L336.0 253.0L336.0 204.0C336.0 202.89543 336.89542 202.0 338.0 202.0L387.0 202.0C388.10458 202.0 389.0 202.89543 389.0 204.0Z" fill-rule="nonzero"/><path fill="#4285f4" clip-path="url(#id_0)" d="M389.0 253.0L336.0 253.0L336.0 204.0C336.0 202.89543 336.89542 202.0 338.0 202.0L387.0 202.0C388.10458 202.0 389.0 202.89543 389.0 204.0Z" fill-rule="nonzero"/><path stroke="#000000" stroke-width="2.0" stroke-linecap="butt" stroke-opacity="0.0" clip-path="url(#id_0)" d="M553.0 253.0L500.0 253.0L500.0 96.0C500.0 94.89543 500.89542 94.0 502.0 94.0L551.0 94.0C552.10455 94.0 553.0 94.89543 553.0 96.0Z" fill-rule="nonzero"/><path fill="#4285f4" clip-path="url(#id_0)" d="M553.0 253.0L500.0 253.0L500.0 96.0C500.0 94.89543 500.89542 94.0 502.0 94.0L551.0 94.0C552.10455 94.0 553.0 94.89543 553.0 96.0Z" fill-rule="nonzero"/><path fill="#000000" d="M283.375 347.59064L284.40625 347.4344Q284.5 348.0594 284.89062 348.3875Q285.29688 348.71564 286.03125 348.71564Q286.75 348.71564 287.09375 348.4344Q287.45312 348.1375 287.45312 347.73126Q287.45312 347.3719 287.14062 347.16876Q286.92188 347.02814 286.0625 346.8094Q284.90625 346.5125 284.45312 346.3094Q284.01562 346.09064 283.78125 345.71564Q283.54688 345.34064 283.54688 344.8719Q283.54688 344.46564 283.73438 344.10626Q283.92188 343.7469 284.25 343.5125Q284.5 343.34064 284.92188 343.21564Q285.34375 343.09064 285.84375 343.09064Q286.5625 343.09064 287.10938 343.3094Q287.67188 343.5125 287.9375 343.8719Q288.20312 344.23126 288.29688 344.825L287.26562 344.96564Q287.20312 344.4969 286.85938 344.23126Q286.53125 343.95 285.90625 343.95Q285.1875 343.95 284.875 344.2Q284.5625 344.4344 284.5625 344.7625Q284.5625 344.96564 284.6875 345.1219Q284.82812 345.29376 285.09375 345.40314Q285.25 345.46564 286.03125 345.66876Q287.15625 345.98126 287.59375 346.16876Q288.03125 346.35626 288.28125 346.71564Q288.53125 347.075 288.53125 347.6219Q288.53125 348.15314 288.21875 348.6219Q287.92188 349.075 287.34375 349.34064Q286.76562 349.59064 286.03125 349.59064Q284.8125 349.59064 284.17188 349.09064Q283.54688 348.575 283.375 347.59064ZM290.75 351.84064L290.625 350.85626Q290.96875 350.95 291.23438 350.95Q291.57812 350.95 291.78125 350.825Q292.0 350.71564 292.14062 350.5125Q292.23438 350.34064 292.46875 349.71564Q292.48438 349.6375 292.5625 349.46564L290.1875 343.23126L291.32812 343.23126L292.625 346.825Q292.875 347.5125 293.07812 348.27814Q293.26562 347.54376 293.51562 346.85626L294.84375 343.23126L295.89062 343.23126L293.53125 349.5594Q293.14062 350.575 292.9375 350.96564Q292.65625 351.4969 292.28125 351.73126Q291.92188 351.98126 291.42188 351.98126Q291.125 351.98126 290.75 351.84064ZM295.375 347.59064L296.40625 347.4344Q296.5 348.0594 296.89062 348.3875Q297.29688 348.71564 298.03125 348.71564Q298.75 348.71564 299.09375 348.4344Q299.45312 348.1375 299.45312 347.73126Q299.45312 347.3719 299.14062 347.16876Q298.92188 347.02814 298.0625 346.8094Q296.90625 346.5125 296.45312 346.3094Q296.01562 346.09064 295.78125 345.71564Q295.54688 345.34064 295.54688 344.8719Q295.54688 344.46564 295.73438 344.10626Q295.92188 343.7469 296.25 343.5125Q296.5 343.34064 296.92188 343.21564Q297.34375 343.09064 297.84375 343.09064Q298.5625 343.09064 299.10938 343.3094Q299.67188 343.5125 299.9375 343.8719Q300.20312 344.23126 300.29688 344.825L299.26562 344.96564Q299.20312 344.4969 298.85938 344.23126Q298.53125 343.95 297.90625 343.95Q297.1875 343.95 296.875 344.2Q296.5625 344.4344 296.5625 344.7625Q296.5625 344.96564 296.6875 345.1219Q296.82812 345.29376 297.09375 345.40314Q297.25 345.46564 298.03125 345.66876Q299.15625 345.98126 299.59375 346.16876Q300.03125 346.35626 300.28125 346.71564Q300.53125 347.075 300.53125 347.6219Q300.53125 348.15314 300.21875 348.6219Q299.92188 349.075 299.34375 349.34064Q298.76562 349.59064 298.03125 349.59064Q296.8125 349.59064 296.17188 349.09064Q295.54688 348.575 295.375 347.59064ZM305.09375 348.5125L305.25 349.4344Q304.79688 349.52814 304.45312 349.52814Q303.875 349.52814 303.5625 349.35626Q303.25 349.16876 303.10938 348.8719Q302.98438 348.575 302.98438 347.6219L302.98438 344.04376L302.21875 344.04376L302.21875 343.23126L302.98438 343.23126L302.98438 341.6844L304.03125 341.0594L304.03125 343.23126L305.09375 343.23126L305.09375 344.04376L304.03125 344.04376L304.03125 347.6844Q304.03125 348.1375 304.07812 348.2625Q304.14062 348.3875 304.26562 348.46564Q304.39062 348.54376 304.625 348.54376Q304.8125 348.54376 305.09375 348.5125ZM310.04688 347.45L311.14062 347.575Q310.89062 348.52814 310.1875 349.0594Q309.48438 349.59064 308.40625 349.59064Q307.04688 349.59064 306.23438 348.7469Q305.4375 347.90314 305.4375 346.3875Q305.4375 344.825 306.25 343.96564Q307.0625 343.09064 308.34375 343.09064Q309.59375 343.09064 310.375 343.9344Q311.17188 344.77814 311.17188 346.325Q311.17188 346.41876 311.17188 346.60626L306.53125 346.60626Q306.59375 347.6375 307.10938 348.1844Q307.625 348.71564 308.40625 348.71564Q308.98438 348.71564 309.39062 348.41876Q309.8125 348.10626 310.04688 347.45ZM306.59375 345.7469L310.0625 345.7469Q310.0 344.95 309.67188 344.5594Q309.15625 343.95 308.35938 343.95Q307.625 343.95 307.125 344.4344Q306.64062 344.91876 306.59375 345.7469ZM312.79688 349.45L312.79688 343.23126L313.73438 343.23126L313.73438 344.10626Q314.03125 343.6375 314.51562 343.3719Q315.0 343.09064 315.625 343.09064Q316.3125 343.09064 316.75 343.3719Q317.20312 343.65314 317.375 344.16876Q318.125 343.09064 319.29688 343.09064Q320.23438 343.09064 320.71875 343.60626Q321.21875 344.10626 321.21875 345.1844L321.21875 349.45L320.17188 349.45L320.17188 345.52814Q320.17188 344.90314 320.0625 344.6219Q319.96875 344.34064 319.70312 344.16876Q319.4375 343.9969 319.0625 343.9969Q318.40625 343.9969 317.96875 344.4344Q317.54688 344.8719 317.54688 345.84064L317.54688 349.45L316.48438 349.45L316.48438 345.40314Q316.48438 344.7 316.21875 344.35626Q315.96875 343.9969 315.39062 343.9969Q314.9375 343.9969 314.5625 344.23126Q314.1875 344.46564 314.01562 344.91876Q313.84375 345.3719 313.84375 346.21564L313.84375 349.45L312.79688 349.45ZM326.79688 349.45L326.79688 343.23126L327.73438 343.23126L327.73438 344.10626Q328.42188 343.09064 329.71875 343.09064Q330.28125 343.09064 330.75 343.29376Q331.23438 343.4969 331.46875 343.825Q331.70312 344.15314 331.79688 344.59064Q331.84375 344.8875 331.84375 345.6219L331.84375 349.45L330.79688 349.45L330.79688 345.66876Q330.79688 345.0125 330.67188 344.7Q330.54688 344.3875 330.23438 344.2Q329.92188 343.9969 329.5 343.9969Q328.82812 343.9969 328.32812 344.4344Q327.84375 344.85626 327.84375 346.04376L327.84375 349.45L326.79688 349.45ZM337.85938 348.6844Q337.26562 349.1844 336.71875 349.3875Q336.1875 349.59064 335.5625 349.59064Q334.53125 349.59064 333.98438 349.09064Q333.4375 348.59064 333.4375 347.8094Q333.4375 347.35626 333.64062 346.98126Q333.84375 346.59064 334.1875 346.3719Q334.53125 346.1375 334.95312 346.02814Q335.25 345.9344 335.89062 345.85626Q337.15625 345.71564 337.76562 345.4969Q337.76562 345.27814 337.76562 345.23126Q337.76562 344.575 337.46875 344.3094Q337.0625 343.96564 336.26562 343.96564Q335.53125 343.96564 335.17188 344.23126Q334.8125 344.48126 334.64062 345.1375L333.60938 344.9969Q333.75 344.34064 334.07812 343.9344Q334.40625 343.52814 335.01562 343.3094Q335.625 343.09064 336.42188 343.09064Q337.21875 343.09064 337.71875 343.27814Q338.21875 343.46564 338.45312 343.7469Q338.6875 344.02814 338.78125 344.46564Q338.82812 344.73126 338.82812 345.4344L338.82812 346.84064Q338.82812 348.3094 338.89062 348.7Q338.96875 349.09064 339.17188 349.45L338.0625 349.45Q337.90625 349.1219 337.85938 348.6844ZM337.76562 346.325Q337.1875 346.5594 336.04688 346.73126Q335.39062 346.825 335.125 346.95Q334.85938 347.0594 334.70312 347.27814Q334.5625 347.4969 334.5625 347.77814Q334.5625 348.2 334.875 348.48126Q335.20312 348.7625 335.8125 348.7625Q336.42188 348.7625 336.89062 348.4969Q337.375 348.23126 337.59375 347.7625Q337.76562 347.40314 337.76562 346.71564L337.76562 346.325ZM340.79688 349.45L340.79688 343.23126L341.73438 343.23126L341.73438 344.10626Q342.03125 343.6375 342.51562 343.3719Q343.0 343.09064 343.625 343.09064Q344.3125 343.09064 344.75 343.3719Q345.20312 343.65314 345.375 344.16876Q346.125 343.09064 347.29688 343.09064Q348.23438 343.09064 348.71875 343.60626Q349.21875 344.10626 349.21875 345.1844L349.21875 349.45L348.17188 349.45L348.17188 345.52814Q348.17188 344.90314 348.0625 344.6219Q347.96875 344.34064 347.70312 344.16876Q347.4375 343.9969 347.0625 343.9969Q346.40625 343.9969 345.96875 344.4344Q345.54688 344.8719 345.54688 345.84064L345.54688 349.45L344.48438 349.45L344.48438 345.40314Q344.48438 344.7 344.21875 344.35626Q343.96875 343.9969 343.39062 343.9969Q342.9375 343.9969 342.5625 344.23126Q342.1875 344.46564 342.01562 344.91876Q341.84375 345.3719 341.84375 346.21564L341.84375 349.45L340.79688 349.45ZM356.04688 347.45L357.14062 347.575Q356.89062 348.52814 356.1875 349.0594Q355.48438 349.59064 354.40625 349.59064Q353.04688 349.59064 352.23438 348.7469Q351.4375 347.90314 351.4375 346.3875Q351.4375 344.825 352.25 343.96564Q353.0625 343.09064 354.34375 343.09064Q355.59375 343.09064 356.375 343.9344Q357.17188 344.77814 357.17188 346.325Q357.17188 346.41876 357.17188 346.60626L352.53125 346.60626Q352.59375 347.6375 353.10938 348.1844Q353.625 348.71564 354.40625 348.71564Q354.98438 348.71564 355.39062 348.41876Q355.8125 348.10626 356.04688 347.45ZM352.59375 345.7469L356.0625 345.7469Q356.0 344.95 355.67188 344.5594Q355.15625 343.95 354.35938 343.95Q353.625 343.95 353.125 344.4344Q352.64062 344.91876 352.59375 345.7469Z" fill-rule="nonzero"/><path fill="#000000" d="M47.05 252.5823Q47.05 251.05106 47.3625 250.12918Q47.675 249.19168 48.284374 248.69168Q48.909374 248.19168 49.846874 248.19168Q50.534374 248.19168 51.05 248.47293Q51.58125 248.75418 51.925 249.28543Q52.26875 249.80106 52.45625 250.55106Q52.64375 251.30106 52.64375 252.5823Q52.64375 254.09793 52.33125 255.0198Q52.034374 255.94168 51.409374 256.4573Q50.8 256.9573 49.846874 256.9573Q48.6125 256.9573 47.89375 256.06668Q47.05 255.00418 47.05 252.5823ZM48.128124 252.5823Q48.128124 254.69168 48.628124 255.3948Q49.128124 256.09793 49.846874 256.09793Q50.58125 256.09793 51.065624 255.3948Q51.565624 254.69168 51.565624 252.5823Q51.565624 250.4573 51.065624 249.7698Q50.58125 249.06668 49.83125 249.06668Q49.1125 249.06668 48.675 249.67606Q48.128124 250.4573 48.128124 252.5823Z" fill-rule="nonzero"/><path fill="#000000" d="M23.01875 213.84166L21.971874 213.84166L21.971874 207.12291Q21.58125 207.48228 20.95625 207.85728Q20.346874 208.21666 19.8625 208.38853L19.8625 207.37291Q20.7375 206.95103 21.39375 206.37291Q22.065624 205.77916 22.346874 205.21666L23.01875 205.21666L23.01875 213.84166ZM26.05 209.60728Q26.05 208.07603 26.3625 207.15416Q26.675 206.21666 27.284374 205.71666Q27.909374 205.21666 28.846874 205.21666Q29.534374 205.21666 30.05 205.49791Q30.58125 205.77916 30.925 206.31041Q31.26875 206.82603 31.45625 207.57603Q31.64375 208.32603 31.64375 209.60728Q31.64375 211.12291 31.33125 212.04478Q31.034374 212.96666 30.409374 213.48228Q29.8 213.98228 28.846874 213.98228Q27.6125 213.98228 26.89375 213.09166Q26.05 212.02916 26.05 209.60728ZM27.128124 209.60728Q27.128124 211.71666 27.628124 212.41978Q28.128124 213.12291 28.846874 213.12291Q29.58125 213.12291 30.065624 212.41978Q30.565624 211.71666 30.565624 209.60728Q30.565624 207.48228 30.065624 206.79478Q29.58125 206.09166 28.83125 206.09166Q28.1125 206.09166 27.675 206.70103Q27.128124 207.48228 27.128124 209.60728ZM33.05 209.60728Q33.05 208.07603 33.3625 207.15416Q33.675 206.21666 34.284374 205.71666Q34.909374 205.21666 35.846874 205.21666Q36.534374 205.21666 37.05 205.49791Q37.58125 205.77916 37.925 206.31041Q38.26875 206.82603 38.45625 207.57603Q38.64375 208.32603 38.64375 209.60728Q38.64375 211.12291 38.33125 212.04478Q38.034374 212.96666 37.409374 213.48228Q36.8 213.98228 35.846874 213.98228Q34.6125 213.98228 33.89375 213.09166Q33.05 212.02916 33.05 209.60728ZM34.128124 209.60728Q34.128124 211.71666 34.628124 212.41978Q35.128124 213.12291 35.846874 213.12291Q36.58125 213.12291 37.065624 212.41978Q37.565624 211.71666 37.565624 209.60728Q37.565624 207.48228 37.065624 206.79478Q36.58125 206.09166 35.83125 206.09166Q35.1125 206.09166 34.675 206.70103Q34.128124 207.48228 34.128124 209.60728ZM40.05 209.60728Q40.05 208.07603 40.3625 207.15416Q40.675 206.21666 41.284374 205.71666Q41.909374 205.21666 42.846874 205.21666Q43.534374 205.21666 44.05 205.49791Q44.58125 205.77916 44.925 206.31041Q45.26875 206.82603 45.45625 207.57603Q45.64375 208.32603 45.64375 209.60728Q45.64375 211.12291 45.33125 212.04478Q45.034374 212.96666 44.409374 213.48228Q43.8 213.98228 42.846874 213.98228Q41.6125 213.98228 40.89375 213.09166Q40.05 212.02916 40.05 209.60728ZM41.128124 209.60728Q41.128124 211.71666 41.628124 212.41978Q42.128124 213.12291 42.846874 213.12291Q43.58125 213.12291 44.065624 212.41978Q44.565624 211.71666 44.565624 209.60728Q44.565624 207.48228 44.065624 206.79478Q43.58125 206.09166 42.83125 206.09166Q42.1125 206.09166 41.675 206.70103Q41.128124 207.48228 41.128124 209.60728ZM47.05 209.60728Q47.05 208.07603 47.3625 207.15416Q47.675 206.21666 48.284374 205.71666Q48.909374 205.21666 49.846874 205.21666Q50.534374 205.21666 51.05 205.49791Q51.58125 205.77916 51.925 206.31041Q52.26875 206.82603 52.45625 207.57603Q52.64375 208.32603 52.64375 209.60728Q52.64375 211.12291 52.33125 212.04478Q52.034374 212.96666 51.409374 213.48228Q50.8 213.98228 49.846874 213.98228Q48.6125 213.98228 47.89375 213.09166Q47.05 212.02916 47.05 209.60728ZM48.128124 209.60728Q48.128124 211.71666 48.628124 212.41978Q49.128124 213.12291 49.846874 213.12291Q50.58125 213.12291 51.065624 212.41978Q51.565624 211.71666 51.565624 209.60728Q51.565624 207.48228 51.065624 206.79478Q50.58125 206.09166 49.83125 206.09166Q49.1125 206.09166 48.675 206.70103Q48.128124 207.48228 48.128124 209.60728Z" fill-rule="nonzero"/><path fill="#000000" d="M24.596874 169.85104L24.596874 170.86667L18.909374 170.86667Q18.909374 170.49167 19.034374 170.1323Q19.253124 169.55417 19.721874 168.99167Q20.20625 168.42917 21.1125 167.6948Q22.51875 166.53854 23.003124 165.86667Q23.503124 165.1948 23.503124 164.60104Q23.503124 163.97604 23.05 163.55417Q22.596874 163.11667 21.878124 163.11667Q21.1125 163.11667 20.659374 163.5698Q20.20625 164.02292 20.190624 164.83542L19.1125 164.72604Q19.221874 163.5073 19.940624 162.8823Q20.675 162.24167 21.909374 162.24167Q23.14375 162.24167 23.8625 162.92917Q24.58125 163.61667 24.58125 164.6323Q24.58125 165.14792 24.3625 165.64792Q24.159374 166.1323 23.659374 166.6948Q23.175 167.24167 22.05 168.1948Q21.096874 168.99167 20.815624 169.28854Q20.55 169.5698 20.378124 169.85104L24.596874 169.85104ZM26.05 166.6323Q26.05 165.10104 26.3625 164.17917Q26.675 163.24167 27.284374 162.74167Q27.909374 162.24167 28.846874 162.24167Q29.534374 162.24167 30.05 162.52292Q30.58125 162.80417 30.925 163.33542Q31.26875 163.85104 31.45625 164.60104Q31.64375 165.35104 31.64375 166.6323Q31.64375 168.14792 31.33125 169.0698Q31.034374 169.99167 30.409374 170.5073Q29.8 171.0073 28.846874 171.0073Q27.6125 171.0073 26.89375 170.11667Q26.05 169.05417 26.05 166.6323ZM27.128124 166.6323Q27.128124 168.74167 27.628124 169.4448Q28.128124 170.14792 28.846874 170.14792Q29.58125 170.14792 30.065624 169.4448Q30.565624 168.74167 30.565624 166.6323Q30.565624 164.5073 30.065624 163.8198Q29.58125 163.11667 28.83125 163.11667Q28.1125 163.11667 27.675 163.72604Q27.128124 164.5073 27.128124 166.6323ZM33.05 166.6323Q33.05 165.10104 33.3625 164.17917Q33.675 163.24167 34.284374 162.74167Q34.909374 162.24167 35.846874 162.24167Q36.534374 162.24167 37.05 162.52292Q37.58125 162.80417 37.925 163.33542Q38.26875 163.85104 38.45625 164.60104Q38.64375 165.35104 38.64375 166.6323Q38.64375 168.14792 38.33125 169.0698Q38.034374 169.99167 37.409374 170.5073Q36.8 171.0073 35.846874 171.0073Q34.6125 171.0073 33.89375 170.11667Q33.05 169.05417 33.05 166.6323ZM34.128124 166.6323Q34.128124 168.74167 34.628124 169.4448Q35.128124 170.14792 35.846874 170.14792Q36.58125 170.14792 37.065624 169.4448Q37.565624 168.74167 37.565624 166.6323Q37.565624 164.5073 37.065624 163.8198Q36.58125 163.11667 35.83125 163.11667Q35.1125 163.11667 34.675 163.72604Q34.128124 164.5073 34.128124 166.6323ZM40.05 166.6323Q40.05 165.10104 40.3625 164.17917Q40.675 163.24167 41.284374 162.74167Q41.909374 162.24167 42.846874 162.24167Q43.534374 162.24167 44.05 162.52292Q44.58125 162.80417 44.925 163.33542Q45.26875 163.85104 45.45625 164.60104Q45.64375 165.35104 45.64375 166.6323Q45.64375 168.14792 45.33125 169.0698Q45.034374 169.99167 44.409374 170.5073Q43.8 171.0073 42.846874 171.0073Q41.6125 171.0073 40.89375 170.11667Q40.05 169.05417 40.05 166.6323ZM41.128124 166.6323Q41.128124 168.74167 41.628124 169.4448Q42.128124 170.14792 42.846874 170.14792Q43.58125 170.14792 44.065624 169.4448Q44.565624 168.74167 44.565624 166.6323Q44.565624 164.5073 44.065624 163.8198Q43.58125 163.11667 42.83125 163.11667Q42.1125 163.11667 41.675 163.72604Q41.128124 164.5073 41.128124 166.6323ZM47.05 166.6323Q47.05 165.10104 47.3625 164.17917Q47.675 163.24167 48.284374 162.74167Q48.909374 162.24167 49.846874 162.24167Q50.534374 162.24167 51.05 162.52292Q51.58125 162.80417 51.925 163.33542Q52.26875 163.85104 52.45625 164.60104Q52.64375 165.35104 52.64375 166.6323Q52.64375 168.14792 52.33125 169.0698Q52.034374 169.99167 51.409374 170.5073Q50.8 171.0073 49.846874 171.0073Q48.6125 171.0073 47.89375 170.11667Q47.05 169.05417 47.05 166.6323ZM48.128124 166.6323Q48.128124 168.74167 48.628124 169.4448Q49.128124 170.14792 49.846874 170.14792Q50.58125 170.14792 51.065624 169.4448Q51.565624 168.74167 51.565624 166.6323Q51.565624 164.5073 51.065624 163.8198Q50.58125 163.11667 49.83125 163.11667Q49.1125 163.11667 48.675 163.72604Q48.128124 164.5073 48.128124 166.6323Z" fill-rule="nonzero"/><path fill="#000000" d="M19.05 125.626045L20.1125 125.48542Q20.284374 126.376045 20.721874 126.782295Q21.159374 127.17292 21.784374 127.17292Q22.534374 127.17292 23.05 126.657295Q23.565624 126.14167 23.565624 125.376045Q23.565624 124.657295 23.08125 124.188545Q22.6125 123.70417 21.878124 123.70417Q21.58125 123.70417 21.128124 123.82917L21.253124 122.89167Q21.3625 122.907295 21.425 122.907295Q22.096874 122.907295 22.628124 122.563545Q23.175 122.20417 23.175 121.469795Q23.175 120.89167 22.784374 120.51667Q22.39375 120.126045 21.76875 120.126045Q21.159374 120.126045 20.7375 120.51667Q20.33125 120.907295 20.221874 121.67292L19.159374 121.48542Q19.346874 120.438545 20.034374 119.86042Q20.721874 119.26667 21.7375 119.26667Q22.440624 119.26667 23.034374 119.57917Q23.628124 119.876045 23.940624 120.39167Q24.253124 120.907295 24.253124 121.501045Q24.253124 122.04792 23.95625 122.51667Q23.659374 122.969795 23.08125 123.23542Q23.83125 123.407295 24.253124 123.969795Q24.675 124.51667 24.675 125.36042Q24.675 126.48542 23.846874 127.26667Q23.034374 128.04791 21.784374 128.04791Q20.659374 128.04791 19.909374 127.376045Q19.159374 126.688545 19.05 125.626045ZM26.05 123.657295Q26.05 122.126045 26.3625 121.20417Q26.675 120.26667 27.284374 119.76667Q27.909374 119.26667 28.846874 119.26667Q29.534374 119.26667 30.05 119.54792Q30.58125 119.82917 30.925 120.36042Q31.26875 120.876045 31.45625 121.626045Q31.64375 122.376045 31.64375 123.657295Q31.64375 125.17292 31.33125 126.094795Q31.034374 127.01667 30.409374 127.532295Q29.8 128.03229 28.846874 128.03229Q27.6125 128.03229 26.89375 127.14167Q26.05 126.07917 26.05 123.657295ZM27.128124 123.657295Q27.128124 125.76667 27.628124 126.469795Q28.128124 127.17292 28.846874 127.17292Q29.58125 127.17292 30.065624 126.469795Q30.565624 125.76667 30.565624 123.657295Q30.565624 121.532295 30.065624 120.844795Q29.58125 120.14167 28.83125 120.14167Q28.1125 120.14167 27.675 120.751045Q27.128124 121.532295 27.128124 123.657295ZM33.05 123.657295Q33.05 122.126045 33.3625 121.20417Q33.675 120.26667 34.284374 119.76667Q34.909374 119.26667 35.846874 119.26667Q36.534374 119.26667 37.05 119.54792Q37.58125 119.82917 37.925 120.36042Q38.26875 120.876045 38.45625 121.626045Q38.64375 122.376045 38.64375 123.657295Q38.64375 125.17292 38.33125 126.094795Q38.034374 127.01667 37.409374 127.532295Q36.8 128.03229 35.846874 128.03229Q34.6125 128.03229 33.89375 127.14167Q33.05 126.07917 33.05 123.657295ZM34.128124 123.657295Q34.128124 125.76667 34.628124 126.469795Q35.128124 127.17292 35.846874 127.17292Q36.58125 127.17292 37.065624 126.469795Q37.565624 125.76667 37.565624 123.657295Q37.565624 121.532295 37.065624 120.844795Q36.58125 120.14167 35.83125 120.14167Q35.1125 120.14167 34.675 120.751045Q34.128124 121.532295 34.128124 123.657295ZM40.05 123.657295Q40.05 122.126045 40.3625 121.20417Q40.675 120.26667 41.284374 119.76667Q41.909374 119.26667 42.846874 119.26667Q43.534374 119.26667 44.05 119.54792Q44.58125 119.82917 44.925 120.36042Q45.26875 120.876045 45.45625 121.626045Q45.64375 122.376045 45.64375 123.657295Q45.64375 125.17292 45.33125 126.094795Q45.034374 127.01667 44.409374 127.532295Q43.8 128.03229 42.846874 128.03229Q41.6125 128.03229 40.89375 127.14167Q40.05 126.07917 40.05 123.657295ZM41.128124 123.657295Q41.128124 125.76667 41.628124 126.469795Q42.128124 127.17292 42.846874 127.17292Q43.58125 127.17292 44.065624 126.469795Q44.565624 125.76667 44.565624 123.657295Q44.565624 121.532295 44.065624 120.844795Q43.58125 120.14167 42.83125 120.14167Q42.1125 120.14167 41.675 120.751045Q41.128124 121.532295 41.128124 123.657295ZM47.05 123.657295Q47.05 122.126045 47.3625 121.20417Q47.675 120.26667 48.284374 119.76667Q48.909374 119.26667 49.846874 119.26667Q50.534374 119.26667 51.05 119.54792Q51.58125 119.82917 51.925 120.36042Q52.26875 120.876045 52.45625 121.626045Q52.64375 122.376045 52.64375 123.657295Q52.64375 125.17292 52.33125 126.094795Q52.034374 127.01667 51.409374 127.532295Q50.8 128.03229 49.846874 128.03229Q48.6125 128.03229 47.89375 127.14167Q47.05 126.07917 47.05 123.657295ZM48.128124 123.657295Q48.128124 125.76667 48.628124 126.469795Q49.128124 127.17292 49.846874 127.17292Q50.58125 127.17292 51.065624 126.469795Q51.565624 125.76667 51.565624 123.657295Q51.565624 121.532295 51.065624 120.844795Q50.58125 120.14167 49.83125 120.14167Q49.1125 120.14167 48.675 120.751045Q48.128124 121.532295 48.128124 123.657295Z" fill-rule="nonzero"/><path fill="#000000" d="M22.425 84.916664L22.425 82.854164L18.70625 82.854164L18.70625 81.885414L22.628124 76.322914L23.4875 76.322914L23.4875 81.885414L24.64375 81.885414L24.64375 82.854164L23.4875 82.854164L23.4875 84.916664L22.425 84.916664ZM22.425 81.885414L22.425 78.02604L19.7375 81.885414L22.425 81.885414ZM26.05 80.68229Q26.05 79.15104 26.3625 78.229164Q26.675 77.291664 27.284374 76.791664Q27.909374 76.291664 28.846874 76.291664Q29.534374 76.291664 30.05 76.572914Q30.58125 76.854164 30.925 77.385414Q31.26875 77.90104 31.45625 78.65104Q31.64375 79.40104 31.64375 80.68229Q31.64375 82.197914 31.33125 83.11979Q31.034374 84.041664 30.409374 84.55729Q29.8 85.05729 28.846874 85.05729Q27.6125 85.05729 26.89375 84.166664Q26.05 83.104164 26.05 80.68229ZM27.128124 80.68229Q27.128124 82.791664 27.628124 83.49479Q28.128124 84.197914 28.846874 84.197914Q29.58125 84.197914 30.065624 83.49479Q30.565624 82.791664 30.565624 80.68229Q30.565624 78.55729 30.065624 77.86979Q29.58125 77.166664 28.83125 77.166664Q28.1125 77.166664 27.675 77.77604Q27.128124 78.55729 27.128124 80.68229ZM33.05 80.68229Q33.05 79.15104 33.3625 78.229164Q33.675 77.291664 34.284374 76.791664Q34.909374 76.291664 35.846874 76.291664Q36.534374 76.291664 37.05 76.572914Q37.58125 76.854164 37.925 77.385414Q38.26875 77.90104 38.45625 78.65104Q38.64375 79.40104 38.64375 80.68229Q38.64375 82.197914 38.33125 83.11979Q38.034374 84.041664 37.409374 84.55729Q36.8 85.05729 35.846874 85.05729Q34.6125 85.05729 33.89375 84.166664Q33.05 83.104164 33.05 80.68229ZM34.128124 80.68229Q34.128124 82.791664 34.628124 83.49479Q35.128124 84.197914 35.846874 84.197914Q36.58125 84.197914 37.065624 83.49479Q37.565624 82.791664 37.565624 80.68229Q37.565624 78.55729 37.065624 77.86979Q36.58125 77.166664 35.83125 77.166664Q35.1125 77.166664 34.675 77.77604Q34.128124 78.55729 34.128124 80.68229ZM40.05 80.68229Q40.05 79.15104 40.3625 78.229164Q40.675 77.291664 41.284374 76.791664Q41.909374 76.291664 42.846874 76.291664Q43.534374 76.291664 44.05 76.572914Q44.58125 76.854164 44.925 77.385414Q45.26875 77.90104 45.45625 78.65104Q45.64375 79.40104 45.64375 80.68229Q45.64375 82.197914 45.33125 83.11979Q45.034374 84.041664 44.409374 84.55729Q43.8 85.05729 42.846874 85.05729Q41.6125 85.05729 40.89375 84.166664Q40.05 83.104164 40.05 80.68229ZM41.128124 80.68229Q41.128124 82.791664 41.628124 83.49479Q42.128124 84.197914 42.846874 84.197914Q43.58125 84.197914 44.065624 83.49479Q44.565624 82.791664 44.565624 80.68229Q44.565624 78.55729 44.065624 77.86979Q43.58125 77.166664 42.83125 77.166664Q42.1125 77.166664 41.675 77.77604Q41.128124 78.55729 41.128124 80.68229ZM47.05 80.68229Q47.05 79.15104 47.3625 78.229164Q47.675 77.291664 48.284374 76.791664Q48.909374 76.291664 49.846874 76.291664Q50.534374 76.291664 51.05 76.572914Q51.58125 76.854164 51.925 77.385414Q52.26875 77.90104 52.45625 78.65104Q52.64375 79.40104 52.64375 80.68229Q52.64375 82.197914 52.33125 83.11979Q52.034374 84.041664 51.409374 84.55729Q50.8 85.05729 49.846874 85.05729Q48.6125 85.05729 47.89375 84.166664Q47.05 83.104164 47.05 80.68229ZM48.128124 80.68229Q48.128124 82.791664 48.628124 83.49479Q49.128124 84.197914 49.846874 84.197914Q50.58125 84.197914 51.065624 83.49479Q51.565624 82.791664 51.565624 80.68229Q51.565624 78.55729 51.065624 77.86979Q50.58125 77.166664 49.83125 77.166664Q49.1125 77.166664 48.675 77.77604Q48.128124 78.55729 48.128124 80.68229Z" fill-rule="nonzero"/><path fill="#000000" d="M86.5886 302.81195L82.191284 298.41464L82.86524 297.7407L83.52815 298.4036Q83.31823 297.68542 83.38452 297.33188Q83.45081 296.95624 83.71598 296.69107Q84.09163 296.31543 84.71035 296.16074L85.15229 297.1109Q84.71035 297.2214 84.44518 297.48657Q84.19107 297.7407 84.14687 298.09424Q84.10268 298.4257 84.290504 298.7682Q84.55567 299.29852 85.01971 299.76257L87.32886 302.07172L86.5886 302.81195ZM91.019066 295.55307L91.88085 294.86807Q92.37804 295.7188 92.25651 296.59164Q92.13497 297.46448 91.37262 298.2268Q90.4114 299.18805 89.24025 299.16595Q88.080154 299.13278 87.008446 298.0611Q85.903595 296.95624 85.870445 295.77405Q85.826256 294.5808 86.73223 293.6748Q87.61612 292.79092 88.76517 292.8351Q89.92526 292.8683 91.019066 293.96207Q91.08536 294.02838 91.21794 294.16095L87.93652 297.44238Q88.70992 298.12738 89.46122 298.14948Q90.20148 298.16052 90.75391 297.6081Q91.1627 297.1993 91.240036 296.70212Q91.317375 296.18283 91.019066 295.55307ZM87.37305 296.7905L89.82583 294.33774Q89.218155 293.81845 88.70992 293.77426Q87.91443 293.70795 87.35095 294.27142Q86.83167 294.7907 86.82062 295.4868Q86.82062 296.17178 87.37305 296.7905ZM95.63736 290.53702L96.465996 289.90726Q97.095764 290.7801 97.02947 291.70816Q96.96318 292.63626 96.245026 293.3544Q95.33905 294.26038 94.20105 294.22723Q93.06305 294.172 91.95819 293.06714Q91.25108 292.36005 90.952774 291.5977Q90.654465 290.81323 90.86439 290.073Q91.08536 289.3217 91.65988 288.74716Q92.36699 288.04007 93.184586 287.95166Q94.002174 287.8412 94.808716 288.38257L94.19 289.22226Q93.64862 288.87976 93.16248 288.92395Q92.6653 288.9571 92.28965 289.33273Q91.72617 289.8962 91.78142 290.65857Q91.825615 291.40985 92.69845 292.28268Q93.593376 293.17764 94.33363 293.23288Q95.07388 293.28812 95.615265 292.74673Q96.057205 292.3048 96.0793 291.75238Q96.11245 291.1889 95.63736 290.53702ZM100.27775 292.50366L99.4933 291.896Q99.80266 291.71924 99.990486 291.5314Q100.23355 291.28833 100.288795 291.0563Q100.366135 290.82428 100.32194 290.58124Q100.2667 290.3934 99.990486 289.78574Q99.94629 289.71945 99.88 289.54266L93.79225 286.81366L94.59879 286.00714L98.05699 287.63126Q98.7199 287.9406 99.404915 288.33838Q99.01821 287.6865 98.708855 287.0236L97.08472 283.5212L97.824974 282.78094L100.6313 288.92395Q101.07324 289.9183 101.205826 290.33817Q101.3826 290.9127 101.283165 291.34357Q101.205826 291.77448 100.85227 292.12802Q100.64235 292.33795 100.27775 292.50366ZM103.415535 282.75885L104.24417 282.1291Q104.87394 283.00192 104.80765 283.93Q104.741356 284.8581 104.0232 285.57623Q103.117226 286.4822 101.979225 286.44907Q100.841225 286.39383 99.73637 285.28897Q99.02926 284.58188 98.73095 283.81952Q98.43264 283.03506 98.64256 282.29483Q98.86353 281.54352 99.43806 280.969Q100.145164 280.26187 100.96275 280.1735Q101.78035 280.06302 102.58689 280.6044L101.96818 281.4441Q101.426796 281.10156 100.94066 281.14578Q100.443474 281.17892 100.067825 281.55457Q99.50435 282.11804 99.55959 282.8804Q99.60378 283.63168 100.47662 284.50452Q101.37155 285.39944 102.11181 285.4547Q102.85206 285.50995 103.39343 284.96857Q103.83538 284.5266 103.857475 283.97418Q103.89062 283.4107 103.415535 282.75885ZM106.37654 283.02402L100.29984 276.94733L101.05115 276.196L107.127846 282.2727L106.37654 283.02402ZM103.305046 275.66568L102.44326 274.8039L103.194565 274.0526L104.05635 274.9144L103.305046 275.66568ZM108.51996 280.8806L104.12264 276.48328L104.87394 275.732L109.27126 280.1293L108.51996 280.8806ZM110.64128 278.75928L106.24396 274.36197L106.906876 273.69904L107.52559 274.31778Q107.29357 273.11346 108.2106 272.19644Q108.608345 271.7987 109.083435 271.61087Q109.56957 271.412 109.96732 271.4783Q110.36507 271.5446 110.740715 271.78766Q110.98379 271.96442 111.50307 272.4837L114.20996 275.1906L113.46971 275.93085L110.79596 273.2571Q110.331924 272.79306 110.02256 272.6605Q109.7132 272.5279 109.35965 272.6163Q108.99505 272.69363 108.69674 272.99194Q108.22165 273.46704 108.17745 274.12994Q108.13326 274.77075 108.97295 275.61044L111.38153 278.01904L110.64128 278.75928ZM115.812 274.31778L116.65169 273.69904Q117.027336 273.9863 117.39194 273.93106Q117.878075 273.86478 118.353165 273.38968Q118.872444 272.87042 118.938736 272.38428Q119.016075 271.8871 118.75091 271.42303Q118.58518 271.12473 117.84493 270.4066Q117.93332 271.46725 117.20412 272.19644Q116.298134 273.10242 115.149086 272.94775Q113.98899 272.782 113.08301 271.87604Q112.45324 271.24628 112.14388 270.49496Q111.834526 269.7216 111.97816 269.00342Q112.12179 268.28528 112.70736 267.69968Q113.491806 266.91525 114.62981 267.03677L114.09947 266.50644L114.784485 265.82144L118.58518 269.62213Q119.6127 270.64966 119.83367 271.29047Q120.05464 271.93127 119.84472 272.62735Q119.64584 273.33444 118.98293 273.99734Q118.19849 274.7818 117.358795 274.9144Q116.519104 275.04697 115.812 274.31778ZM113.790115 271.05844Q114.6519 271.92023 115.39215 271.97546Q116.13241 272.03073 116.65169 271.51144Q117.17097 270.99216 117.11573 270.2519Q117.07153 269.5006 116.23184 268.66092Q115.4253 267.85437 114.6519 267.81018Q113.88955 267.75494 113.38132 268.26315Q112.88413 268.76035 112.93938 269.5227Q112.99462 270.26294 113.790115 271.05844ZM118.41946 267.33508L117.66815 266.5838L119.96625 264.2857L120.71755 265.037L118.41946 267.33508Z" fill-rule="nonzero"/><path fill="#000000" d="M157.47491 314.11462L151.39822 308.03793L152.13847 307.29767L154.31503 309.47424Q154.2377 308.35834 155.03319 307.56284Q155.53038 307.06564 156.08281 306.91098Q156.63524 306.7342 157.13242 306.92203Q157.61855 307.0988 158.27042 307.75067L161.05464 310.53488L160.31439 311.27515L157.53017 308.4909Q156.96669 307.92743 156.4695 307.91638Q155.97232 307.90533 155.53038 308.3473Q155.19891 308.67874 155.0774 309.1538Q154.95586 309.6068 155.12158 310.03772Q155.28731 310.4465 155.8066 310.9658L158.21518 313.37436L157.47491 314.11462ZM165.30833 306.2812L164.65648 305.62933Q164.88849 306.89993 164.00461 307.7838Q163.6179 308.1705 163.13177 308.3694Q162.64565 308.54614 162.25894 308.4909Q161.86119 308.42462 161.46344 308.15945Q161.20934 307.9937 160.72319 307.5076L158.00525 304.78964L158.75655 304.03836L161.19827 306.48007Q161.7728 307.0546 162.02692 307.22034Q162.38048 307.44128 162.77823 307.3971Q163.17596 307.3308 163.51848 306.9883Q163.84993 306.65686 163.97147 306.20386Q164.093 305.72876 163.91621 305.30893Q163.75049 304.87802 163.18701 304.31458L160.83368 301.9612L161.57393 301.22098L165.97125 305.6183L165.30833 306.2812ZM167.37442 304.21512L162.9771 299.8178L163.64001 299.15488L164.25873 299.77362Q164.0267 298.5693 164.94374 297.65228Q165.34148 297.25455 165.81657 297.0667Q166.3027 296.86783 166.70045 296.93414Q167.0982 297.00043 167.47385 297.2435Q167.71692 297.42026 168.2362 297.93954L170.9431 300.64645L170.20284 301.3867L167.5291 298.71295Q167.06506 298.2489 166.75569 298.11633Q166.44633 297.98373 166.09279 298.07214Q165.72818 298.14948 165.42987 298.44778Q164.95479 298.92288 164.91058 299.5858Q164.8664 300.2266 165.70609 301.06628L168.11467 303.47488L167.37442 304.21512ZM173.5837 294.77966L174.41234 294.1499Q175.0421 295.02274 174.97581 295.9508Q174.90952 296.8789 174.19136 297.59705Q173.28539 298.50302 172.14738 298.46988Q171.00938 298.41464 169.90453 297.30978Q169.19742 296.6027 168.89911 295.84033Q168.6008 295.05588 168.81073 294.31564Q169.0317 293.56433 169.60622 292.9898Q170.31332 292.28268 171.13092 292.1943Q171.94852 292.08383 172.75505 292.6252L172.13634 293.4649Q171.59496 293.12238 171.10883 293.1666Q170.61163 293.19974 170.236 293.57538Q169.67252 294.13885 169.72775 294.9012Q169.77194 295.6525 170.64479 296.52533Q171.53972 297.42026 172.27997 297.47552Q173.02022 297.53076 173.5616 296.98938Q174.00354 296.54742 174.02563 295.995Q174.05878 295.43152 173.5837 294.77966ZM176.5668 295.02274L170.49011 288.94604L171.23036 288.20578L173.40692 290.38235Q173.32957 289.26645 174.12508 288.47095Q174.62225 287.97375 175.17468 287.8191Q175.72711 287.6423 176.2243 287.83014Q176.71043 288.0069 177.3623 288.65878L180.14653 291.443L179.40628 292.18326L176.62204 289.39902Q176.05856 288.83554 175.56139 288.8245Q175.06421 288.81345 174.62225 289.2554Q174.2908 289.58685 174.16927 290.06195Q174.04773 290.51492 174.21347 290.94583Q174.3792 291.3546 174.89847 291.8739L177.30705 294.28247L176.5668 295.02274ZM183.10754 285.65356L183.96933 284.96857Q184.4665 285.8193 184.34497 286.69214Q184.22345 287.56497 183.46109 288.32733Q182.49988 289.28854 181.32872 289.26645Q180.16862 289.2333 179.09692 288.1616Q177.99207 287.05673 177.95892 285.87454Q177.91472 284.6813 178.82071 283.77533Q179.70459 282.89145 180.85364 282.93564Q182.01373 282.96878 183.10754 284.0626Q183.17383 284.12888 183.30641 284.26144L180.025 287.54288Q180.7984 288.22787 181.5497 288.24997Q182.28995 288.26102 182.84238 287.7086Q183.25117 287.2998 183.3285 286.8026Q183.40585 286.28333 183.10754 285.65356ZM179.46152 286.89102L181.91429 284.43823Q181.30663 283.91895 180.7984 283.87476Q180.0029 283.80847 179.43942 284.37195Q178.92015 284.89124 178.90909 285.58728Q178.90909 286.27228 179.46152 286.89102ZM186.4663 285.12323L182.06898 280.72592L182.73189 280.06302L183.35062 280.68173Q183.11859 279.47745 184.03561 278.5604Q184.43336 278.16266 184.90845 277.97482Q185.39459 277.77597 185.79234 277.84225Q186.19008 277.90854 186.56573 278.1516Q186.8088 278.3284 187.32808 278.84766L190.03497 281.55457L189.29472 282.2948L186.62097 279.62106Q186.15694 279.157 185.84758 279.02444Q185.53822 278.89188 185.18466 278.98026Q184.82007 279.0576 184.52176 279.3559Q184.04666 279.831 184.00247 280.4939Q183.95828 281.1347 184.79797 281.9744L187.20656 284.383L186.4663 285.12323ZM192.37727 277.88644L193.13962 278.42783Q192.8855 278.8145 192.64244 279.0576Q192.23364 279.4664 191.89113 279.56583Q191.53758 279.6542 191.22823 279.54373Q190.92992 279.42218 190.25595 278.74823L187.72583 276.2181L187.18445 276.7595L186.60992 276.18497L187.1513 275.6436L186.0575 274.54977L186.35582 273.36758L187.89156 274.90335L188.64287 274.15204L189.21739 274.72656L188.46608 275.47787L191.04039 278.0522Q191.36081 278.3726 191.48233 278.42783Q191.61491 278.47202 191.75854 278.43887Q191.90218 278.40573 192.06792 278.24Q192.20049 278.10742 192.37727 277.88644ZM191.0625 276.12973Q189.8361 274.90335 189.9245 273.6438Q190.00183 272.59418 190.81943 271.7766Q191.7254 270.8706 192.89655 270.89273Q194.0677 270.89273 195.11731 271.94232Q195.96805 272.79306 196.20006 273.53333Q196.43208 274.27356 196.21112 275.04697Q195.99014 275.79828 195.41562 276.3728Q194.4986 277.28983 193.33849 277.27878Q192.17839 277.24564 191.0625 276.12973ZM191.82484 275.36737Q192.66454 276.20706 193.44897 276.2623Q194.24448 276.3065 194.7969 275.7541Q195.36038 275.1906 195.30513 274.40616Q195.2499 273.6217 194.3881 272.75992Q193.57051 271.94232 192.77502 271.89813Q191.99057 271.8429 191.43814 272.39532Q190.88571 272.94775 190.92992 273.74326Q190.9741 274.51663 191.82484 275.36737ZM196.01224 271.18Q194.78586 269.95358 194.87424 268.69406Q194.95158 267.64444 195.76917 266.82684Q196.67516 265.92087 197.8463 265.94296Q199.01744 265.94296 200.06706 266.99258Q200.9178 267.84332 201.14981 268.58356Q201.38184 269.32382 201.16086 270.09723Q200.9399 270.8485 200.36537 271.42303Q199.44833 272.3401 198.28824 272.32904Q197.12814 272.29587 196.01224 271.18ZM196.7746 270.41763Q197.61427 271.25732 198.39873 271.31256Q199.19421 271.35675 199.74664 270.80432Q200.31012 270.24084 200.25488 269.45642Q200.19963 268.67197 199.33784 267.81018Q198.52026 266.99258 197.72476 266.9484Q196.94032 266.89316 196.3879 267.44556Q195.83546 267.998 195.87965 268.7935Q195.92386 269.5669 196.7746 270.41763ZM204.39809 265.86563L205.16043 266.407Q204.90631 266.7937 204.66325 267.03677Q204.25446 267.44556 203.91194 267.545Q203.5584 267.6334 203.24904 267.52292Q202.95073 267.40137 202.27676 266.72742L199.74664 264.1973L199.20528 264.73868L198.63075 264.16415L199.17212 263.62277L198.07832 262.52896L198.37663 261.34677L199.91237 262.88254L200.66368 262.13123L201.2382 262.70575L200.4869 263.45706L203.06122 266.03137Q203.38162 266.35178 203.50316 266.407Q203.63574 266.4512 203.77937 266.41806Q203.923 266.38492 204.08873 266.21918Q204.22131 266.0866 204.39809 265.86563Z" fill-rule="nonzero"/><path fill="#000000" d="M271.0307 286.12866L268.87625 283.9742Q268.94254 284.39404 268.78784 284.8802Q268.63318 285.3442 268.2796 285.69778Q267.49518 286.4822 266.313 286.42697Q265.11972 286.3607 264.02594 285.26688Q263.363 284.60397 263.07574 283.85266Q262.77744 283.09033 262.94318 282.39426Q263.1089 281.67612 263.62817 281.15683Q264.44577 280.33923 265.59482 280.5602L265.00925 279.97464L265.6832 279.30066L271.77097 285.38843L271.0307 286.12866ZM264.8214 284.5377Q265.67215 285.38843 266.44556 285.4547Q267.23 285.50995 267.7272 285.01276Q268.20227 284.5377 268.14703 283.79742Q268.08075 283.0461 267.26315 282.22852Q266.37927 281.34464 265.57272 281.2673Q264.77722 281.17892 264.28003 281.67612Q263.80496 282.15118 263.8823 282.91354Q263.94858 283.66486 264.8214 284.5377ZM274.36737 279.41116L273.71548 278.75928Q273.9475 280.02988 273.06363 280.91376Q272.67694 281.30045 272.1908 281.49933Q271.70465 281.67612 271.31796 281.62085Q270.92023 281.55457 270.52246 281.2894Q270.26834 281.1237 269.78223 280.63754L267.06427 277.9196L267.81558 277.1683L270.2573 279.61002Q270.83182 280.18454 271.08594 280.35028Q271.4395 280.57126 271.83725 280.52707Q272.235 280.46075 272.5775 280.11826Q272.90897 279.7868 273.0305 279.3338Q273.15204 278.85873 272.97525 278.43887Q272.8095 278.008 272.24603 277.44452L269.8927 275.0912L270.63297 274.35092L275.03027 278.74823L274.36737 279.41116ZM279.3171 274.4614L278.66525 273.80954Q278.89728 275.0801 278.0134 275.96402Q277.62668 276.3507 277.14053 276.5496Q276.65442 276.72635 276.2677 276.6711Q275.86996 276.60483 275.47223 276.33966Q275.2181 276.17392 274.73196 275.6878L272.01404 272.96985L272.76532 272.21854L275.20706 274.66028Q275.7816 275.2348 276.0357 275.40054Q276.38925 275.6215 276.787 275.5773Q277.18475 275.51102 277.52725 275.16852Q277.8587 274.83707 277.98022 274.38406Q278.10178 273.90897 277.925 273.48914Q277.75928 273.05823 277.1958 272.49475L274.84244 270.14142L275.5827 269.40118L279.98 273.7985L279.3171 274.4614ZM280.88602 272.89252L280.201 269.00342L276.61023 268.37366L277.5383 267.4456L279.23978 267.79913Q279.72592 267.9096 280.04633 267.98697Q279.94687 267.53397 279.89163 267.16937L279.59332 265.39056L280.48825 264.4956L281.02963 268.0864L284.99606 268.78244L284.0901 269.68845L281.8141 269.2244L281.20642 269.10287L281.78094 271.9976L280.88602 272.89252ZM282.7974 267.33508L282.0461 266.5838L284.3442 264.2857L285.0955 265.037L282.7974 267.33508Z" fill-rule="nonzero"/><path fill="#000000" d="M345.0327 287.7086L345.86136 287.07883Q346.49112 287.95166 346.42484 288.87973Q346.35855 289.80783 345.64038 290.52597Q344.7344 291.43195 343.5964 291.3988Q342.4584 291.34357 341.35355 290.2387Q340.64645 289.53162 340.34814 288.76926Q340.04984 287.9848 340.25977 287.24457Q340.4807 286.49326 341.05524 285.91873Q341.76236 285.2116 342.57996 285.12323Q343.39755 285.01276 344.20407 285.55414L343.58536 286.39383Q343.04398 286.0513 342.55786 286.09552Q342.06067 286.12866 341.68503 286.5043Q341.12155 287.06778 341.1768 287.83014Q341.22098 288.58142 342.0938 289.45425Q342.98874 290.34918 343.729 290.40445Q344.46924 290.4597 345.01062 289.9183Q345.45258 289.47635 345.47467 288.92392Q345.5078 288.36047 345.0327 287.7086ZM347.99374 287.97375L341.91702 281.89706L342.66833 281.14575L348.74503 287.22247L347.99374 287.97375ZM348.01584 284.30563L347.26453 283.55435L349.56262 281.25626L350.31393 282.00754L348.01584 284.30563ZM353.9268 280.71487L354.68915 281.25626Q354.43503 281.64294 354.19196 281.88602Q353.78317 282.2948 353.44067 282.39426Q353.0871 282.48264 352.77774 282.37216Q352.47943 282.2506 351.80548 281.57666L349.27536 279.04654L348.73398 279.58792L348.15945 279.0134L348.70084 278.47202L347.60703 277.3782L347.90533 276.196L349.4411 277.73175L350.19238 276.98047L350.7669 277.555L350.01562 278.30627L352.58994 280.88058Q352.91034 281.201 353.03186 281.25626Q353.16446 281.30045 353.30807 281.2673Q353.45172 281.23416 353.61743 281.06842Q353.75003 280.93585 353.9268 280.71487ZM355.7719 280.1956L355.07584 280.89163L348.99915 274.81494L349.75046 274.06363L351.91595 276.22916Q351.80548 275.1685 352.5347 274.4393Q352.94348 274.0305 353.46277 273.84268Q353.98206 273.63275 354.51236 273.69904Q355.05374 273.75427 355.60617 274.04153Q356.1586 274.3288 356.6337 274.8039Q357.76065 275.93085 357.8159 277.11304Q357.87112 278.29523 357.09772 279.06863Q356.3133 279.8531 355.21948 279.64316L355.7719 280.1956ZM353.52905 277.97482Q354.3135 278.75928 354.88803 278.89185Q355.8161 279.11282 356.41272 278.5162Q356.89886 278.03006 356.83258 277.25668Q356.7773 276.47223 355.92657 275.6215Q355.0648 274.7597 354.3135 274.69342Q353.5622 274.6271 353.07605 275.11325Q352.58994 275.5994 352.65622 276.3949Q352.7225 277.16827 353.52905 277.97482ZM360.03665 275.93085L355.6393 271.53354L356.30225 270.8706L356.92096 271.48932Q356.68893 270.28503 357.60596 269.368Q358.00372 268.97028 358.4788 268.78244Q358.96494 268.58356 359.36267 268.64987Q359.76044 268.71616 360.13608 268.95923Q360.37915 269.136 360.89844 269.65527L363.60532 272.36218L362.86508 273.10242L360.1913 270.42868Q359.7273 269.96463 359.41794 269.83206Q359.10858 269.69946 358.755 269.78787Q358.3904 269.8652 358.0921 270.1635Q357.617 270.63858 357.5728 271.3015Q357.52863 271.94232 358.36832 272.782L360.7769 275.19058L360.03665 275.93085ZM364.9643 271.0032L358.8876 264.92648L359.6389 264.1752L365.7156 270.2519L364.9643 271.0032ZM364.9864 267.33508L364.23508 266.58377L366.5332 264.28568L367.2845 265.037L364.9864 267.33508Z" fill-rule="nonzero"/><path fill="#000000" d="M425.3545 292.80197L419.60925 289.7526L420.38263 288.9792L423.61987 290.82428L424.82416 291.49826Q424.77997 291.40985 424.1502 290.36026L422.27194 287.08987L423.0343 286.32755L426.24942 288.21683L427.3101 288.83554L426.71347 287.7307L424.92358 284.43823L425.6528 283.709L428.66904 289.48743L427.89566 290.2608L424.559 288.31628L423.64197 287.7528L426.13895 292.01755L425.3545 292.80197ZM428.43704 285.3221Q427.21063 284.09573 427.29904 282.83618Q427.37637 281.7866 428.19397 280.969Q429.09995 280.06302 430.2711 280.0851Q431.44223 280.0851 432.49185 281.1347Q433.3426 281.98544 433.57462 282.7257Q433.8066 283.46597 433.58566 284.23935Q433.3647 284.99066 432.79016 285.5652Q431.87314 286.4822 430.71304 286.47116Q429.55295 286.43802 428.43704 285.3221ZM429.19937 284.55975Q430.03906 285.39944 430.82352 285.4547Q431.61902 285.4989 432.17145 284.94647Q432.73492 284.383 432.67966 283.59854Q432.62442 282.8141 431.76263 281.9523Q430.94504 281.1347 430.14957 281.0905Q429.3651 281.03528 428.81268 281.5877Q428.26025 282.14014 428.30444 282.93564Q428.34863 283.709 429.19937 284.55975ZM433.38678 280.37238Q432.1604 279.146 432.24878 277.88644Q432.3261 276.83682 433.1437 276.01926Q434.04968 275.11325 435.22083 275.13535Q436.39197 275.13535 437.4416 276.18497Q438.29233 277.0357 438.52435 277.77597Q438.75638 278.5162 438.5354 279.2896Q438.31442 280.04092 437.7399 280.61545Q436.82288 281.53247 435.66278 281.52142Q434.5027 281.48828 433.38678 280.37238ZM434.14914 279.61002Q434.98883 280.4497 435.77325 280.50494Q436.56876 280.54913 437.1212 279.99673Q437.68466 279.43326 437.62943 278.6488Q437.5742 277.86435 436.7124 277.00256Q435.8948 276.18497 435.0993 276.14078Q434.31485 276.08554 433.76242 276.63797Q433.21 277.1904 433.25418 277.98587Q433.2984 278.75928 434.14914 279.61002ZM440.8114 277.34506L434.7347 271.26837L435.486 270.51706L438.95523 273.9863L438.9221 270.43973L439.89438 269.46747L439.82806 272.782L444.45743 273.69904L443.54037 274.6161L439.82806 273.8206L439.81702 274.84808L441.5627 276.59378L440.8114 277.34506ZM439.83914 267.8875L438.97736 267.02573L439.72864 266.2744L440.59042 267.1362L439.83914 267.8875ZM445.05405 273.10242L440.6567 268.7051L441.40802 267.9538L445.80533 272.35114L445.05405 273.10242ZM448.76636 266.56168L449.62814 265.87668Q450.12534 266.72742 450.00378 267.60025Q449.88226 268.47308 449.1199 269.23544Q448.1587 270.19666 446.98755 270.17456Q445.82742 270.14142 444.75574 269.0697Q443.65088 267.96484 443.61774 266.78265Q443.57355 265.58942 444.47952 264.68344Q445.3634 263.79956 446.51245 263.84375Q447.67255 263.8769 448.76636 264.9707Q448.83264 265.037 448.9652 265.1696L445.6838 268.451Q446.4572 269.136 447.2085 269.1581Q447.94876 269.16916 448.5012 268.61673Q448.90997 268.20792 448.98734 267.71075Q449.06467 267.19147 448.76636 266.56168ZM445.12033 267.79913L447.57312 265.34634Q446.96542 264.82706 446.4572 264.78287Q445.6617 264.71658 445.09824 265.28006Q444.57895 265.79935 444.5679 266.4954Q444.5679 267.18042 445.12033 267.79913Z" fill-rule="nonzero"/><path fill="#000000" d="M518.8572 281.48828L513.11194 278.43887L513.8853 277.6655L517.12256 279.5106L518.32684 280.18454Q518.28265 280.09616 517.6529 279.04654L515.7746 275.77618L516.537 275.01382L519.7521 276.90314L520.81274 277.52185L520.2161 276.417L518.4263 273.12454L519.15546 272.39532L522.17175 278.1737L521.3983 278.9471L518.06165 277.00256L517.14465 276.4391L519.6416 280.70383L518.8572 281.48828ZM521.9397 274.00842Q520.7133 272.78204 520.8017 271.5225Q520.879 270.47287 521.69666 269.6553Q522.6026 268.7493 523.77374 268.7714Q524.9449 268.7714 525.9945 269.821Q526.8453 270.67175 527.0773 271.41202Q527.3093 272.15225 527.0883 272.92566Q526.8674 273.67697 526.29285 274.2515Q525.3758 275.16852 524.2157 275.15747Q523.0556 275.12433 521.9397 274.00842ZM522.7021 273.24606Q523.54175 274.08575 524.3262 274.141Q525.1217 274.18518 525.67413 273.63275Q526.2376 273.0693 526.1824 272.28485Q526.1271 271.5004 525.2653 270.6386Q524.44775 269.821 523.6522 269.77682Q522.8678 269.7216 522.31537 270.27402Q521.76294 270.82645 521.8071 271.62192Q521.8513 272.39532 522.7021 273.24606ZM526.88947 269.05865Q525.6631 267.83228 525.75146 266.57275Q525.8288 265.52313 526.64636 264.70554Q527.55237 263.79956 528.7235 263.82166Q529.89465 263.82166 530.9443 264.87128Q531.795 265.72202 532.02704 266.46225Q532.25903 267.2025 532.0381 267.97592Q531.8171 268.7272 531.24255 269.30173Q530.32556 270.21878 529.16547 270.20773Q528.0054 270.17456 526.88947 269.05865ZM527.6518 268.29633Q528.4915 269.13602 529.27594 269.19125Q530.0714 269.23544 530.62384 268.683Q531.1873 268.11954 531.1321 267.33508Q531.07684 266.55066 530.2151 265.68887Q529.39746 264.87128 528.602 264.8271Q527.8175 264.77182 527.2651 265.32425Q526.7127 265.87668 526.7569 266.67218Q526.8011 267.4456 527.6518 268.29633Z" fill-rule="nonzero"/><path fill="#757575" d="M24.3625 35.55L24.3625 32.471874L18.784374 32.471874L18.784374 31.01875L24.659374 22.659374L25.95625 22.659374L25.95625 31.01875L27.690624 31.01875L27.690624 32.471874L25.95625 32.471874L25.95625 35.55L24.3625 35.55ZM24.3625 31.01875L24.3625 25.20625L20.33125 31.01875L24.3625 31.01875ZM29.3 29.190624Q29.3 26.909374 29.76875 25.51875Q30.2375 24.128124 31.159374 23.378124Q32.096874 22.6125 33.503124 22.6125Q34.534374 22.6125 35.315624 23.034374Q36.096874 23.440624 36.596874 24.2375Q37.1125 25.01875 37.409374 26.159374Q37.70625 27.284374 37.70625 29.190624Q37.70625 31.45625 37.2375 32.8625Q36.76875 34.253124 35.83125 35.01875Q34.909374 35.76875 33.503124 35.76875Q31.628124 35.76875 30.565624 34.440624Q29.3 32.83125 29.3 29.190624ZM30.925 29.190624Q30.925 32.3625 31.659374 33.425Q32.409374 34.471874 33.503124 34.471874Q34.58125 34.471874 35.33125 33.425Q36.08125 32.3625 36.08125 29.190624Q36.08125 26.01875 35.33125 24.971874Q34.58125 23.925 33.4875 23.925Q32.39375 23.925 31.7375 24.846874Q30.925 26.01875 30.925 29.190624ZM39.3 29.190624Q39.3 26.909374 39.76875 25.51875Q40.2375 24.128124 41.159374 23.378124Q42.096874 22.6125 43.503124 22.6125Q44.534374 22.6125 45.315624 23.034374Q46.096874 23.440624 46.596874 24.2375Q47.1125 25.01875 47.409374 26.159374Q47.70625 27.284374 47.70625 29.190624Q47.70625 31.45625 47.2375 32.8625Q46.76875 34.253124 45.83125 35.01875Q44.909374 35.76875 43.503124 35.76875Q41.628124 35.76875 40.565624 34.440624Q39.3 32.83125 39.3 29.190624ZM40.925 29.190624Q40.925 32.3625 41.659374 33.425Q42.409374 34.471874 43.503124 34.471874Q44.58125 34.471874 45.33125 33.425Q46.08125 32.3625 46.08125 29.190624Q46.08125 26.01875 45.33125 24.971874Q44.58125 23.925 43.4875 23.925Q42.39375 23.925 41.7375 24.846874Q40.925 26.01875 40.925 29.190624ZM60.83125 32.128124L62.378124 32.33125Q62.128124 33.940624 61.08125 34.8625Q60.034374 35.76875 58.503124 35.76875Q56.58125 35.76875 55.409374 34.51875Q54.253124 33.253124 54.253124 30.925Q54.253124 29.409374 54.753124 28.284374Q55.253124 27.14375 56.26875 26.58125Q57.3 26.003124 58.503124 26.003124Q60.034374 26.003124 60.9875 26.784374Q61.95625 27.55 62.2375 28.95625L60.690624 29.190624Q60.471874 28.253124 59.909374 27.784374Q59.3625 27.3 58.565624 27.3Q57.378124 27.3 56.628124 28.159374Q55.878124 29.01875 55.878124 30.878124Q55.878124 32.753124 56.596874 33.6125Q57.315624 34.45625 58.4875 34.45625Q59.409374 34.45625 60.034374 33.89375Q60.659374 33.315624 60.83125 32.128124ZM63.14375 30.878124Q63.14375 28.284374 64.59688 27.034374Q65.8 26.003124 67.51875 26.003124Q69.45625 26.003124 70.675 27.26875Q71.89375 28.534374 71.89375 30.753124Q71.89375 32.55 71.34688 33.58125Q70.81563 34.6125 69.78438 35.190624Q68.75313 35.76875 67.51875 35.76875Q65.56563 35.76875 64.34688 34.51875Q63.14375 33.253124 63.14375 30.878124ZM64.76875 30.878124Q64.76875 32.675 65.55 33.565624Q66.33125 34.45625 67.51875 34.45625Q68.70625 34.45625 69.4875 33.565624Q70.26875 32.659374 70.26875 30.83125Q70.26875 29.096874 69.47188 28.20625Q68.69063 27.315624 67.51875 27.315624Q66.33125 27.315624 65.55 28.20625Q64.76875 29.096874 64.76875 30.878124ZM73.7375 35.55L73.7375 26.221874L75.15938 26.221874L75.15938 27.55Q76.19063 26.003124 78.12813 26.003124Q78.97188 26.003124 79.675 26.315624Q80.39375 26.6125 80.7375 27.1125Q81.09688 27.596874 81.2375 28.26875Q81.31563 28.70625 81.31563 29.815624L81.31563 35.55L79.7375 35.55L79.7375 29.878124Q79.7375 28.909374 79.55 28.425Q79.37813 27.940624 78.89375 27.659374Q78.425 27.378124 77.8 27.378124Q76.78438 27.378124 76.05 28.01875Q75.31563 28.659374 75.31563 30.45625L75.31563 35.55L73.7375 35.55ZM83.7375 35.55L83.7375 26.221874L85.15938 26.221874L85.15938 27.55Q86.19063 26.003124 88.12813 26.003124Q88.97188 26.003124 89.675 26.315624Q90.39375 26.6125 90.7375 27.1125Q91.09688 27.596874 91.2375 28.26875Q91.31563 28.70625 91.31563 29.815624L91.31563 35.55L89.7375 35.55L89.7375 29.878124Q89.7375 28.909374 89.55 28.425Q89.37813 27.940624 88.89375 27.659374Q88.425 27.378124 87.8 27.378124Q86.78438 27.378124 86.05 28.01875Q85.31563 28.659374 85.31563 30.45625L85.31563 35.55L83.7375 35.55ZM100.12813 32.55L101.76875 32.753124Q101.37813 34.175 100.33125 34.971874Q99.28438 35.76875 97.65938 35.76875Q95.6125 35.76875 94.40938 34.503124Q93.20625 33.2375 93.20625 30.95625Q93.20625 28.6125 94.40938 27.315624Q95.62813 26.003124 97.56563 26.003124Q99.44063 26.003124 100.62813 27.284374Q101.81563 28.55 101.81563 30.8625Q101.81563 31.003124 101.8 31.284374L94.84688 31.284374Q94.925 32.83125 95.70625 33.64375Q96.50313 34.45625 97.65938 34.45625Q98.53438 34.45625 99.14375 34.003124Q99.76875 33.55 100.12813 32.55ZM94.925 29.9875L100.14375 29.9875Q100.03438 28.815624 99.55 28.221874Q98.78438 27.3 97.58125 27.3Q96.50313 27.3 95.75313 28.034374Q95.01875 28.76875 94.925 29.9875ZM109.83125 32.128124L111.37813 32.33125Q111.12813 33.940624 110.08125 34.8625Q109.03438 35.76875 107.50313 35.76875Q105.58125 35.76875 104.40938 34.51875Q103.25313 33.253124 103.25313 30.925Q103.25313 29.409374 103.75313 28.284374Q104.25313 27.14375 105.26875 26.58125Q106.3 26.003124 107.50313 26.003124Q109.03438 26.003124 109.9875 26.784374Q110.95625 27.55 111.2375 28.95625L109.69063 29.190624Q109.47188 28.253124 108.90938 27.784374Q108.3625 27.3 107.56563 27.3Q106.37813 27.3 105.62813 28.159374Q104.87813 29.01875 104.87813 30.878124Q104.87813 32.753124 105.59688 33.6125Q106.31563 34.45625 107.4875 34.45625Q108.40938 34.45625 109.03438 33.89375Q109.65938 33.315624 109.83125 32.128124ZM116.19063 34.128124L116.425 35.534374Q115.75313 35.675 115.22188 35.675Q114.3625 35.675 113.87813 35.409374Q113.40938 35.128124 113.22188 34.690624Q113.03438 34.2375 113.03438 32.815624L113.03438 27.440624L111.8625 27.440624L111.8625 26.221874L113.03438 26.221874L113.03438 23.909374L114.59688 22.95625L114.59688 26.221874L116.19063 26.221874L116.19063 27.440624L114.59688 27.440624L114.59688 32.909374Q114.59688 33.58125 114.675 33.784374Q114.76875 33.971874 114.95625 34.08125Q115.14375 34.190624 115.50313 34.190624Q115.75313 34.190624 116.19063 34.128124ZM117.75313 24.4875L117.75313 22.659374L119.33125 22.659374L119.33125 24.4875L117.75313 24.4875ZM117.75313 35.55L117.75313 26.221874L119.33125 26.221874L119.33125 35.55L117.75313 35.55ZM121.14375 30.878124Q121.14375 28.284374 122.59688 27.034374Q123.8 26.003124 125.51875 26.003124Q127.45625 26.003124 128.675 27.26875Q129.89375 28.534374 129.89375 30.753124Q129.89375 32.55 129.34688 33.58125Q128.81563 34.6125 127.78438 35.190624Q126.75313 35.76875 125.51875 35.76875Q123.56563 35.76875 122.34688 34.51875Q121.14375 33.253124 121.14375 30.878124ZM122.76875 30.878124Q122.76875 32.675 123.55 33.565624Q124.33125 34.45625 125.51875 34.45625Q126.70625 34.45625 127.4875 33.565624Q128.26875 32.659374 128.26875 30.83125Q128.26875 29.096874 127.47188 28.20625Q126.69063 27.315624 125.51875 27.315624Q124.33125 27.315624 123.55 28.20625Q122.76875 29.096874 122.76875 30.878124ZM131.7375 35.55L131.7375 26.221874L133.15938 26.221874L133.15938 27.55Q134.19063 26.003124 136.12813 26.003124Q136.97188 26.003124 137.675 26.315624Q138.39375 26.6125 138.7375 27.1125Q139.09688 27.596874 139.2375 28.26875Q139.31563 28.70625 139.31563 29.815624L139.31563 35.55L137.7375 35.55L137.7375 29.878124Q137.7375 28.909374 137.55 28.425Q137.37813 27.940624 136.89375 27.659374Q136.425 27.378124 135.8 27.378124Q134.78438 27.378124 134.05 28.01875Q133.31563 28.659374 133.31563 30.45625L133.31563 35.55L131.7375 35.55ZM141.09688 32.76875L142.675 32.51875Q142.8 33.45625 143.39375 33.95625Q144.00313 34.45625 145.08125 34.45625Q146.175 34.45625 146.70625 34.01875Q147.2375 33.565624 147.2375 32.971874Q147.2375 32.440624 146.76875 32.128124Q146.44063 31.925 145.14375 31.596874Q143.40938 31.159374 142.7375 30.846874Q142.06563 30.51875 141.70625 29.95625Q141.3625 29.378124 141.3625 28.690624Q141.3625 28.065624 141.64375 27.534374Q141.94063 27.003124 142.425 26.659374Q142.8 26.378124 143.44063 26.190624Q144.08125 26.003124 144.8 26.003124Q145.90938 26.003124 146.7375 26.33125Q147.56563 26.64375 147.95625 27.190624Q148.3625 27.721874 148.50313 28.628124L146.95625 28.83125Q146.84688 28.1125 146.34688 27.70625Q145.84688 27.3 144.925 27.3Q143.83125 27.3 143.3625 27.659374Q142.89375 28.01875 142.89375 28.503124Q142.89375 28.815624 143.09688 29.065624Q143.28438 29.315624 143.69063 29.4875Q143.94063 29.565624 145.09688 29.89375Q146.76875 30.33125 147.425 30.628124Q148.09688 30.909374 148.47188 31.45625Q148.8625 32.003124 148.8625 32.8Q148.8625 33.596874 148.39375 34.3Q147.94063 35.003124 147.06563 35.39375Q146.19063 35.76875 145.09688 35.76875Q143.26875 35.76875 142.31563 35.01875Q141.3625 34.253124 141.09688 32.76875ZM155.72188 35.55L155.72188 26.221874L157.14375 26.221874L157.14375 27.628124Q157.69063 26.64375 158.14375 26.33125Q158.6125 26.003124 159.15938 26.003124Q159.97188 26.003124 160.78438 26.51875L160.25313 27.9875Q159.65938 27.64375 159.08125 27.64375Q158.56563 27.64375 158.14375 27.95625Q157.7375 28.26875 157.56563 28.815624Q157.3 29.659374 157.3 30.659374L157.3 35.55L155.72188 35.55ZM168.12813 32.55L169.76875 32.753124Q169.37813 34.175 168.33125 34.971874Q167.28438 35.76875 165.65938 35.76875Q163.6125 35.76875 162.40938 34.503124Q161.20625 33.2375 161.20625 30.95625Q161.20625 28.6125 162.40938 27.315624Q163.62813 26.003124 165.56563 26.003124Q167.44063 26.003124 168.62813 27.284374Q169.81563 28.55 169.81563 30.8625Q169.81563 31.003124 169.8 31.284374L162.84688 31.284374Q162.925 32.83125 163.70625 33.64375Q164.50313 34.45625 165.65938 34.45625Q166.53438 34.45625 167.14375 34.003124Q167.76875 33.55 168.12813 32.55ZM162.925 29.9875L168.14375 29.9875Q168.03438 28.815624 167.55 28.221874Q166.78438 27.3 165.58125 27.3Q164.50313 27.3 163.75313 28.034374Q163.01875 28.76875 162.925 29.9875ZM177.69063 39.128124L177.69063 34.55Q177.31563 35.08125 176.64375 35.425Q175.9875 35.76875 175.2375 35.76875Q173.58125 35.76875 172.37813 34.440624Q171.19063 33.1125 171.19063 30.8Q171.19063 29.39375 171.675 28.284374Q172.15938 27.159374 173.08125 26.58125Q174.01875 26.003124 175.12813 26.003124Q176.84688 26.003124 177.84688 27.45625L177.84688 26.221874L179.26875 26.221874L179.26875 39.128124L177.69063 39.128124ZM172.81563 30.8625Q172.81563 32.659374 173.56563 33.565624Q174.31563 34.45625 175.37813 34.45625Q176.39375 34.45625 177.1125 33.6125Q177.84688 32.753124 177.84688 31.003124Q177.84688 29.128124 177.06563 28.190624Q176.3 27.253124 175.26875 27.253124Q174.2375 27.253124 173.51875 28.128124Q172.81563 29.003124 172.81563 30.8625ZM187.84688 35.55L187.84688 34.175Q186.76875 35.76875 184.89375 35.76875Q184.06563 35.76875 183.34688 35.45625Q182.62813 35.128124 182.28438 34.659374Q181.94063 34.175 181.8 33.471874Q181.70625 33.003124 181.70625 32.003124L181.70625 26.221874L183.28438 26.221874L183.28438 31.39375Q183.28438 32.628124 183.37813 33.065624Q183.53438 33.690624 184.01875 34.05Q184.50313 34.39375 185.20625 34.39375Q185.925 34.39375 186.55 34.034374Q187.175 33.675 187.425 33.05Q187.69063 32.409374 187.69063 31.221874L187.69063 26.221874L189.26875 26.221874L189.26875 35.55L187.84688 35.55ZM198.12813 32.55L199.76875 32.753124Q199.37813 34.175 198.33125 34.971874Q197.28438 35.76875 195.65938 35.76875Q193.6125 35.76875 192.40938 34.503124Q191.20625 33.2375 191.20625 30.95625Q191.20625 28.6125 192.40938 27.315624Q193.62813 26.003124 195.56563 26.003124Q197.44063 26.003124 198.62813 27.284374Q199.81563 28.55 199.81563 30.8625Q199.81563 31.003124 199.8 31.284374L192.84688 31.284374Q192.925 32.83125 193.70625 33.64375Q194.50313 34.45625 195.65938 34.45625Q196.53438 34.45625 197.14375 34.003124Q197.76875 33.55 198.12813 32.55ZM192.925 29.9875L198.14375 29.9875Q198.03438 28.815624 197.55 28.221874Q196.78438 27.3 195.58125 27.3Q194.50313 27.3 193.75313 28.034374Q193.01875 28.76875 192.925 29.9875ZM201.09688 32.76875L202.675 32.51875Q202.8 33.45625 203.39375 33.95625Q204.00313 34.45625 205.08125 34.45625Q206.175 34.45625 206.70625 34.01875Q207.2375 33.565624 207.2375 32.971874Q207.2375 32.440624 206.76875 32.128124Q206.44063 31.925 205.14375 31.596874Q203.40938 31.159374 202.7375 30.846874Q202.06563 30.51875 201.70625 29.95625Q201.3625 29.378124 201.3625 28.690624Q201.3625 28.065624 201.64375 27.534374Q201.94063 27.003124 202.425 26.659374Q202.8 26.378124 203.44063 26.190624Q204.08125 26.003124 204.8 26.003124Q205.90938 26.003124 206.7375 26.33125Q207.56563 26.64375 207.95625 27.190624Q208.3625 27.721874 208.50313 28.628124L206.95625 28.83125Q206.84688 28.1125 206.34688 27.70625Q205.84688 27.3 204.925 27.3Q203.83125 27.3 203.3625 27.659374Q202.89375 28.01875 202.89375 28.503124Q202.89375 28.815624 203.09688 29.065624Q203.28438 29.315624 203.69063 29.4875Q203.94063 29.565624 205.09688 29.89375Q206.76875 30.33125 207.425 30.628124Q208.09688 30.909374 208.47188 31.45625Q208.8625 32.003124 208.8625 32.8Q208.8625 33.596874 208.39375 34.3Q207.94063 35.003124 207.06563 35.39375Q206.19063 35.76875 205.09688 35.76875Q203.26875 35.76875 202.31563 35.01875Q201.3625 34.253124 201.09688 32.76875ZM214.19063 34.128124L214.425 35.534374Q213.75313 35.675 213.22188 35.675Q212.3625 35.675 211.87813 35.409374Q211.40938 35.128124 211.22188 34.690624Q211.03438 34.2375 211.03438 32.815624L211.03438 27.440624L209.8625 27.440624L209.8625 26.221874L211.03438 26.221874L211.03438 23.909374L212.59688 22.95625L212.59688 26.221874L214.19063 26.221874L214.19063 27.440624L212.59688 27.440624L212.59688 32.909374Q212.59688 33.58125 212.675 33.784374Q212.76875 33.971874 212.95625 34.08125Q213.14375 34.190624 213.50313 34.190624Q213.75313 34.190624 214.19063 34.128124ZM215.09688 32.76875L216.675 32.51875Q216.8 33.45625 217.39375 33.95625Q218.00313 34.45625 219.08125 34.45625Q220.175 34.45625 220.70625 34.01875Q221.2375 33.565624 221.2375 32.971874Q221.2375 32.440624 220.76875 32.128124Q220.44063 31.925 219.14375 31.596874Q217.40938 31.159374 216.7375 30.846874Q216.06563 30.51875 215.70625 29.95625Q215.3625 29.378124 215.3625 28.690624Q215.3625 28.065624 215.64375 27.534374Q215.94063 27.003124 216.425 26.659374Q216.8 26.378124 217.44063 26.190624Q218.08125 26.003124 218.8 26.003124Q219.90938 26.003124 220.7375 26.33125Q221.56563 26.64375 221.95625 27.190624Q222.3625 27.721874 222.50313 28.628124L220.95625 28.83125Q220.84688 28.1125 220.34688 27.70625Q219.84688 27.3 218.925 27.3Q217.83125 27.3 217.3625 27.659374Q216.89375 28.01875 216.89375 28.503124Q216.89375 28.815624 217.09688 29.065624Q217.28438 29.315624 217.69063 29.4875Q217.94063 29.565624 219.09688 29.89375Q220.76875 30.33125 221.425 30.628124Q222.09688 30.909374 222.47188 31.45625Q222.8625 32.003124 222.8625 32.8Q222.8625 33.596874 222.39375 34.3Q221.94063 35.003124 221.06563 35.39375Q220.19063 35.76875 219.09688 35.76875Q217.26875 35.76875 216.31563 35.01875Q215.3625 34.253124 215.09688 32.76875ZM223.55 35.76875L227.28438 22.440624L228.55 22.440624L224.83125 35.76875L223.55 35.76875ZM229.09688 32.76875L230.675 32.51875Q230.8 33.45625 231.39375 33.95625Q232.00313 34.45625 233.08125 34.45625Q234.175 34.45625 234.70625 34.01875Q235.2375 33.565624 235.2375 32.971874Q235.2375 32.440624 234.76875 32.128124Q234.44063 31.925 233.14375 31.596874Q231.40938 31.159374 230.7375 30.846874Q230.06563 30.51875 229.70625 29.95625Q229.3625 29.378124 229.3625 28.690624Q229.3625 28.065624 229.64375 27.534374Q229.94063 27.003124 230.425 26.659374Q230.8 26.378124 231.44063 26.190624Q232.08125 26.003124 232.8 26.003124Q233.90938 26.003124 234.7375 26.33125Q235.56563 26.64375 235.95625 27.190624Q236.3625 27.721874 236.50313 28.628124L234.95625 28.83125Q234.84688 28.1125 234.34688 27.70625Q233.84688 27.3 232.925 27.3Q231.83125 27.3 231.3625 27.659374Q230.89375 28.01875 230.89375 28.503124Q230.89375 28.815624 231.09688 29.065624Q231.28438 29.315624 231.69063 29.4875Q231.94063 29.565624 233.09688 29.89375Q234.76875 30.33125 235.425 30.628124Q236.09688 30.909374 236.47188 31.45625Q236.8625 32.003124 236.8625 32.8Q236.8625 33.596874 236.39375 34.3Q235.94063 35.003124 235.06563 35.39375Q234.19063 35.76875 233.09688 35.76875Q231.26875 35.76875 230.31563 35.01875Q229.3625 34.253124 229.09688 32.76875ZM245.12813 32.55L246.76875 32.753124Q246.37813 34.175 245.33125 34.971874Q244.28438 35.76875 242.65938 35.76875Q240.6125 35.76875 239.40938 34.503124Q238.20625 33.2375 238.20625 30.95625Q238.20625 28.6125 239.40938 27.315624Q240.62813 26.003124 242.56563 26.003124Q244.44063 26.003124 245.62813 27.284374Q246.81563 28.55 246.81563 30.8625Q246.81563 31.003124 246.8 31.284374L239.84688 31.284374Q239.925 32.83125 240.70625 33.64375Q241.50313 34.45625 242.65938 34.45625Q243.53438 34.45625 244.14375 34.003124Q244.76875 33.55 245.12813 32.55ZM239.925 29.9875L245.14375 29.9875Q245.03438 28.815624 244.55 28.221874Q243.78438 27.3 242.58125 27.3Q241.50313 27.3 240.75313 28.034374Q240.01875 28.76875 239.925 29.9875ZM254.83125 32.128124L256.3781 32.33125Q256.1281 33.940624 255.08125 34.8625Q254.03438 35.76875 252.50313 35.76875Q250.58125 35.76875 249.40938 34.51875Q248.25313 33.253124 248.25313 30.925Q248.25313 29.409374 248.75313 28.284374Q249.25313 27.14375 250.26875 26.58125Q251.3 26.003124 252.50313 26.003124Q254.03438 26.003124 254.9875 26.784374Q255.95625 27.55 256.2375 28.95625L254.69063 29.190624Q254.47188 28.253124 253.90938 27.784374Q253.3625 27.3 252.56563 27.3Q251.37813 27.3 250.62813 28.159374Q249.87813 29.01875 249.87813 30.878124Q249.87813 32.753124 250.59688 33.6125Q251.31563 34.45625 252.4875 34.45625Q253.40938 34.45625 254.03438 33.89375Q254.65938 33.315624 254.83125 32.128124ZM258.14374 35.55L258.14374 33.753124L259.95624 33.753124L259.95624 35.55Q259.95624 36.55 259.59686 37.159374Q259.2531 37.76875 258.4875 38.096874L258.05 37.425Q258.55 37.20625 258.78436 36.76875Q259.01874 36.346874 259.05 35.55L258.14374 35.55ZM267.09686 32.76875L268.675 32.51875Q268.8 33.45625 269.39374 33.95625Q270.0031 34.45625 271.08124 34.45625Q272.175 34.45625 272.70624 34.01875Q273.2375 33.565624 273.2375 32.971874Q273.2375 32.440624 272.76874 32.128124Q272.4406 31.925 271.14374 31.596874Q269.40936 31.159374 268.7375 30.846874Q268.0656 30.51875 267.70624 29.95625Q267.3625 29.378124 267.3625 28.690624Q267.3625 28.065624 267.64374 27.534374Q267.9406 27.003124 268.425 26.659374Q268.8 26.378124 269.4406 26.190624Q270.08124 26.003124 270.8 26.003124Q271.90936 26.003124 272.7375 26.33125Q273.5656 26.64375 273.95624 27.190624Q274.3625 27.721874 274.5031 28.628124L272.95624 28.83125Q272.84686 28.1125 272.34686 27.70625Q271.84686 27.3 270.925 27.3Q269.83124 27.3 269.3625 27.659374Q268.89374 28.01875 268.89374 28.503124Q268.89374 28.815624 269.09686 29.065624Q269.28436 29.315624 269.6906 29.4875Q269.9406 29.565624 271.09686 29.89375Q272.76874 30.33125 273.425 30.628124Q274.09686 30.909374 274.47186 31.45625Q274.8625 32.003124 274.8625 32.8Q274.8625 33.596874 274.39374 34.3Q273.9406 35.003124 273.0656 35.39375Q272.1906 35.76875 271.09686 35.76875Q269.26874 35.76875 268.3156 35.01875Q267.3625 34.253124 267.09686 32.76875ZM276.70624 35.55L276.70624 22.659374L278.28436 22.659374L278.28436 35.55L276.70624 35.55ZM287.1281 32.55L288.76874 32.753124Q288.3781 34.175 287.33124 34.971874Q286.28436 35.76875 284.65936 35.76875Q282.6125 35.76875 281.40936 34.503124Q280.20624 33.2375 280.20624 30.95625Q280.20624 28.6125 281.40936 27.315624Q282.6281 26.003124 284.5656 26.003124Q286.4406 26.003124 287.6281 27.284374Q288.8156 28.55 288.8156 30.8625Q288.8156 31.003124 288.8 31.284374L281.84686 31.284374Q281.925 32.83125 282.70624 33.64375Q283.5031 34.45625 284.65936 34.45625Q285.53436 34.45625 286.14374 34.003124Q286.76874 33.55 287.1281 32.55ZM281.925 29.9875L287.14374 29.9875Q287.03436 28.815624 286.55 28.221874Q285.78436 27.3 284.58124 27.3Q283.5031 27.3 282.7531 28.034374Q282.01874 28.76875 281.925 29.9875ZM297.1281 32.55L298.76874 32.753124Q298.3781 34.175 297.33124 34.971874Q296.28436 35.76875 294.65936 35.76875Q292.6125 35.76875 291.40936 34.503124Q290.20624 33.2375 290.20624 30.95625Q290.20624 28.6125 291.40936 27.315624Q292.6281 26.003124 294.5656 26.003124Q296.4406 26.003124 297.6281 27.284374Q298.8156 28.55 298.8156 30.8625Q298.8156 31.003124 298.8 31.284374L291.84686 31.284374Q291.925 32.83125 292.70624 33.64375Q293.5031 34.45625 294.65936 34.45625Q295.53436 34.45625 296.14374 34.003124Q296.76874 33.55 297.1281 32.55ZM291.925 29.9875L297.14374 29.9875Q297.03436 28.815624 296.55 28.221874Q295.78436 27.3 294.58124 27.3Q293.5031 27.3 292.7531 28.034374Q292.01874 28.76875 291.925 29.9875ZM300.7375 39.128124L300.7375 26.221874L302.175 26.221874L302.175 27.425Q302.6906 26.721874 303.33124 26.3625Q303.97186 26.003124 304.8781 26.003124Q306.08124 26.003124 306.9875 26.628124Q307.90936 27.2375 308.3781 28.3625Q308.84686 29.471874 308.84686 30.815624Q308.84686 32.2375 308.33124 33.39375Q307.8156 34.534374 306.83124 35.159374Q305.84686 35.76875 304.76874 35.76875Q303.9875 35.76875 303.34686 35.440624Q302.72186 35.096874 302.3156 34.58125L302.3156 39.128124L300.7375 39.128124ZM302.175 30.940624Q302.175 32.7375 302.89374 33.596874Q303.6281 34.45625 304.65936 34.45625Q305.72186 34.45625 306.47186 33.565624Q307.22186 32.675 307.22186 30.8Q307.22186 29.01875 306.4875 28.128124Q305.7531 27.2375 304.7375 27.2375Q303.72186 27.2375 302.9406 28.190624Q302.175 29.128124 302.175 30.940624ZM321.83124 32.128124L323.3781 32.33125Q323.1281 33.940624 322.08124 34.8625Q321.03436 35.76875 319.5031 35.76875Q317.58124 35.76875 316.40936 34.51875Q315.2531 33.253124 315.2531 30.925Q315.2531 29.409374 315.7531 28.284374Q316.2531 27.14375 317.26874 26.58125Q318.3 26.003124 319.5031 26.003124Q321.03436 26.003124 321.9875 26.784374Q322.95624 27.55 323.2375 28.95625L321.6906 29.190624Q321.47186 28.253124 320.90936 27.784374Q320.3625 27.3 319.5656 27.3Q318.3781 27.3 317.6281 28.159374Q316.8781 29.01875 316.8781 30.878124Q316.8781 32.753124 317.59686 33.6125Q318.3156 34.45625 319.4875 34.45625Q320.40936 34.45625 321.03436 33.89375Q321.65936 33.315624 321.83124 32.128124ZM324.14374 30.878124Q324.14374 28.284374 325.59686 27.034374Q326.8 26.003124 328.51874 26.003124Q330.45624 26.003124 331.675 27.26875Q332.89374 28.534374 332.89374 30.753124Q332.89374 32.55 332.34686 33.58125Q331.8156 34.6125 330.78436 35.190624Q329.7531 35.76875 328.51874 35.76875Q326.5656 35.76875 325.34686 34.51875Q324.14374 33.253124 324.14374 30.878124ZM325.76874 30.878124Q325.76874 32.675 326.55 33.565624Q327.33124 34.45625 328.51874 34.45625Q329.70624 34.45625 330.4875 33.565624Q331.26874 32.659374 331.26874 30.83125Q331.26874 29.096874 330.47186 28.20625Q329.6906 27.315624 328.51874 27.315624Q327.33124 27.315624 326.55 28.20625Q325.76874 29.096874 325.76874 30.878124ZM334.7375 35.55L334.7375 26.221874L336.15936 26.221874L336.15936 27.51875Q336.59686 26.846874 337.3156 26.425Q338.05 26.003124 338.9875 26.003124Q340.01874 26.003124 340.675 26.440624Q341.34686 26.8625 341.6125 27.64375Q342.72186 26.003124 344.5031 26.003124Q345.89374 26.003124 346.6281 26.784374Q347.3781 27.55 347.3781 29.14375L347.3781 35.55L345.8156 35.55L345.8156 29.675Q345.8156 28.721874 345.65936 28.3Q345.5031 27.878124 345.09686 27.628124Q344.6906 27.378124 344.14374 27.378124Q343.15936 27.378124 342.5031 28.034374Q341.8625 28.690624 341.8625 30.128124L341.8625 35.55L340.28436 35.55L340.28436 29.4875Q340.28436 28.425 339.89374 27.909374Q339.5031 27.378124 338.6281 27.378124Q337.95624 27.378124 337.39374 27.7375Q336.83124 28.08125 336.5656 28.753124Q336.3156 29.425 336.3156 30.70625L336.3156 35.55L334.7375 35.55ZM348.7375 35.55L348.7375 26.221874L350.15936 26.221874L350.15936 27.51875Q350.59686 26.846874 351.3156 26.425Q352.05 26.003124 352.9875 26.003124Q354.01874 26.003124 354.675 26.440624Q355.34686 26.8625 355.6125 27.64375Q356.72186 26.003124 358.5031 26.003124Q359.89374 26.003124 360.6281 26.784374Q361.3781 27.55 361.3781 29.14375L361.3781 35.55L359.8156 35.55L359.8156 29.675Q359.8156 28.721874 359.65936 28.3Q359.5031 27.878124 359.09686 27.628124Q358.6906 27.378124 358.14374 27.378124Q357.15936 27.378124 356.5031 28.034374Q355.8625 28.690624 355.8625 30.128124L355.8625 35.55L354.28436 35.55L354.28436 29.4875Q354.28436 28.425 353.89374 27.909374Q353.5031 27.378124 352.6281 27.378124Q351.95624 27.378124 351.39374 27.7375Q350.83124 28.08125 350.5656 28.753124Q350.3156 29.425 350.3156 30.70625L350.3156 35.55L348.7375 35.55ZM369.1281 32.55L370.76874 32.753124Q370.3781 34.175 369.33124 34.971874Q368.28436 35.76875 366.65936 35.76875Q364.6125 35.76875 363.40936 34.503124Q362.20624 33.2375 362.20624 30.95625Q362.20624 28.6125 363.40936 27.315624Q364.6281 26.003124 366.5656 26.003124Q368.4406 26.003124 369.6281 27.284374Q370.8156 28.55 370.8156 30.8625Q370.8156 31.003124 370.8 31.284374L363.84686 31.284374Q363.925 32.83125 364.70624 33.64375Q365.5031 34.45625 366.65936 34.45625Q367.53436 34.45625 368.14374 34.003124Q368.76874 33.55 369.1281 32.55ZM363.925 29.9875L369.14374 29.9875Q369.03436 28.815624 368.55 28.221874Q367.78436 27.3 366.58124 27.3Q365.5031 27.3 364.7531 28.034374Q364.01874 28.76875 363.925 29.9875ZM372.7375 35.55L372.7375 26.221874L374.15936 26.221874L374.15936 27.55Q375.1906 26.003124 377.1281 26.003124Q377.97186 26.003124 378.675 26.315624Q379.39374 26.6125 379.7375 27.1125Q380.09686 27.596874 380.2375 28.26875Q380.3156 28.70625 380.3156 29.815624L380.3156 35.55L378.7375 35.55L378.7375 29.878124Q378.7375 28.909374 378.55 28.425Q378.3781 27.940624 377.89374 27.659374Q377.425 27.378124 376.8 27.378124Q375.78436 27.378124 375.05 28.01875Q374.3156 28.659374 374.3156 30.45625L374.3156 35.55L372.7375 35.55ZM386.1906 34.128124L386.425 35.534374Q385.7531 35.675 385.22186 35.675Q384.3625 35.675 383.8781 35.409374Q383.40936 35.128124 383.22186 34.690624Q383.03436 34.2375 383.03436 32.815624L383.03436 27.440624L381.8625 27.440624L381.8625 26.221874L383.03436 26.221874L383.03436 23.909374L384.59686 22.95625L384.59686 26.221874L386.1906 26.221874L386.1906 27.440624L384.59686 27.440624L384.59686 32.909374Q384.59686 33.58125 384.675 33.784374Q384.76874 33.971874 384.95624 34.08125Q385.14374 34.190624 385.5031 34.190624Q385.7531 34.190624 386.1906 34.128124ZM394.1281 32.55L395.76874 32.753124Q395.3781 34.175 394.33124 34.971874Q393.28436 35.76875 391.65936 35.76875Q389.6125 35.76875 388.40936 34.503124Q387.20624 33.2375 387.20624 30.95625Q387.20624 28.6125 388.40936 27.315624Q389.6281 26.003124 391.5656 26.003124Q393.4406 26.003124 394.6281 27.284374Q395.8156 28.55 395.8156 30.8625Q395.8156 31.003124 395.8 31.284374L388.84686 31.284374Q388.925 32.83125 389.70624 33.64375Q390.5031 34.45625 391.65936 34.45625Q392.53436 34.45625 393.14374 34.003124Q393.76874 33.55 394.1281 32.55ZM388.925 29.9875L394.14374 29.9875Q394.03436 28.815624 393.55 28.221874Q392.78436 27.3 391.58124 27.3Q390.5031 27.3 389.7531 28.034374Q389.01874 28.76875 388.925 29.9875ZM403.8 35.55L403.8 34.378124Q402.90936 35.76875 401.175 35.76875Q400.0656 35.76875 399.1281 35.159374Q398.1906 34.534374 397.675 33.440624Q397.15936 32.33125 397.15936 30.89375Q397.15936 29.4875 397.6281 28.3625Q398.09686 27.221874 399.01874 26.6125Q399.95624 26.003124 401.1125 26.003124Q401.95624 26.003124 402.6125 26.3625Q403.26874 26.721874 403.6906 27.284374L403.6906 22.659374L405.2531 22.659374L405.2531 35.55L403.8 35.55ZM398.78436 30.89375Q398.78436 32.690624 399.53436 33.58125Q400.3 34.45625 401.33124 34.45625Q402.3625 34.45625 403.08124 33.6125Q403.8156 32.76875 403.8156 31.01875Q403.8156 29.1125 403.08124 28.221874Q402.34686 27.315624 401.26874 27.315624Q400.20624 27.315624 399.4875 28.175Q398.78436 29.034374 398.78436 30.89375ZM412.14374 30.878124Q412.14374 28.284374 413.59686 27.034374Q414.8 26.003124 416.51874 26.003124Q418.45624 26.003124 419.675 27.26875Q420.89374 28.534374 420.89374 30.753124Q420.89374 32.55 420.34686 33.58125Q419.8156 34.6125 418.78436 35.190624Q417.7531 35.76875 416.51874 35.76875Q414.5656 35.76875 413.34686 34.51875Q412.14374 33.253124 412.14374 30.878124ZM413.76874 30.878124Q413.76874 32.675 414.55 33.565624Q415.33124 34.45625 416.51874 34.45625Q417.70624 34.45625 418.4875 33.565624Q419.26874 32.659374 419.26874 30.83125Q419.26874 29.096874 418.47186 28.20625Q417.6906 27.315624 416.51874 27.315624Q415.33124 27.315624 414.55 28.20625Q413.76874 29.096874 413.76874 30.878124ZM428.84686 35.55L428.84686 34.175Q427.76874 35.76875 425.89374 35.76875Q425.0656 35.76875 424.34686 35.45625Q423.6281 35.128124 423.28436 34.659374Q422.9406 34.175 422.8 33.471874Q422.70624 33.003124 422.70624 32.003124L422.70624 26.221874L424.28436 26.221874L424.28436 31.39375Q424.28436 32.628124 424.3781 33.065624Q424.53436 33.690624 425.01874 34.05Q425.5031 34.39375 426.20624 34.39375Q426.925 34.39375 427.55 34.034374Q428.175 33.675 428.425 33.05Q428.6906 32.409374 428.6906 31.221874L428.6906 26.221874L430.26874 26.221874L430.26874 35.55L428.84686 35.55ZM436.1906 34.128124L436.425 35.534374Q435.7531 35.675 435.22186 35.675Q434.3625 35.675 433.8781 35.409374Q433.40936 35.128124 433.22186 34.690624Q433.03436 34.2375 433.03436 32.815624L433.03436 27.440624L431.8625 27.440624L431.8625 26.221874L433.03436 26.221874L433.03436 23.909374L434.59686 22.95625L434.59686 26.221874L436.1906 26.221874L436.1906 27.440624L434.59686 27.440624L434.59686 32.909374Q434.59686 33.58125 434.675 33.784374Q434.76874 33.971874 434.95624 34.08125Q435.14374 34.190624 435.5031 34.190624Q435.7531 34.190624 436.1906 34.128124ZM438.14374 35.55L438.14374 33.753124L439.95624 33.753124L439.95624 35.55Q439.95624 36.55 439.59686 37.159374Q439.2531 37.76875 438.4875 38.096874L438.05 37.425Q438.55 37.20625 438.78436 36.76875Q439.01874 36.346874 439.05 35.55L438.14374 35.55ZM447.7375 35.55L447.7375 26.221874L449.15936 26.221874L449.15936 27.55Q450.1906 26.003124 452.1281 26.003124Q452.97186 26.003124 453.675 26.315624Q454.39374 26.6125 454.7375 27.1125Q455.09686 27.596874 455.2375 28.26875Q455.3156 28.70625 455.3156 29.815624L455.3156 35.55L453.7375 35.55L453.7375 29.878124Q453.7375 28.909374 453.55 28.425Q453.3781 27.940624 452.89374 27.659374Q452.425 27.378124 451.8 27.378124Q450.78436 27.378124 450.05 28.01875Q449.3156 28.659374 449.3156 30.45625L449.3156 35.55L447.7375 35.55ZM457.14374 30.878124Q457.14374 28.284374 458.59686 27.034374Q459.8 26.003124 461.51874 26.003124Q463.45624 26.003124 464.675 27.26875Q465.89374 28.534374 465.89374 30.753124Q465.89374 32.55 465.34686 33.58125Q464.8156 34.6125 463.78436 35.190624Q462.7531 35.76875 461.51874 35.76875Q459.5656 35.76875 458.34686 34.51875Q457.14374 33.253124 457.14374 30.878124ZM458.76874 30.878124Q458.76874 32.675 459.55 33.565624Q460.33124 34.45625 461.51874 34.45625Q462.70624 34.45625 463.4875 33.565624Q464.26874 32.659374 464.26874 30.83125Q464.26874 29.096874 463.47186 28.20625Q462.6906 27.315624 461.51874 27.315624Q460.33124 27.315624 459.55 28.20625Q458.76874 29.096874 458.76874 30.878124ZM472.7531 35.55L472.7531 22.659374L474.33124 22.659374L474.33124 30.01875L478.0656 26.221874L480.1125 26.221874L476.55 29.675L480.4875 35.55L478.53436 35.55L475.4406 30.784374L474.33124 31.846874L474.33124 35.55L472.7531 35.55ZM488.1281 32.55L489.76874 32.753124Q489.3781 34.175 488.33124 34.971874Q487.28436 35.76875 485.65936 35.76875Q483.6125 35.76875 482.40936 34.503124Q481.20624 33.2375 481.20624 30.95625Q481.20624 28.6125 482.40936 27.315624Q483.6281 26.003124 485.5656 26.003124Q487.4406 26.003124 488.6281 27.284374Q489.8156 28.55 489.8156 30.8625Q489.8156 31.003124 489.8 31.284374L482.84686 31.284374Q482.925 32.83125 483.70624 33.64375Q484.5031 34.45625 485.65936 34.45625Q486.53436 34.45625 487.14374 34.003124Q487.76874 33.55 488.1281 32.55ZM482.925 29.9875L488.14374 29.9875Q488.03436 28.815624 487.55 28.221874Q486.78436 27.3 485.58124 27.3Q484.5031 27.3 483.7531 28.034374Q483.01874 28.76875 482.925 29.9875ZM498.1281 32.55L499.76874 32.753124Q499.3781 34.175 498.33124 34.971874Q497.28436 35.76875 495.65936 35.76875Q493.6125 35.76875 492.40936 34.503124Q491.20624 33.2375 491.20624 30.95625Q491.20624 28.6125 492.40936 27.315624Q493.6281 26.003124 495.5656 26.003124Q497.4406 26.003124 498.6281 27.284374Q499.8156 28.55 499.8156 30.8625Q499.8156 31.003124 499.8 31.284374L492.84686 31.284374Q492.925 32.83125 493.70624 33.64375Q494.5031 34.45625 495.65936 34.45625Q496.53436 34.45625 497.14374 34.003124Q497.76874 33.55 498.1281 32.55ZM492.925 29.9875L498.14374 29.9875Q498.03436 28.815624 497.55 28.221874Q496.78436 27.3 495.58124 27.3Q494.5031 27.3 493.7531 28.034374Q493.01874 28.76875 492.925 29.9875ZM501.7375 39.128124L501.7375 26.221874L503.175 26.221874L503.175 27.425Q503.6906 26.721874 504.33124 26.3625Q504.97186 26.003124 505.8781 26.003124Q507.08124 26.003124 507.9875 26.628124Q508.90936 27.2375 509.3781 28.3625Q509.84686 29.471874 509.84686 30.815624Q509.84686 32.2375 509.33124 33.39375Q508.8156 34.534374 507.83124 35.159374Q506.84686 35.76875 505.76874 35.76875Q504.9875 35.76875 504.34686 35.440624Q503.72186 35.096874 503.3156 34.58125L503.3156 39.128124L501.7375 39.128124ZM503.175 30.940624Q503.175 32.7375 503.89374 33.596874Q504.6281 34.45625 505.65936 34.45625Q506.72186 34.45625 507.47186 33.565624Q508.22186 32.675 508.22186 30.8Q508.22186 29.01875 507.4875 28.128124Q506.7531 27.2375 505.7375 27.2375Q504.72186 27.2375 503.9406 28.190624Q503.175 29.128124 503.175 30.940624ZM511.1281 31.675L511.1281 30.096874L515.9875 30.096874L515.9875 31.675L511.1281 31.675ZM523.83124 34.39375Q522.95624 35.14375 522.1281 35.45625Q521.3156 35.76875 520.39374 35.76875Q518.84686 35.76875 518.01874 35.01875Q517.20624 34.253124 517.20624 33.08125Q517.20624 32.409374 517.51874 31.846874Q517.83124 31.26875 518.33124 30.925Q518.83124 30.58125 519.47186 30.409374Q519.9406 30.284374 520.8781 30.175Q522.78436 29.940624 523.6906 29.628124Q523.70624 29.3 523.70624 29.20625Q523.70624 28.253124 523.2531 27.846874Q522.64374 27.315624 521.45624 27.315624Q520.33124 27.315624 519.8 27.70625Q519.26874 28.096874 519.01874 29.096874L517.47186 28.878124Q517.6906 27.878124 518.15936 27.26875Q518.64374 26.659374 519.55 26.33125Q520.47186 26.003124 521.6906 26.003124Q522.8781 26.003124 523.6281 26.284374Q524.3781 26.565624 524.72186 27.003124Q525.08124 27.425 525.22186 28.065624Q525.3 28.471874 525.3 29.534374L525.3 31.64375Q525.3 33.846874 525.39374 34.440624Q525.5031 35.01875 525.8 35.55L524.14374 35.55Q523.89374 35.05 523.83124 34.39375ZM523.6906 30.8625Q522.83124 31.221874 521.1125 31.45625Q520.14374 31.596874 519.7375 31.784374Q519.33124 31.95625 519.1125 32.3Q518.89374 32.628124 518.89374 33.05Q518.89374 33.675 519.3625 34.096874Q519.84686 34.51875 520.76874 34.51875Q521.6906 34.51875 522.39374 34.128124Q523.1125 33.721874 523.4406 33.034374Q523.6906 32.4875 523.6906 31.440624L523.6906 30.8625ZM527.70624 35.55L527.70624 22.659374L529.28436 22.659374L529.28436 35.55L527.70624 35.55ZM531.7531 24.4875L531.7531 22.659374L533.33124 22.659374L533.33124 24.4875L531.7531 24.4875ZM531.7531 35.55L531.7531 26.221874L533.33124 26.221874L533.33124 35.55L531.7531 35.55ZM538.33124 35.55L534.78436 26.221874L536.45624 26.221874L538.45624 31.8Q538.78436 32.70625 539.05 33.690624Q539.26874 32.940624 539.64374 31.909374L541.70624 26.221874L543.34686 26.221874L539.8 35.55L538.33124 35.55ZM551.1281 32.55L552.76874 32.753124Q552.3781 34.175 551.33124 34.971874Q550.28436 35.76875 548.65936 35.76875Q546.6125 35.76875 545.40936 34.503124Q544.20624 33.2375 544.20624 30.95625Q544.20624 28.6125 545.40936 27.315624Q546.6281 26.003124 548.5656 26.003124Q550.4406 26.003124 551.6281 27.284374Q552.8156 28.55 552.8156 30.8625Q552.8156 31.003124 552.8 31.284374L545.84686 31.284374Q545.925 32.83125 546.70624 33.64375Q547.5031 34.45625 548.65936 34.45625Q549.53436 34.45625 550.14374 34.003124Q550.76874 33.55 551.1281 32.55ZM545.925 29.9875L551.14374 29.9875Q551.03436 28.815624 550.55 28.221874Q549.78436 27.3 548.58124 27.3Q547.5031 27.3 546.7531 28.034374Q546.01874 28.76875 545.925 29.9875ZM555.14374 35.55L555.14374 33.753124L556.95624 33.753124L556.95624 35.55Q556.95624 36.55 556.59686 37.159374Q556.2531 37.76875 555.4875 38.096874L555.05 37.425Q555.55 37.20625 555.78436 36.76875Q556.01874 36.346874 556.05 35.55L555.14374 35.55Z" fill-rule="nonzero"/><path fill="#757575" d="M19.7375 57.55L19.7375 44.659374L21.315624 44.659374L21.315624 49.284374Q22.425 48.003124 24.1125 48.003124Q25.14375 48.003124 25.909374 48.409374Q26.675 48.815624 27.003124 49.55Q27.346874 50.26875 27.346874 51.628124L27.346874 57.55L25.753124 57.55L25.753124 51.628124Q25.753124 50.440624 25.2375 49.909374Q24.721874 49.3625 23.784374 49.3625Q23.08125 49.3625 22.45625 49.7375Q21.846874 50.096874 21.58125 50.721874Q21.315624 51.346874 21.315624 52.440624L21.315624 57.55L19.7375 57.55ZM29.753124 46.4875L29.753124 44.659374L31.33125 44.659374L31.33125 46.4875L29.753124 46.4875ZM29.753124 57.55L29.753124 48.221874L31.33125 48.221874L31.33125 57.55L29.753124 57.55ZM33.440624 58.33125L34.9875 58.55Q35.08125 59.26875 35.51875 59.596874Q36.1125 60.034374 37.128124 60.034374Q38.221874 60.034374 38.815624 59.58125Q39.425 59.14375 39.628124 58.3625Q39.753124 57.878124 39.753124 56.33125Q38.70625 57.55 37.159374 57.55Q35.2375 57.55 34.175 56.159374Q33.128124 54.76875 33.128124 52.83125Q33.128124 51.4875 33.6125 50.3625Q34.096874 49.2375 35.01875 48.628124Q35.940624 48.003124 37.175 48.003124Q38.83125 48.003124 39.89375 49.346874L39.89375 48.221874L41.3625 48.221874L41.3625 56.284374Q41.3625 58.471874 40.909374 59.378124Q40.471874 60.284374 39.503124 60.8Q38.55 61.33125 37.14375 61.33125Q35.471874 61.33125 34.440624 60.58125Q33.409374 59.83125 33.440624 58.33125ZM34.753124 52.721874Q34.753124 54.55 35.4875 55.39375Q36.221874 56.2375 37.315624 56.2375Q38.409374 56.2375 39.14375 55.409374Q39.878124 54.565624 39.878124 52.76875Q39.878124 51.05 39.1125 50.190624Q38.3625 49.315624 37.284374 49.315624Q36.2375 49.315624 35.4875 50.175Q34.753124 51.034374 34.753124 52.721874ZM43.7375 57.55L43.7375 44.659374L45.315624 44.659374L45.315624 49.284374Q46.425 48.003124 48.1125 48.003124Q49.14375 48.003124 49.909374 48.409374Q50.675 48.815624 51.003124 49.55Q51.346874 50.26875 51.346874 51.628124L51.346874 57.55L49.753124 57.55L49.753124 51.628124Q49.753124 50.440624 49.2375 49.909374Q48.721874 49.3625 47.784374 49.3625Q47.08125 49.3625 46.45625 49.7375Q45.846874 50.096874 45.58125 50.721874Q45.315624 51.346874 45.315624 52.440624L45.315624 57.55L43.7375 57.55ZM60.128124 54.55L61.76875 54.753124Q61.378124 56.175 60.33125 56.971874Q59.284374 57.76875 57.659374 57.76875Q55.6125 57.76875 54.409374 56.503124Q53.20625 55.2375 53.20625 52.95625Q53.20625 50.6125 54.409374 49.315624Q55.628124 48.003124 57.565624 48.003124Q59.440624 48.003124 60.628124 49.284374Q61.815624 50.55 61.815624 52.8625Q61.815624 53.003124 61.8 53.284374L54.846874 53.284374Q54.925 54.83125 55.70625 55.64375Q56.503124 56.45625 57.659374 56.45625Q58.534374 56.45625 59.14375 56.003124Q59.76875 55.55 60.128124 54.55ZM54.925 51.9875L60.14375 51.9875Q60.034374 50.815624 59.55 50.221874Q58.784374 49.3 57.58125 49.3Q56.503124 49.3 55.753124 50.034374Q55.01875 50.76875 54.925 51.9875ZM63.721874 57.55L63.721874 48.221874L65.14375 48.221874L65.14375 49.628124Q65.69063 48.64375 66.14375 48.33125Q66.6125 48.003124 67.15938 48.003124Q67.97188 48.003124 68.78438 48.51875L68.25313 49.9875Q67.65938 49.64375 67.08125 49.64375Q66.56563 49.64375 66.14375 49.95625Q65.7375 50.26875 65.56563 50.815624Q65.3 51.659374 65.3 52.659374L65.3 57.55L63.721874 57.55ZM74.75313 46.4875L74.75313 44.659374L76.33125 44.659374L76.33125 46.4875L74.75313 46.4875ZM74.75313 57.55L74.75313 48.221874L76.33125 48.221874L76.33125 57.55L74.75313 57.55ZM78.09688 54.76875L79.675 54.51875Q79.8 55.45625 80.39375 55.95625Q81.00313 56.45625 82.08125 56.45625Q83.175 56.45625 83.70625 56.01875Q84.2375 55.565624 84.2375 54.971874Q84.2375 54.440624 83.76875 54.128124Q83.44063 53.925 82.14375 53.596874Q80.40938 53.159374 79.7375 52.846874Q79.06563 52.51875 78.70625 51.95625Q78.3625 51.378124 78.3625 50.690624Q78.3625 50.065624 78.64375 49.534374Q78.94063 49.003124 79.425 48.659374Q79.8 48.378124 80.44063 48.190624Q81.08125 48.003124 81.8 48.003124Q82.90938 48.003124 83.7375 48.33125Q84.56563 48.64375 84.95625 49.190624Q85.3625 49.721874 85.50313 50.628124L83.95625 50.83125Q83.84688 50.1125 83.34688 49.70625Q82.84688 49.3 81.925 49.3Q80.83125 49.3 80.3625 49.659374Q79.89375 50.01875 79.89375 50.503124Q79.89375 50.815624 80.09688 51.065624Q80.28438 51.315624 80.69063 51.4875Q80.94063 51.565624 82.09688 51.89375Q83.76875 52.33125 84.425 52.628124Q85.09688 52.909374 85.47188 53.45625Q85.8625 54.003124 85.8625 54.8Q85.8625 55.596874 85.39375 56.3Q84.94063 57.003124 84.06563 57.39375Q83.19063 57.76875 82.09688 57.76875Q80.26875 57.76875 79.31563 57.01875Q78.3625 56.253124 78.09688 54.76875ZM94.19063 57.55L92.72188 57.55L92.72188 44.659374L94.31563 44.659374L94.31563 49.26875Q95.31563 48.003124 96.8625 48.003124Q97.72188 48.003124 98.4875 48.3625Q99.26875 48.70625 99.75313 49.33125Q100.25313 49.95625 100.53438 50.846874Q100.81563 51.7375 100.81563 52.7375Q100.81563 55.14375 99.62813 56.45625Q98.45625 57.76875 96.78438 57.76875Q95.14375 57.76875 94.19063 56.378124L94.19063 57.55ZM94.175 52.815624Q94.175 54.4875 94.62813 55.2375Q95.37813 56.45625 96.65938 56.45625Q97.69063 56.45625 98.44063 55.565624Q99.20625 54.659374 99.20625 52.878124Q99.20625 51.05 98.47188 50.175Q97.75313 49.3 96.72188 49.3Q95.69063 49.3 94.925 50.20625Q94.175 51.1125 94.175 52.815624ZM109.12813 54.55L110.76875 54.753124Q110.37813 56.175 109.33125 56.971874Q108.28438 57.76875 106.65938 57.76875Q104.6125 57.76875 103.40938 56.503124Q102.20625 55.2375 102.20625 52.95625Q102.20625 50.6125 103.40938 49.315624Q104.62813 48.003124 106.56563 48.003124Q108.44063 48.003124 109.62813 49.284374Q110.81563 50.55 110.81563 52.8625Q110.81563 53.003124 110.8 53.284374L103.84688 53.284374Q103.925 54.83125 104.70625 55.64375Q105.50313 56.45625 106.65938 56.45625Q107.53438 56.45625 108.14375 56.003124Q108.76875 55.55 109.12813 54.55ZM103.925 51.9875L109.14375 51.9875Q109.03438 50.815624 108.55 50.221874Q107.78438 49.3 106.58125 49.3Q105.50313 49.3 104.75313 50.034374Q104.01875 50.76875 103.925 51.9875ZM116.19063 56.128124L116.425 57.534374Q115.75313 57.675 115.22188 57.675Q114.3625 57.675 113.87813 57.409374Q113.40938 57.128124 113.22188 56.690624Q113.03438 56.2375 113.03438 54.815624L113.03438 49.440624L111.8625 49.440624L111.8625 48.221874L113.03438 48.221874L113.03438 45.909374L114.59688 44.95625L114.59688 48.221874L116.19063 48.221874L116.19063 49.440624L114.59688 49.440624L114.59688 54.909374Q114.59688 55.58125 114.675 55.784374Q114.76875 55.971874 114.95625 56.08125Q115.14375 56.190624 115.50313 56.190624Q115.75313 56.190624 116.19063 56.128124ZM121.19063 56.128124L121.425 57.534374Q120.75313 57.675 120.22188 57.675Q119.3625 57.675 118.87813 57.409374Q118.40938 57.128124 118.22188 56.690624Q118.03438 56.2375 118.03438 54.815624L118.03438 49.440624L116.8625 49.440624L116.8625 48.221874L118.03438 48.221874L118.03438 45.909374L119.59688 44.95625L119.59688 48.221874L121.19063 48.221874L121.19063 49.440624L119.59688 49.440624L119.59688 54.909374Q119.59688 55.58125 119.675 55.784374Q119.76875 55.971874 119.95625 56.08125Q120.14375 56.190624 120.50313 56.190624Q120.75313 56.190624 121.19063 56.128124ZM129.12813 54.55L130.76875 54.753124Q130.37813 56.175 129.33125 56.971874Q128.28438 57.76875 126.65938 57.76875Q124.6125 57.76875 123.40938 56.503124Q122.20625 55.2375 122.20625 52.95625Q122.20625 50.6125 123.40938 49.315624Q124.62813 48.003124 126.56563 48.003124Q128.44063 48.003124 129.62813 49.284374Q130.81563 50.55 130.81563 52.8625Q130.81563 53.003124 130.8 53.284374L123.84688 53.284374Q123.925 54.83125 124.70625 55.64375Q125.50313 56.45625 126.65938 56.45625Q127.53438 56.45625 128.14375 56.003124Q128.76875 55.55 129.12813 54.55ZM123.925 51.9875L129.14375 51.9875Q129.03438 50.815624 128.55 50.221874Q127.78438 49.3 126.58125 49.3Q125.50313 49.3 124.75313 50.034374Q124.01875 50.76875 123.925 51.9875ZM132.72188 57.55L132.72188 48.221874L134.14375 48.221874L134.14375 49.628124Q134.69063 48.64375 135.14375 48.33125Q135.6125 48.003124 136.15938 48.003124Q136.97188 48.003124 137.78438 48.51875L137.25313 49.9875Q136.65938 49.64375 136.08125 49.64375Q135.56563 49.64375 135.14375 49.95625Q134.7375 50.26875 134.56563 50.815624Q134.3 51.659374 134.3 52.659374L134.3 57.55L132.72188 57.55Z" fill-rule="nonzero"/></svg>